<?xml version="1.0" encoding="utf-8"?>
<!-- Generator: Adobe Illustrator 24.0.2, SVG Export Plug-In . SVG Version: 6.00 Build 0)  -->
<svg version="1.1" id="Hand_with_phone" xmlns="http://www.w3.org/2000/svg" xmlns:xlink="http://www.w3.org/1999/xlink" x="0px"
	 y="0px" viewBox="0 0 557.43 434.57" style="enable-background:new 0 0 557.43 434.57;" xml:space="preserve">
<style type="text/css">
	.st0{fill:#FFEFD9;}
	.st1{fill:#FFFFFF;}
	.st2{fill:#2181F1;}
	.st3{fill:#2735AC;}
	.st4{fill:#F73A8A;}
	.st5{fill:#FFA398;}
	.st6{fill:#2736AD;}
	.st7{fill:#0B1B57;}
	.st8{fill:#E6E6E6;}
	.st9{fill:#1BCCA3;}
	.st10{fill:#FBB03B;}
	.st11{fill:#CCCCCC;}
	.st12{fill:#CB3AF7;}
	.st13{fill:#4AB5F9;}
	.st14{fill:#FAEFEE;}
	.st15{fill:#E48CFF;}
	.st16{fill:#0081D8;}
	.st17{fill:#00B5ED;}
	.st18{fill:#2B6ED4;}
	.st19{fill:#1E64CC;}
	.st20{fill:#060E2C;}
	.st21{fill:#D5D4E0;}
	.st22{fill:#4D93FF;}
	.st23{fill:#144287;}
	.st24{fill:#13DCBE;}
	.st25{fill:#FB378F;}
	.st26{fill:#FFA39A;}
	.st27{fill:#14124F;}
	.st28{fill:#FB6CAC;}
	.st29{fill:#46FFCE;}
	.st30{fill:#FBCB81;}
</style>
<g>
	<g>
		<g>
			<path class="st0" d="M528.78,138.16c-6.26-17.56-17.76-33.84-34.17-42.71c-21.31-11.51-47.49-9.19-70.21-17.57
				c-17.53-6.46-32.08-18.93-48.07-28.59c-27.64-16.69-60.25-25.03-92.52-23.65c-67.26,2.88-125.76,45.7-190.66,63.6
				c-22.51,6.21-49.41,12.21-58.32,33.8l2.14-1.49c-4.36,7.27-6.41,16.69-6.05,25.22c0.67,16.25,6.47,32.53,3.24,48.47
				c-2.73,13.46-11.52,24.74-17.7,37.01c-15.77,31.32-13.53,70.96,5.67,100.3c19.19,29.34,54.62,47.27,89.63,45.37
				c33.2-1.8,64.23-19.92,97.48-19.6c52.07,0.49,93.58,45,144.53,55.76c53.86,11.38,110.67-18.6,142.37-63.62
				c31.7-45.01,41.65-102.17,40.75-157.21C536.56,174.61,535.05,155.72,528.78,138.16z"/>
		</g>
		<g>
			<path class="st1" d="M338.59,182.77c-1.51-0.35-3.19,0.07-4.45-0.85c-0.44-0.32-0.05-1.19-1.07-1.59c-0.42-0.17-0.76,0-1.14,0.01
				c-1.04,0.02-1.37,1.06-2.61,1.17c-1.66,0.14-3.74-1.12-3.26-2.87c0.43-1.53,3.02-1.83,3.18-3.83c0.09-1.14-1.26-3.43-2.12-3.9
				c-0.84-0.47-2.31,0.03-3.24-0.33c-1.26-0.49-1.85-1.55-2.81-2.42c-2.54-2.32-5.95-5.58-9.54-5.75c-0.9-0.04-1.83,0.34-2.81,0.04
				c-1.34-0.41-2.48-2.05-3.94-1.87c-1.83,0.22-1.61,3.61-3.98,2.64c0.47-2.23,1.02-4.22-2.1-3.71c-2.26,0.37-5.32,2.36-6.79,4.3
				l0.69,1.5l-0.21,1.92l-1.38-1.27c-0.44,2.05-0.4,4.54-1.92,5.49c-0.92,0.58-1.87,0.14-2.8,0.94c-1.03,0.89-2.16,3.33-2.2,4.6
				c-0.06,1.83,1.34,1.92,1.51,3.31c0.2,1.58-0.79,1.27-1.82,1.95c-2.9,1.93-0.83,2.34,1.22,4.24c0.92,0.86,1.79,1.69,2.22,2.88
				c0.52,1.44-0.17,2.01-0.07,3.41c0.15,2.1,2.28,3.11,3.94,4.21c1.62,1.07,5.85,2.07,6.64,3.67c0.6,1.23-0.86,4.42-1.4,5.42
				c-3.61,3.99-3.99,8.25-6.05,11.63c-2.02,3.31-1.68,6.81-3.33,10.11c-1.31,2.61-4.97,3.7-2.49,7.15c0.42,0.59,0.94,1.02,1.51,1.31
				c1.52-0.11,3.02-0.27,4.52-0.47c1.78-1.2,4.07-3.21,5.58-4.73c1.03-1.03,1.3-1.35,1.82-2.64c0.23-0.58,0.24-1.82,0.7-2.2
				c0.55-0.46,1.59-0.06,2.2-0.42c0.3-0.17,0.3-0.8,0.76-1.02c2.01-0.97,4.78,0.17,6.72-1.03c1.84-1.13,0.85-1.68,1.64-3.25
				c0.61-1.22,1.79-1.09,3.12-1.41c2.75-0.67,3.2-1.58,5.16-3.42c2.12-1.98,5-3.05,7.54-4.46c2.82-1.56,4.78-3.79,7.25-5.81
				c2.4-1.97,3.68-2.84,4.64-5.83c1.59-4.96,6.69-7.57,6.25-13.19C340.94,185.9,341.61,183.47,338.59,182.77z"/>
		</g>
		<g>
			<g>
				<path class="st2" d="M343.44,96.7c-0.25,0.27-0.06,1.23-0.41,1.53c-1.05,0.9-3-0.18-3.86-0.72c-2.91-1.83-4.5-5.1-7.38-6.98
					c-0.76-0.5-2.93-1.13-1.15-1.99c-0.71-1.8-3.69-3.79-5.55-4.04c0.13-4.12-1.14-2.88-4.76-4.03c-2.89-0.92-6.12-3.88-10.64-4.26
					c-1.57,0.03-2.29-1.66-3.23-2.69c1.39-0.75,4.29,0.08,6.06-0.12c1.74-0.2,3.37-0.41,5.19-0.27c1.12,0.08,2.86,0.07,4.21,0.32
					c-9.7-5.55-20.65-9.23-32.42-10.52c-21.15-2.31-41.36,3.51-57.63,14.99c3.13-0.8,5.91-0.76,7.5-0.58
					c2.06,0.22,7.63,1.27,7.56-0.62c-0.07-1.89-0.15-2.45-2.22-2.54c-2.07-0.09-6.78-0.18-2.82-2.11c3.96-1.93,8.19-1.33,9.68-1.02
					c1.49,0.3,5.27-1.23,7.31-2.12c2.04-0.89,7.32-2.25,4.01,1.41c-3.31,3.66-6.36,7.43-6.36,7.43s-5.27,2.54,0.94,1.55
					c3.83-0.61,6.24-1.79,8.53-2.25c-3.22-0.65-5.71-1.69-5.66-3.36c2.6-0.89,5.93,0.94,8.67,0.71c1.49-0.12,2.85-0.84,4.43-0.86
					c2.64-0.04,5.36,0.74,7.89,1.38c1.71,0.43,4.8,1.9,6.26,0.32c-1.4-1.6-3.28-3.24-5.06-4.4c-2.44-1.58-7.85-0.97-8.91-3.62
					c2.24-0.34,4.18-0.95,6.5-0.71c3.69,0.38,7.38,0.81,11.06,1.21c4.32,0.47,10.28,0.02,14.25,1.97c1.3,2.41-0.74,1.53-2.62,1.45
					c-3.95-0.15-9.75,0.14-13.33,1.79c3.6,1.79-0.65,4.22-0.51,6.53c-1.52,0.65-3.52,0.28-5.15,0.39c1.45,0.78,3.1,1.11,4.57,1.85
					c-2,0.31-3.95,0.95-5.96,1.16c0.06-0.08,0.12-0.15,0.18-0.22c-1.28-0.96-4.16-1.8-4.29-3.44c0.85,0.04,1.2-0.31,1.42-1.07
					c-0.52,0-4.09,0.01-8.03-0.32c3.63,1.21,6.19,1.44,6.25,0.95c0.06-0.55,0.14,2.51-1.95,6.45c-2.09,3.93,13.17,6.54,13.46,7.62
					c0.29,1.09,0.58,6.11,3.93,5.93c3.35-0.19,2.41-3.62,2.41-3.62l2.82-1.31l0.42-3.89l-2.46-1.93l2.93-2.33
					c0,0,4.53,3.42,10.45,8.23l6.76-1.76l8.76,9.28c0,0,1.32,2.36-0.24,2.19c-1.56-0.17-13.15,0.51-13.15,0.51l-2.35,2.52
					c0,0,4.05,0.72,5.33,0.58c1.28-0.14,4.12,1.84,4.12,1.84s4.43,2.7,2.01,3.27c-2.42,0.57-11.68,1.5-11.68,1.5
					s0.73-2.69-1.43-2.65c-2.17,0.04-2.92,4.4-4.9,4.74c-1.98,0.34-5.59-1.16-6.1,0.44s0.15,4.18-0.57,5.21
					c-0.72,1.03-5.96,3.23-5.96,3.23l-2.85,10.48l-5.22-7.75l-5.33,0.53l-2.34,1.13l-3.76-1.8l-8.57,2.95l1.83,11.2l4.78,3.87
					l4.76-4.85l4.99,2.57l-2.76,4.91l-0.26,2.35l7.27,0.79l2.33,4.97l-3.17,2.71l4.28,2.69l4.64,0.51l0.79,1.71
					c1.48-1.94,4.53-3.93,6.79-4.3c3.11-0.51,2.57,1.47,2.1,3.71c2.37,0.97,2.15-2.42,3.98-2.64c1.46-0.17,2.6,1.46,3.94,1.87
					c0.98,0.3,1.91-0.08,2.81-0.04c3.58,0.17,6.99,3.43,9.54,5.75c0.96,0.88,1.55,1.93,2.81,2.42c0.92,0.36,2.39-0.13,3.24,0.33
					c0.85,0.47,2.21,2.77,2.12,3.9c-0.16,2-2.75,2.3-3.18,3.83c-0.49,1.75,1.59,3.01,3.26,2.87c1.25-0.11,1.57-1.14,2.61-1.17
					c0.39-0.01,0.72-0.18,1.14-0.01c1.02,0.41,0.62,1.27,1.07,1.59c1.26,0.92,2.94,0.49,4.45,0.85c3.02,0.71,2.35,3.13,5.31,3.62
					c0.43,5.62-4.66,8.22-6.25,13.19c-0.96,2.98-2.24,3.86-4.64,5.83c-2.46,2.02-4.43,4.25-7.25,5.81
					c-2.54,1.41-5.41,2.48-7.54,4.46c-1.97,1.84-2.41,2.75-5.16,3.42c-1.33,0.32-2.51,0.2-3.12,1.41c-0.79,1.57,0.2,2.11-1.64,3.25
					c-1.95,1.2-4.71,0.06-6.72,1.03c-0.45,0.22-0.46,0.85-0.76,1.02c-0.62,0.36-1.66-0.04-2.2,0.42c-0.46,0.38-0.47,1.62-0.7,2.2
					c-0.52,1.29-0.79,1.61-1.82,2.64c-1.51,1.52-3.8,3.53-5.58,4.73c35.84-4.67,65.7-32.33,73.03-69.39
					c-0.24-1.01-0.42-1.88-0.46-2.31c-0.12-1.4,0.05-8.04,1.38-12.61c0.25-0.86,0.52-1.67,0.8-2.4c0.03-19.74-6.5-38.22-17.68-53
					C345.82,96.21,344.64,95.41,343.44,96.7z M313.06,86.53c-0.03,1.21,0.73,1.86,1.85,1.77c0.73,2.73-2.97,0.44-3.72,0.05
					c-1.45-0.76-10.1-2.32-9.71-4.15c0.27-1.27,2.19-0.49,2.09-2.14c-0.07-1.23-2.54-2.81-3.34-3.34c-1.59-1.06-6.41-1.44-7.19-3.14
					c-0.86-1.89,1.58-2.46,3.08-2.49c3.56-0.08,5.95,2.81,8.91,3.88c2.58,2.1,10.85,5.46,11.71,9.78
					C315.57,86.7,314.21,86.3,313.06,86.53z M294.36,148c-0.28,0.75-1.08,0.77-1.72,0.24c0.09-1,1.16-0.57,1.88-0.5L294.36,148z
					 M290.8,142.48l-3.11-0.76c-0.95-0.5-3.82,0.09-3.41-1.63c2.12-0.19,5.34-0.03,7.35,0.85c1.21,0.53,1.79,1.65,2.98,2.27
					c1.11,0.58,1.85,0.55,2.3,1.83C294.4,145.36,293.04,142.75,290.8,142.48z M304.79,148.16c-0.48,0.34-0.73,1.38-1.19,1.85
					c-0.27-1.64-2-1.69-2.73-2.87c0.47-0.88,1.41-0.49,2.24-0.41l1.08,0.26c0.85,0.23,2.87,0.13,3.07,1.08
					C306.54,148.14,305.45,147.7,304.79,148.16z M310.01,149.86c-1.64,1.51-0.85-0.99-0.82-1.77l-0.3,0.24
					C309.5,147.28,311.3,148.67,310.01,149.86z M324.67,109.13c-1.33-2.31,0.47-3.18,1.16-5.42l0.79,0.36
					c-0.94,3.95,1.6,5.15,4.09,7.35C328.7,111.26,325.86,111.18,324.67,109.13z"/>
			</g>
			<g>
				<path class="st2" d="M327.53,76.98c-0.38-0.26-0.76-0.51-1.15-0.77C326.75,76.49,327.13,76.75,327.53,76.98z"/>
			</g>
			<g>
				<path class="st2" d="M291.12,196.98c-1.66-1.1-3.79-2.11-3.94-4.21c-0.1-1.4,0.59-1.97,0.07-3.41c-0.43-1.19-1.3-2.02-2.22-2.88
					c-2.05-1.91-4.12-2.31-1.22-4.24c1.03-0.68,2.01-0.37,1.82-1.95c-0.17-1.38-1.57-1.48-1.51-3.31c0.04-1.28,1.17-3.71,2.2-4.6
					c0.93-0.8,1.88-0.36,2.8-0.94c1.53-0.96,1.49-3.44,1.92-5.49l-2.72-2.51l-3.68-0.4l-5.57-4.48l-2.35-3.86l-5.33-1.97l-4.21-4.64
					l-4.94-0.54l-12.1-6.05l-1.36-7.89l-5.49-5.59l-3.76-6.24l-1.37-0.15l5.07,9.49l1.38,2.59l-7.45-8.03l-2.79-7.52l-4.91-5.84
					l0.92-10.96l3.71-3.48l-6.23-0.12l-1.35-4.17l-2.27-2.05l-1.86,2.43l-1.35-4.86l-2.34,0.32c-12.59,13.4-21.14,30.97-23.3,50.82
					c-5.21,47.79,28.47,90.66,75.23,95.77c5.2,0.57,10.34,0.64,15.39,0.26c-0.57-0.29-1.09-0.72-1.51-1.31
					c-2.48-3.45,1.18-4.54,2.49-7.15c1.65-3.3,1.31-6.8,3.33-10.11c2.06-3.38,2.43-7.63,6.05-11.63c0.54-1.01,2-4.2,1.4-5.42
					C296.97,199.05,292.74,198.05,291.12,196.98z"/>
			</g>
			<g>
				<path class="st1" d="M363.08,164.1c0.04,0.42,0.22,1.3,0.46,2.31c0.5-2.53,0.9-5.09,1.18-7.7c0.35-3.23,0.52-6.44,0.53-9.62
					c-0.27,0.74-0.55,1.54-0.8,2.4C363.12,156.06,362.96,162.7,363.08,164.1z"/>
			</g>
			<g>
				<path class="st1" d="M327.53,76.98c-0.4-0.22-0.78-0.49-1.15-0.77c-1.46-0.96-2.95-1.88-4.47-2.75
					c-1.35-0.25-3.08-0.24-4.21-0.32c-1.82-0.13-3.45,0.08-5.19,0.27c-1.76,0.2-4.67-0.64-6.06,0.12c0.94,1.03,1.66,2.72,3.23,2.69
					c4.52,0.38,7.75,3.34,10.64,4.26c3.62,1.15,4.89-0.09,4.76,4.03c1.86,0.25,4.85,2.23,5.55,4.04c-1.78,0.86,0.39,1.49,1.15,1.99
					c2.87,1.88,4.46,5.15,7.38,6.98c0.86,0.54,2.81,1.62,3.86,0.72c0.35-0.3,0.15-1.26,0.41-1.53c1.21-1.29,2.39-0.5,4.13-0.62
					C341.97,88.68,335.21,82.21,327.53,76.98z"/>
			</g>
			<g>
				<path class="st1" d="M294.61,143.21c-1.18-0.61-1.76-1.74-2.98-2.27c-2.01-0.88-5.24-1.04-7.35-0.85
					c-0.4,1.73,2.47,1.13,3.41,1.63l3.11,0.76c2.24,0.27,3.59,2.88,6.11,2.55C296.46,143.75,295.72,143.78,294.61,143.21z"/>
			</g>
			<g>
				<path class="st1" d="M304.18,146.99l-1.08-0.26c-0.83-0.08-1.77-0.47-2.24,0.41c0.74,1.18,2.46,1.23,2.73,2.87
					c0.46-0.47,0.71-1.51,1.19-1.85c0.66-0.46,1.74-0.03,2.46-0.09C307.05,147.12,305.04,147.23,304.18,146.99z"/>
			</g>
			<g>
				<path class="st1" d="M308.89,148.34l0.3-0.24c-0.03,0.77-0.82,3.28,0.82,1.77C311.3,148.67,309.5,147.28,308.89,148.34z"/>
			</g>
			<g>
				<path class="st1" d="M292.65,148.24c0.63,0.54,1.43,0.51,1.72-0.24l0.17-0.26C293.81,147.67,292.74,147.24,292.65,148.24z"/>
			</g>
			<g>
				<path class="st1" d="M316.67,92.17l-6.76,1.76c-5.92-4.81-10.45-8.23-10.45-8.23l-2.93,2.33l2.46,1.93l-0.42,3.89l-2.82,1.31
					c0,0,0.94,3.43-2.41,3.62c-3.35,0.19-3.63-4.84-3.93-5.93c-0.29-1.09-15.55-3.69-13.46-7.62c2.09-3.93,2.01-6.99,1.95-6.45
					c-0.05,0.49-2.62,0.26-6.25-0.95c-1.91-0.16-3.9-0.4-5.67-0.76c-2.29,0.45-4.71,1.64-8.53,2.25c-6.21,0.99-0.94-1.55-0.94-1.55
					s3.05-3.77,6.36-7.43c3.31-3.66-1.97-2.3-4.01-1.41c-2.04,0.89-5.81,2.42-7.31,2.12c-1.49-0.3-5.73-0.9-9.68,1.02
					c-3.96,1.93,0.75,2.02,2.82,2.11c2.07,0.09,2.15,0.65,2.22,2.54c0.07,1.89-5.5,0.85-7.56,0.62c-1.59-0.17-4.37-0.22-7.5,0.58
					c-4.76,3.36-9.18,7.21-13.19,11.47l2.34-0.32l1.35,4.86l1.86-2.43l2.27,2.05l1.35,4.17l6.23,0.12l-3.71,3.48l-0.92,10.96
					l4.91,5.84l2.79,7.52l7.45,8.03l-1.38-2.59l-5.07-9.49l1.37,0.15l3.76,6.24l5.49,5.59l1.36,7.89l12.1,6.05l4.94,0.54l4.21,4.64
					l5.33,1.97l2.35,3.86l5.57,4.48l3.68,0.4l2.72,2.51c0.16-0.75,0.38-1.44,0.77-1.98c0.04-0.05,0.08-0.11,0.13-0.16l-0.79-1.71
					l-4.64-0.51l-4.28-2.69l3.17-2.71l-2.33-4.97l-7.27-0.79l0.26-2.35l2.76-4.91l-4.99-2.57l-4.76,4.85l-4.78-3.87l-1.83-11.2
					l8.57-2.95l3.76,1.8l2.34-1.13l5.33-0.53l5.22,7.75l2.85-10.48c0,0,5.23-2.2,5.96-3.23c0.72-1.03,0.06-3.6,0.57-5.21
					s4.12-0.11,6.1-0.44c1.98-0.34,2.73-4.7,4.9-4.74c2.17-0.04,1.43,2.65,1.43,2.65s9.26-0.93,11.68-1.5
					c2.42-0.57-2.01-3.27-2.01-3.27s-2.84-1.97-4.12-1.84c-1.28,0.14-5.33-0.58-5.33-0.58l2.35-2.52c0,0,11.6-0.68,13.15-0.51
					c1.56,0.17,0.24-2.19,0.24-2.19L316.67,92.17z"/>
			</g>
			<g>
				<path class="st1" d="M291.8,163.95c-0.39,0.54-0.61,1.23-0.77,1.98l1.38,1.27l0.21-1.92l-0.69-1.5
					C291.88,163.84,291.84,163.9,291.8,163.95z"/>
			</g>
			<g>
				<path class="st1" d="M326.62,104.08l-0.79-0.36c-0.68,2.24-2.49,3.11-1.16,5.42c1.18,2.05,4.03,2.13,6.04,2.29
					C328.22,109.22,325.68,108.02,326.62,104.08z"/>
			</g>
			<g>
				<path class="st1" d="M316.73,86.74c-0.86-4.32-9.13-7.68-11.71-9.78c-2.96-1.07-5.35-3.96-8.91-3.88
					c-1.5,0.03-3.94,0.6-3.08,2.49c0.78,1.71,5.6,2.08,7.19,3.14c0.81,0.54,3.27,2.12,3.34,3.34c0.1,1.65-1.82,0.87-2.09,2.14
					c-0.39,1.83,8.25,3.39,9.71,4.15c0.75,0.39,4.45,2.68,3.72-0.05c-1.12,0.1-1.88-0.56-1.85-1.77
					C314.21,86.3,315.57,86.7,316.73,86.74z"/>
			</g>
			<g>
				<path class="st1" d="M291.15,67.74c-3.69-0.4-7.37-0.83-11.06-1.21c-2.32-0.24-4.26,0.37-6.5,0.71
					c1.06,2.65,6.48,2.04,8.91,3.62c1.79,1.16,3.66,2.81,5.06,4.4c-1.46,1.58-4.55,0.11-6.26-0.32c-2.53-0.64-5.24-1.41-7.89-1.38
					c-1.58,0.02-2.94,0.74-4.43,0.86c-2.73,0.22-6.07-1.6-8.67-0.71c-0.05,1.67,2.45,2.71,5.66,3.36c1.43-0.28,2.8-0.28,4.44,0.33
					c0.42,0.16,0.83,0.3,1.23,0.43c3.94,0.33,7.52,0.32,8.03,0.32c-0.22,0.76-0.57,1.1-1.42,1.07c0.13,1.63,3.01,2.48,4.29,3.44
					c-0.07,0.07-0.13,0.14-0.18,0.22c2.01-0.2,3.96-0.85,5.96-1.16c-1.47-0.74-3.12-1.07-4.57-1.85c1.63-0.11,3.63,0.26,5.15-0.39
					c-0.14-2.31,4.11-4.73,0.51-6.53c3.58-1.65,9.38-1.94,13.33-1.79c1.88,0.07,3.92,0.96,2.62-1.45
					C301.43,67.77,295.47,68.21,291.15,67.74z"/>
			</g>
			<g>
				<path class="st1" d="M266,77.08c1.77,0.36,3.77,0.6,5.67,0.76c-0.4-0.13-0.81-0.27-1.23-0.43C268.8,76.8,267.42,76.8,266,77.08z
					"/>
			</g>
		</g>
		<g>
			<g>
				<path class="st3" d="M178.44,257.51c-3.09,0.87-6.17,1.74-9.26,2.6c-1.16,0.33-0.67,2.14,0.5,1.81c3.09-0.87,6.17-1.74,9.26-2.6
					C180.1,258.99,179.6,257.18,178.44,257.51z"/>
			</g>
			<g>
				<path class="st3" d="M160.2,264.69c-2.55,1.94-5.1,3.89-7.65,5.83c-0.95,0.72-0.01,2.36,0.95,1.62c2.55-1.94,5.1-3.89,7.65-5.83
					C162.1,265.59,161.17,263.96,160.2,264.69z"/>
			</g>
			<g>
				<path class="st3" d="M146.54,277.88c-1.61,2.77-3.22,5.55-4.83,8.32c-0.61,1.05,1.02,2,1.62,0.95c1.61-2.77,3.22-5.55,4.83-8.32
					C148.77,277.78,147.15,276.83,146.54,277.88z"/>
			</g>
			<g>
				<path class="st3" d="M139,295.3c-0.03,3.21-0.06,6.41-0.1,9.62c-0.01,1.21,1.87,1.21,1.88,0c0.03-3.21,0.06-6.41,0.1-9.62
					C140.89,294.09,139.01,294.09,139,295.3z"/>
			</g>
			<g>
				<path class="st3" d="M142.12,312.96c-0.33-1.16-2.14-0.67-1.81,0.5c0.87,3.09,1.74,6.17,2.61,9.26c0.33,1.16,2.14,0.67,1.81-0.5
					C143.86,319.13,142.99,316.05,142.12,312.96z"/>
			</g>
			<g>
				<path class="st3" d="M150.15,328.37c-0.89-0.82-2.22,0.51-1.33,1.33c2.36,2.17,4.72,4.33,7.09,6.5
					c0.89,0.82,2.22-0.51,1.33-1.33C154.88,332.7,152.52,330.53,150.15,328.37z"/>
			</g>
			<g>
				<path class="st4" d="M175.16,339.66c-3.2-0.25-6.39-0.5-9.59-0.75c-1.21-0.09-1.2,1.79,0,1.88c3.2,0.25,6.39,0.5,9.59,0.75
					C176.37,341.64,176.36,339.76,175.16,339.66z"/>
			</g>
			<g>
				<path class="st3" d="M193.87,336.75c-3.12,0.73-6.24,1.47-9.36,2.2c-1.18,0.28-0.68,2.09,0.5,1.81c3.12-0.73,6.24-1.47,9.36-2.2
					C195.55,338.28,195.05,336.47,193.87,336.75z"/>
			</g>
			<g>
				<path class="st3" d="M212.13,328.22c-2.79,1.58-5.57,3.17-8.36,4.76c-1.05,0.6-0.11,2.22,0.95,1.62
					c2.79-1.59,5.57-3.17,8.36-4.76C214.13,329.24,213.18,327.62,212.13,328.22z"/>
			</g>
			<g>
				<path class="st3" d="M222.43,315.66c-1.83,2.63-3.66,5.27-5.48,7.9c-0.69,1,0.94,1.94,1.62,0.95c1.83-2.63,3.66-5.27,5.48-7.9
					C224.75,315.62,223.12,314.68,222.43,315.66z"/>
			</g>
			<g>
				<path class="st4" d="M164.42,315.84c-0.13,4.29,1.31,10.68,6,20.21c4.69-9.53,6.12-15.92,6-20.21
					C176.18,308.19,164.65,308.19,164.42,315.84z M170.42,319.94c-1.98,0-3.59-1.61-3.59-3.58c0-1.98,1.61-3.58,3.59-3.58
					c1.98,0,3.58,1.6,3.58,3.58C174,318.33,172.4,319.94,170.42,319.94z"/>
			</g>
		</g>
		<g>
			<g>
				<path class="st3" d="M450.01,118.18c-6.53,1.62-13.07,3.23-19.6,4.85c-0.32,0.08-0.52,0.04-0.71-0.24
					c-0.22-0.32-0.48-0.61-0.72-0.91c-0.35-0.43-0.79-0.72-1.35-0.79c-1-0.11-2.46,1.23-2.43,2.24c0.01,0.3,0.12,0.6,0.19,0.92
					c-0.08,0.02-0.18,0.06-0.28,0.08c-2.21,0.55-4.42,1.09-6.62,1.65c-0.3,0.08-0.48,0.02-0.69-0.21
					c-4.32-4.71-8.62-9.43-12.98-14.09c-1.44-1.54-3.28-2.48-5.39-2.79c-1.38-0.2-2.14,0.53-2.11,1.93c0,0.08,0,0.16,0.01,0.24
					c0.24,2.03,0.98,3.88,2.35,5.4c4.27,4.7,8.58,9.35,12.89,14.02c0.25,0.27,0.31,0.49,0.19,0.84c-0.53,1.51-1.04,3.04-1.55,4.56
					c-0.24,0.71-0.48,1.41-0.73,2.15c-0.96-0.61-1.76-0.37-2.45,0.41c-0.05,0.06-0.12,0.11-0.18,0.16
					c-0.93,0.86-0.93,1.91,0.01,2.77c0.26,0.24,0.49,0.5,0.76,0.71c0.31,0.24,0.34,0.48,0.21,0.86c-1.86,5.47-3.71,10.95-5.56,16.42
					c-0.38,1.12-0.76,2.25-1.15,3.39c0.47,0.51,0.97,1.06,1.51,1.65c0.19-0.2,0.39-0.37,0.53-0.57c3.01-4.4,6.02-8.81,9.03-13.22
					c0.56-0.82,1.13-1.65,1.7-2.49c0.14,0.13,0.25,0.23,0.35,0.33c0.11,0.11,0.22,0.24,0.34,0.35c0.39,0.35,0.54,0.36,0.93,0.02
					c0.42-0.37,0.83-0.76,1.24-1.14c0.23-0.21,0.29-0.45,0.08-0.7c-0.31-0.38-0.61-0.78-0.94-1.14c-0.2-0.22-0.17-0.39-0.01-0.62
					c0.81-1.16,1.6-2.34,2.4-3.51c0.5-0.74,1.01-1.47,1.55-2.25c0.13,0.14,0.22,0.25,0.33,0.35c1.11,1.14,2.17,2.33,3.34,3.41
					c2.82,2.62,5.69,5.2,8.55,7.79c0.22,0.2,0.28,0.37,0.23,0.66c-0.64,4.03-1.26,8.07-1.89,12.1c-0.02,0.11-0.05,0.27,0,0.34
					c0.24,0.3,0.51,0.57,0.82,0.9c1.82-3.31,3.6-6.55,5.38-9.79c1.05,0.54,1.77,0.52,2.41-0.05c0.68-0.6,0.78-1.3,0.34-2.48
					c3.37-1.5,6.75-3.01,10.2-4.54c-0.23-0.26-0.42-0.42-0.55-0.61c-0.19-0.27-0.42-0.33-0.75-0.31c-4.04,0.3-8.09,0.59-12.14,0.87
					c-0.17,0.01-0.41-0.07-0.5-0.19c-1.32-1.69-2.61-3.39-3.92-5.09c-2.06-2.67-4.01-5.43-6.39-7.83c-0.08-0.08-0.15-0.18-0.23-0.28
					c0.05-0.05,0.08-0.08,0.11-0.1c2.01-1.14,4.02-2.29,6.04-3.42c0.1-0.06,0.32-0.03,0.4,0.05c0.36,0.32,0.68,0.68,1.03,1.01
					c0.36,0.34,0.53,0.34,0.9,0.01c0.39-0.35,0.78-0.7,1.15-1.06c0.4-0.38,0.41-0.54,0.05-0.98c-0.19-0.23-0.4-0.44-0.62-0.68
					c0.21-0.12,0.34-0.2,0.46-0.27c5.35-3.03,10.7-6.07,16.05-9.11c0.24-0.14,0.44-0.33,0.69-0.51c-0.55-0.6-1.06-1.15-1.54-1.67
					C450.5,118.05,450.26,118.12,450.01,118.18z"/>
			</g>
			<g>
				<g>
					<path class="st3" d="M446.42,163.64c-0.34-1.16-2.16-0.67-1.81,0.5c0.9,3.08,1.81,6.15,2.71,9.23c0.34,1.16,2.16,0.67,1.81-0.5
						C448.23,169.79,447.32,166.72,446.42,163.64z"/>
				</g>
				<g>
					<path class="st3" d="M448.18,180.61c0.07,3.2,0.14,6.41,0.21,9.61c0.03,1.21,1.91,1.21,1.88,0c-0.07-3.2-0.14-6.41-0.21-9.61
						C450.04,179.4,448.16,179.39,448.18,180.61z"/>
				</g>
				<g>
					<path class="st3" d="M447.51,198.08c-0.66,3.14-1.33,6.27-1.99,9.41c-0.25,1.18,1.56,1.68,1.81,0.5
						c0.66-3.14,1.33-6.27,1.99-9.41C449.58,197.4,447.76,196.89,447.51,198.08z"/>
				</g>
				<g>
					<path class="st3" d="M443.64,214.54c-1.38,2.89-2.76,5.79-4.14,8.68c-0.52,1.09,1.1,2.04,1.62,0.95
						c1.38-2.89,2.76-5.79,4.14-8.68C445.78,214.4,444.16,213.45,443.64,214.54z"/>
				</g>
				<g>
					<path class="st3" d="M434.22,232.4c-1.62,2.77-3.24,5.53-4.86,8.3c-0.61,1.05,1.01,1.99,1.62,0.95
						c1.62-2.77,3.24-5.53,4.86-8.3C436.46,232.3,434.83,231.35,434.22,232.4z"/>
				</g>
				<g>
					<path class="st3" d="M392.4,303.05c-3.17,0.45-6.35,0.9-9.52,1.36c-1.19,0.17-0.69,1.98,0.5,1.81c3.17-0.45,6.35-0.9,9.52-1.36
						C394.09,304.69,393.58,302.88,392.4,303.05z"/>
				</g>
				<g>
					<path class="st3" d="M409.79,295.09c-2.78,1.59-5.57,3.18-8.35,4.77c-1.05,0.6-0.1,2.23,0.95,1.62
						c2.78-1.59,5.57-3.18,8.35-4.77C411.79,296.11,410.84,294.48,409.79,295.09z"/>
				</g>
				<g>
					<path class="st3" d="M422.05,281.43c-1.96,2.54-3.92,5.07-5.88,7.61c-0.73,0.95,0.59,2.29,1.33,1.33
						c1.96-2.54,3.92-5.07,5.88-7.61C424.11,281.81,422.79,280.47,422.05,281.43z"/>
				</g>
				<g>
					<path class="st3" d="M426.87,264.11c-0.46,3.17-0.91,6.35-1.37,9.52c-0.17,1.18,1.64,1.69,1.81,0.5
						c0.46-3.17,0.91-6.35,1.37-9.52C428.85,263.42,427.04,262.91,426.87,264.11z"/>
				</g>
				<g>
					<path class="st4" d="M427.06,246.19c-0.17-1.19-1.98-0.69-1.81,0.5c0.45,3.17,0.91,6.35,1.36,9.52
						c0.17,1.19,1.98,0.69,1.81-0.5C427.97,252.53,427.51,249.36,427.06,246.19z"/>
				</g>
				<g>
					<path class="st3" d="M415.91,231.14c-0.78-0.93-2.1,0.41-1.33,1.33c2.06,2.46,4.11,4.92,6.17,7.38
						c0.78,0.93,2.1-0.41,1.33-1.33C420.02,236.06,417.96,233.6,415.91,231.14z"/>
				</g>
				<g>
					<path class="st3" d="M407.14,225.42c-3.13-0.67-6.27-1.34-9.4-2.02c-1.18-0.25-1.68,1.56-0.5,1.81
						c3.13,0.67,6.27,1.34,9.4,2.01C407.82,227.49,408.33,225.67,407.14,225.42z"/>
				</g>
				<g>
					<path class="st3" d="M387.88,222.85c-3.19,0.31-6.38,0.63-9.57,0.94c-1.19,0.12-1.21,2,0,1.88c3.19-0.31,6.38-0.63,9.57-0.94
						C389.07,224.61,389.08,222.73,387.88,222.85z"/>
				</g>
				<g>
					<path class="st3" d="M367.51,226.32c-2.97,1.2-5.94,2.41-8.91,3.61c-1.11,0.45-0.62,2.27,0.5,1.81
						c2.97-1.2,5.94-2.41,8.91-3.61C369.12,227.68,368.63,225.86,367.51,226.32z"/>
				</g>
				<g>
					<path class="st3" d="M352.41,234.43c-2.16,2.37-4.32,4.74-6.48,7.11c-0.81,0.89,0.51,2.23,1.33,1.33
						c2.16-2.37,4.32-4.74,6.48-7.11C354.55,234.87,353.23,233.54,352.41,234.43z"/>
				</g>
				<g>
					<path class="st4" d="M420.41,214.17c-0.13,4.29,1.31,10.68,6,20.21c4.69-9.53,6.12-15.92,6-20.21
						C432.17,206.53,420.64,206.53,420.41,214.17z M426.4,218.28c-1.98,0-3.58-1.61-3.58-3.59c0-1.98,1.6-3.59,3.58-3.59
						s3.58,1.61,3.58,3.59C429.99,216.67,428.38,218.28,426.4,218.28z"/>
				</g>
			</g>
		</g>
		<g>
			<g>
				<path class="st3" d="M106.48,263.93c-4.45,2.94-8.9,5.89-13.34,8.84c-0.83,0.55-1.66,1.1-2.52,1.67
					c-0.08-0.17-0.14-0.31-0.2-0.44c-0.06-0.15-0.11-0.3-0.18-0.45c-0.22-0.47-0.36-0.54-0.85-0.37c-0.53,0.19-1.05,0.39-1.58,0.59
					c-0.3,0.11-0.43,0.3-0.34,0.62c0.14,0.47,0.28,0.95,0.44,1.42c0.1,0.28,0.01,0.43-0.23,0.58c-1.19,0.77-2.36,1.56-3.55,2.35
					c-0.74,0.49-1.49,0.98-2.28,1.5c-0.07-0.18-0.11-0.32-0.17-0.45c-0.6-1.47-1.14-2.98-1.81-4.42c-1.63-3.49-3.31-6.96-4.99-10.43
					c-0.13-0.26-0.12-0.45,0.03-0.69c2.11-3.5,4.21-7,6.3-10.5c0.06-0.1,0.15-0.23,0.13-0.31c-0.11-0.36-0.26-0.72-0.42-1.14
					c-2.93,2.38-5.8,4.71-8.67,7.04c-0.77-0.89-1.44-1.14-2.26-0.86c-0.85,0.3-1.21,0.91-1.25,2.17c-3.69,0.12-7.38,0.24-11.16,0.37
					c0.12,0.32,0.23,0.54,0.28,0.77c0.08,0.32,0.26,0.47,0.57,0.57c3.86,1.24,7.72,2.5,11.57,3.77c0.16,0.05,0.35,0.22,0.39,0.37
					c0.59,2.06,1.14,4.13,1.72,6.19c0.91,3.25,1.67,6.54,2.97,9.66c0.04,0.11,0.07,0.22,0.11,0.34c-0.07,0.02-0.1,0.05-0.14,0.05
					c-2.29,0.3-4.59,0.61-6.88,0.89c-0.11,0.01-0.3-0.09-0.35-0.19c-0.21-0.43-0.38-0.89-0.58-1.32c-0.21-0.45-0.36-0.51-0.83-0.35
					c-0.49,0.17-0.98,0.36-1.47,0.55c-0.52,0.2-0.59,0.35-0.42,0.89c0.09,0.28,0.21,0.56,0.32,0.86c-0.24,0.04-0.39,0.06-0.53,0.08
					c-6.1,0.8-12.2,1.59-18.29,2.4c-0.27,0.04-0.53,0.13-0.83,0.21c0.29,0.76,0.55,1.47,0.8,2.13c0.3,0.03,0.55,0.05,0.8,0.08
					c6.66,0.96,13.32,1.93,19.98,2.88c0.32,0.05,0.49,0.16,0.57,0.49c0.08,0.38,0.22,0.75,0.33,1.12c0.16,0.53,0.46,0.97,0.96,1.24
					c0.88,0.48,2.75-0.22,3.09-1.16c0.1-0.28,0.11-0.6,0.17-0.92c0.08,0.01,0.18,0.01,0.29,0.03c2.25,0.32,4.5,0.65,6.75,0.96
					c0.31,0.04,0.45,0.16,0.56,0.45c2.23,5.99,4.44,11.98,6.72,17.94c0.75,1.97,2.11,3.54,3.94,4.62c1.2,0.71,2.19,0.31,2.68-0.99
					c0.03-0.08,0.06-0.15,0.08-0.23c0.54-1.98,0.55-3.97-0.15-5.89c-2.19-5.96-4.43-11.9-6.66-17.84c-0.13-0.34-0.1-0.57,0.14-0.85
					c1.06-1.2,2.1-2.43,3.15-3.64c0.49-0.56,0.98-1.13,1.49-1.72c0.67,0.93,1.49,1,2.43,0.54c0.07-0.04,0.15-0.06,0.23-0.09
					c1.18-0.44,1.58-1.42,1.04-2.57c-0.15-0.32-0.26-0.65-0.44-0.95c-0.2-0.34-0.14-0.58,0.12-0.88c3.79-4.37,7.56-8.75,11.33-13.12
					c0.77-0.9,1.55-1.79,2.35-2.71c-0.24-0.65-0.5-1.35-0.78-2.09C106.93,263.71,106.68,263.79,106.48,263.93z"/>
			</g>
			<g>
				<path class="st3" d="M69.33,238.43c0,3.21,0,6.41,0,9.62c0,1.21,1.88,1.21,1.88,0c0-3.21,0-6.41,0-9.62
					C71.21,237.22,69.33,237.22,69.33,238.43z"/>
			</g>
			<g>
				<path class="st3" d="M71.89,220.87c-0.61,3.15-1.22,6.29-1.84,9.44c-0.23,1.18,1.58,1.69,1.81,0.5
					c0.61-3.15,1.22-6.29,1.84-9.44C73.93,220.19,72.12,219.68,71.89,220.87z"/>
			</g>
			<g>
				<path class="st3" d="M78.99,203.58c-1.32,2.92-2.63,5.85-3.95,8.77c-0.49,1.09,1.13,2.05,1.62,0.95
					c1.32-2.92,2.63-5.85,3.95-8.77C81.11,203.43,79.49,202.47,78.99,203.58z"/>
			</g>
			<g>
				<path class="st3" d="M87.23,185.26c-1.32,2.92-2.63,5.85-3.95,8.77c-0.49,1.09,1.13,2.05,1.62,0.95
					c1.32-2.92,2.63-5.85,3.95-8.77C89.35,185.11,87.73,184.16,87.23,185.26z"/>
			</g>
			<g>
				<path class="st3" d="M95.02,168.77c-1.32,2.92-2.63,5.85-3.95,8.77c-0.49,1.09,1.13,2.05,1.62,0.95
					c1.32-2.92,2.63-5.85,3.95-8.77C97.13,168.63,95.52,167.67,95.02,168.77z"/>
			</g>
			<g>
				<path class="st3" d="M116.23,157.41c-3.17,0.44-6.35,0.88-9.53,1.32c-1.19,0.17-0.69,1.98,0.5,1.81
					c3.18-0.44,6.35-0.88,9.53-1.32C117.92,159.06,117.41,157.24,116.23,157.41z"/>
			</g>
			<g>
				<path class="st3" d="M114.99,142.18c-2.32,2.21-4.65,4.42-6.97,6.62c-0.88,0.84,0.45,2.16,1.33,1.33
					c2.32-2.21,4.65-4.42,6.97-6.62C117.2,142.67,115.87,141.35,114.99,142.18z"/>
			</g>
			<g>
				<path class="st3" d="M128.13,128.75c-2.23,2.31-4.45,4.61-6.68,6.92c-0.84,0.87,0.49,2.2,1.33,1.33
					c2.23-2.31,4.45-4.61,6.68-6.92C130.3,129.21,128.97,127.88,128.13,128.75z"/>
			</g>
			<g>
				<path class="st3" d="M144.9,118.11c-2.9,1.37-5.8,2.73-8.7,4.1c-1.09,0.52-0.14,2.14,0.95,1.62c2.9-1.37,5.8-2.73,8.7-4.1
					C146.94,119.22,145.99,117.6,144.9,118.11z"/>
			</g>
			<g>
				<path class="st3" d="M163.41,115.93c-3.2,0.22-6.4,0.44-9.59,0.66c-1.2,0.08-1.21,1.96,0,1.88c3.2-0.22,6.4-0.44,9.59-0.66
					C164.61,117.73,164.62,115.85,163.41,115.93z"/>
			</g>
			<g>
				<path class="st3" d="M183.61,117.72c-3.18-0.38-6.37-0.76-9.55-1.13c-1.2-0.14-1.19,1.74,0,1.88c3.18,0.38,6.37,0.76,9.55,1.13
					C184.81,119.75,184.8,117.86,183.61,117.72z"/>
			</g>
			<g>
				<path class="st3" d="M134.83,158.46c-3.19-0.34-6.38-0.68-9.56-1.01c-1.2-0.13-1.19,1.75,0,1.88c3.19,0.34,6.38,0.68,9.56,1.01
					C136.03,160.46,136.02,158.58,134.83,158.46z"/>
			</g>
			<g>
				<path class="st3" d="M152.85,161.57c-3.14-0.66-6.28-1.31-9.41-1.97c-1.18-0.25-1.69,1.56-0.5,1.81
					c3.14,0.66,6.28,1.31,9.41,1.97C153.53,163.63,154.03,161.82,152.85,161.57z"/>
			</g>
			<g>
				<path class="st4" d="M94.81,133.58c-0.13,4.29,1.31,10.68,6,20.21c4.69-9.53,6.12-15.92,6-20.21
					C106.58,125.93,95.04,125.93,94.81,133.58z M100.81,137.68c-1.98,0-3.58-1.61-3.58-3.59c0-1.98,1.61-3.58,3.58-3.58
					c1.98,0,3.58,1.6,3.58,3.58C104.39,136.07,102.79,137.68,100.81,137.68z"/>
			</g>
			<g>
				<path class="st4" d="M100.59,157.05c-0.94,1.62-1.88,3.25-2.81,4.88c-0.61,1.05,1.02,2,1.62,0.95c0.94-1.63,1.88-3.25,2.81-4.88
					C102.82,156.95,101.2,156,100.59,157.05z"/>
			</g>
		</g>
		<g>
			<path class="st5" d="M369.76,259.5c-4.12-22.9-18.78-35.26-29.31-44.42s-19.69-32.06-19.69-32.06l-68.23,21.52l-39.38,61.36v2.75
				c0,0,33.43,53.58,53.58,57.7c27.28,5.58,55.16,20.47,77.1,37.23c12.18,9.31,19.78,18.56,36.31,18.68
				c13.15,0.09,27.13-5.47,33.8-17.37c11.06-19.77-13.78-36.91-22.12-52.01C382.75,296.48,373.12,278.12,369.76,259.5z"/>
		</g>
		<g>
			<path class="st5" d="M118.35,200.42c-11.91,5.5-5.5,9.16,2.75,12.36s46.25,23.35,54.95,31.6c8.7,8.24,10.99-8.24,10.99-8.24
				l-48.08-38.92C138.96,197.22,130.26,194.93,118.35,200.42z"/>
		</g>
		<g>
			<path class="st6" d="M350.03,246.69l-136.6-111.56c-2.45-2-6.37-2.23-8.72-0.52l-73.17,53.56c-2.34,1.72-2.26,4.76,0.19,6.76
				l136.6,111.56c2.45,2,6.37,2.23,8.72,0.52l73.17-53.56C352.57,251.73,352.48,248.69,350.03,246.69z"/>
		</g>
		<g>
			<path class="st7" d="M350.03,246.69l-0.28-0.23l-72.7,53.21c-2.34,1.72-6.27,1.48-8.72-0.52L132.01,187.82l-0.47,0.34
				c-2.34,1.72-2.26,4.76,0.19,6.76l136.6,111.56c2.45,2,6.37,2.23,8.72,0.52l73.17-53.56
				C352.57,251.73,352.48,248.69,350.03,246.69z"/>
		</g>
		<path class="st8" d="M339.83,242.58c-0.29-0.57-0.72-1.11-1.31-1.58L215.53,140.55c-2.21-1.8-5.72-2.04-7.8-0.52l-65.11,47.28
			c-2.08,1.52-1.99,4.23,0.22,6.03l122.99,100.45c2.2,1.8,5.72,2.03,7.8,0.52l65.11-47.28
			C340.28,245.91,340.63,244.15,339.83,242.58z"/>
		<g>
			<path class="st7" d="M320.73,261.99c-6.11,4.43-12.21,8.85-18.32,13.28c-1.94,1.41-0.07,4.67,1.9,3.25
				c6.11-4.43,12.21-8.85,18.32-13.28C324.57,263.83,322.69,260.57,320.73,261.99z"/>
		</g>
		<g>
			<g>
				<g>
					<polygon class="st9" points="187.54,73.54 190.82,224.7 260.97,222.51 257.71,72.28 					"/>
				</g>
				<g>
					
						<rect x="188.51" y="117.55" transform="matrix(0.9996 -0.0293 0.0293 0.9996 -3.3572 6.6054)" class="st1" width="70.37" height="0.61"/>
				</g>
				<g>
					<path class="st1" d="M211.85,176.27c0.05,2.61,0.09,5.23,0.14,7.84c0.05,2.86,4.49,2.78,4.44-0.08
						c-0.05-2.61-0.09-5.23-0.14-7.84C216.24,173.33,211.8,173.41,211.85,176.27z"/>
				</g>
				<g>
					<path class="st1" d="M247.39,175.63c0.05,2.61,0.09,5.23,0.14,7.84c0.05,2.86,4.49,2.78,4.44-0.08
						c-0.05-2.61-0.09-5.23-0.14-7.84C251.78,172.69,247.34,172.77,247.39,175.63z"/>
				</g>
				<g>
					<path class="st1" d="M251.96,100.65l-13.51,0.24l0.02,1l13.51-0.24c0.03,0,0.06-0.02,0.08-0.02l-0.02-0.96
						C252.02,100.66,251.99,100.65,251.96,100.65z"/>
				</g>
				<g>
					<path class="st1" d="M251.75,89.15l-13.51,0.24l0.02,1l13.51-0.24c0.03,0,0.06-0.02,0.08-0.02l-0.02-0.96
						C251.81,89.17,251.79,89.15,251.75,89.15z"/>
				</g>
				<g>
					<path class="st1" d="M251.88,96.07l-13.51,0.24l0.02,1l13.51-0.24c0.03,0,0.06-0.02,0.08-0.02l-0.02-0.96
						C251.93,96.09,251.91,96.07,251.88,96.07z"/>
				</g>
				<g>
					<path class="st1" d="M251.85,94.62l-13.51,0.24l0.02,1l13.51-0.24c0.03,0,0.06-0.02,0.08-0.02l-0.02-0.96
						C251.91,94.64,251.88,94.62,251.85,94.62z"/>
				</g>
				<g>
					<path class="st1" d="M251.79,90.94l-13.51,0.24l0.02,1l13.51-0.24c0.03,0,0.06-0.02,0.08-0.02l-0.02-0.96
						C251.84,90.95,251.82,90.94,251.79,90.94z"/>
				</g>
				<g>
					<path class="st1" d="M251.91,98.02l-13.51,0.24l0.04,2.01l13.51-0.24c0.03,0,0.05-0.02,0.08-0.02L252,98.05
						C251.97,98.04,251.95,98.02,251.91,98.02z"/>
				</g>
				<g>
					<path class="st1" d="M251.81,92.33l-13.51,0.24l0.04,2.01l13.51-0.24c0.03,0,0.05-0.02,0.08-0.02l-0.04-1.96
						C251.86,92.35,251.84,92.33,251.81,92.33z"/>
				</g>
				<g>
					<path class="st1" d="M251.65,83.46l-13.51,0.24l0.02,1l13.51-0.24c0.03,0,0.06-0.02,0.08-0.02l-0.02-0.96
						C251.71,83.48,251.68,83.46,251.65,83.46z"/>
				</g>
				<g>
					<path class="st1" d="M251.68,85.31l-13.51,0.24l0.02,1l13.51-0.24c0.03,0,0.06-0.02,0.08-0.02l-0.02-0.96
						C251.74,85.32,251.72,85.3,251.68,85.31z"/>
				</g>
				<g>
					<path class="st1" d="M251.71,86.64l-13.51,0.24l0.04,2.01l13.51-0.24c0.03,0,0.05-0.02,0.08-0.02l-0.04-1.96
						C251.76,86.66,251.74,86.64,251.71,86.64z"/>
				</g>
				<g>
					<g>
						<path class="st1" d="M214.86,210.35c0.08,4.56,0.16,9.12,0.25,13.68l4.27-0.13c-0.08-4.54-0.16-9.08-0.25-13.62
							C219.08,207.52,214.81,207.59,214.86,210.35z"/>
					</g>
					<g>
						<polygon class="st10" points="206.03,101.91 208.77,224.22 276.28,222.12 273.56,100.69 						"/>
					</g>
					<g>
						<path class="st1" d="M268.03,127.99l-13.01,0.23l0.02,0.97l13.01-0.23c0.03,0,0.05-0.01,0.08-0.02l-0.02-0.92
							C268.08,128,268.06,127.99,268.03,127.99z"/>
					</g>
					<g>
						<path class="st1" d="M267.83,116.93l-13.01,0.23l0.02,0.97l13.01-0.23c0.03,0,0.05-0.01,0.08-0.02l-0.02-0.92
							C267.88,116.94,267.86,116.93,267.83,116.93z"/>
					</g>
					<g>
						<path class="st1" d="M267.95,123.59l-13.01,0.23l0.02,0.97l13.01-0.23c0.03,0,0.05-0.01,0.08-0.02l-0.02-0.92
							C268,123.6,267.98,123.59,267.95,123.59z"/>
					</g>
					<g>
						<path class="st1" d="M267.92,122.19l-13.01,0.23l0.02,0.97l13.01-0.23c0.03,0,0.05-0.01,0.08-0.02l-0.02-0.92
							C267.97,122.21,267.95,122.19,267.92,122.19z"/>
					</g>
					<g>
						<path class="st1" d="M267.86,118.65l-13.01,0.23l0.02,0.97l13.01-0.23c0.03,0,0.05-0.01,0.08-0.02l-0.02-0.92
							C267.91,118.66,267.89,118.65,267.86,118.65z"/>
					</g>
					<g>
						<path class="st1" d="M267.98,125.47l-13.01,0.23l0.03,1.93l13.01-0.23c0.03,0,0.05-0.02,0.08-0.02l-0.03-1.89
							C268.03,125.48,268.01,125.47,267.98,125.47z"/>
					</g>
					<g>
						<path class="st1" d="M267.88,119.99l-13.01,0.23l0.03,1.93l13.01-0.23c0.03,0,0.05-0.02,0.08-0.02l-0.03-1.89
							C267.93,120.01,267.91,119.99,267.88,119.99z"/>
					</g>
					<g>
						<path class="st1" d="M267.73,111.46l-13.01,0.23l0.02,0.97l13.01-0.23c0.03,0,0.05-0.02,0.08-0.02l-0.02-0.92
							C267.78,111.47,267.76,111.45,267.73,111.46z"/>
					</g>
					<g>
						<path class="st1" d="M267.76,113.23l-13.01,0.23l0.02,0.97l13.01-0.23c0.03,0,0.05-0.02,0.08-0.02l-0.02-0.92
							C267.81,113.24,267.79,113.23,267.76,113.23z"/>
					</g>
					<g>
						<path class="st1" d="M267.78,114.51l-13.01,0.23l0.03,1.93l13.01-0.23c0.03,0,0.05-0.02,0.08-0.02l-0.03-1.89
							C267.83,114.53,267.81,114.51,267.78,114.51z"/>
					</g>
					<g>
						
							<rect x="207.12" y="150.17" transform="matrix(0.9995 -0.0313 0.0313 0.9995 -4.5921 7.6147)" class="st1" width="67.54" height="0.58"/>
					</g>
					<g>
						
							<rect x="213.82" y="181.34" transform="matrix(0.9995 -0.0306 0.0306 0.9995 -6.0444 6.6467)" class="st1" width="1.17" height="39.41"/>
					</g>
					<g>
						
							<rect x="216.24" y="194.88" transform="matrix(0.9995 -0.0306 0.0306 0.9995 -6.2501 6.7252)" class="st1" width="1.17" height="25.8"/>
					</g>
					<g>
						
							<rect x="218.28" y="182.52" transform="matrix(0.9995 -0.0306 0.0306 0.9995 -6.0567 6.7815)" class="st1" width="1.17" height="38.1"/>
					</g>
					<g>
						
							<rect x="220.5" y="188.23" transform="matrix(0.9995 -0.0306 0.0306 0.9995 -6.1448 6.8541)" class="st1" width="1.17" height="32.31"/>
					</g>
					<g>
						
							<rect x="223.13" y="194.67" transform="matrix(0.9995 -0.0306 0.0306 0.9995 -6.2406 6.9358)" class="st1" width="1.17" height="25.8"/>
					</g>
					<g>
						
							<rect x="256.77" y="190.24" transform="matrix(0.9995 -0.0306 0.0306 0.9995 -6.1404 7.9613)" class="st1" width="1.17" height="29.2"/>
					</g>
					<g>
						
							<rect x="258.56" y="195.94" transform="matrix(0.9995 -0.0306 0.0306 0.9995 -6.2265 8.0184)" class="st1" width="1.17" height="23.45"/>
					</g>
					<g>
						
							<rect x="260.46" y="209.32" transform="matrix(0.9995 -0.0305 0.0305 0.9995 -6.4256 8.0746)" class="st1" width="1.17" height="10.01"/>
					</g>
					<g>
						
							<rect x="211.54" y="104.91" transform="matrix(0.9995 -0.0306 0.0306 0.9995 -3.4838 6.5291)" class="st1" width="0.58" height="24.63"/>
					</g>
					<g>
						
							<rect x="214.49" y="104.81" transform="matrix(0.9995 -0.0306 0.0306 0.9995 -3.4815 6.6324)" class="st1" width="1.17" height="24.63"/>
					</g>
				</g>
			</g>
			<g>
				<g>
					<g>
						<path class="st11" d="M271.44,82.37c-0.01-1.39-2.18-1.39-2.17,0.01c0.08,13.96,0.15,27.92,0.23,41.88
							c0.01,1.99,0.02,3.99,0.03,5.98c0.01,1.4,2.18,1.39,2.17-0.01c-0.08-13.96-0.15-27.92-0.23-41.88
							C271.46,86.36,271.45,84.37,271.44,82.37z"/>
					</g>
				</g>
				<g>
					<g>
						<path class="st11" d="M295.39,82.24c-0.01-1.4-2.18-1.39-2.17,0.01c0.08,13.96,0.15,27.92,0.23,41.88
							c0.01,1.99,0.02,3.99,0.03,5.98c0.01,1.39,2.18,1.39,2.17-0.01c-0.08-13.96-0.15-27.92-0.23-41.88
							C295.41,86.23,295.4,84.23,295.39,82.24z"/>
					</g>
				</g>
				<g>
					<path class="st12" d="M310.74,126.13l-27.57,0.15l-1.01,0.01l-27.57,0.15c0,0-7.26,4.39-7.73,12.2
						c-0.47,7.81,0.5,91.62,0.5,91.62s3.19,8,14.42,8.32c9.8,0.28,19.25-0.02,21.5-0.1c2.25,0.06,11.71,0.25,21.5-0.13
						c11.23-0.44,14.33-8.47,14.33-8.47s0.05-83.82-0.5-91.62C318.04,130.44,310.74,126.13,310.74,126.13z"/>
				</g>
				<g>
					<path class="st13" d="M306.55,233.39c-3.33,0.02-6.02,2.32-6.01,5.15c0.02,2.82,2.73,5.1,6.06,5.08
						c3.33-0.02,6.02-2.32,6.01-5.15C312.6,235.65,309.88,233.37,306.55,233.39z"/>
				</g>
				<g>
					<path class="st14" d="M306.56,236.32c-1.43,0.01-2.58,0.99-2.57,2.2c0.01,1.21,1.17,2.18,2.59,2.17
						c1.43-0.01,2.58-0.99,2.57-2.2C309.15,237.28,307.99,236.31,306.56,236.32z"/>
				</g>
				<g>
					<path class="st13" d="M259.3,233.65c-3.33,0.02-6.02,2.32-6.01,5.15c0.02,2.82,2.73,5.1,6.06,5.08
						c3.33-0.02,6.02-2.32,6.01-5.15C265.35,235.9,262.63,233.63,259.3,233.65z"/>
				</g>
				<g>
					<path class="st14" d="M259.31,236.57c-1.43,0.01-2.58,0.99-2.57,2.2c0.01,1.21,1.17,2.18,2.59,2.17
						c1.43-0.01,2.58-0.99,2.57-2.2C261.9,237.54,260.74,236.57,259.31,236.57z"/>
				</g>
				<g>
					<path class="st15" d="M307.73,139.04l-50,0.27c-2.38,0.01-4.33,1.97-4.31,4.36l0.45,81.85c0.01,2.38,1.97,4.33,4.36,4.31
						l50-0.27c2.38-0.01,4.33-1.98,4.31-4.36l-0.45-81.85C312.08,140.96,310.12,139.02,307.73,139.04z"/>
				</g>
				<g>
					<path class="st12" d="M296.42,77.29l-28.05,0.15c-1.29,0.01-2.34,1.07-2.34,2.36l0,0.25c0.01,1.29,1.07,2.34,2.36,2.34
						l28.05-0.15c1.29-0.01,2.34-1.07,2.34-2.36l0-0.25C298.77,78.33,297.71,77.28,296.42,77.29z"/>
				</g>
				<g>
					<g>
						<path class="st1" d="M312.04,133.6c-17.11,0.09-34.21,0.19-51.32,0.28c-2.45,0.01-4.9,0.03-7.35,0.04
							c-0.7,0-0.69,1.09,0.01,1.08c17.11-0.09,34.21-0.19,51.32-0.28c2.45-0.01,4.9-0.03,7.35-0.04
							C312.74,134.68,312.74,133.6,312.04,133.6z"/>
					</g>
				</g>
			</g>
		</g>
		<g>
			<g>
				<path class="st16" d="M241.99,207.49c6.1-0.01,12.11,2.65,16.1,7.28c0.7,0.81-0.48,1.99-1.18,1.18
					c-3.62-4.21-8.97-6.69-14.52-6.79c-5.61-0.1-11.72,2.36-14.16,7.71c-0.44,0.97-1.88,0.13-1.44-0.84
					C229.41,210.29,235.97,207.5,241.99,207.49z"/>
			</g>
			<path class="st17" d="M208.4,230.17c5.26-4.27,7.17-2.75,11-9.94s6.93-7.85,6.93-7.85h13.48h5.41h13.48c0,0,3.11,0.66,6.93,7.85
				c3.83,7.19,5.74,5.67,11,9.94c5.26,4.27,5.98,13.93,5.98,13.93h-36.19h-7.8h-36.19C202.42,244.1,203.14,234.44,208.4,230.17z"/>
			<g>
				<g>
					<path class="st18" d="M201.77,119.9c0,10.7,0,21.4,0,32.1c0,1.53,0,3.06,0,4.59c0,1.07-1.66,1.07-1.66,0c0-10.7,0-21.4,0-32.1
						c0-1.53,0-3.06,0-4.59C200.11,118.83,201.77,118.82,201.77,119.9z"/>
				</g>
				<g>
					<path class="st18" d="M183.41,119.9c0,10.7,0,21.4,0,32.1c0,1.53,0,3.06,0,4.59c0,1.07-1.66,1.07-1.66,0c0-10.7,0-21.4,0-32.1
						c0-1.53,0-3.06,0-4.59C181.75,118.83,183.41,118.82,183.41,119.9z"/>
				</g>
				<path class="st19" d="M170.16,153.61h21.14h0.78h21.14c0,0,5.58,3.34,5.97,9.32c0.39,5.99,0,70.24,0,70.24
					s-2.41,6.14-11.02,6.44c-7.51,0.26-14.75,0.07-16.48,0.01c-1.73,0.05-8.97,0.24-16.48-0.01c-8.61-0.29-11.02-6.44-11.02-6.44
					s-0.39-64.26,0-70.24C164.58,156.94,170.16,153.61,170.16,153.61z"/>
				<path class="st20" d="M173.83,235.82c2.56,0,4.63,1.75,4.63,3.92c0,2.16-2.07,3.92-4.63,3.92c-2.56,0-4.63-1.75-4.63-3.92
					C169.2,237.57,171.27,235.82,173.83,235.82z"/>
				<path class="st21" d="M173.83,238.06c1.09,0,1.98,0.75,1.98,1.68c0,0.93-0.89,1.68-1.98,1.68c-1.09,0-1.98-0.75-1.98-1.68
					C171.85,238.81,172.73,238.06,173.83,238.06z"/>
				<path class="st20" d="M210.05,235.82c2.56,0,4.63,1.75,4.63,3.92c0,2.16-2.07,3.92-4.63,3.92c-2.56,0-4.63-1.75-4.63-3.92
					C205.42,237.57,207.5,235.82,210.05,235.82z"/>
				<path class="st21" d="M210.05,238.06c1.09,0,1.98,0.75,1.98,1.68c0,0.93-0.89,1.68-1.98,1.68c-1.09,0-1.98-0.75-1.98-1.68
					C208.07,238.81,208.96,238.06,210.05,238.06z"/>
				<path class="st22" d="M172.52,163.49h38.33c1.83,0,3.32,1.5,3.32,3.32v62.75c0,1.83-1.5,3.32-3.32,3.32h-38.33
					c-1.83,0-3.32-1.5-3.32-3.32v-62.75C169.2,164.98,170.7,163.49,172.52,163.49z"/>
				<path class="st23" d="M180.94,116.11h21.51c0.99,0,1.8,0.81,1.8,1.8v0.19c0,0.99-0.81,1.8-1.8,1.8h-21.51
					c-0.99,0-1.8-0.81-1.8-1.8v-0.19C179.14,116.92,179.95,116.11,180.94,116.11z"/>
				<g>
					<path class="st18" d="M169.2,159.34c13.12,0,26.23,0,39.35,0c1.88,0,3.76,0,5.63,0c0.53,0,0.54,0.83,0,0.83
						c-13.12,0-26.23,0-39.35,0c-1.88,0-3.76,0-5.63,0C168.67,160.17,168.66,159.34,169.2,159.34z"/>
				</g>
			</g>
			<path class="st21" d="M229.61,199.65c3.09-0.19,10.97-0.13,15.98,4.78c6.34,6.22,22.76,40.57,22.76,40.57s0,0-1.3,0
				c-1.3,0-18.87-33.08-23.34-37.75c-3.52-3.68-11.08-4.46-14.11-4.62c-3.03,0.16-10.59,0.94-14.11,4.62
				c-4.47,4.67-22.04,37.75-23.34,37.75c-1.3,0-1.3,0-1.3,0s16.42-34.35,22.76-40.57C218.64,199.52,226.53,199.46,229.61,199.65z"/>
			<path class="st21" d="M201.86,169.82c3.6,9.62,7.51,28.19,21.52,29.64c5.62,0.58,11.32,0.39,16.94-0.16
				c3.02-0.29,6.15-1.44,9.22-1.08c0.37,0.04,0.74,0.11,1.1,0.2c1.35,0.33,7.88,3.12,4.39,4.28c-2.87,0.95-6.85,0.65-9.86,0.82
				c-5.44,0.3-10.8,0.09-16.24,0.14c-5.4,0.05-13.72,0.86-17.85-3.35c-4.99-5.09-20.94-46.58-19.78-50.85
				C192.45,145.19,198.26,160.19,201.86,169.82z"/>
			<path class="st23" d="M277.79,236.69c0,0,4.71,3.01,7.96,4.68c3.25,1.68,3.67,2.1,2.49,3.01c-1.18,0.91-7.96,0.77-9.07,0
				c-1.11-0.77-1.73,0.35-1.73,0.35s-2.63,0.49-3.19-0.21c-0.55-0.7,0.02-5.5,0.02-5.5S275.23,236.48,277.79,236.69z"/>
			<path class="st24" d="M288.32,173.69c2.79,8.11-10.49,43.81-7.31,64.98c0,0-2.82-1.86-6.52,0c0,0-10.3-28.69-7.87-43.76
				c2.43-15.07-22.38-14.51-24.01-15.07c-1.63-0.56-12.99-8.11-12.99-8.11S285.53,165.58,288.32,173.69z"/>
			<path class="st25" d="M217.84,124.48c13.84-1.34,23.68,10.21,23.68,10.21c2.93,2.96,9.31,17.46,13.31,22.57
				c3.99,5.1,20.51,8.28,20.51,8.28c-0.78,1.3-1.35,3.54-1.35,3.54s-20.49-0.54-22.89-1.07c-2.4-0.54-10.11-5.37-13.04-8.33
				c-2.93-2.96-4.79-2.42-4.79-2.42c-5.85,3.76-2.66,16.12-2.66,16.12c-14.9,8.06-23.95,0-23.95,0s1.06-1.07,1.33-6.99
				s-5.06-20.95-5.85-26.87C201.35,133.62,204.01,125.82,217.84,124.48z"/>
			<path class="st26" d="M225.27,108.57c1.73-0.9,4-0.95,5.83-0.15c1.26,0.55,2.33,1.5,2.88,2.85c1.63,3.98-0.97,9.21-3.9,11.87
				c-0.49,0.44-1.04,0.78-1.62,1l-0.8,3.38c0,0-3.67,1.44-5.3-1.65l0.55-3.52c-0.17-0.21-0.34-0.44-0.5-0.69
				C219.66,117.34,220.49,111.07,225.27,108.57z"/>
			<path class="st26" d="M249.46,164.93c3.09-0.96,7.12,3.83,7.12,3.83s-4.51,0.24-6.17-0.48c-1.66-0.72-2.37,0-3.32,0.48
				c-0.95,0.48-2.61,0-2.61,0c0.95-1.92,0-2.88,0-2.88S246.38,165.89,249.46,164.93z"/>
			<path class="st26" d="M275.35,165.54c1.06-0.54,5.57,1.12,5.57,1.12l-0.8,2.42h-6.12C273.99,169.08,274.28,166.07,275.35,165.54z
				"/>
			<path class="st27" d="M221.13,105.94c0.34-0.58,0.08-1.3,0.34-1.91c0.24-0.58,0.81-1.02,1.29-1.38c2.24-1.65,2.85,0,4.69,0
				c1.12,0,2.19-0.95,3.34-0.42c1.15,0.53,1.61,1.94,2.76,2.48c0.89,0.41,2.77,0.19,2.93,1.52c0.01,0.05,0.01,0.09,0.01,0.13
				c0.08,0.93-0.21,1.57,0.74,2.26c1.43,1.03,1.83,2.26,1.63,4.32c-0.2,2.06-2.24,1.85-2.85,2.06c-0.61,0.21-0.41,2.26-1.22,2.88
				c-1.06,0.8-1.86,1.87-2.68,2.9c0.24-0.74-0.1-1.56-0.04-2.32c0.05-0.64,0.42-1.58-0.07-2.14c-0.34-0.39-0.97-0.63-1.38-0.93
				c-0.75-0.55-1.41-1.05-1.95-1.83c-1.43-2.06-2.65-2.88-3.06-2.06c-0.41,0.82-1.43,2.47-2.45,2.47c-1.02,0-2.96,1.43-2.19,3.91
				c0.77,2.47,1.12,3.29,1.12,3.29s-2.8-1.23-3-4.31c-0.2-3.09,0.41-3.5-0.61-4.73c-1.02-1.23-0.61-3.09,0-4.32
				C219.09,106.55,220.52,106.97,221.13,105.94z"/>
			<path class="st28" d="M218.51,137.51c3.59,6.85,3.06,18.94,3.06,22.16c0,3.22,23.28,6.16,23.28,6.16c1.74,1.94-0.4,3.24-0.4,3.24
				s-30.07,2.82-33.13,0.54c-3.06-2.28-13.97-32.37-7.72-38.03C209.86,125.93,214.92,130.66,218.51,137.51z"/>
			<path class="st29" d="M229.61,171.74c0,0,40.45-5.31,47.65,0c7.2,5.31,22.02,34.47,46.12,64.95c0,0-2.44,0.54-3.55,2.68
				c0,0-33.99-18.69-39.9-33.61c-5.91-14.92-18.1-11-26.78-8.39c-8.68,2.61-32.41,9.04-41.65-3.64
				c-9.23-12.68-4.85-20.36-4.85-20.36S216.59,177.42,229.61,171.74z"/>
			<g>
				<path class="st23" d="M291.46,135.47c0.48-1.51,0.96-3.02,1.45-4.54c0.49-1.52,2.89-0.87,2.4,0.66
					c-3.44,10.79-6.88,21.58-10.33,32.37c-0.48,1.51-0.96,3.02-1.45,4.54c-0.49,1.52-2.89,0.87-2.4-0.66
					C284.58,157.05,288.02,146.26,291.46,135.47z"/>
			</g>
			<g>
				<path class="st23" d="M242.51,168.07c11.2,0.04,22.4,0.09,33.6,0.13c1.6,0.01,3.2,0.01,4.8,0.02c1.07,0,1.07,1.67,0,1.66
					c-11.2-0.04-22.4-0.09-33.6-0.13c-1.6-0.01-3.2-0.01-4.8-0.02C241.44,169.73,241.44,168.07,242.51,168.07z"/>
			</g>
			<path class="st23" d="M323.39,236.69c0,0,4.71,3.01,7.96,4.68c3.26,1.68,3.67,2.1,2.49,3.01c-1.18,0.91-7.96,0.77-9.07,0
				c-1.11-0.77-1.73,0.35-1.73,0.35s-2.63,0.49-3.19-0.21c-0.55-0.7,0.02-5.5,0.02-5.5S320.82,236.48,323.39,236.69z"/>
			<g>
				<path class="st10" d="M181.92,211.86c1.16-3.17,11.95-3.06,13.35-3.03c4.72,0.1,9.44,0.25,14.16,0.12
					c4.72-0.13,9.39-0.64,14.11-0.23c2.63,0.23,5.41,0.32,5.53,3.14c0,0,0.18,4.14,0.33,9.37c0.26,8.7,0.45,20.42-0.33,21.19
					c-1.24,1.24-4.71,3.23-8.93,1.74c-4.22-1.49-14.64-2.48-14.64-2.48s-10.42,0.99-14.64,2.48c-4.22,1.49-7.69-0.5-8.93-1.74
					c-0.77-0.77-0.58-12.5-0.33-21.19C181.74,216,181.92,211.86,181.92,211.86z"/>
				<g>
					<path class="st30" d="M208.78,203.06c2.54,1.02,4.8,2.84,6.46,5c0.98,1.27-1.19,2.51-2.15,1.26c0.39,0.5-0.09-0.09-0.21-0.23
						c-0.29-0.34-0.61-0.66-0.93-0.97c-1.01-0.97-2.14-1.82-3.4-2.45c-4.22-2.09-8.04,0.19-10.68,3.65
						c-0.96,1.26-3.13,0.02-2.15-1.26C198.9,203.9,203.52,200.95,208.78,203.06z"/>
				</g>
				<path class="st30" d="M195.27,208.83c4.72,0.1,9.44,0.25,14.16,0.12c4.72-0.13,9.39-0.64,14.11-0.23
					c2.63,0.23,5.41,0.32,5.53,3.14c0,0,0.18,4.14,0.33,9.37c-5.14,6.09-13.93,10.11-23.9,10.11c-9.97,0-18.76-4.01-23.9-10.11
					c0.15-5.24,0.33-9.37,0.33-9.37C182.87,208.57,193.87,208.8,195.27,208.83z"/>
				<g>
					<path class="st10" d="M189.29,222.6c9.83,5.22,22.06,4.36,32.04,0c0.97-0.42,1.82,1.01,0.84,1.44
						c-10.55,4.61-23.31,5.52-33.72,0C187.5,223.54,188.34,222.1,189.29,222.6z"/>
				</g>
			</g>
		</g>
		<g>
			<path class="st5" d="M217.36,241.87c-0.46-2.02-0.94-4.09-1.46-6.19c-5.5-21.98-12.36-30.68-17.4-32.97c-5.04-2.29,0,26.1,0,26.1
				s-6.87-16.94-16.94-27.93c-10.07-10.99-20.61-10.99-16.94-4.12c3.66,6.87,10.07,51.75,10.53,55.41
				c0.46,3.66,23.35,27.48,23.35,27.48c22.9,52.66,87.01,47.63,87.01,47.63s-39.38-30.68-51.29-41.21
				C223.44,276.53,221.67,261.01,217.36,241.87z"/>
		</g>
	</g>
</g>
</svg>
