<?xml version="1.0" encoding="utf-8"?>
<!-- Generator: Adobe Illustrator 24.0.2, SVG Export Plug-In . SVG Version: 6.00 Build 0)  -->
<svg version="1.1" xmlns="http://www.w3.org/2000/svg" xmlns:xlink="http://www.w3.org/1999/xlink" x="0px" y="0px"
	 viewBox="0 0 475 443" style="enable-background:new 0 0 475 443;" xml:space="preserve">
<style type="text/css">
	.st0{fill:#C1E3F5;}
	.st1{fill:#75A1C1;}
	.st2{fill:#EEF6FC;}
	.st3{fill:#7DB8B6;}
	.st4{opacity:0.25;clip-path:url(#XMLID_16_);fill:#606060;}
	.st5{clip-path:url(#XMLID_17_);fill:#D26E65;}
	.st6{fill:#424E64;}
	.st7{fill:#531D2B;}
	.st8{fill:#E8AA50;}
	.st9{clip-path:url(#XMLID_18_);fill:#85B7B1;}
	.st10{clip-path:url(#XMLID_19_);fill:#85B7B1;}
	.st11{fill:#D1767C;}
	.st12{fill:#B95F6A;}
	.st13{opacity:0.15;clip-path:url(#XMLID_20_);fill:#606060;}
	.st14{clip-path:url(#XMLID_20_);fill:#D7CBAE;}
	.st15{opacity:0.15;clip-path:url(#XMLID_21_);fill:#606060;}
	.st16{fill:#EBE6D5;}
	.st17{fill:#57667D;}
	.st18{fill:#8ABCB7;}
	.st19{fill:#9B5F46;}
	.st20{fill:none;stroke:#7E4834;stroke-width:0.3863;stroke-miterlimit:10;}
	.st21{fill:none;stroke:#7E4834;stroke-width:0.3084;stroke-miterlimit:10;}
	.st22{fill:#71222F;}
	.st23{fill:#D9D3C1;}
	.st24{fill:#EED1A0;}
	.st25{fill:#46333B;}
	.st26{clip-path:url(#XMLID_22_);}
	.st27{fill:#322229;}
	.st28{fill:#D94357;}
	.st29{opacity:0.56;fill:#DBB67C;}
	.st30{fill:none;}
	.st31{fill:#FFFFFF;}
	.st32{font-family:'MyriadPro-Regular';}
	.st33{font-size:27.5168px;}
	.st34{letter-spacing:2;}
	.st35{opacity:0.25;clip-path:url(#XMLID_23_);fill:#606060;}
	.st36{clip-path:url(#XMLID_24_);fill:#D26E65;}
	.st37{clip-path:url(#XMLID_25_);fill:#85B7B1;}
	.st38{clip-path:url(#XMLID_26_);fill:#85B7B1;}
	.st39{opacity:0.15;clip-path:url(#XMLID_27_);fill:#606060;}
	.st40{clip-path:url(#XMLID_27_);fill:#D7CBAE;}
	.st41{opacity:0.15;clip-path:url(#XMLID_28_);fill:#606060;}
	.st42{font-family:'CaviarDreams';}
	.st43{clip-path:url(#XMLID_29_);}
</style>
<g id="BACKGROUND">
</g>
<g id="OBJECTS">
	<g>
		<path class="st1" d="M175.43,282.73l35.41-15.45c-11.09-55.12-77.26-104.39-105.68-123.3c0.03-0.05,0.1-0.06,0.13-0.11
			c0.88-1.34,0.37-3.26-1.07-4.81l13.46,0.48l0.34-9.45c0,0,2.33,4.81,4.35,9.62l20.73,0.75l0.19-5.18c0,0,1.11,2.29,2.45,5.28
			l5.28,0.19l0.34-9.49c0,0,2.34,4.84,4.37,9.66l19.19,0.69c-19.92-19.62-38.34-22.47-52.71-19.55l16.41-8.6l-2.41-4.59
			c0,0,2.1,1.44,4.75,3.37l4.68-2.45l-4.41-8.41c0,0,4.43,3.04,8.58,6.23l17.01-8.91c-24.82-6.58-41.54-1.51-52.65,6.84l7.96-12.09
			l-4.33-2.85c0,0,2.53,0.24,5.78,0.64l2.9-4.41l-7.93-5.22c0,0,5.35,0.51,10.52,1.28l10.56-16.05
			c-52.07,13.14-48.44,53.66-46.16,65.62c-1.73-0.4-3.36-0.06-4.13,1.12c-0.09,0.14-0.08,0.32-0.15,0.47
			c-11.1-8.35-43.83-26.94-78.21,11.23l19.12-1.84c1.73-4.94,3.78-9.9,3.78-9.9l0.91,9.45l5.26-0.51c1.17-3.06,2.13-5.41,2.13-5.41
			l0.5,5.16l20.65-1.99c1.73-4.92,3.76-9.86,3.76-9.86l0.9,9.41l21.87-2.1c0.08,0.11,0.12,0.23,0.21,0.34
			c-11.49,2.47-50.91,14.92-42.29,68.42l10.56-16.05c-2.76-4.44-5.34-9.16-5.34-9.16l7.93,5.22l2.9-4.41
			c-1.65-2.83-2.88-5.06-2.88-5.06l4.33,2.85l7.96-12.09c-3.27,13.51-1.31,30.87,14.56,51.06l1.45-19.15
			c-4.57-2.55-9.12-5.41-9.12-5.41l9.47,0.72l0.4-5.27c-2.82-1.67-4.97-3.03-4.97-3.03l5.17,0.39l1.56-20.68
			c-4.55-2.54-9.07-5.39-9.07-5.39l9.43,0.71l1.23-16.25c0.37,0.39,0.77,0.78,1.26,1.11c2.44,1.61,5.32,1.53,6.44-0.17
			c0.26-0.4,0.39-0.86,0.42-1.35c0.86,0.15,1.67,0.12,2.36-0.12C197.15,221.08,175.43,282.73,175.43,282.73z M71.37,153.39
			l5.75,3.79c-0.55,1.12-1.07,2.28-1.56,3.48C73.27,156.86,71.37,153.39,71.37,153.39z M108.58,110.45
			c-0.91,0.92-1.77,1.86-2.58,2.81l-5.75-3.79C100.25,109.48,104.2,109.86,108.58,110.45z M115.4,123.94l-3.7-7.06
			c0,0,3.99,2.74,7.95,5.75C118.18,123,116.77,123.46,115.4,123.94z"/>
		<g>
			<path class="st1" d="M396.68,23.96c-3.85-1.52-8.15-1.43-11.92,0.26l15.43,8.49l8.11-4.16L396.68,23.96z"/>
			<path class="st1" d="M432.82,16.72c-1.06,0.06-2.1,0.35-3.05,0.84l-21.47,11l-8.11,4.16l-23.04,11.81l-8.02-2.72l0.31-0.51
				c0.44-0.72-0.27-1.59-1.06-1.31l-7.09,2.53c-0.63,0.23-0.55,1.14,0.11,1.26l3.97,0.69l13.32,11.32l24.35-13.02
				c-0.87,6.1-2.97,19.58-2.97,19.58l4.26-4.21c1.78-1.76,2.98-4.01,3.44-6.47c0.72-3.84,1.83-9.65,2.55-12.79l29.21-15.62
				c1.48-0.79,1.82-2.82,0.61-3.98C437.72,16.93,434.74,16.62,432.82,16.72z"/>
		</g>
		<rect x="193.7" y="239.96" class="st30" width="90.19" height="24.84"/>
		<text transform="matrix(1 0 0 1 193.6958 259.495)" class="st31 st32 st33 st34">HOTEL</text>
		<g>
			<g>
				<polygon class="st2" points="71.45,380.35 30.26,282.24 66.51,244.9 109.76,245.97 139.68,214.18 182.34,209.25 226.79,315.13 
					188.16,319.33 149.12,347.74 110.28,349.14 				"/>
				<polygon class="st1" points="73.48,373.73 35.74,283.85 70.45,249.01 111.3,249.48 139.97,219.83 180.33,214.78 221.05,311.77 
					184.5,316.1 147.26,342.75 110.54,344.51 				"/>
				<g>
					<path class="st3" d="M122.56,276.47c0,0-0.53-1.32-2.9,0.4c-2.37,1.72-5.15,0.54-5.28,2.12c-0.13,1.58-0.13,1.58-0.92,3.43
						c-0.79,1.85-2.9,4.23-1.84,6.87c1.06,2.64,0.01,3.83,1.2,4.88c1.19,1.05,1.06,2.64,2.91,3.43c1.85,0.79,3.43,0.92,4.49-0.27
						c1.05-1.19,3.03-1.99,3.3-1.33c0.27,0.66,1.58,0.13,1.58,0.13s1.58,0.13,1.19,1.05c-0.39,0.93,0.01,3.83,0.93,4.22
						c0.93,0.39,1.85,0.79,1.72,2.37c-0.13,1.58,1.33,3.3,0.67,3.56c-0.66,0.27-0.39,4.75,1.2,4.88c1.58,0.13,1.46,1.71,1.99,3.03
						c0.53,1.32,0.8,1.98,1.72,2.37c0.92,0.39-0.39,0.93,1.19,1.05c1.58,0.13,5.8-4.63,5.27-5.95c-0.53-1.32,0.39-0.93-0.14-2.24
						c-0.53-1.32-0.01-3.83,1.31-4.36c1.32-0.53-2.39-5.94-1.33-7.13c1.05-1.19,2.37-5.55,3.42-6.74c1.05-1.19,1.97-4.63,0.65-4.09
						c-1.32,0.53-4.88,1.2-4.49,0.27c0.39-0.93-3.18-4.09-3.44-4.75c-0.27-0.66-1.19-1.05-1.72-2.37c-0.53-1.32-0.99-1.52-0.33-1.78
						c0.66-0.27,0.14,2.24,1.72,2.37c1.58,0.13,1.72,2.37,2.65,2.77c0.93,0.39,0.8,1.98,1.72,2.37c0.93,0.39,4.35-2.52,4.35-2.52
						s2.5-3.31,1.58-3.7c-0.93-0.39-2.78-1.18-3.43-0.92c-0.66,0.27-1.85-0.79-2.12-1.45c-0.27-0.66-2.12-1.45-1.46-1.71
						c0.66-0.27,2.24-0.14,2.78,1.18c0.53,1.32,2.78,1.18,3.43,0.92s-0.13,1.58,1.85,0.79c1.98-0.8,1.98-0.8,3.83-0.01
						c1.85,0.79,0.53,1.32,1.72,2.37c1.19,1.05,1.59,3.96,2.25,3.69c0.66-0.27,1.72,2.37,2.38,2.11c0.66-0.27,1.31-4.36,0.39-4.75
						c-0.93-0.39,1.97-4.63,2.63-4.89c0.66-0.27,1.45-2.12,1.98-0.8c0.53,1.32-0.26,3.17,1.33,3.3c1.58,0.13,2.78,5.01,3.44,4.75
						c0.66-0.27,0.52-2.51,0.52-2.51s1.99,3.03,2.38,2.11s1.45-2.12,1.18-2.78c-0.27-0.66-1.06-2.64-1.99-3.03
						c-0.93-0.39-0.27-0.66,0.13-1.58c0.39-0.92,1.05-1.19,1.32-0.53c0.27,0.66,0.53,1.32,0.53,1.32s-0.53-1.32,0.52-2.51
						c1.05-1.19,3.03-1.99,2.5-3.31c-0.53-1.32-0.93-4.22-1.86-4.62c-0.93-0.39-2.12-1.45-1.46-1.71c0.66-0.27-2.51-0.52-1.19-1.05
						c1.32-0.53,2.64-1.06,3.17,0.26c0.53,1.32,1.33,3.3,1.72,2.37c0.39-0.93,1.45-2.12,0.52-2.51c-0.93-0.39-2.12-1.45-1.06-2.64
						c1.05-1.19,1.45-2.12,0.92-3.43c-0.53-1.32-1.06-2.64-1.06-2.64s-1.46-1.71-2.78-1.18c-1.32,0.53-2.5,3.31-1.98,0.8
						c0.52-2.51,0.65-4.09,2.24-3.97c1.58,0.13,2.51,0.52,2.51,0.52c0.79-1.85,0.39-0.93,1.71-1.46c1.32-0.53,1.71-1.46,1.32-0.53
						c-0.39,0.93-0.13,1.58,0.14,2.24c0.27,0.66,1.46,1.71,1.46,1.71l0.93,0.39c0,0,1.33,3.3,1.19,1.05
						c-0.14-2.24-0.67-3.56-1.59-3.96c-0.93-0.39-0.53-1.32,0.79-1.85c1.32-0.53,4.22-0.93,2.37-1.72c-1.85-0.79-0.8-1.98-0.8-1.98
						l1.58,0.13c0,0-6.34-0.52-10.56,0.42c-4.22,0.93-5.41-0.12-6.73,0.41c-1.32,0.53-0.53-1.32-3.17-0.26
						c-2.64,1.06-3.3,1.33-6.2,1.73c-2.9,0.4-5.68-0.78-6.34-0.52c-0.66,0.27,2.77-2.65-0.53-1.32c-3.3,1.33-6.47,1.07-7.92,3.18
						c-1.45,2.12-2.77,2.65-2.77,2.65s-2.9,0.4-3.3,1.33c-0.39,0.93-2.64,1.06-2.64,1.06l-2.24,0.14c0,0-1.84,3.04-2.77,2.65
						c-0.93-0.39-0.93-0.39-0.93-0.39l1.05-1.19l-1.85-0.79c0,0-2.78-1.18-3.83,0.01c-1.05,1.19-1.58,3.7-1.97,4.63
						c-0.39,0.93-0.39,0.93-1.45,2.12c-1.05,1.19-2.37,1.72-0.79,1.85c1.58,0.13,0.53,1.32,2.24-0.14c1.71-1.46,1.45-2.12,2.77-2.65
						c1.32-0.53,1.58,0.13,0.53,1.32c-1.05,1.19-2.77,2.65-2.5,3.31c0.27,0.66-2.9,0.4-3.56,0.67c-0.66,0.27-1.18,2.78-1.84,3.04
						c-0.66,0.27-2.9,0.4-1.98,0.8c0.93,0.39,2.51,0.52,1.46,1.71c-1.05,1.19-3.56,0.67-3.3,1.33c0.27,0.66,0.67,3.56,0.67,3.56
						s2.51,0.52,3.56-0.67c1.05-1.19,1.18-2.78,1.58-3.7c0.39-0.93,1.05-1.19,1.98-0.8c0.93,0.39,4.43,2.43,4.03,3.36
						c-0.39,0.93,2.24-0.14,1.05-1.19c-1.19-1.05-2.67-3.42-2.45-3.23c0,0,2.78,1.18,3.04,1.84c0.27,0.66,1.33,3.3,1.72,2.37
						c0.39-0.92-0.14-2.24,0.52-2.51c0.66-0.27,1.33,3.3,1.72,2.37c0.39-0.93,4.22-0.93,3.83-0.01c-0.39,0.93,1.06,2.64-1.18,2.78
						c-2.24,0.14-5.02-1.05-4.75-0.39c0.27,0.66,2.65,2.77-0.79,1.85c-3.44-0.92-4.09-0.65-4.63-1.97
						C122.1,276.27,122.56,276.47,122.56,276.47z"/>
					<path class="st3" d="M116.21,268.29c0,0-2.9,0.4-2.24,0.14c0.66-0.27-0.14-2.24-0.14-2.24l-0.8-1.98c0,0-0.53-1.32,0.13-1.58
						c0.66-0.27,0.93,0.39,0.93,0.39l0.8,1.98l1.19,1.05c0,0,1.46,1.71,0.8,1.98c-0.66,0.27-1.05,1.19-1.05,1.19
						s-1.98,0.8-2.24,0.14c-0.27-0.66-0.53-1.32-0.53-1.32l0.39-0.93l1.32-0.53"/>
					<path class="st3" d="M111.85,266.98c0,0-0.66,0.27-0.39,0.93c0.27,0.66,1.19,1.05,1.19,1.05s0.39-0.93,0.13-1.58
						C112.51,266.71,112.51,266.71,111.85,266.98z"/>
					<path class="st3" d="M145.6,310.89c-1.31-0.56-2.38-2.11-1.06-2.64c1.32-0.53,0.92-3.43,0.92-3.43l1.71-1.46
						c0,0,0.14,2.24-0.26,3.17C146.52,307.45,148.37,312.07,145.6,310.89z"/>
					<path class="st3" d="M179.4,311.09c-1.19-1.05-2.38-2.11-1.33-3.3c1.05-1.19,0.12-5.41,2.76-6.48c2.64-1.06,1.58-3.7,3.56-4.5
						c1.98-0.8,4.22-0.93,6.47-1.07s3.43-2.91,3.83-0.01c0.4,2.9,2.65,6.6,1.6,7.79c-1.05,1.19,0.01,3.83-2.37,5.55
						c-2.37,1.72-5.94,2.39-6.07,0.14c-0.14-2.24-1.59-3.96-2.65-2.77c-1.05,1.19-1.71,1.46-2.77,2.65
						C181.38,310.3,180.59,312.15,179.4,311.09z"/>
					<path class="st3" d="M175.54,291.95c2.09-0.84,2.9-0.4,3.03-1.99c0.13-1.58-1.72-2.37-0.67-3.56c1.05-1.19,0.26-3.17-0.8-1.98
						c-1.05,1.19-0.79,1.85-1.84,3.04C174.21,288.65,174.88,292.22,175.54,291.95z"/>
					<path class="st3" d="M167.48,289.06c0.27,0.66,0.14,2.24,1.72,2.37c1.58,0.13,1.46,1.71,2.65,2.77
						c1.19,1.05,1.72,2.37,3.7,1.58c1.98-0.8,2.9-0.4,2.9-0.4s2.51,0.52,2.9-0.4s0.39-0.93-1.19-1.05
						c-1.58-0.13-3.83,0.01-4.75-0.39c-0.93-0.39-1.71,1.46-2.51-0.52c-0.8-1.98-1.06-2.64-2.91-3.43
						C168.14,288.8,167.21,288.4,167.48,289.06z"/>
					<path class="st3" d="M163.77,283.65c0.93,0.39,0.93,0.39,0.93,0.39s0.13-1.58-0.53-1.32
						C163.51,282.99,162.85,283.26,163.77,283.65z"/>
					<path class="st3" d="M176.97,278.35c0.27,0.66,0.8,1.98,0.8,1.98s1.98-0.8,1.58,0.13c-0.39,0.93,0.8,1.98,1.06,2.64
						c0.27,0.66,0.14,2.24,0.53,1.32c0.39-0.93,0.52-2.51,0.52-2.51s-1.58-0.13-1.46-1.71c0.13-1.58-0.14-2.24-0.8-1.98
						c-0.66,0.27-1.32,0.53-1.58-0.13C177.36,277.42,176.7,277.69,176.97,278.35z"/>
					<path class="st3" d="M175.38,274.39c0.53,1.32,1.19,1.05,1.19,1.05s1.05-1.19,0.13-1.58
						C175.77,273.46,175.11,273.73,175.38,274.39z"/>
					<path class="st3" d="M177.74,268.84c0,0-1.46-1.71-0.14-2.24c1.32-0.53,2.64-1.06,2.11-2.38c-0.53-1.32-0.8-1.98-1.06-2.64
						c-0.27-0.66,1.05-1.19,1.05-1.19s0.66-0.27,0.53,1.32c-0.13,1.58,1.99,3.03,1.33,3.3c-0.66,0.27-1.18,2.78-2.11,2.38
						C178.53,266.99,178.01,269.5,177.74,268.84z"/>
					<path class="st3" d="M199.88,314.36c0.13-1.58,1.84-3.04,3.16-3.57c1.32-0.53,1.71-1.46,1.45-2.12
						c-0.27-0.66-1.06-2.64-0.14-2.24c0.93,0.39,2.12,1.45,1.72,2.37c-0.39,0.93-3.16,3.57-3.16,3.57S199.75,315.94,199.88,314.36z"
						/>
					<path class="st3" d="M103.13,338.7c-0.71-0.06-6.07,0.14-7.14-2.5c-1.06-2.64-2.25-3.69-1.59-3.96
						c0.66-0.27-1.59-3.96-1.2-4.88c0.39-0.93-3.05-9.5-3.98-9.9c-0.93-0.39-3.57-3.16-4.1-4.48c-0.53-1.32-1.85-0.79-1.99-3.03
						s-0.67-3.56-0.01-3.83c0.66-0.27-0.4-2.9,0.65-4.09c1.05-1.19,0.26-3.17,1.84-3.04c1.58,0.13,4.09,0.65,4.09,0.65
						s1.98-0.8,3.17,0.26c1.19,1.05,4.75,0.39,4.63,1.97c-0.13,1.58,0.14,2.24,1.72,2.37c1.58,0.13,3.56-0.67,5.02,1.05
						c1.46,1.71,3.31,2.5,2.25,3.69s-0.66,0.27-0.66,0.27l-0.92,3.43l0.14,2.24l-0.52,2.51l-1.84,3.04c0,0-2.9,4.23-2.63,4.89
						c0.27,0.66,2.25,3.69,1.2,4.88c-1.05,1.19-1.71,1.46-1.18,2.78c0.53,1.32,0.4,2.9,1.33,3.3
						C102.33,336.72,104.71,338.83,103.13,338.7z"/>
					<path class="st3" d="M84.31,303.34c-0.93-0.39-1.46-1.71-2.78-1.18c-1.32,0.53-1.85-0.79-3.97-2.24
						c-2.12-1.45-1.46-1.71-3.43-0.92c-1.98,0.8-4.75-0.39-4.63-1.97c0.13-1.58-3.58-6.99-3.97-6.07c-0.39,0.93,3.18,4.09,2.52,4.35
						c-0.66,0.27-3.7-1.58-4.63-5.8c-0.93-4.22-1.59-3.96-0.14-6.07c1.45-2.12,1.18-6.6,0.52-6.34c-0.66,0.27-1.45,2.12-1.32,0.53
						c0.13-1.58-0.67-3.56-1.33-3.3c-0.66,0.27-1.58-0.13-2.9,0.4c-1.32,0.53-1.32,0.53-2.64,1.06c-1.32,0.53-2.64,1.06-2.51-0.52
						c0.13-1.58,0.39-4.75,1.97-4.63c1.58,0.13,1.58,0.13,2.24-0.14c0.66-0.27,2.37-1.72,2.37-1.72s3.96-1.59,8.05-0.94
						c4.09,0.65,4.62-1.86,8.71-1.2c4.09,0.65,6.2-1.73,7.79-1.6c1.58,0.13,0.92-3.43,3.82-3.84c2.9-0.4,6.73-0.41,5.29,1.71
						c-1.45,2.12-2.5,3.31-2.5,3.31l-2.64,1.06l-1.06-2.64c0,0-1.98,0.8-2.11,2.38c-0.13,1.58,2.78,1.18,2.78,1.18
						s-0.93-0.39,1.85,0.79c2.78,1.18,6.48,2.76,4.76,4.22c-1.71,1.46,0.67,3.56-1.18,2.78c-1.85-0.79-0.8-1.98-2.12-1.45
						c-1.32,0.53-1.98,0.8-1.71,1.46c0.27,0.66,1.58,0.13,1.19,1.05c-0.39,0.92,1.19,1.05-1.05,1.19s-2.11,2.38-3.69,2.25
						c-1.58-0.13-1.98,0.8-3.43,2.91c-1.45,2.12-1.05,5.02-0.78,5.68c0.27,0.66-0.26,3.17-1.05,1.19c-0.8-1.98-0.8-1.98-0.8-1.98
						l-1.98,0.8l-0.52,2.51c0,0-1.05,1.19,0.4,2.9c1.46,1.71,0.27,4.49,1.86,4.62c1.58,0.13,1.33,3.3,2.65,2.77
						c1.32-0.53,2.9-0.4,2.51,0.52C84.31,303.34,84.31,303.34,84.31,303.34z"/>
					<path class="st3" d="M80.99,293.18c-0.67,0.75,1.19,1.05,2.12,1.45c0.93,0.39,1.19,1.05,1.19,1.05l1.32-0.53
						C85.62,295.15,82.05,291.99,80.99,293.18z"/>
				</g>
			</g>
			<g>
				<g>
					<defs>
						<polygon id="XMLID_14_" points="139.68,214.18 109.76,245.97 66.51,244.9 30.26,282.24 71.45,380.35 110.28,349.14 
							149.12,347.74 188.16,319.33 226.79,315.13 182.34,209.25 						"/>
					</defs>
					<clipPath id="XMLID_16_">
						<use xlink:href="#XMLID_14_"  style="overflow:visible;"/>
					</clipPath>
					<polygon class="st4" points="62.76,232.53 116.82,361.3 154.81,357.85 97.83,222.13 					"/>
					<polygon class="st4" points="130.39,195.48 188.26,333.31 243.32,323.58 182.33,178.31 					"/>
				</g>
			</g>
		</g>
		<g>
			<g>
				<g>
					<defs>
						<path id="XMLID_13_" d="M146.36,162.65L92.34,175.1c-7.07,1.63-11.48,8.69-9.85,15.76l12.46,54.02
							c1.63,7.07,8.69,11.48,15.76,9.85l54.02-12.46c7.07-1.63,11.48-8.69,9.85-15.76l-12.46-54.02
							C160.49,165.43,153.43,161.02,146.36,162.65z M104.42,186.66c-2.75,0.63-5.49-1.08-6.12-3.83c-0.63-2.75,1.08-5.49,3.83-6.12
							c2.75-0.63,5.49,1.08,6.12,3.83C108.88,183.29,107.17,186.03,104.42,186.66z M143.71,177.6c-2.75,0.63-5.49-1.08-6.12-3.83
							c-0.63-2.75,1.08-5.49,3.83-6.12c2.75-0.63,5.49,1.08,6.12,3.83C148.17,174.23,146.46,176.97,143.71,177.6z"/>
					</defs>
					<use xlink:href="#XMLID_13_"  style="overflow:visible;fill:#FFFFFF;"/>
					<clipPath id="XMLID_17_">
						<use xlink:href="#XMLID_13_"  style="overflow:visible;"/>
					</clipPath>
					
						<rect x="62.89" y="165.42" transform="matrix(0.9744 -0.2247 0.2247 0.9744 -38.0978 31.5607)" class="st5" width="113.44" height="35.48"/>
				</g>
			</g>
			<g>
				<path class="st6" d="M117.4,237.39l-0.47-2.04l2.02-3.13c4.89-7.41,6.98-11.23,6.17-14.93c-0.57-2.49-2.31-4.51-5.97-3.67
					c-2.23,0.51-3.81,2.07-4.73,3.28l-1.6-2.1c1.37-1.83,3.54-3.44,6.37-4.09c5.28-1.22,8.34,1.89,9.15,5.4
					c1.05,4.53-1.39,8.94-5.41,15.12l-1.54,2.26l0.02,0.08l11.01-2.54l0.64,2.75L117.4,237.39z"/>
				<path class="st6" d="M142.78,208.96l-0.08,0.02l-3.73,3.29l-1.23-2.38l4.69-4.1l2.83-0.65l5.66,24.52l-3.21,0.74L142.78,208.96z
					"/>
			</g>
		</g>
		<g>
			<path class="st7" d="M190.68,103.75l-43.72,27.99l-45.95-71.77l43.72-27.99c3.11-1.99,7.25-1.08,9.24,2.03l38.73,60.5
				C194.7,97.62,193.79,101.76,190.68,103.75z"/>
			<polygon class="st8" points="131.6,53.38 125.79,64.61 132.61,75.26 145.24,74.68 151.05,63.45 144.23,52.8 			"/>
			<g>
				<path class="st8" d="M134.15,97.54c0.61-0.55,1.45-1.22,2.59-1.95c1.4-0.9,2.64-1.23,3.67-1.06c0.94,0.14,1.81,0.7,2.43,1.68
					c0.64,0.99,0.84,1.96,0.66,2.89c-0.24,1.28-1.2,2.47-2.59,3.36c-0.42,0.27-0.83,0.51-1.2,0.63l2.82,4.4l-1.42,0.91L134.15,97.54
					z M138.96,101.93c0.36-0.12,0.77-0.33,1.25-0.64c1.71-1.1,2.22-2.6,1.25-4.11c-0.93-1.45-2.4-1.49-3.97-0.49
					c-0.62,0.4-1.06,0.75-1.26,0.97L138.96,101.93z"/>
				<path class="st8" d="M149.6,98.09l1.07,4.19l-1.47,0.94l-3.3-13.38l1.71-1.1l10.78,8.59l-1.52,0.97l-3.39-2.7L149.6,98.09z
					 M152.49,94.67l-3.1-2.47c-0.7-0.56-1.28-1.11-1.85-1.64l-0.03,0.02c0.25,0.76,0.5,1.54,0.72,2.34l0.96,3.87L152.49,94.67z"/>
				<path class="st8" d="M160.34,93.65c0.89-0.02,2.02-0.28,3-0.91c1.45-0.93,1.81-2.24,1.1-3.35c-0.66-1.03-1.62-1.24-3.47-0.86
					c-2.2,0.51-3.9,0.29-4.9-1.26c-1.1-1.71-0.49-3.89,1.64-5.26c1.12-0.72,2.11-0.98,2.77-1.02l0.35,1.41
					c-0.48,0.03-1.43,0.18-2.42,0.81c-1.5,0.96-1.5,2.22-1.02,2.97c0.66,1.03,1.65,1.1,3.54,0.72c2.32-0.47,3.84-0.18,4.87,1.43
					c1.09,1.7,0.77,3.97-1.82,5.63c-1.06,0.68-2.42,1.11-3.25,1.09L160.34,93.65z"/>
				<path class="st8" d="M170,87.46c0.89-0.02,2.02-0.28,3-0.91c1.45-0.93,1.81-2.24,1.1-3.35c-0.66-1.03-1.62-1.24-3.47-0.86
					c-2.2,0.51-3.9,0.29-4.9-1.26c-1.1-1.71-0.49-3.89,1.64-5.26c1.12-0.72,2.11-0.98,2.77-1.02l0.35,1.41
					c-0.48,0.03-1.43,0.18-2.42,0.81c-1.5,0.96-1.5,2.22-1.02,2.97c0.66,1.03,1.65,1.1,3.54,0.72c2.32-0.47,3.84-0.18,4.87,1.43
					c1.09,1.7,0.77,3.97-1.82,5.63c-1.06,0.68-2.42,1.11-3.25,1.09L170,87.46z"/>
			</g>
		</g>
		<g>
			<defs>
				<path id="XMLID_12_" d="M423.18,149.55l-135.87,80.62c-6.1,3.62-13.99,1.61-17.61-4.49l-22.28-37.54
					c-3.62-6.1-1.61-13.99,4.49-17.61L387.79,89.9c6.1-3.62,13.99-1.61,17.61,4.49l22.28,37.54
					C431.3,138.04,429.28,145.93,423.18,149.55z"/>
			</defs>
			<use xlink:href="#XMLID_12_"  style="overflow:visible;fill:#FFFFFF;"/>
			<clipPath id="XMLID_18_">
				<use xlink:href="#XMLID_12_"  style="overflow:visible;"/>
			</clipPath>
			
				<rect x="390.06" y="55.56" transform="matrix(0.86 -0.5103 0.5103 0.86 0.4402 228.7736)" class="st9" width="54.25" height="116.05"/>
			<path class="st9" d="M334.1,137.73l-69.69,41.35c-0.81,0.48-1.87,0.21-2.35-0.6l0,0c-0.48-0.81-0.21-1.87,0.6-2.35l69.69-41.35
				c0.81-0.48,1.87-0.21,2.35,0.6l0,0C335.18,136.19,334.91,137.25,334.1,137.73z"/>
			<path class="st9" d="M379.76,132.6l-106.3,63.07c-0.49,0.29-1.12,0.13-1.41-0.36l0,0c-0.29-0.49-0.13-1.12,0.36-1.41l106.3-63.07
				c0.49-0.29,1.12-0.13,1.41,0.36l0,0C380.41,131.67,380.24,132.31,379.76,132.6z"/>
			<path class="st9" d="M383.61,139.09l-106.3,63.07c-0.49,0.29-1.12,0.13-1.41-0.36l0,0c-0.29-0.49-0.13-1.12,0.36-1.41
				l106.3-63.07c0.49-0.29,1.12-0.13,1.41,0.36l0,0C384.26,138.17,384.1,138.8,383.61,139.09z"/>
			<path class="st9" d="M387.46,145.59l-106.3,63.07c-0.49,0.29-1.12,0.13-1.41-0.36l0,0c-0.29-0.49-0.13-1.12,0.36-1.41
				l106.3-63.07c0.49-0.29,1.12-0.13,1.41,0.36l0,0C388.11,144.66,387.95,145.3,387.46,145.59z"/>
			<path class="st9" d="M395.36,156.87l-34.25,20.32c-0.16,0.1-0.37,0.04-0.47-0.12l-2.98-5.02c-0.1-0.16-0.04-0.37,0.12-0.47
				l34.25-20.32c0.16-0.1,0.37-0.04,0.47,0.12l2.98,5.02C395.58,156.57,395.52,156.78,395.36,156.87z"/>
		</g>
		<g>
			<defs>
				<path id="XMLID_11_" d="M439.94,192.51l-152.89,39.81c-6.87,1.79-13.89-2.33-15.67-9.2l-11-42.25
					c-1.79-6.87,2.33-13.88,9.2-15.67l152.89-39.81c6.87-1.79,13.89,2.33,15.67,9.2l11,42.25
					C450.92,183.7,446.8,190.72,439.94,192.51z"/>
			</defs>
			<use xlink:href="#XMLID_11_"  style="overflow:visible;fill:#FFFFFF;"/>
			<clipPath id="XMLID_19_">
				<use xlink:href="#XMLID_11_"  style="overflow:visible;"/>
			</clipPath>
			
				<rect x="417.02" y="98.26" transform="matrix(0.9677 -0.252 0.252 0.9677 -25.0497 116.9568)" class="st10" width="54.25" height="116.05"/>
			<path class="st10" d="M357.62,156.46l-78.41,20.42c-0.91,0.24-1.86-0.32-2.09-1.23l0,0c-0.24-0.91,0.32-1.86,1.23-2.09
				l78.41-20.42c0.91-0.24,1.86,0.32,2.09,1.23l0,0C359.08,155.28,358.53,156.23,357.62,156.46z"/>
			<path class="st10" d="M402.91,164.18L283.3,195.33c-0.55,0.14-1.11-0.19-1.26-0.74l0,0c-0.14-0.55,0.19-1.11,0.74-1.26
				l119.62-31.15c0.55-0.14,1.11,0.19,1.26,0.74l0,0C403.79,163.48,403.46,164.04,402.91,164.18z"/>
			<path class="st10" d="M404.81,171.49L285.2,202.64c-0.55,0.14-1.11-0.19-1.26-0.74l0,0c-0.14-0.55,0.19-1.11,0.74-1.26
				L404.3,169.5c0.55-0.14,1.11,0.19,1.26,0.74l0,0C405.69,170.79,405.36,171.35,404.81,171.49z"/>
			<path class="st10" d="M406.72,178.8L287.1,209.95c-0.55,0.14-1.11-0.19-1.26-0.74l0,0c-0.14-0.55,0.19-1.11,0.74-1.26
				l119.62-31.15c0.55-0.14,1.11,0.19,1.26,0.74l0,0C407.6,178.09,407.27,178.66,406.72,178.8z"/>
			<path class="st10" d="M411.18,191.83l-38.54,10.04c-0.18,0.05-0.37-0.06-0.42-0.25l-1.47-5.65c-0.05-0.18,0.06-0.37,0.25-0.42
				l38.54-10.04c0.18-0.05,0.37,0.06,0.42,0.25l1.47,5.65C411.47,191.6,411.36,191.79,411.18,191.83z"/>
		</g>
		<g>
			<g>
				
					<rect x="308.62" y="52.9" transform="matrix(0.3432 -0.9393 0.9393 0.3432 174.0341 357.1563)" class="st6" width="67.56" height="2.47"/>
			</g>
			<g>
				
					<rect x="323.49" y="58.33" transform="matrix(0.3432 -0.9393 0.9393 0.3432 178.7122 374.7068)" class="st6" width="67.56" height="2.47"/>
			</g>
			<path class="st11" d="M370.41,31.57l-19.29-7.05c-1.54-0.56-2.33-2.27-1.77-3.81l0,0c0.56-1.54,2.27-2.33,3.81-1.77l19.29,7.05
				c1.54,0.56,2.33,2.27,1.77,3.81l0,0C373.65,31.34,371.95,32.13,370.41,31.57z"/>
			<path class="st6" d="M292.35,168.78L292.35,168.78c-1.41-0.52-2.14-2.08-1.62-3.49l2.46-6.74l5.11,1.87l-2.46,6.74
				C295.32,168.57,293.76,169.29,292.35,168.78z"/>
			<path class="st6" d="M322.33,179.73L322.33,179.73c-1.41-0.52-2.14-2.08-1.62-3.49l2.46-6.74l5.11,1.87l-2.46,6.74
				C325.31,179.52,323.74,180.25,322.33,179.73z"/>
			<path class="st11" d="M322.97,173.38l-27.25-9.96c-8.62-3.15-13.09-12.77-9.94-21.39l25.24-69.09
				c3.15-8.62,12.77-13.09,21.39-9.94l27.25,9.96c8.62,3.15,13.09,12.77,9.94,21.39l-25.24,69.09
				C341.21,172.05,331.59,176.53,322.97,173.38z"/>
			<path class="st12" d="M294.8,147.28L294.8,147.28c-0.58-0.21-0.87-0.85-0.66-1.43l25.65-70.2c0.21-0.58,0.85-0.87,1.43-0.66l0,0
				c0.58,0.21,0.87,0.85,0.66,1.43l-25.65,70.2C296.02,147.19,295.37,147.49,294.8,147.28z"/>
			<path class="st12" d="M304.62,150.87L304.62,150.87c-0.58-0.21-0.87-0.85-0.66-1.43l25.65-70.2c0.21-0.58,0.85-0.87,1.43-0.66
				l0,0c0.58,0.21,0.87,0.85,0.66,1.43l-25.65,70.2C305.84,150.78,305.2,151.08,304.62,150.87z"/>
			<path class="st12" d="M314.44,154.45L314.44,154.45c-0.58-0.21-0.87-0.85-0.66-1.43l25.65-70.2c0.21-0.58,0.85-0.87,1.43-0.66
				l0,0c0.58,0.21,0.87,0.85,0.66,1.43l-25.65,70.2C315.66,154.37,315.02,154.66,314.44,154.45z"/>
			<path class="st12" d="M324.26,158.04L324.26,158.04c-0.58-0.21-0.87-0.85-0.66-1.43l25.65-70.2c0.21-0.58,0.85-0.87,1.43-0.66
				l0,0c0.58,0.21,0.87,0.85,0.66,1.43l-25.65,70.2C325.48,157.95,324.84,158.25,324.26,158.04z"/>
			<path class="st12" d="M334.17,161.4L334.17,161.4c-0.58-0.21-0.87-0.85-0.66-1.43l25.65-70.2c0.21-0.58,0.85-0.87,1.43-0.66l0,0
				c0.58,0.21,0.87,0.85,0.66,1.43l-25.65,70.2C335.39,161.31,334.74,161.61,334.17,161.4z"/>
		</g>
	</g>
	<g>
		<g>
			<g>
				<defs>
					<rect id="XMLID_10_" x="163.31" y="48.87" width="150.58" height="177.33"/>
				</defs>
				<use xlink:href="#XMLID_10_"  style="overflow:visible;fill:#EBE6D5;"/>
				<clipPath id="XMLID_20_">
					<use xlink:href="#XMLID_10_"  style="overflow:visible;"/>
				</clipPath>
				<rect x="159.3" y="42.37" class="st13" width="158.6" height="8.03"/>
				<rect x="161.21" y="96.64" class="st14" width="12.23" height="4.2"/>
				<rect x="214.33" y="84.41" class="st14" width="12.23" height="4.2"/>
				<rect x="208.98" y="90.53" class="st14" width="12.23" height="4.2"/>
				<rect x="309.11" y="64.54" class="st14" width="12.23" height="4.2"/>
				<rect x="296.88" y="102.37" class="st14" width="12.23" height="4.2"/>
				<rect x="290.77" y="96.26" class="st14" width="12.23" height="4.2"/>
				<rect x="255.99" y="77.15" class="st14" width="12.23" height="4.2"/>
				<rect x="208.22" y="141.36" class="st14" width="12.23" height="4.2"/>
				<rect x="159.68" y="155.88" class="st14" width="12.23" height="4.2"/>
				<rect x="226.18" y="216.65" class="st14" width="12.23" height="4.2"/>
				<rect x="184.9" y="206.71" class="st14" width="12.23" height="4.2"/>
				<rect x="157.39" y="209.77" class="st14" width="12.23" height="4.2"/>
				<rect x="309.11" y="188.36" class="st14" width="12.23" height="4.2"/>
				<rect x="301.85" y="183.4" class="st14" width="12.23" height="4.2"/>
				<rect x="286.95" y="209.77" class="st14" width="12.23" height="4.2"/>
				<rect x="193.7" y="214.35" class="st14" width="12.23" height="4.2"/>
				<rect x="214.33" y="165.82" class="st14" width="12.23" height="4.2"/>
				<rect x="255.23" y="114.6" class="st14" width="12.23" height="4.2"/>
				<rect x="263.63" y="165.82" class="st14" width="12.23" height="4.2"/>
				<rect x="255.99" y="160.08" class="st14" width="12.23" height="4.2"/>
				<rect x="264.78" y="142.12" class="st14" width="12.23" height="4.2"/>
				<rect x="260.96" y="136.01" class="st14" width="12.23" height="4.2"/>
				<rect x="197.13" y="172.69" class="st14" width="12.23" height="4.2"/>
				<rect x="169.24" y="116.51" class="st14" width="12.23" height="4.2"/>
			</g>
			<g>
				<defs>
					<rect id="XMLID_9_" x="161.21" y="35.49" width="155.16" height="13.38"/>
				</defs>
				<use xlink:href="#XMLID_9_"  style="overflow:visible;fill:#EBE6D5;"/>
				<clipPath id="XMLID_21_">
					<use xlink:href="#XMLID_9_"  style="overflow:visible;"/>
				</clipPath>
				<rect x="159.3" y="31.29" class="st15" width="158.6" height="8.03"/>
			</g>
			<rect x="159.68" y="28.61" class="st16" width="158.6" height="8.03"/>
			<rect x="163.31" y="226.39" class="st6" width="150.58" height="132.81"/>
			<rect x="161.97" y="269" class="st17" width="153.25" height="3.82"/>
			<rect x="161.97" y="225.05" class="st17" width="153.25" height="3.82"/>
			<g>
				<path class="st18" d="M255.7,338.94h-26.37v-41.47c0-7.28,5.9-13.19,13.19-13.19h0c7.28,0,13.19,5.9,13.19,13.19V338.94z"/>
				<path class="st19" d="M256.47,337.8v-40.32c0-7.69-6.26-13.95-13.95-13.95c-7.69,0-13.95,6.26-13.95,13.95v40.32h-0.86v3.06
					h29.43v-3.06H256.47z M243.28,337.8v-15.29h11.66v15.29H243.28z M243.28,305.31h11.66v15.67h-11.66V305.31z M241.75,320.98
					H230.1v-15.67h11.66V320.98z M254.94,297.48v6.31h-11.66v-18.7C249.78,285.48,254.94,290.88,254.94,297.48z M241.75,285.08v18.7
					H230.1v-6.31C230.1,290.88,235.26,285.48,241.75,285.08z M230.1,322.51h11.66v15.29H230.1V322.51z"/>
			</g>
			<g>
				<path class="st18" d="M299.65,338.94h-26.37v-41.47c0-7.28,5.9-13.19,13.19-13.19l0,0c7.28,0,13.19,5.9,13.19,13.19V338.94z"/>
				<path class="st19" d="M300.42,337.8v-40.32c0-7.69-6.26-13.95-13.95-13.95c-7.69,0-13.95,6.26-13.95,13.95v40.32h-0.86v3.06
					h29.43v-3.06H300.42z M287.23,337.8v-15.29h11.66v15.29H287.23z M287.23,305.31h11.66v15.67h-11.66V305.31z M285.7,320.98
					h-11.66v-15.67h11.66V320.98z M298.89,297.48v6.31h-11.66v-18.7C293.73,285.48,298.89,290.88,298.89,297.48z M285.7,285.08v18.7
					h-11.66v-6.31C274.05,290.88,279.21,285.48,285.7,285.08z M274.05,322.51h11.66v15.29h-11.66V322.51z"/>
			</g>
			<g>
				<path class="st19" d="M209.8,359.2h-31.35v-61.14c0-8.66,7.02-15.67,15.67-15.67l0,0c8.66,0,15.67,7.02,15.67,15.67V359.2z"/>
				<path class="st18" d="M207.84,342h-27.42v-43.39c0-7.57,6.14-13.71,13.71-13.71l0,0c7.57,0,13.71,6.14,13.71,13.71V342z"/>
				<rect x="180.51" y="345.06" class="st20" width="26.94" height="10.7"/>
				<rect x="182.23" y="346.5" class="st21" width="23.5" height="7.82"/>
				<g>
					<rect x="192.55" y="283.72" class="st19" width="1.91" height="59.24"/>
				</g>
				<g>
					<rect x="179.17" y="306.52" class="st19" width="28.85" height="1.85"/>
				</g>
				<g>
					<rect x="178.41" y="327.86" class="st19" width="29.81" height="1.91"/>
				</g>
			</g>
			<path class="st22" d="M213.06,297.54c0,0,0-0.01,0-0.01c-0.01-10.47-8.51-18.96-18.99-18.96s-18.97,8.49-18.99,18.96
				c0,0,0,0.01,0,0.01c0,0,0,0,0,0c0,0,0,0.01,0,0.01c0,0.04,0,0.08,0,0.12h0c0.07,1.69,1.45,3.04,3.16,3.04
				c0.89,0,1.72-0.83,2.3-1.62c0.34-0.46,1.02-0.41,1.31,0.08c0.55,0.92,1.56,1.54,2.71,1.54c1.15,0,2.16-0.62,2.71-1.54
				c0.29-0.49,0.97-0.54,1.31-0.08c0.59,0.79,1.41,1.62,2.3,1.62c0.89,0,1.72-0.83,2.3-1.62c0.34-0.46,1.02-0.41,1.31,0.08
				c0.55,0.92,1.56,1.54,2.71,1.54c0.89,0,1.72-0.83,2.3-1.62c0.34-0.46,1.02-0.41,1.31,0.08c0.55,0.92,1.56,1.54,2.71,1.54
				c1.15,0,2.16-0.62,2.71-1.54c0.29-0.49,0.97-0.54,1.31-0.08c0.59,0.79,1.41,1.62,2.3,1.62c1.7,0,3.09-1.35,3.16-3.04h0
				c0-0.04,0-0.08,0-0.12C213.06,297.55,213.06,297.55,213.06,297.54C213.06,297.54,213.06,297.54,213.06,297.54z"/>
			<rect x="193.7" y="239.96" class="st30" width="109.86" height="24.84"/>
			<text transform="matrix(1 0 0 1 193.6953 259.495)" class="st31 st42 st33 st34">HOTEL</text>
			<g>
				<rect x="178.03" y="82.31" class="st18" width="25.99" height="50.07"/>
				<path class="st19" d="M204.78,130.27V81.55h-27.52v48.73h-2.1v4.59h31.72v-4.59H204.78z M191.78,130.27v-13.76h11.47v13.76
					H191.78z M191.78,100.46h11.47v14.14h-11.47V100.46z M189.87,114.6h-11.08v-14.14h11.08V114.6z M203.25,98.55h-11.47V83.07
					h11.47V98.55z M189.87,83.07v15.48h-11.08V83.07H189.87z M178.79,116.51h11.08v13.76h-11.08V116.51z"/>
			</g>
			<g>
				<rect x="178.03" y="151.48" class="st18" width="25.99" height="50.07"/>
				<path class="st19" d="M204.78,199.45v-48.73h-27.52v48.73h-2.1v4.59h31.72v-4.59H204.78z M191.78,199.45v-13.76h11.47v13.76
					H191.78z M191.78,169.64h11.47v14.14h-11.47V169.64z M189.87,183.78h-11.08v-14.14h11.08V183.78z M203.25,167.73h-11.47v-15.48
					h11.47V167.73z M189.87,152.25v15.48h-11.08v-15.48H189.87z M178.79,185.69h11.08v13.76h-11.08V185.69z"/>
			</g>
			<g>
				<rect x="225.8" y="82.31" class="st18" width="25.99" height="50.07"/>
				<path class="st19" d="M252.55,130.27V81.55h-27.52v48.73h-2.1v4.59h31.72v-4.59H252.55z M239.56,130.27v-13.76h11.47v13.76
					H239.56z M239.56,100.46h11.47v14.14h-11.47V100.46z M237.65,114.6h-11.08v-14.14h11.08V114.6z M251.02,98.55h-11.47V83.07
					h11.47V98.55z M237.65,83.07v15.48h-11.08V83.07H237.65z M226.56,116.51h11.08v13.76h-11.08V116.51z"/>
			</g>
			<g>
				<rect x="225.8" y="151.48" class="st18" width="25.99" height="50.07"/>
				<path class="st19" d="M252.55,199.45v-48.73h-27.52v48.73h-2.1v4.59h31.72v-4.59H252.55z M239.56,199.45v-13.76h11.47v13.76
					H239.56z M239.56,169.64h11.47v14.14h-11.47V169.64z M237.65,183.78h-11.08v-14.14h11.08V183.78z M251.02,167.73h-11.47v-15.48
					h11.47V167.73z M237.65,152.25v15.48h-11.08v-15.48H237.65z M226.56,185.69h11.08v13.76h-11.08V185.69z"/>
			</g>
			<g>
				<rect x="270.9" y="82.31" class="st18" width="25.99" height="50.07"/>
				<path class="st19" d="M297.65,130.27V81.55h-27.52v48.73h-2.1v4.59h31.72v-4.59H297.65z M284.65,130.27v-13.76h11.47v13.76
					H284.65z M284.65,100.46h11.47v14.14h-11.47V100.46z M282.74,114.6h-11.08v-14.14h11.08V114.6z M296.12,98.55h-11.47V83.07
					h11.47V98.55z M282.74,83.07v15.48h-11.08V83.07H282.74z M271.66,116.51h11.08v13.76h-11.08V116.51z"/>
			</g>
			<g>
				<rect x="270.9" y="151.48" class="st18" width="25.99" height="50.07"/>
				<path class="st19" d="M297.65,199.45v-48.73h-27.52v48.73h-2.1v4.59h31.72v-4.59H297.65z M284.65,199.45v-13.76h11.47v13.76
					H284.65z M284.65,169.64h11.47v14.14h-11.47V169.64z M282.74,183.78h-11.08v-14.14h11.08V183.78z M296.12,167.73h-11.47v-15.48
					h11.47V167.73z M282.74,152.25v15.48h-11.08v-15.48H282.74z M271.66,185.69h11.08v13.76h-11.08V185.69z"/>
			</g>
			<g>
				<g>
					<path class="st23" d="M299.37,75.43H174.4v-21.4h124.97V75.43z M175.54,74.28h122.68V55.17H175.54V74.28z"/>
				</g>
				<g>
					<path class="st23" d="M296.21,72.46H178.32V57h117.89V72.46z M179.26,71.52h116V57.94h-116V71.52z"/>
				</g>
			</g>
		</g>
		
			<rect x="184.95" y="61.38" transform="matrix(0.7071 -0.7071 0.7071 0.7071 9.3221 152.2494)" class="st23" width="6.99" height="6.99"/>
		
			<rect x="200.54" y="61.38" transform="matrix(0.7071 -0.7071 0.7071 0.7071 13.8897 163.2762)" class="st23" width="6.99" height="6.99"/>
		
			<rect x="217.21" y="61.38" transform="matrix(0.7071 -0.7071 0.7071 0.7071 18.7713 175.0614)" class="st23" width="6.99" height="6.99"/>
		
			<rect x="234.41" y="61.38" transform="matrix(0.7071 -0.7071 0.7071 0.7071 23.8103 187.2267)" class="st23" width="6.99" height="6.99"/>
		
			<rect x="251.08" y="61.38" transform="matrix(0.7071 -0.7071 0.7071 0.7071 28.692 199.0121)" class="st23" width="6.99" height="6.99"/>
		
			<rect x="268.28" y="61.38" transform="matrix(0.7071 -0.7071 0.7071 0.7071 33.7311 211.1776)" class="st23" width="6.99" height="6.99"/>
		
			<rect x="284.41" y="61.38" transform="matrix(0.7071 -0.7071 0.7071 0.7071 38.4552 222.5826)" class="st23" width="6.99" height="6.99"/>
	</g>
	<g>
		<path class="st24" d="M305.35,331.29c0,0,2.99,14.95,17.44,26.9c12.84,10.63,12.3,26.77,31.27,35.82
			c4.9,2.34,7.85,7.47,7.56,12.89l-1.96,36.48h66.26l-3.49-67.75l-52.81-24.91L305.35,331.29z"/>
		<path class="st24" d="M322.91,278.24c0,0-27.52-31.14-25.03-41.1c2.49-9.96,17.44-16.44,30.89,22.42L322.91,278.24z"/>
		<g>
			<path class="st25" d="M394.88,375.63h-61.74c-7.99,0-14.47-6.48-14.47-14.47V210.25c0-7.99,6.48-14.47,14.47-14.47h61.74
				c7.99,0,14.47,6.48,14.47,14.47v150.91C409.34,369.15,402.87,375.63,394.88,375.63z"/>
			<g>
				<defs>
					<rect id="XMLID_8_" x="322.91" y="211.23" width="82.2" height="141.49"/>
				</defs>
				<use xlink:href="#XMLID_8_"  style="overflow:visible;fill:#EEEAE6;"/>
				<clipPath id="XMLID_22_">
					<use xlink:href="#XMLID_8_"  style="overflow:visible;"/>
				</clipPath>
				<g class="st26">
					<path class="st3" d="M362.83,288.93c0,0-0.2-1.36-2.81-0.29c-2.61,1.07-4.94-0.67-5.42,0.78c-0.48,1.45-0.48,1.45-1.64,3
						c-1.16,1.55-3.67,3.3-3.28,6.01c0.39,2.71-0.87,3.58,0.01,4.84c0.87,1.26,0.39,2.71,1.94,3.87c1.55,1.16,3,1.64,4.26,0.77
						c1.26-0.87,3.29-1.17,3.39-0.49c0.1,0.68,1.45,0.48,1.45,0.48s1.45,0.48,0.87,1.26c-0.58,0.78-0.87,3.58-0.09,4.16
						c0.78,0.58,1.55,1.16,1.07,2.61c-0.48,1.45,0.49,3.39-0.19,3.49c-0.68,0.1-1.44,4.36,0.01,4.84c1.45,0.48,0.97,1.93,1.17,3.29
						c0.2,1.35,0.29,2.03,1.07,2.61c0.78,0.58-0.58,0.78,0.87,1.26c1.45,0.48,6.48-3.01,6.29-4.37c-0.2-1.36,0.58-0.78,0.38-2.13
						c-0.2-1.36,0.87-3.58,2.22-3.78c1.36-0.2-0.88-6.1,0.38-6.97c1.26-0.87,3.48-4.65,4.73-5.53c1.26-0.87,2.9-3.88,1.54-3.68
						c-1.36,0.2-4.84,0.01-4.26-0.77c0.58-0.78-2.04-4.55-2.14-5.22c-0.1-0.68-0.87-1.26-1.07-2.61c-0.2-1.36-0.58-1.64,0.09-1.74
						c0.68-0.1-0.38,2.13,1.07,2.61c1.45,0.48,1.07,2.61,1.84,3.19c0.78,0.58,0.29,2.03,1.07,2.61c0.78,0.58,4.64-1.36,4.64-1.36
						s3.09-2.52,2.32-3.1c-0.78-0.58-2.33-1.74-3-1.64c-0.68,0.1-1.55-1.16-1.65-1.84c-0.1-0.68-1.65-1.84-0.97-1.93
						c0.68-0.1,2.13,0.38,2.33,1.74c0.2,1.36,2.33,1.74,3,1.64c0.68-0.1-0.48,1.45,1.55,1.16c2.03-0.29,2.03-0.29,3.58,0.87
						c1.55,1.16,0.2,1.35,1.07,2.61c0.87,1.26,0.59,4.07,1.27,3.97c0.68-0.1,1.07,2.61,1.75,2.51s2.22-3.78,1.44-4.36
						c-0.78-0.58,2.9-3.88,3.58-3.98c0.68-0.1,1.84-1.65,2.03-0.29c0.2,1.36-0.96,2.91,0.49,3.39c1.45,0.48,1.46,5.32,2.14,5.22
						c0.68-0.1,1.06-2.23,1.06-2.23s1.17,3.29,1.75,2.51c0.58-0.78,1.84-1.65,1.74-2.33c-0.1-0.68-0.39-2.71-1.17-3.29
						c-0.78-0.58-0.1-0.68,0.48-1.45c0.58-0.78,1.26-0.87,1.36-0.2c0.1,0.68,0.2,1.36,0.2,1.36s-0.2-1.36,1.06-2.23
						c1.26-0.87,3.29-1.17,3.09-2.52c-0.2-1.36,0.09-4.16-0.69-4.74c-0.78-0.58-1.65-1.84-0.97-1.93c0.68-0.1-2.23-1.06-0.87-1.26
						c1.36-0.2,2.71-0.39,2.91,0.96c0.2,1.36,0.49,3.39,1.07,2.61c0.58-0.78,1.84-1.65,1.06-2.23c-0.78-0.58-1.65-1.84-0.39-2.71
						c1.26-0.87,1.84-1.65,1.64-3c-0.2-1.36-0.39-2.71-0.39-2.71s-0.97-1.93-2.33-1.74c-1.36,0.2-3.09,2.52-2.03,0.29
						c1.06-2.23,1.54-3.68,3-3.2c1.45,0.48,2.23,1.06,2.23,1.06c1.16-1.55,0.58-0.78,1.93-0.97c1.36-0.2,1.93-0.97,1.36-0.2
						c-0.58,0.78-0.48,1.45-0.38,2.13c0.1,0.68,0.97,1.93,0.97,1.93l0.78,0.58c0,0,0.49,3.39,0.87,1.26
						c0.38-2.13,0.19-3.49-0.59-4.07c-0.78-0.58-0.2-1.36,1.16-1.55c1.36-0.2,4.16,0.09,2.61-1.07c-1.55-1.16-0.29-2.03-0.29-2.03
						l1.45,0.48c0,0-5.81-1.93-9.98-2.02s-5.04-1.35-6.39-1.15c-1.36,0.2-0.2-1.36-2.91-0.96c-2.71,0.39-3.39,0.49-6.2,0.2
						s-5.13-2.02-5.81-1.93c-0.68,0.1,3.19-1.85-0.2-1.35c-3.39,0.49-6.29-0.47-8.13,1.18c-1.84,1.65-3.19,1.85-3.19,1.85
						s-2.81-0.29-3.39,0.49c-0.58,0.78-2.71,0.39-2.71,0.39l-2.13-0.38c0,0-2.42,2.42-3.19,1.85c-0.78-0.58-0.78-0.58-0.78-0.58
						l1.26-0.87l-1.55-1.16c0,0-2.33-1.74-3.58-0.87c-1.26,0.87-2.32,3.1-2.9,3.88c-0.58,0.78-0.58,0.78-1.84,1.65
						c-1.26,0.87-2.61,1.07-1.16,1.55c1.45,0.48,0.2,1.36,2.13,0.38c1.93-0.97,1.84-1.65,3.19-1.85c1.36-0.2,1.45,0.48,0.2,1.36
						c-1.26,0.87-3.19,1.85-3.09,2.52s-2.81-0.29-3.49-0.19c-0.68,0.1-1.74,2.33-2.42,2.42c-0.68,0.1-2.81-0.29-2.03,0.29
						s2.23,1.06,0.97,1.93c-1.26,0.87-3.49-0.19-3.39,0.49c0.1,0.68-0.19,3.49-0.19,3.49s2.23,1.06,3.49,0.19
						c1.26-0.87,1.74-2.33,2.32-3.1c0.58-0.78,1.26-0.87,2.03-0.29c0.78,0.58,3.59,3.29,3.01,4.06c-0.58,0.78,2.13,0.38,1.26-0.87
						c-0.87-1.26-1.72-3.81-1.56-3.58c0,0,2.33,1.74,2.42,2.42s0.49,3.39,1.07,2.61c0.58-0.78,0.38-2.13,1.06-2.23
						c0.68-0.1,0.49,3.39,1.07,2.61c0.58-0.78,4.16,0.09,3.58,0.87c-0.58,0.78,0.39,2.71-1.74,2.33c-2.13-0.38-4.46-2.12-4.36-1.44
						c0.1,0.68,1.85,3.19-1.16,1.55c-3-1.64-3.68-1.54-3.88-2.9C362.44,288.64,362.83,288.93,362.83,288.93z"/>
					<path class="st3" d="M358.75,279.83c0,0-2.81-0.29-2.13-0.38c0.68-0.1,0.38-2.13,0.38-2.13l-0.29-2.03c0,0-0.2-1.36,0.48-1.45
						s0.78,0.58,0.78,0.58l0.29,2.03l0.87,1.26c0,0,0.97,1.93,0.29,2.03c-0.68,0.1-1.26,0.87-1.26,0.87s-2.03,0.29-2.13-0.38
						c-0.1-0.68-0.2-1.36-0.2-1.36l0.58-0.78l1.36-0.2"/>
					<path class="st3" d="M354.97,277.61c0,0-0.68,0.1-0.58,0.78c0.1,0.68,0.87,1.26,0.87,1.26s0.58-0.78,0.48-1.45
						C355.64,277.51,355.64,277.51,354.97,277.61z"/>
					<path class="st3" d="M376.54,326.37c-1.1-0.82-1.75-2.51-0.39-2.71c1.36-0.2,1.64-3,1.64-3l1.93-0.97c0,0-0.38,2.13-0.96,2.91
						C378.19,323.37,378.87,328.11,376.54,326.37z"/>
					<path class="st3" d="M408.12,334.25c-0.87-1.26-1.75-2.51-0.49-3.39c1.26-0.87,1.35-5.04,4.06-5.43
						c2.71-0.39,2.32-3.1,4.35-3.4c2.03-0.29,4.16,0.09,6.29,0.47c2.13,0.38,3.87-1.94,3.58,0.86c-0.29,2.81,0.98,6.78-0.28,7.65
						c-1.26,0.87-0.86,3.58-3.48,4.65c-2.61,1.07-6.1,0.88-5.71-1.25c0.38-2.13-0.59-4.07-1.85-3.19c-1.26,0.87-1.93,0.97-3.19,1.84
						C410.15,333.96,408.99,335.51,408.12,334.25z"/>
					<path class="st3" d="M408.86,315.47c2.14-0.31,2.81,0.29,3.29-1.17c0.48-1.45-1.07-2.61,0.19-3.49
						c1.26-0.87,0.96-2.91-0.29-2.03c-1.26,0.87-1.16,1.55-2.42,2.42C408.37,312.08,408.18,315.57,408.86,315.47z"/>
					<path class="st3" d="M401.98,310.93c0.1,0.68-0.38,2.13,1.07,2.61c1.45,0.48,0.97,1.93,1.85,3.19c0.87,1.26,1.07,2.61,3.1,2.32
						c2.03-0.29,2.81,0.29,2.81,0.29s2.23,1.06,2.81,0.29c0.58-0.78,0.58-0.78-0.87-1.26c-1.45-0.48-3.58-0.87-4.36-1.44
						c-0.78-0.58-1.93,0.97-2.23-1.06c-0.29-2.03-0.39-2.71-1.94-3.87C402.66,310.83,401.88,310.25,401.98,310.93z"/>
					<path class="st3" d="M399.74,305.03c0.78,0.58,0.78,0.58,0.78,0.58s0.48-1.45-0.2-1.36
						C399.64,304.35,398.97,304.45,399.74,305.03z"/>
					<path class="st3" d="M413.29,303.07c0.1,0.68,0.29,2.03,0.29,2.03s2.03-0.29,1.45,0.48c-0.58,0.78,0.29,2.03,0.39,2.71
						c0.1,0.68-0.38,2.13,0.2,1.36c0.58-0.78,1.06-2.23,1.06-2.23s-1.45-0.48-0.97-1.93c0.48-1.45,0.38-2.13-0.29-2.03
						c-0.68,0.1-1.35,0.2-1.45-0.48C413.87,302.29,413.2,302.39,413.29,303.07z"/>
					<path class="st3" d="M412.71,299c0.2,1.35,0.87,1.26,0.87,1.26s1.26-0.87,0.48-1.45C413.28,298.23,412.61,298.33,412.71,299z"
						/>
					<path class="st3" d="M416.18,294.35c0,0-0.97-1.93,0.38-2.13c1.35-0.2,2.71-0.39,2.51-1.75c-0.2-1.36-0.29-2.03-0.39-2.71
						c-0.1-0.68,1.26-0.87,1.26-0.87s0.68-0.1,0.2,1.36c-0.48,1.45,1.17,3.29,0.49,3.39c-0.68,0.1-1.74,2.33-2.51,1.75
						C417.34,292.8,416.28,295.03,416.18,294.35z"/>
					<path class="st3" d="M426.53,341.97c0.48-1.45,2.42-2.42,3.77-2.62c1.35-0.2,1.93-0.97,1.84-1.65
						c-0.1-0.68-0.39-2.71,0.38-2.13c0.78,0.58,1.65,1.84,1.07,2.61c-0.58,0.78-3.77,2.62-3.77,2.62S426.05,343.42,426.53,341.97z"
						/>
					<path class="st3" d="M330.49,342.71c-0.65-0.22-5.71-1.25-6.11-3.96c-0.39-2.71-1.27-3.97-0.59-4.07
						c0.68-0.1-0.59-4.07-0.01-4.84c0.58-0.78-0.69-9.58-1.47-10.16c-0.78-0.58-2.62-3.77-2.82-5.13c-0.2-1.36-1.55-1.16-1.17-3.29
						c0.38-2.13,0.19-3.49,0.86-3.58c0.68-0.1,0.29-2.81,1.54-3.68c1.26-0.87,0.96-2.91,2.42-2.42c1.45,0.48,3.68,1.54,3.68,1.54
						s2.03-0.29,2.91,0.96c0.87,1.26,4.36,1.44,3.88,2.9c-0.48,1.45-0.38,2.13,1.07,2.61c1.45,0.48,3.49,0.19,4.46,2.12
						c0.97,1.93,2.52,3.09,1.27,3.97c-1.26,0.87-0.68,0.1-0.68,0.1l-1.64,3l-0.38,2.13l-1.06,2.23l-2.42,2.42
						c0,0-3.67,3.3-3.58,3.98c0.1,0.68,1.27,3.97,0.01,4.84c-1.26,0.87-1.93,0.97-1.74,2.33c0.2,1.36-0.29,2.81,0.49,3.39
						C330.2,340.68,331.94,343.2,330.49,342.71z"/>
					<path class="st3" d="M320.94,305.36c-0.78-0.58-0.97-1.93-2.33-1.74c-1.36,0.2-1.55-1.16-3.2-3c-1.65-1.84-0.97-1.93-3-1.64
						c-2.03,0.29-4.36-1.44-3.88-2.9c0.48-1.45-1.76-7.35-2.34-6.58c-0.58,0.78,2.04,4.55,1.36,4.64c-0.68,0.1-3.1-2.32-3.01-6.48
						c0.09-4.16-0.59-4.07,1.25-5.71c1.84-1.65,2.6-5.91,1.93-5.81c-0.68,0.1-1.84,1.65-1.36,0.2c0.48-1.45,0.19-3.49-0.49-3.39
						c-0.68,0.1-1.45-0.48-2.81-0.29c-1.36,0.2-1.36,0.2-2.71,0.39c-1.36,0.2-2.71,0.39-2.23-1.06c0.48-1.45,1.44-4.36,2.9-3.88
						c1.45,0.48,1.45,0.48,2.13,0.38c0.68-0.1,2.61-1.07,2.61-1.07s4.07-0.59,7.75,0.95c3.68,1.54,4.74-0.69,8.42,0.86
						c3.68,1.54,6.2-0.2,7.65,0.28c1.45,0.48,1.64-3,4.45-2.72c2.81,0.29,6.39,1.15,4.56,2.8s-3.09,2.52-3.09,2.52l-2.71,0.39
						l-0.39-2.71c0,0-2.03,0.29-2.51,1.75c-0.48,1.45,2.33,1.74,2.33,1.74s-0.78-0.58,1.55,1.16c2.33,1.74,5.43,4.06,3.49,5.03
						s-0.19,3.49-1.74,2.33c-1.55-1.16-0.29-2.03-1.65-1.84c-1.36,0.2-2.03,0.29-1.93,0.97c0.1,0.68,1.45,0.48,0.87,1.26
						c-0.58,0.78,0.87,1.26-1.26,0.87c-2.13-0.38-2.51,1.75-3.97,1.27c-1.45-0.48-2.03,0.29-3.87,1.94
						c-1.84,1.65-2.12,4.46-2.02,5.13s-0.96,2.91-1.26,0.87c-0.29-2.03-0.29-2.03-0.29-2.03l-2.03,0.29l-1.06,2.23
						c0,0-1.26,0.87-0.29,2.81c0.97,1.93-0.77,4.26,0.69,4.74c1.45,0.48,0.49,3.39,1.85,3.19c1.36-0.2,2.81,0.29,2.23,1.06
						C320.94,305.36,320.94,305.36,320.94,305.36z"/>
					<path class="st3" d="M320.14,295.1c-0.8,0.55,0.87,1.26,1.65,1.84c0.78,0.58,0.87,1.26,0.87,1.26l1.36-0.2
						C324.02,298,321.4,294.23,320.14,295.1z"/>
				</g>
			</g>
			<path class="st27" d="M369.61,364.17c0,3.3-2.68,5.98-5.98,5.98s-5.98-2.68-5.98-5.98s2.68-5.98,5.98-5.98
				S369.61,360.87,369.61,364.17z"/>
			<path class="st27" d="M372.88,203.75c0.81,0,1.46,0.66,1.46,1.46s-0.66,1.46-1.46,1.46c-0.81,0-1.46-0.66-1.46-1.46
				S372.07,203.75,372.88,203.75z"/>
			<path class="st27" d="M394.52,206.75h-17.44c-0.83,0-1.49-0.67-1.49-1.49l0,0c0-0.83,0.67-1.49,1.49-1.49h17.44
				c0.83,0,1.49,0.67,1.49,1.49l0,0C396.02,206.08,395.35,206.75,394.52,206.75z"/>
			<path class="st28" d="M364.01,234.64c-10.59,0-19.18,8.59-19.18,19.18c0,10.59,18.93,40.6,19.18,40.6
				c0.25,0,19.18-30.01,19.18-40.6C383.19,243.23,374.6,234.64,364.01,234.64z M364.01,267.03c-7.15,0-12.95-5.8-12.95-12.95
				c0-7.15,5.8-12.95,12.95-12.95c7.15,0,12.95,5.8,12.95,12.95C376.96,261.23,371.16,267.03,364.01,267.03z"/>
		</g>
		<path class="st24" d="M385.06,380.61c0,0-9.96-32.88,2.99-48.82c12.95-15.94,19.43-28.4,17.93-38.86
			c-1.41-9.89-12.63-34.05,11.02-43.38c2.02-0.8,4.05,3.35,3.93,5.52c-0.38,6.71-0.29,16.93,3.99,24.41
			c5.98,10.46,38.36,82.2-1.99,106.11c0,0-2.99,21.92-0.5,40.85"/>
		<path class="st24" d="M308.83,297.91c0,0-12.95-5.48-7.47-14.95c5.48-9.47,18.43-0.5,20.92,1c2.49,1.49,9.47,8.47,4.48,15.44
			C321.79,306.38,308.83,297.91,308.83,297.91z"/>
		<path class="st24" d="M314.31,319.83c0,0-17.44-8.97-11.96-18.43c5.48-9.47,22.92,2.99,25.41,4.48c2.49,1.49,9.47,8.47,4.48,15.44
			C327.27,328.3,314.31,319.83,314.31,319.83z"/>
		<path class="st24" d="M314.31,340.26c0,0-17.44-8.97-11.96-18.43c5.48-9.47,22.92,2.99,25.41,4.48c2.49,1.49,9.47,8.47,4.48,15.44
			C327.27,348.73,314.31,340.26,314.31,340.26z"/>
		<path class="st29" d="M317.15,299.34c0,0-8.12-10.83,6.77-10.83C323.92,288.51,326.63,296.63,317.15,299.34z"/>
		<path class="st29" d="M323.63,321.76c0,0-8.12-10.83,6.77-10.83C330.4,310.93,333.1,319.05,323.63,321.76z"/>
		<path class="st29" d="M323.63,342.19c0,0-8.12-10.83,6.77-10.83C330.4,331.36,333.1,339.48,323.63,342.19z"/>
	</g>
</g>
<g id="DESIGNED_BY_FREEPIK">
</g>
</svg>
