<svg width="54" height="39" viewBox="0 0 54 39" fill="none" xmlns="http://www.w3.org/2000/svg">
<g filter="url(#filter0_d)">
<path d="M19.2548 13.8175C19.1426 13.9074 19.0068 13.9764 18.8472 14.0252C18.6877 14.0741 18.5037 14.1 18.2945 14.1C18.0472 14.1 17.8273 14.0748 17.6332 14.0231C17.4392 13.9728 17.2703 13.9167 17.1265 13.8578C16.9821 13.7988 16.8635 13.7442 16.77 13.6932C16.6773 13.6414 16.6112 13.6163 16.5738 13.6163C16.5134 13.6163 16.4682 13.6515 16.4373 13.7212C16.4071 13.7916 16.392 13.9174 16.392 14.1C16.392 14.2107 16.3948 14.3048 16.4006 14.3825C16.4071 14.4594 16.4157 14.5255 16.4293 14.5765C16.443 14.6283 16.4581 14.6721 16.4746 14.7116C16.4912 14.7497 16.5177 14.7835 16.5515 14.8144C16.5853 14.8439 16.6572 14.8877 16.7679 14.9452C16.8786 15.0027 17.018 15.0574 17.1869 15.1106C17.3558 15.1637 17.5506 15.209 17.7712 15.2442C17.9919 15.2809 18.2269 15.2989 18.4778 15.2989C18.8918 15.2989 19.2734 15.2486 19.6235 15.1472C19.9735 15.0459 20.2725 14.8985 20.5233 14.7052C20.7749 14.5111 20.9697 14.2725 21.1106 13.9879C21.2507 13.7032 21.3212 13.3755 21.3212 13.0068C21.3212 12.7861 21.2831 12.5798 21.2069 12.3894C21.1314 12.1967 21.0222 12.0242 20.8798 11.8726C20.7375 11.7209 20.5636 11.5944 20.358 11.4938C20.1525 11.3932 19.921 11.3285 19.6623 11.2976V11.2811C19.8793 11.2279 20.0698 11.1474 20.2351 11.041C20.4004 10.9361 20.5384 10.8052 20.6484 10.6536C20.7584 10.5019 20.8425 10.3294 20.8992 10.1354C20.956 9.94131 20.9848 9.73215 20.9848 9.5079C20.9848 9.21896 20.9366 8.95877 20.8396 8.73021C20.7426 8.50021 20.6002 8.30615 20.4119 8.14731C20.2236 7.9899 19.9922 7.86915 19.7162 7.78649C19.4409 7.7024 19.1247 7.65999 18.7682 7.65999C18.4943 7.65999 18.2413 7.68371 18.007 7.73187C17.7727 7.78002 17.5678 7.83681 17.3889 7.90581C17.2106 7.97481 17.0626 8.04452 16.9447 8.1164C16.8268 8.18971 16.7492 8.2429 16.7111 8.27956C16.673 8.31621 16.6457 8.34856 16.6284 8.37946C16.6119 8.41037 16.5968 8.44559 16.5853 8.48728C16.5738 8.52896 16.5666 8.58143 16.563 8.64468C16.5587 8.70649 16.5573 8.78627 16.5573 8.88043C16.5573 8.99543 16.5609 9.08815 16.5688 9.16002C16.5767 9.23334 16.5875 9.28796 16.6033 9.32534C16.6184 9.36343 16.6371 9.38859 16.6601 9.40224C16.6823 9.41518 16.7089 9.42165 16.7398 9.42165C16.7851 9.42165 16.8563 9.39074 16.9533 9.33037C17.0503 9.26999 17.1682 9.20387 17.3062 9.13415C17.4449 9.06371 17.6016 8.99902 17.7763 8.94009C17.9509 8.88115 18.1371 8.85168 18.3347 8.85168C18.5094 8.85168 18.6611 8.8754 18.7904 8.92356C18.9198 8.97171 19.0247 9.03568 19.1067 9.11762C19.1879 9.19884 19.2497 9.29587 19.2921 9.40799C19.3338 9.52012 19.3547 9.63799 19.3547 9.76449C19.3547 9.92765 19.3245 10.0764 19.2634 10.2108C19.203 10.3467 19.1146 10.461 18.9982 10.5558C18.8832 10.6514 18.7394 10.724 18.5683 10.7751C18.3973 10.8268 18.2011 10.852 17.9811 10.852H17.3371C17.2918 10.852 17.253 10.8606 17.2207 10.8757C17.1883 10.8901 17.1618 10.9166 17.1409 10.954C17.1201 10.9914 17.1042 11.0467 17.0956 11.1172C17.0856 11.1876 17.0813 11.2775 17.0813 11.3881C17.0813 11.506 17.0856 11.6016 17.0956 11.6756C17.105 11.7504 17.1215 11.8079 17.1438 11.8496C17.1661 11.8913 17.1948 11.9186 17.2293 11.9322C17.2631 11.9452 17.3048 11.9516 17.3544 11.9516H17.9933C18.2629 11.9516 18.4972 11.9782 18.697 12.0314C18.8968 12.0846 19.0621 12.1594 19.1929 12.2564C19.3237 12.3534 19.4222 12.4713 19.4891 12.6072C19.5559 12.7444 19.589 12.8975 19.589 13.0693C19.589 13.2253 19.5617 13.3669 19.5063 13.4948C19.4502 13.6199 19.3669 13.7277 19.2548 13.8175ZM24.7791 15.2974C25.201 15.2974 25.5726 15.2313 25.896 15.1012C26.2187 14.969 26.4904 14.7893 26.7111 14.5593C26.9317 14.3293 27.0985 14.0554 27.2127 13.7377C27.3263 13.4208 27.3831 13.0751 27.3831 12.7035C27.3831 12.3736 27.3428 12.0731 27.2638 11.8021C27.184 11.5326 27.0597 11.3026 26.89 11.1129C26.7204 10.9231 26.5033 10.7772 26.2374 10.6737C25.9715 10.5709 25.6531 10.5206 25.28 10.5206C25.1133 10.5206 24.9559 10.5336 24.8078 10.5573C24.659 10.5824 24.5217 10.6133 24.3945 10.6514C24.2673 10.6895 24.1494 10.7355 24.0416 10.7887C23.9331 10.8419 23.8375 10.8937 23.7541 10.9476C23.7577 10.6601 23.7901 10.3862 23.8512 10.1275C23.9115 9.86799 24.0086 9.64159 24.1415 9.44537C24.2745 9.25059 24.447 9.09606 24.6597 8.98106C24.8732 8.86749 25.1327 8.81143 25.441 8.81143C25.6229 8.81143 25.7839 8.82293 25.9226 8.84521C26.0606 8.86749 26.1813 8.89409 26.2841 8.92499C26.3869 8.95446 26.4746 8.98249 26.5465 9.00765C26.6191 9.03137 26.6773 9.04431 26.7233 9.04431C26.7614 9.04431 26.7937 9.03424 26.8203 9.01628C26.8462 8.99687 26.867 8.96596 26.8828 8.92212C26.8979 8.87827 26.908 8.81718 26.9137 8.73956C26.9202 8.66121 26.9231 8.56418 26.9231 8.44631C26.9231 8.37084 26.9209 8.30471 26.9173 8.25224C26.913 8.19906 26.9066 8.15378 26.8972 8.11712C26.8879 8.08046 26.8757 8.04812 26.8598 8.01721C26.8447 7.98631 26.8232 7.95971 26.7944 7.93456C26.7657 7.91084 26.7082 7.88137 26.6205 7.84615C26.5335 7.81237 26.4264 7.78146 26.3021 7.75487C26.1763 7.72827 26.0405 7.70743 25.8946 7.69018C25.7487 7.67221 25.6035 7.66359 25.459 7.66359C25.0033 7.66359 24.6087 7.7254 24.2759 7.84615C23.9439 7.96834 23.6614 8.13221 23.4271 8.33921C23.1935 8.54693 23.0023 8.78843 22.8542 9.06371C22.7062 9.33899 22.5912 9.62937 22.51 9.93412C22.428 10.2374 22.3734 10.5479 22.3447 10.862C22.3166 11.1776 22.3015 11.4794 22.3015 11.7691C22.3015 12.1141 22.3152 12.4418 22.3418 12.7502C22.3684 13.0578 22.4165 13.3424 22.487 13.6048C22.5574 13.8657 22.6516 14.1014 22.7694 14.3106C22.8873 14.5197 23.039 14.698 23.2258 14.8439C23.412 14.9898 23.6319 15.1019 23.8864 15.1796C24.1394 15.2579 24.4377 15.2974 24.7791 15.2974ZM23.7814 12.0415C23.8612 11.9883 23.9467 11.9373 24.038 11.8898C24.1286 11.8438 24.2242 11.8014 24.3227 11.7676C24.4211 11.7339 24.5217 11.7073 24.6245 11.6879C24.7273 11.6699 24.8315 11.6598 24.9379 11.6598C25.1169 11.6598 25.2685 11.685 25.3943 11.7367C25.5194 11.7871 25.62 11.8647 25.6962 11.9639C25.7717 12.0652 25.8277 12.1888 25.8615 12.3347C25.8953 12.4807 25.9125 12.6517 25.9125 12.8458C25.9125 13.0312 25.8895 13.2037 25.8435 13.3611C25.7982 13.52 25.7314 13.6572 25.6444 13.7737C25.5567 13.8916 25.4482 13.9828 25.3167 14.0475C25.1852 14.1122 25.0328 14.1446 24.8581 14.1446C24.6792 14.1446 24.5225 14.1122 24.3881 14.0447C24.2529 13.9785 24.1408 13.865 24.0517 13.7061C23.9626 13.5458 23.895 13.3302 23.8497 13.0592C23.8052 12.7876 23.7814 12.449 23.7814 12.0415ZM29.3726 15.0372C29.7032 15.2097 30.1208 15.2967 30.6261 15.2967C31.1235 15.2967 31.5439 15.2069 31.8882 15.0286C32.2325 14.8504 32.5114 14.5938 32.7256 14.2596C32.9405 13.9239 33.0957 13.52 33.1899 13.0456C33.2847 12.5698 33.3322 12.0379 33.3322 11.4492C33.3322 10.8556 33.2941 10.3251 33.2186 9.85577C33.1424 9.38571 33.0073 8.98824 32.814 8.66409C32.6199 8.33849 32.3568 8.08981 32.0248 7.91731C31.692 7.74481 31.2737 7.65784 30.7684 7.65784C30.2739 7.65784 29.8549 7.74768 29.512 7.92593C29.1677 8.10418 28.8889 8.36077 28.674 8.69499C28.4591 9.03065 28.3031 9.43603 28.2068 9.91184C28.1097 10.3891 28.0616 10.9195 28.0616 11.5053C28.0616 12.099 28.1011 12.6294 28.1787 13.0988C28.2564 13.5688 28.3922 13.9663 28.5856 14.2905C28.7796 14.6168 29.042 14.8647 29.3726 15.0372ZM29.6227 10.3043C29.6572 9.98012 29.7169 9.71059 29.8024 9.49424C29.8872 9.2779 30.0029 9.11546 30.1496 9.00693C30.2955 8.89768 30.4809 8.84378 30.7044 8.84378C30.8338 8.84378 30.9517 8.86031 31.0581 8.89409C31.1637 8.92931 31.2593 8.98681 31.3427 9.06803C31.4261 9.14924 31.4972 9.25921 31.5562 9.39649C31.6151 9.53234 31.664 9.69981 31.7042 9.89746C31.7445 10.0951 31.7739 10.3287 31.7926 10.5968C31.8113 10.8635 31.8214 11.1725 31.8214 11.5233C31.8214 11.8108 31.8142 12.0753 31.8012 12.3153C31.7876 12.554 31.7632 12.7703 31.7272 12.9593C31.6906 13.1491 31.6446 13.3158 31.5878 13.4603C31.531 13.6048 31.4591 13.7241 31.3736 13.8197C31.2881 13.9153 31.1882 13.985 31.0746 14.0331C30.961 14.0813 30.8295 14.105 30.6814 14.105C30.4838 14.105 30.3149 14.0641 30.174 13.9828C30.0338 13.9016 29.9188 13.7579 29.8297 13.5545C29.7406 13.3511 29.6752 13.0772 29.6335 12.7329C29.5918 12.3886 29.571 11.9552 29.571 11.4313C29.5717 11.0029 29.5889 10.627 29.6227 10.3043ZM35.3044 11.3091C35.4978 11.4104 35.74 11.4607 36.0354 11.4607C36.3258 11.4607 36.5709 11.409 36.7714 11.3048C36.9712 11.1998 37.1351 11.0503 37.2594 10.8556C37.3852 10.6615 37.4751 10.4243 37.5311 10.1483C37.5857 9.87015 37.6138 9.56181 37.6138 9.21752C37.6138 8.87252 37.5915 8.56346 37.5469 8.28962C37.5017 8.01578 37.424 7.78434 37.3112 7.59459C37.1983 7.40484 37.0445 7.25893 36.8505 7.15831C36.6564 7.0584 36.4127 7.00809 36.1181 7.00809C35.8306 7.00809 35.5862 7.05984 35.3857 7.16406C35.1851 7.26828 35.0212 7.41849 34.8962 7.61328C34.7711 7.80734 34.6806 8.04453 34.6245 8.32196C34.5677 8.60012 34.539 8.9099 34.539 9.25131C34.539 9.59631 34.5612 9.90681 34.6072 10.1792C34.6525 10.4531 34.7323 10.6859 34.8452 10.8742C34.9587 11.0633 35.1118 11.2092 35.3044 11.3091ZM35.4503 8.54909C35.4705 8.36078 35.5057 8.20409 35.5553 8.07759C35.6049 7.95109 35.6732 7.85693 35.758 7.79296C35.8428 7.73115 35.952 7.69881 36.0814 7.69881C36.1569 7.69881 36.2259 7.70887 36.2877 7.72828C36.3502 7.74912 36.4048 7.7829 36.453 7.83106C36.5026 7.87849 36.5436 7.94174 36.5781 8.02224C36.6133 8.10203 36.6413 8.19906 36.6643 8.31406C36.688 8.42906 36.7053 8.56562 36.7161 8.72087C36.7268 8.87827 36.7319 9.05796 36.7319 9.26137C36.7319 9.42956 36.7283 9.58265 36.7204 9.72352C36.7125 9.86224 36.6974 9.98874 36.6765 10.098C36.6557 10.2087 36.6291 10.3072 36.596 10.3912C36.5622 10.4753 36.5213 10.5443 36.4702 10.6004C36.4214 10.6565 36.3632 10.6974 36.297 10.7255C36.2302 10.7535 36.1533 10.7664 36.067 10.7664C35.952 10.7664 35.8536 10.7427 35.7716 10.6946C35.6904 10.6471 35.6228 10.5652 35.5718 10.4459C35.5193 10.3266 35.4805 10.1677 35.4568 9.96718C35.4324 9.76665 35.4194 9.51365 35.4194 9.20746C35.4202 8.95662 35.4302 8.7374 35.4503 8.54909Z" fill="white"/>
</g>
<g filter="url(#filter1_d)">
<path d="M28.8831 0.00171669C28.495 -0.0126583 28.15 0.289216 28.1284 0.685247C28.1069 1.07984 28.4087 1.41837 28.8041 1.43922C37.6662 1.94953 44.6094 6.30587 44.6094 11.3515C44.6094 15.4196 40.2185 19.0637 33.5837 20.5874V18.452C33.5837 18.1868 33.44 17.9424 33.2028 17.8131C32.9656 17.6909 32.6853 17.7052 32.4632 17.8555L24.0323 23.6206C23.8382 23.7564 23.7167 23.9799 23.7167 24.2171C23.7167 24.4543 23.8389 24.6764 24.0323 24.8051L32.4632 30.5773C32.5854 30.6557 32.7284 30.6995 32.8657 30.6995C32.9807 30.6995 33.1029 30.6701 33.2035 30.6126C33.4407 30.4904 33.5845 30.246 33.5845 29.9808V27.3135C43.2869 25.5677 50 20.1123 50 13.9174C50 6.5639 40.9222 0.583904 28.8831 0.00171669ZM21.5023 20.8167C14.3644 19.4806 9.38416 15.5914 9.38416 11.3508C9.38416 6.30515 16.3345 1.94953 25.1967 1.4385C25.592 1.41765 25.8938 1.07912 25.8723 0.684529C25.8507 0.288498 25.5201 -0.0198461 25.1248 0.00099765C13.0778 0.583904 4 6.5639 4 13.9174C4 20.3129 11.1013 25.8832 21.2579 27.4587C21.2938 27.4659 21.3298 27.4659 21.365 27.4659C21.5375 27.4659 21.7028 27.4084 21.8394 27.2934C21.9975 27.1575 22.0837 26.9548 22.0837 26.7471V21.529C22.0837 21.1761 21.8394 20.8814 21.5023 20.8167Z" fill="white"/>
</g>
<defs>
<filter id="filter0_d" x="12.392" y="7.00809" width="29.2218" height="16.2908" filterUnits="userSpaceOnUse" color-interpolation-filters="sRGB">
<feFlood flood-opacity="0" result="BackgroundImageFix"/>
<feColorMatrix in="SourceAlpha" type="matrix" values="0 0 0 0 0 0 0 0 0 0 0 0 0 0 0 0 0 0 127 0"/>
<feOffset dy="4"/>
<feGaussianBlur stdDeviation="2"/>
<feColorMatrix type="matrix" values="0 0 0 0 0 0 0 0 0 0 0 0 0 0 0 0 0 0 0.44 0"/>
<feBlend mode="normal" in2="BackgroundImageFix" result="effect1_dropShadow"/>
<feBlend mode="normal" in="SourceGraphic" in2="effect1_dropShadow" result="shape"/>
</filter>
<filter id="filter1_d" x="0" y="0" width="54" height="38.6995" filterUnits="userSpaceOnUse" color-interpolation-filters="sRGB">
<feFlood flood-opacity="0" result="BackgroundImageFix"/>
<feColorMatrix in="SourceAlpha" type="matrix" values="0 0 0 0 0 0 0 0 0 0 0 0 0 0 0 0 0 0 127 0"/>
<feOffset dy="4"/>
<feGaussianBlur stdDeviation="2"/>
<feColorMatrix type="matrix" values="0 0 0 0 0 0 0 0 0 0 0 0 0 0 0 0 0 0 0.44 0"/>
<feBlend mode="normal" in2="BackgroundImageFix" result="effect1_dropShadow"/>
<feBlend mode="normal" in="SourceGraphic" in2="effect1_dropShadow" result="shape"/>
</filter>
</defs>
</svg>
