<svg width="70" height="65" viewBox="0 0 70 65" fill="none" xmlns="http://www.w3.org/2000/svg">
<rect width="70" height="65" rx="10" fill="#07A804"/>
<path d="M10.3027 45.8412L12.627 51.642L14.9512 45.8412H16.167V52.9506H15.2295V50.1821L15.3174 47.1938L12.9834 52.9506H12.2656L9.93652 47.2084L10.0293 50.1821V52.9506H9.0918V45.8412H10.3027ZM19.4092 51.6274L20.6396 47.6674H21.6064L19.4824 53.7661C19.1536 54.645 18.6312 55.0844 17.915 55.0844L17.7441 55.0698L17.4072 55.0063V54.2739L17.6514 54.2934C17.9574 54.2934 18.195 54.2315 18.3643 54.1078C18.5368 53.9842 18.6784 53.7579 18.7891 53.4291L18.9893 52.892L17.1045 47.6674H18.0908L19.4092 51.6274ZM25.0391 52.9506V45.8412H27.3633C28.1348 45.8412 28.7142 46.0008 29.1016 46.3198C29.4922 46.6388 29.6875 47.1108 29.6875 47.7358C29.6875 48.0678 29.5931 48.3624 29.4043 48.6196C29.2155 48.8735 28.9583 49.0704 28.6328 49.2104C29.0169 49.3178 29.3197 49.5229 29.541 49.8256C29.7656 50.1251 29.8779 50.4832 29.8779 50.8998C29.8779 51.5379 29.6712 52.0392 29.2578 52.4037C28.8444 52.7683 28.2601 52.9506 27.5049 52.9506H25.0391ZM25.9766 49.6254V52.184H27.5244C27.9606 52.184 28.304 52.0717 28.5547 51.8471C28.8086 51.6192 28.9355 51.3067 28.9355 50.9096C28.9355 50.0535 28.4701 49.6254 27.5391 49.6254H25.9766ZM25.9766 48.8735H27.3926C27.8027 48.8735 28.1299 48.7709 28.374 48.5659C28.6214 48.3608 28.7451 48.0825 28.7451 47.7309C28.7451 47.3403 28.6312 47.0571 28.4033 46.8813C28.1755 46.7023 27.8288 46.6127 27.3633 46.6127H25.9766V48.8735ZM30.8887 50.2602C30.8887 49.7426 30.9896 49.2771 31.1914 48.8637C31.3965 48.4503 31.6797 48.1313 32.041 47.9067C32.4056 47.6821 32.8206 47.5698 33.2861 47.5698C34.0055 47.5698 34.5866 47.8188 35.0293 48.3168C35.4753 48.8149 35.6982 49.4773 35.6982 50.3041V50.3676C35.6982 50.8819 35.599 51.3442 35.4004 51.7543C35.2051 52.1612 34.9235 52.4786 34.5557 52.7065C34.1911 52.9343 33.7712 53.0483 33.2959 53.0483C32.5798 53.0483 31.9987 52.7993 31.5527 52.3012C31.11 51.8032 30.8887 51.144 30.8887 50.3237V50.2602ZM31.7969 50.3676C31.7969 50.9536 31.932 51.4239 32.2021 51.7787C32.4756 52.1336 32.8402 52.311 33.2959 52.311C33.7549 52.311 34.1195 52.1319 34.3896 51.7739C34.6598 51.4125 34.7949 50.908 34.7949 50.2602C34.7949 49.6808 34.6566 49.212 34.3799 48.8539C34.1064 48.4926 33.7419 48.312 33.2861 48.312C32.8402 48.312 32.4805 48.4894 32.207 48.8442C31.9336 49.199 31.7969 49.7068 31.7969 50.3676ZM36.5918 50.2602C36.5918 49.7426 36.6927 49.2771 36.8945 48.8637C37.0996 48.4503 37.3828 48.1313 37.7441 47.9067C38.1087 47.6821 38.5238 47.5698 38.9893 47.5698C39.7087 47.5698 40.2897 47.8188 40.7324 48.3168C41.1784 48.8149 41.4014 49.4773 41.4014 50.3041V50.3676C41.4014 50.8819 41.3021 51.3442 41.1035 51.7543C40.9082 52.1612 40.6266 52.4786 40.2588 52.7065C39.8942 52.9343 39.4743 53.0483 38.999 53.0483C38.2829 53.0483 37.7018 52.7993 37.2559 52.3012C36.8132 51.8032 36.5918 51.144 36.5918 50.3237V50.2602ZM37.5 50.3676C37.5 50.9536 37.6351 51.4239 37.9053 51.7787C38.1787 52.1336 38.5433 52.311 38.999 52.311C39.458 52.311 39.8226 52.1319 40.0928 51.7739C40.363 51.4125 40.498 50.908 40.498 50.2602C40.498 49.6808 40.3597 49.212 40.083 48.8539C39.8096 48.4926 39.445 48.312 38.9893 48.312C38.5433 48.312 38.1836 48.4894 37.9102 48.8442C37.6367 49.199 37.5 49.7068 37.5 50.3676ZM44.0088 50.5043L43.4424 51.0952V52.9506H42.5391V45.4506H43.4424V49.9868L43.9258 49.4057L45.5713 47.6674H46.6699L44.6143 49.8745L46.9092 52.9506H45.8496L44.0088 50.5043ZM48.584 52.9506H47.6807V47.6674H48.584V52.9506ZM47.6074 46.2661C47.6074 46.1196 47.6514 45.9959 47.7393 45.895C47.8304 45.794 47.9639 45.7436 48.1396 45.7436C48.3154 45.7436 48.4489 45.794 48.54 45.895C48.6312 45.9959 48.6768 46.1196 48.6768 46.2661C48.6768 46.4125 48.6312 46.5346 48.54 46.6323C48.4489 46.7299 48.3154 46.7787 48.1396 46.7787C47.9639 46.7787 47.8304 46.7299 47.7393 46.6323C47.6514 46.5346 47.6074 46.4125 47.6074 46.2661ZM50.8887 47.6674L50.918 48.3315C51.3216 47.8237 51.849 47.5698 52.5 47.5698C53.6165 47.5698 54.1797 48.1996 54.1895 49.4594V52.9506H53.2861V49.4545C53.2829 49.0737 53.195 48.7921 53.0225 48.6098C52.8532 48.4275 52.5879 48.3364 52.2266 48.3364C51.9336 48.3364 51.6764 48.4145 51.4551 48.5707C51.2337 48.727 51.0612 48.9321 50.9375 49.186V52.9506H50.0342V47.6674H50.8887ZM55.3369 50.2651C55.3369 49.4415 55.5273 48.7872 55.9082 48.3022C56.2891 47.8139 56.7936 47.5698 57.4219 47.5698C58.0664 47.5698 58.5693 47.7976 58.9307 48.2534L58.9746 47.6674H59.7998V52.8237C59.7998 53.5073 59.5964 54.046 59.1895 54.4399C58.7858 54.8338 58.2422 55.0307 57.5586 55.0307C57.1777 55.0307 56.805 54.9493 56.4404 54.7866C56.0758 54.6238 55.7975 54.4008 55.6055 54.1176L56.0742 53.5756C56.4616 54.0541 56.9352 54.2934 57.4951 54.2934C57.9346 54.2934 58.2764 54.1697 58.5205 53.9223C58.7679 53.6749 58.8916 53.3266 58.8916 52.8774V52.4233C58.5303 52.8399 58.0371 53.0483 57.4121 53.0483C56.7936 53.0483 56.2923 52.7993 55.9082 52.3012C55.5273 51.8032 55.3369 51.1245 55.3369 50.2651ZM56.2451 50.3676C56.2451 50.9633 56.3672 51.4321 56.6113 51.7739C56.8555 52.1124 57.1973 52.2817 57.6367 52.2817C58.2064 52.2817 58.6247 52.0229 58.8916 51.5053V49.0932C58.6149 48.5886 58.1999 48.3364 57.6465 48.3364C57.207 48.3364 56.8636 48.5073 56.6162 48.8491C56.3688 49.1909 56.2451 49.697 56.2451 50.3676Z" fill="white"/>
<path d="M43.1644 41.5146H22.1601C20.5613 41.5146 19.2624 40.2593 19.2624 38.7304V12.3019C19.2624 10.7656 20.5682 9.51965 22.1601 9.51965H49.684C51.2851 9.51965 52.5818 10.7637 52.5818 12.2928V31.7773L43.8896 41.5149H43.1644V41.5146ZM20.7114 17.8661V38.7346C20.7114 39.5111 21.3631 40.1232 22.1692 40.1232H42.4409V33.1772C42.4409 31.6204 43.736 30.3859 45.3334 30.3859H51.133V17.8661H20.7114ZM20.7114 16.475H51.1333V12.3109C51.1333 11.5372 50.4861 10.9108 49.6871 10.9108H22.1577C21.345 10.9108 20.7089 11.5325 20.7089 12.3016V16.475H20.7114ZM43.8874 39.4301L50.6954 31.7792H45.3318C44.5391 31.7792 43.8874 32.4051 43.8874 33.1797V39.4277V39.4301ZM30.8515 27.6037V28.9948H40.9927V27.6037H30.8515ZM23.6061 26.2126H27.9521V30.3856H23.6061V26.2126ZM25.0549 27.6037V28.9948H26.5034V27.6037H25.0549ZM30.8515 22.0395V23.4303H48.2356V22.0395H30.8515ZM23.6061 20.6481H27.9521V24.8192H23.6061V20.6481ZM25.0549 22.0395V23.4303H26.5034V22.0395H25.0549ZM30.8515 33.1701V34.5615H39.5437V33.1701H30.8515ZM23.6061 31.7792H27.9521V35.9501H23.6061V31.7792ZM25.0549 33.1701V34.5615H26.5034V33.1701H25.0549Z" fill="white" stroke="white" stroke-miterlimit="10"/>
</svg>
