<svg width="63" height="63" viewBox="0 0 63 63" fill="none" xmlns="http://www.w3.org/2000/svg">
<path d="M0 31.4596C0.0232067 31.4596 0.0464132 31.4596 0.071167 31.4581C0.194936 31.5509 0.225879 31.6932 0.216596 31.8294C0.18256 32.326 0.368213 32.8458 0.071167 33.3177C0.0479603 33.3161 0.0247538 33.3161 0 33.3161C0 32.6957 0 32.0784 0 31.4596Z" fill="url(#paint0_linear)"/>
<path d="M53.6275 16.0534C49.9067 16.0411 46.8806 13.0041 46.9192 9.3235C46.9595 5.54545 49.9732 2.60439 53.7884 2.61986C57.4025 2.63533 60.4039 5.70635 60.3899 9.37919C60.3745 13.0799 57.3499 16.0658 53.6275 16.0534Z" fill="url(#paint1_linear)"/>
<path d="M53.6539 46.8688C57.3778 46.8657 60.39 49.8656 60.39 53.5771C60.39 57.2809 57.3669 60.2978 53.657 60.2993C49.9516 60.2993 46.9038 57.2608 46.9177 53.5802C46.9317 49.8517 49.9222 46.8719 53.6539 46.8688Z" fill="url(#paint2_linear)"/>
<path d="M9.40797 46.8657C13.1427 46.8657 16.1178 49.8347 16.1224 53.5678C16.1271 57.3134 13.1365 60.3009 9.38632 60.2993C5.67479 60.2962 2.68887 57.2948 2.69196 53.5678C2.69505 49.8393 5.67479 46.8657 9.40797 46.8657Z" fill="url(#paint3_linear)"/>
<path d="M9.41107 16.0488C5.6686 16.0504 2.69351 13.0814 2.69196 9.34363C2.69041 5.61508 5.68098 2.61988 9.40333 2.61988C13.1319 2.61988 16.1163 5.60426 16.1193 9.33744C16.124 13.0784 13.1551 16.0473 9.41107 16.0488Z" fill="url(#paint4_linear)"/>
<path d="M61.835 38.5995C61.7159 34.3898 59.6412 31.1455 57.3128 28.0126C55.9808 26.2195 54.4367 24.595 53.1155 22.7927C51.9629 21.2208 50.9789 19.5638 50.5597 17.63C50.5272 17.4814 50.5133 17.3298 50.4823 17.1333C51.2342 17.3778 51.9521 17.5804 52.7055 17.6532C54.9705 17.8744 56.9833 17.2586 58.747 15.8415C59.0363 15.6094 59.1214 15.6775 59.2776 15.9467C60.9083 18.7702 61.9217 21.8133 62.5003 25.0097C62.8468 26.9204 63.0186 28.8481 62.9985 30.7897C62.9722 33.2976 62.6411 35.7652 61.9789 38.1864C61.9511 38.2885 61.9093 38.3876 61.835 38.5995Z" fill="url(#paint5_linear)"/>
<path d="M45.844 50.4426C44.7579 53.5864 45.2747 56.4253 47.4174 59.0353C40.1073 63.0284 32.4708 63.8948 24.4707 61.7876C25.4531 61.7304 26.4231 61.602 27.3761 61.3436C29.7123 60.7093 31.7637 59.5103 33.7348 58.1473C35.7476 56.7549 37.5499 55.0995 39.473 53.5926C41.0712 52.341 42.7452 51.2193 44.7255 50.6469C45.0813 50.5432 45.4387 50.4148 45.844 50.4426Z" fill="url(#paint6_linear)"/>
<path d="M0.071142 33.3161C0.071142 32.6973 0.071167 32.0769 0.071167 31.4581C0.181012 29.0492 0.499692 26.6744 1.22065 24.3645C1.29336 28.3081 3.24272 31.4627 5.45045 34.509C6.83512 36.4212 8.47042 38.1338 9.87519 40.0306C10.9999 41.5499 11.9777 43.1465 12.4357 45.0092C12.4852 45.2134 12.5254 45.4192 12.5656 45.625C12.5734 45.6636 12.5563 45.707 12.5455 45.7781C11.0758 45.2521 9.58588 45.0634 8.04341 45.3511C6.51641 45.6358 5.18435 46.3026 3.98998 47.3283C1.42951 42.9825 0.283096 38.2808 0.071142 33.3161Z" fill="url(#paint7_linear)"/>
<path d="M38.6113 1.15165C35.2277 1.20426 32.3981 2.70495 29.6891 4.52126C27.5726 5.93842 25.696 7.65881 23.7048 9.23532C22.2815 10.3616 20.7916 11.3827 19.0774 12.0309C18.5916 12.2151 18.0904 12.3435 17.586 12.4641C17.2828 12.5369 17.1977 12.492 17.3091 12.1532C18.2141 9.4024 17.8073 6.84812 16.1194 4.49806C15.6939 3.90551 15.6846 3.90552 16.3267 3.54659C19.0573 2.02113 21.9845 1.05883 25.0555 0.503413C27.1193 0.130559 29.1986 -0.0411702 31.295 0.00833737C33.7796 0.0702219 36.2241 0.426058 38.6113 1.15165Z" fill="url(#paint8_linear)"/>
<path d="M25.7997 28.5866C25.0509 28.5912 24.3005 28.5974 23.5517 28.6021C23.4666 28.6624 23.4898 28.7521 23.4898 28.8326C23.4883 30.5839 23.4883 32.3337 23.4898 34.085C23.4898 34.1655 23.4666 34.2552 23.5517 34.3155C25.2334 34.3217 26.9151 34.3264 28.5968 34.3326C28.3153 34.6435 28.0414 34.9607 27.7506 35.2624C26.5423 36.5155 25.3154 37.7517 24.1257 39.0219C23.7095 39.4659 23.2686 39.7041 22.6513 39.6453C21.9969 39.5835 21.3347 39.6995 20.6787 39.568C19.3157 39.2972 18.273 38.1802 18.2095 36.8018C18.1028 34.4594 18.191 32.114 18.1647 29.7701C18.16 29.3942 18.3225 28.9099 18.0981 28.6717C17.8707 28.4288 17.3803 28.6082 17.0059 28.5943C16.6454 28.5804 16.2818 28.5912 15.9244 28.5912C15.8858 28.4582 15.9832 28.421 16.0358 28.3684C17.5443 26.8383 19.0574 25.3144 20.5627 23.7813C20.7344 23.6064 20.835 23.5306 21.0516 23.7519C22.5941 25.3268 24.152 26.8848 25.7053 28.4504C25.744 28.4891 25.7687 28.5417 25.7997 28.5866Z" fill="url(#paint9_linear)"/>
<path d="M39.456 28.5913C37.8129 28.5959 36.1684 28.6005 34.5253 28.6036C34.4882 28.6036 34.4511 28.5758 34.4139 28.5619C35.9409 26.9931 37.4788 25.4321 38.9903 23.8463C39.3786 23.4394 39.7871 23.2228 40.3579 23.2723C41.0418 23.3311 41.7318 23.2135 42.4156 23.3527C43.8266 23.6405 44.8709 24.8736 44.8755 26.3108C44.8848 28.8388 44.8863 31.3652 44.8709 33.8932C44.8693 34.2398 44.9544 34.3527 45.3087 34.3357C45.9229 34.3063 46.5387 34.328 47.1529 34.328C47.1807 34.4765 47.0693 34.5183 47.0074 34.5817C45.4959 36.1087 43.9797 37.631 42.4667 39.1565C42.3336 39.2896 42.2485 39.4195 42.0427 39.2091C40.4833 37.6125 38.9098 36.0267 37.3411 34.4378C37.3132 34.41 37.2978 34.3682 37.2761 34.3326C38.0032 34.3311 38.7304 34.3295 39.456 34.328C39.6262 34.2568 39.5999 34.1067 39.5999 33.9675C39.5999 32.2951 39.5999 30.6226 39.5999 28.9502C39.5999 28.8125 39.6277 28.6624 39.456 28.5913Z" fill="url(#paint10_linear)"/>
<path d="M34.3459 39.4458C34.4248 38.6212 34.3644 37.795 34.3799 36.9704C34.3954 36.1164 34.3985 35.2639 34.4078 34.4099C34.7296 34.5925 34.9585 34.8818 35.2185 35.1309C36.5675 36.4227 37.9027 37.7331 39.2533 39.0234C39.5813 39.3375 39.7499 39.6856 39.7236 40.1404C39.6834 40.8397 39.7762 41.5437 39.6556 42.243C39.4034 43.7019 38.1812 44.7802 36.6882 44.7911C34.1726 44.8081 31.657 44.8065 29.1414 44.788C28.75 44.7849 28.6355 44.8916 28.6571 45.2769C28.6896 45.8725 28.6649 46.4712 28.6649 47.0684C28.5055 47.073 28.4607 46.9709 28.3957 46.906C26.8842 45.4161 25.3819 43.9185 23.8611 42.4379C23.6337 42.2167 23.6337 42.1053 23.8611 41.884C25.3711 40.4127 26.8656 38.926 28.3647 37.4454C28.4344 37.3773 28.5133 37.32 28.5891 37.2582C28.6865 37.8275 28.6045 38.403 28.6355 38.9739C28.6448 39.1379 28.5844 39.3096 28.6834 39.4659L28.6757 39.4551C28.7546 39.5417 28.8583 39.5077 28.9526 39.5077C30.6622 39.5092 32.3718 39.5092 34.0798 39.5077C34.1711 39.5108 34.2809 39.5572 34.3459 39.4458Z" fill="url(#paint11_linear)"/>
<path d="M34.4078 25.7105C34.3877 24.9648 34.366 24.2191 34.3459 23.4718C34.2933 23.3759 34.2005 23.4068 34.1216 23.4068C32.3842 23.4053 30.6483 23.4053 28.9109 23.4068C28.8305 23.4068 28.7407 23.3836 28.6758 23.461L28.6835 23.4502C28.5922 23.577 28.6371 23.7209 28.6355 23.8555C28.6324 25.251 28.6371 26.6465 28.6278 28.042C28.6262 28.1658 28.7407 28.353 28.5133 28.4195C26.9059 26.8693 25.3 25.3191 23.6925 23.7704C23.4573 23.5445 23.3382 23.2784 23.3583 22.9443C23.4032 22.1475 23.2655 21.3415 23.4372 20.5524C23.7544 19.095 24.9441 18.1312 26.4587 18.1235C28.9589 18.1111 31.459 18.1111 33.9591 18.1296C34.3397 18.1327 34.4372 18.0244 34.4186 17.6593C34.3877 17.059 34.4109 16.4572 34.4109 15.8569C34.5594 15.8275 34.6012 15.9389 34.6631 16.0008C36.17 17.4922 37.6753 18.9883 39.1806 20.4813C39.3292 20.6298 39.4994 20.7319 39.2487 20.9763C37.6722 22.5188 36.1143 24.0783 34.547 25.6301C34.5099 25.6656 34.4542 25.6842 34.4078 25.7105Z" fill="url(#paint12_linear)"/>
<path d="M45.9663 12.7596C45.0148 12.707 44.1747 12.4131 43.3671 12.0201C41.8958 11.3022 40.7123 10.1992 39.5179 9.11153C38.8325 8.4865 38.1472 7.86301 37.4154 7.29522C35.9905 6.19058 34.4233 5.39537 32.5157 5.10915C32.8158 4.8941 33.0355 4.73011 33.2614 4.57694C35.0003 3.3934 36.8847 2.55951 38.9872 2.30578C41.0495 2.05515 43.036 2.40944 44.9591 3.16288C45.612 3.41816 46.2416 3.72139 46.8667 4.04165C47.1189 4.17006 47.1452 4.24896 46.9672 4.48721C45.7945 6.04361 45.2422 7.80422 45.2964 9.75049C45.3211 10.6401 45.5083 11.5003 45.81 12.3357C45.858 12.461 45.9044 12.5894 45.9663 12.7596Z" fill="url(#paint13_linear)"/>
<path d="M17.1126 50.1719C17.6695 50.1471 18.1631 50.3127 18.6489 50.4689C20.0382 50.9161 21.2047 51.7407 22.2892 52.689C23.2732 53.5492 24.2324 54.4373 25.2287 55.282C26.7495 56.5677 28.4514 57.499 30.5276 57.8069C29.6055 58.5248 28.6772 59.0864 27.6886 59.5505C24.1365 61.2214 20.6199 60.963 17.1327 59.3432C16.8527 59.2132 16.585 59.057 16.3019 58.9363C15.977 58.7986 15.8934 58.6779 16.1503 58.3484C16.9285 57.3459 17.4003 56.1994 17.6309 54.9509C17.9124 53.4224 17.7593 51.9356 17.2116 50.486C17.176 50.3962 17.1528 50.3034 17.1126 50.1719Z" fill="url(#paint14_linear)"/>
<path d="M12.824 17.039C12.8132 17.6795 12.6353 18.2519 12.4326 18.815C11.854 20.424 10.7803 21.7004 9.65707 22.9458C8.82009 23.8741 7.9568 24.7776 7.20645 25.7817C6.18381 27.1462 5.45976 28.6423 5.19365 30.3348C5.01574 30.3441 4.98789 30.2126 4.9291 30.1306C3.61405 28.3221 2.68424 26.3464 2.3841 24.1139C2.09943 21.9928 2.47074 19.9537 3.25203 17.9796C3.49957 17.353 3.79661 16.7497 4.0952 16.1463C4.23909 15.857 4.34274 15.8693 4.57481 16.0457C6.108 17.2061 7.85159 17.7398 9.76382 17.7027C10.737 17.6841 11.6807 17.4722 12.5904 17.1148C12.6523 17.0869 12.7188 17.0715 12.824 17.039Z" fill="url(#paint15_linear)"/>
<path d="M50.2147 45.9003C50.4065 44.1072 51.1894 42.6576 52.2445 41.3302C53.1805 40.1513 54.2511 39.0931 55.2196 37.9435C56.5516 36.3609 57.565 34.625 57.876 32.5395C58.0384 32.555 58.0694 32.7004 58.1374 32.7932C59.4958 34.6621 60.4566 36.7043 60.7025 39.0219C60.9346 41.2018 60.5416 43.2966 59.6644 45.3016C59.4509 45.789 59.1957 46.2593 58.9852 46.7482C58.8584 47.0421 58.7501 47.0823 58.4778 46.875C56.9477 45.7085 55.2026 45.1794 53.2888 45.2212C52.3729 45.2413 51.4802 45.4285 50.6216 45.7565C50.504 45.7982 50.3864 45.8385 50.2147 45.9003Z" fill="url(#paint16_linear)"/>
<defs>
<linearGradient id="paint0_linear" x1="31.5" y1="0" x2="31.5" y2="62.9008" gradientUnits="userSpaceOnUse">
<stop stop-color="#2400FF"/>
<stop offset="0.817708" stop-color="#85158E"/>
</linearGradient>
<linearGradient id="paint1_linear" x1="31.5" y1="0" x2="31.5" y2="62.9008" gradientUnits="userSpaceOnUse">
<stop stop-color="#2400FF"/>
<stop offset="0.817708" stop-color="#85158E"/>
</linearGradient>
<linearGradient id="paint2_linear" x1="31.5" y1="0" x2="31.5" y2="62.9008" gradientUnits="userSpaceOnUse">
<stop stop-color="#2400FF"/>
<stop offset="0.817708" stop-color="#85158E"/>
</linearGradient>
<linearGradient id="paint3_linear" x1="31.5" y1="0" x2="31.5" y2="62.9008" gradientUnits="userSpaceOnUse">
<stop stop-color="#2400FF"/>
<stop offset="0.817708" stop-color="#85158E"/>
</linearGradient>
<linearGradient id="paint4_linear" x1="31.5" y1="0" x2="31.5" y2="62.9008" gradientUnits="userSpaceOnUse">
<stop stop-color="#2400FF"/>
<stop offset="0.817708" stop-color="#85158E"/>
</linearGradient>
<linearGradient id="paint5_linear" x1="31.5" y1="0" x2="31.5" y2="62.9008" gradientUnits="userSpaceOnUse">
<stop stop-color="#2400FF"/>
<stop offset="0.817708" stop-color="#85158E"/>
</linearGradient>
<linearGradient id="paint6_linear" x1="31.5" y1="0" x2="31.5" y2="62.9008" gradientUnits="userSpaceOnUse">
<stop stop-color="#2400FF"/>
<stop offset="0.817708" stop-color="#85158E"/>
</linearGradient>
<linearGradient id="paint7_linear" x1="31.5" y1="0" x2="31.5" y2="62.9008" gradientUnits="userSpaceOnUse">
<stop stop-color="#2400FF"/>
<stop offset="0.817708" stop-color="#85158E"/>
</linearGradient>
<linearGradient id="paint8_linear" x1="31.5" y1="0" x2="31.5" y2="62.9008" gradientUnits="userSpaceOnUse">
<stop stop-color="#2400FF"/>
<stop offset="0.817708" stop-color="#85158E"/>
</linearGradient>
<linearGradient id="paint9_linear" x1="31.5" y1="0" x2="31.5" y2="62.9008" gradientUnits="userSpaceOnUse">
<stop stop-color="#2400FF"/>
<stop offset="0.817708" stop-color="#85158E"/>
</linearGradient>
<linearGradient id="paint10_linear" x1="31.5" y1="0" x2="31.5" y2="62.9008" gradientUnits="userSpaceOnUse">
<stop stop-color="#2400FF"/>
<stop offset="0.817708" stop-color="#85158E"/>
</linearGradient>
<linearGradient id="paint11_linear" x1="31.5" y1="0" x2="31.5" y2="62.9008" gradientUnits="userSpaceOnUse">
<stop stop-color="#2400FF"/>
<stop offset="0.817708" stop-color="#85158E"/>
</linearGradient>
<linearGradient id="paint12_linear" x1="31.5" y1="0" x2="31.5" y2="62.9008" gradientUnits="userSpaceOnUse">
<stop stop-color="#2400FF"/>
<stop offset="0.817708" stop-color="#85158E"/>
</linearGradient>
<linearGradient id="paint13_linear" x1="31.5" y1="0" x2="31.5" y2="62.9008" gradientUnits="userSpaceOnUse">
<stop stop-color="#2400FF"/>
<stop offset="0.817708" stop-color="#85158E"/>
</linearGradient>
<linearGradient id="paint14_linear" x1="31.5" y1="0" x2="31.5" y2="62.9008" gradientUnits="userSpaceOnUse">
<stop stop-color="#2400FF"/>
<stop offset="0.817708" stop-color="#85158E"/>
</linearGradient>
<linearGradient id="paint15_linear" x1="31.5" y1="0" x2="31.5" y2="62.9008" gradientUnits="userSpaceOnUse">
<stop stop-color="#2400FF"/>
<stop offset="0.817708" stop-color="#85158E"/>
</linearGradient>
<linearGradient id="paint16_linear" x1="31.5" y1="0" x2="31.5" y2="62.9008" gradientUnits="userSpaceOnUse">
<stop stop-color="#2400FF"/>
<stop offset="0.817708" stop-color="#85158E"/>
</linearGradient>
</defs>
</svg>
