<svg width="70" height="71" viewBox="0 0 70 71" fill="none" xmlns="http://www.w3.org/2000/svg">
<rect y="6" width="70" height="65" rx="15" fill="white"/>
<rect width="70" height="65" rx="15" fill="#BD0CAB"/>
<path d="M20.8252 50.2173V43.1079H23.1494C23.9209 43.1079 24.5003 43.2674 24.8877 43.5864C25.2783 43.9054 25.4736 44.3774 25.4736 45.0024C25.4736 45.3345 25.3792 45.6291 25.1904 45.8862C25.0016 46.1401 24.7445 46.3371 24.4189 46.4771C24.8031 46.5845 25.1058 46.7896 25.3271 47.0923C25.5518 47.3918 25.6641 47.7498 25.6641 48.1665C25.6641 48.8045 25.4574 49.3058 25.0439 49.6704C24.6305 50.035 24.0462 50.2173 23.291 50.2173H20.8252ZM21.7627 46.8921V49.4507H23.3105C23.7467 49.4507 24.0902 49.3384 24.3408 49.1138C24.5947 48.8859 24.7217 48.5734 24.7217 48.1763C24.7217 47.3201 24.2562 46.8921 23.3252 46.8921H21.7627ZM21.7627 46.1401H23.1787C23.5889 46.1401 23.916 46.0376 24.1602 45.8325C24.4076 45.6274 24.5312 45.3491 24.5312 44.9976C24.5312 44.6069 24.4173 44.3237 24.1895 44.1479C23.9616 43.9689 23.6149 43.8794 23.1494 43.8794H21.7627V46.1401ZM27.8955 50.2173H26.9922V44.9341H27.8955V50.2173ZM26.9189 43.5327C26.9189 43.3862 26.9629 43.2625 27.0508 43.1616C27.1419 43.0607 27.2754 43.0103 27.4512 43.0103C27.627 43.0103 27.7604 43.0607 27.8516 43.1616C27.9427 43.2625 27.9883 43.3862 27.9883 43.5327C27.9883 43.6792 27.9427 43.8013 27.8516 43.8989C27.7604 43.9966 27.627 44.0454 27.4512 44.0454C27.2754 44.0454 27.1419 43.9966 27.0508 43.8989C26.9629 43.8013 26.9189 43.6792 26.9189 43.5327ZM30.3271 50.2173H29.4238V42.7173H30.3271V50.2173ZM32.7588 50.2173H31.8555V42.7173H32.7588V50.2173ZM35.1904 50.2173H34.2871V44.9341H35.1904V50.2173ZM34.2139 43.5327C34.2139 43.3862 34.2578 43.2625 34.3457 43.1616C34.4368 43.0607 34.5703 43.0103 34.7461 43.0103C34.9219 43.0103 35.0553 43.0607 35.1465 43.1616C35.2376 43.2625 35.2832 43.3862 35.2832 43.5327C35.2832 43.6792 35.2376 43.8013 35.1465 43.8989C35.0553 43.9966 34.9219 44.0454 34.7461 44.0454C34.5703 44.0454 34.4368 43.9966 34.3457 43.8989C34.2578 43.8013 34.2139 43.6792 34.2139 43.5327ZM37.4951 44.9341L37.5244 45.5981C37.9281 45.0903 38.4554 44.8364 39.1064 44.8364C40.223 44.8364 40.7861 45.4663 40.7959 46.7261V50.2173H39.8926V46.7212C39.8893 46.3403 39.8014 46.0588 39.6289 45.8765C39.4596 45.6942 39.1943 45.603 38.833 45.603C38.54 45.603 38.2829 45.6812 38.0615 45.8374C37.8402 45.9937 37.6676 46.1987 37.5439 46.4526V50.2173H36.6406V44.9341H37.4951ZM41.9434 47.5317C41.9434 46.7082 42.1338 46.0539 42.5146 45.5688C42.8955 45.0806 43.4001 44.8364 44.0283 44.8364C44.6729 44.8364 45.1758 45.0643 45.5371 45.52L45.5811 44.9341H46.4062V50.0903C46.4062 50.7739 46.2028 51.3127 45.7959 51.7065C45.3923 52.1004 44.8486 52.2974 44.165 52.2974C43.7842 52.2974 43.4115 52.216 43.0469 52.0532C42.6823 51.8905 42.404 51.6675 42.2119 51.3843L42.6807 50.8423C43.068 51.3208 43.5417 51.5601 44.1016 51.5601C44.541 51.5601 44.8828 51.4364 45.127 51.189C45.3743 50.9416 45.498 50.5933 45.498 50.144V49.6899C45.1367 50.1066 44.6436 50.3149 44.0186 50.3149C43.4001 50.3149 42.8988 50.0659 42.5146 49.5679C42.1338 49.0698 41.9434 48.3911 41.9434 47.5317ZM42.8516 47.6343C42.8516 48.23 42.9736 48.6987 43.2178 49.0405C43.4619 49.3791 43.8037 49.5483 44.2432 49.5483C44.8128 49.5483 45.2311 49.2896 45.498 48.772V46.3599C45.2214 45.8553 44.8063 45.603 44.2529 45.603C43.8135 45.603 43.4701 45.7739 43.2227 46.1157C42.9753 46.4575 42.8516 46.9637 42.8516 47.6343Z" fill="white"/>
<path d="M21.9172 6H41.6796C41.8171 6 41.9483 6.0557 42.038 6.15146L45.3597 9.47286C45.459 9.57246 45.5108 9.7017 45.5108 9.83121V38.0858C45.5108 38.3665 45.2842 38.5934 45.0032 38.5934H21.9172C21.6387 38.5934 21.408 38.3667 21.408 38.0858V6.50761C21.408 6.22691 21.639 6 21.9172 6ZM41.467 7.01714H22.4289V37.5763H44.494V10.0444L41.467 7.01714Z" fill="white" stroke="white" stroke-miterlimit="10"/>
<path d="M25.6089 21.7883C25.3266 21.7883 25.1013 22.0133 25.1013 22.2959C25.1013 22.5807 25.3266 22.8054 25.6089 22.8054H41.3135C41.592 22.8054 41.8211 22.5807 41.8211 22.2959C41.8211 22.0133 41.592 21.7883 41.3135 21.7883H25.6089Z" fill="white" stroke="white" stroke-miterlimit="10"/>
<path d="M25.6089 27.088C25.3266 27.088 25.1013 27.3171 25.1013 27.5972C25.1013 27.8779 25.3266 28.1089 25.6089 28.1089H41.3135C41.592 28.1089 41.8211 27.8779 41.8211 27.5972C41.8211 27.3171 41.592 27.088 41.3135 27.088H25.6089Z" fill="white" stroke="white" stroke-miterlimit="10"/>
<path d="M25.6089 32.3921C25.3266 32.3921 25.1013 32.6207 25.1013 32.8994C25.1013 33.1796 25.3266 33.4106 25.6089 33.4106H41.3135C41.592 33.4106 41.8211 33.1796 41.8211 32.8994C41.8211 32.6207 41.592 32.3921 41.3135 32.3921H25.6089Z" fill="white" stroke="white" stroke-miterlimit="10"/>
<path d="M41.4924 6H41.6798C41.8173 6 41.9484 6.0557 42.0382 6.15146L45.3598 9.47286C45.4592 9.57246 45.511 9.7017 45.511 9.83121V10.1635C45.511 10.4461 45.2844 10.6708 45.0034 10.6708H41.4924C41.2103 10.6708 40.9832 10.4461 40.9832 10.1635V6.50761C40.9829 6.22691 41.2101 6 41.4924 6ZM44.1034 9.65615L42.0003 7.55054V9.65615H44.1034Z" fill="white" stroke="white" stroke-miterlimit="10"/>
<path d="M31.5479 14.4944L33.5539 17.3383H32.7382L30.7659 14.5383H28.5708V17.3383H27.8662V9.76538H30.9747C32.5291 9.76538 33.7075 10.7565 33.7075 12.1577C33.7075 13.3798 32.8139 14.2834 31.5479 14.4944ZM28.5705 13.8652H30.8534C32.1211 13.8652 33.0027 13.2045 33.0027 12.1577C33.0027 11.0989 32.1211 10.4382 30.8534 10.4382H28.5705V13.8652Z" fill="white" stroke="white" stroke-miterlimit="10"/>
<path d="M40.446 14.4823C40.446 16.192 39.3096 17.4695 37.8449 17.4695C36.9076 17.4695 36.1591 16.9959 35.7171 16.2238V19.2327H35.0347V11.6402H35.7171V12.7526C36.1591 11.9805 36.9076 11.5069 37.8449 11.5069C39.3098 11.5072 40.446 12.7847 40.446 14.4823ZM39.7395 14.4823C39.7395 13.1389 38.8697 12.1339 37.7233 12.1339C36.5451 12.1339 35.7168 13.1052 35.7168 14.4823C35.7168 15.8594 36.5451 16.8409 37.7233 16.8409C38.8697 16.8409 39.7395 15.8276 39.7395 14.4823Z" fill="white" stroke="white" stroke-miterlimit="10"/>
</svg>
