<svg width="70" height="65" viewBox="0 0 70 65" fill="none" xmlns="http://www.w3.org/2000/svg">
<rect width="70" height="65" rx="10" fill="#BD0CAB"/>
<path d="M22.8252 53.2173V46.1079H25.1494C25.9209 46.1079 26.5003 46.2674 26.8877 46.5865C27.2783 46.9055 27.4736 47.3775 27.4736 48.0025C27.4736 48.3345 27.3792 48.6291 27.1904 48.8863C27.0016 49.1402 26.7445 49.3371 26.4189 49.4771C26.8031 49.5845 27.1058 49.7896 27.3271 50.0923C27.5518 50.3918 27.6641 50.7499 27.6641 51.1665C27.6641 51.8046 27.4574 52.3059 27.0439 52.6704C26.6305 53.035 26.0462 53.2173 25.291 53.2173H22.8252ZM23.7627 49.8921V52.4507H25.3105C25.7467 52.4507 26.0902 52.3384 26.3408 52.1138C26.5947 51.8859 26.7217 51.5734 26.7217 51.1763C26.7217 50.3202 26.2562 49.8921 25.3252 49.8921H23.7627ZM23.7627 49.1402H25.1787C25.5889 49.1402 25.916 49.0376 26.1602 48.8326C26.4076 48.6275 26.5312 48.3492 26.5312 47.9976C26.5312 47.607 26.4173 47.3238 26.1895 47.148C25.9616 46.9689 25.6149 46.8794 25.1494 46.8794H23.7627V49.1402ZM29.8955 53.2173H28.9922V47.9341H29.8955V53.2173ZM28.9189 46.5327C28.9189 46.3863 28.9629 46.2626 29.0508 46.1617C29.1419 46.0607 29.2754 46.0103 29.4512 46.0103C29.627 46.0103 29.7604 46.0607 29.8516 46.1617C29.9427 46.2626 29.9883 46.3863 29.9883 46.5327C29.9883 46.6792 29.9427 46.8013 29.8516 46.899C29.7604 46.9966 29.627 47.0454 29.4512 47.0454C29.2754 47.0454 29.1419 46.9966 29.0508 46.899C28.9629 46.8013 28.9189 46.6792 28.9189 46.5327ZM32.3271 53.2173H31.4238V45.7173H32.3271V53.2173ZM34.7588 53.2173H33.8555V45.7173H34.7588V53.2173ZM37.1904 53.2173H36.2871V47.9341H37.1904V53.2173ZM36.2139 46.5327C36.2139 46.3863 36.2578 46.2626 36.3457 46.1617C36.4368 46.0607 36.5703 46.0103 36.7461 46.0103C36.9219 46.0103 37.0553 46.0607 37.1465 46.1617C37.2376 46.2626 37.2832 46.3863 37.2832 46.5327C37.2832 46.6792 37.2376 46.8013 37.1465 46.899C37.0553 46.9966 36.9219 47.0454 36.7461 47.0454C36.5703 47.0454 36.4368 46.9966 36.3457 46.899C36.2578 46.8013 36.2139 46.6792 36.2139 46.5327ZM39.4951 47.9341L39.5244 48.5982C39.9281 48.0904 40.4554 47.8365 41.1064 47.8365C42.223 47.8365 42.7861 48.4663 42.7959 49.7261V53.2173H41.8926V49.7212C41.8893 49.3404 41.8014 49.0588 41.6289 48.8765C41.4596 48.6942 41.1943 48.6031 40.833 48.6031C40.54 48.6031 40.2829 48.6812 40.0615 48.8374C39.8402 48.9937 39.6676 49.1988 39.5439 49.4527V53.2173H38.6406V47.9341H39.4951ZM43.9434 50.5318C43.9434 49.7082 44.1338 49.0539 44.5146 48.5689C44.8955 48.0806 45.4001 47.8365 46.0283 47.8365C46.6729 47.8365 47.1758 48.0643 47.5371 48.5201L47.5811 47.9341H48.4062V53.0904C48.4062 53.774 48.2028 54.3127 47.7959 54.7066C47.3923 55.1005 46.8486 55.2974 46.165 55.2974C45.7842 55.2974 45.4115 55.216 45.0469 55.0533C44.6823 54.8905 44.404 54.6675 44.2119 54.3843L44.6807 53.8423C45.068 54.3208 45.5417 54.5601 46.1016 54.5601C46.541 54.5601 46.8828 54.4364 47.127 54.189C47.3743 53.9416 47.498 53.5933 47.498 53.1441V52.69C47.1367 53.1066 46.6436 53.315 46.0186 53.315C45.4001 53.315 44.8988 53.0659 44.5146 52.5679C44.1338 52.0699 43.9434 51.3911 43.9434 50.5318ZM44.8516 50.6343C44.8516 51.23 44.9736 51.6988 45.2178 52.0406C45.4619 52.3791 45.8037 52.5484 46.2432 52.5484C46.8128 52.5484 47.2311 52.2896 47.498 51.772V49.3599C47.2214 48.8553 46.8063 48.6031 46.2529 48.6031C45.8135 48.6031 45.4701 48.774 45.2227 49.1158C44.9753 49.4576 44.8516 49.9637 44.8516 50.6343Z" fill="white"/>
<path d="M23.9172 9H43.6796C43.817 9 43.9482 9.0557 44.0379 9.15146L47.3596 12.4729C47.4589 12.5725 47.5108 12.7017 47.5108 12.8312V41.0858C47.5108 41.3665 47.2841 41.5934 47.0032 41.5934H23.9172C23.6387 41.5934 23.4079 41.3667 23.4079 41.0858V9.50761C23.4079 9.22691 23.6389 9 23.9172 9ZM43.4669 10.0171H24.4289V40.5763H46.4939V13.0444L43.4669 10.0171Z" fill="white" stroke="white" stroke-miterlimit="10"/>
<path d="M27.609 24.7883C27.3266 24.7883 27.1014 25.0133 27.1014 25.2959C27.1014 25.5807 27.3266 25.8054 27.609 25.8054H43.3136C43.5921 25.8054 43.8212 25.5807 43.8212 25.2959C43.8212 25.0133 43.5921 24.7883 43.3136 24.7883H27.609Z" fill="white" stroke="white" stroke-miterlimit="10"/>
<path d="M27.609 30.088C27.3266 30.088 27.1014 30.3171 27.1014 30.5972C27.1014 30.8779 27.3266 31.109 27.609 31.109H43.3136C43.5921 31.109 43.8212 30.8779 43.8212 30.5972C43.8212 30.3171 43.5921 30.088 43.3136 30.088H27.609Z" fill="white" stroke="white" stroke-miterlimit="10"/>
<path d="M27.609 35.3921C27.3266 35.3921 27.1014 35.6206 27.1014 35.8994C27.1014 36.1795 27.3266 36.4106 27.609 36.4106H43.3136C43.5921 36.4106 43.8212 36.1795 43.8212 35.8994C43.8212 35.6206 43.5921 35.3921 43.3136 35.3921H27.609Z" fill="white" stroke="white" stroke-miterlimit="10"/>
<path d="M43.4924 9H43.6798C43.8173 9 43.9484 9.0557 44.0382 9.15146L47.3598 12.4729C47.4592 12.5725 47.511 12.7017 47.511 12.8312V13.1635C47.511 13.4461 47.2844 13.6708 47.0034 13.6708H43.4924C43.2103 13.6708 42.9832 13.4461 42.9832 13.1635V9.50761C42.9829 9.22691 43.2101 9 43.4924 9ZM46.1034 12.6562L44.0003 10.5505V12.6562H46.1034Z" fill="white" stroke="white" stroke-miterlimit="10"/>
<path d="M33.5477 17.4943L35.5537 20.3383H34.738L32.7657 17.5382H30.5706V20.3383H29.866V12.7654H32.9745C34.5289 12.7654 35.7074 13.7564 35.7074 15.1577C35.7074 16.3798 34.8137 17.2833 33.5477 17.4943ZM30.5704 16.8652H32.8532C34.1209 16.8652 35.0025 16.2045 35.0025 15.1577C35.0025 14.0988 34.1209 13.4381 32.8532 13.4381H30.5704V16.8652Z" fill="white" stroke="white" stroke-miterlimit="10"/>
<path d="M42.4459 17.4823C42.4459 19.192 41.3094 20.4695 39.8448 20.4695C38.9075 20.4695 38.159 19.9959 37.7169 19.2238V22.2327H37.0345V14.6402H37.7169V15.7526C38.159 14.9804 38.9075 14.5069 39.8448 14.5069C41.3097 14.5071 42.4459 15.7847 42.4459 17.4823ZM41.7394 17.4823C41.7394 16.1389 40.8696 15.1338 39.7232 15.1338C38.545 15.1338 37.7167 16.1051 37.7167 17.4823C37.7167 18.8594 38.545 19.8409 39.7232 19.8409C40.8696 19.8409 41.7394 18.8276 41.7394 17.4823Z" fill="white" stroke="white" stroke-miterlimit="10"/>
</svg>
