<svg width="80" height="80" viewBox="0 0 80 80" fill="none" xmlns="http://www.w3.org/2000/svg">
<path d="M58.3035 80H21.695C9.71343 80 0 70.8652 0 59.5983V25.1698C0 13.9019 9.71343 4.76831 21.695 4.76831H58.3035C70.2888 4.76831 80.0003 13.9019 80.0003 25.1698V59.5983C80.0006 70.8652 70.2888 80 58.3035 80Z" fill="white"/>
<path d="M58.3035 75.2295H21.695C9.71343 75.2295 0 66.0953 0 54.8277V20.4011C0 9.13236 9.71343 0 21.695 0H58.3035C70.2888 0 80.0003 9.13236 80.0003 20.4011V54.8277C80.0006 66.0953 70.2888 75.2295 58.3035 75.2295Z" fill="#00796B"/>
<path d="M23.5 23.75H19.25V53.5C19.25 55.8481 21.1519 57.75 23.5 57.75H53.25V53.5H23.5V23.75ZM57.5 15.25H32C29.6519 15.25 27.75 17.1519 27.75 19.5V45C27.75 47.3481 29.6519 49.25 32 49.25H57.5C59.8481 49.25 61.75 47.3481 61.75 45V19.5C61.75 17.1519 59.8481 15.25 57.5 15.25ZM55.375 34.375H34.125V30.125H55.375V34.375ZM46.875 42.875H34.125V38.625H46.875V42.875ZM55.375 25.875H34.125V21.625H55.375V25.875Z" fill="white"/>
</svg>
