<svg width="70" height="71" viewBox="0 0 70 71" fill="none" xmlns="http://www.w3.org/2000/svg">
<rect width="70" height="65" rx="15" fill="#98492A"/>
<path d="M48.9998 26.8361L34.9969 15.4556L21 26.8361V22.1939L34.9969 10.8171L48.9998 22.1939V26.8361ZM45.4977 26.4217V37.4169H38.5011V30.0834H31.5008V37.4169H24.4982V26.4217L34.9969 18.1753L45.4977 26.4217Z" fill="white"/>
<path d="M28.1368 52.0168H27.1944V48.7307H23.6104V52.0168H22.6729V44.9075H23.6104V47.9641H27.1944V44.9075H28.1368V52.0168ZM29.4209 49.3264C29.4209 48.8088 29.5218 48.3433 29.7237 47.9299C29.9287 47.5165 30.212 47.1975 30.5733 46.9729C30.9379 46.7483 31.3529 46.636 31.8184 46.636C32.5378 46.636 33.1189 46.885 33.5616 47.3831C34.0075 47.8811 34.2305 48.5435 34.2305 49.3704V49.4338C34.2305 49.9482 34.1312 50.4104 33.9327 50.8206C33.7373 51.2275 33.4558 51.5448 33.0879 51.7727C32.7233 52.0006 32.3034 52.1145 31.8282 52.1145C31.112 52.1145 30.531 51.8655 30.085 51.3674C29.6423 50.8694 29.4209 50.2102 29.4209 49.3899V49.3264ZM30.3291 49.4338C30.3291 50.0198 30.4642 50.4902 30.7344 50.845C31.0078 51.1998 31.3724 51.3772 31.8282 51.3772C32.2871 51.3772 32.6517 51.1982 32.9219 50.8401C33.1921 50.4788 33.3272 49.9742 33.3272 49.3264C33.3272 48.747 33.1888 48.2782 32.9121 47.9202C32.6387 47.5588 32.2741 47.3782 31.8184 47.3782C31.3724 47.3782 31.0127 47.5556 30.7393 47.9104C30.4659 48.2652 30.3291 48.773 30.3291 49.4338ZM36.2129 46.7336L36.2373 47.3196C36.6247 46.8639 37.1472 46.636 37.8047 46.636C38.5437 46.636 39.0466 46.9192 39.3135 47.4856C39.4893 47.2317 39.7172 47.0266 39.9971 46.8704C40.2803 46.7141 40.614 46.636 40.9981 46.636C42.1569 46.636 42.7461 47.2496 42.7657 48.4768V52.0168H41.8623V48.5305C41.8623 48.1529 41.7761 47.8713 41.6036 47.6858C41.431 47.497 41.1413 47.4026 40.7344 47.4026C40.3991 47.4026 40.1208 47.5035 39.8995 47.7053C39.6781 47.9039 39.5495 48.1724 39.5137 48.511V52.0168H38.6055V48.5549C38.6055 47.7867 38.2295 47.4026 37.4776 47.4026C36.8851 47.4026 36.4799 47.6549 36.2618 48.1594V52.0168H35.3584V46.7336H36.2129ZM46.3252 52.1145C45.6091 52.1145 45.0264 51.8801 44.5772 51.4114C44.128 50.9394 43.9034 50.3095 43.9034 49.5217V49.3557C43.9034 48.8316 44.0026 48.3645 44.2012 47.9543C44.403 47.5409 44.683 47.2187 45.0411 46.9875C45.4024 46.7532 45.793 46.636 46.2129 46.636C46.8998 46.636 47.4336 46.8622 47.8145 47.3147C48.1953 47.7672 48.3858 48.415 48.3858 49.2581V49.634H44.8067C44.8197 50.1549 44.9711 50.5764 45.2608 50.8987C45.5537 51.2177 45.9248 51.3772 46.3741 51.3772C46.6931 51.3772 46.9633 51.3121 47.1846 51.1819C47.406 51.0517 47.5996 50.8792 47.7657 50.6643L48.3174 51.094C47.8747 51.7743 47.2106 52.1145 46.3252 52.1145ZM46.2129 47.3782C45.8483 47.3782 45.5424 47.5116 45.295 47.7786C45.0476 48.0422 44.8946 48.4133 44.836 48.8918H47.4825V48.8235C47.4564 48.3645 47.3327 48.0097 47.1114 47.759C46.89 47.5051 46.5905 47.3782 46.2129 47.3782Z" fill="white"/>
</svg>
