<svg width="70" height="71" viewBox="0 0 70 71" fill="none" xmlns="http://www.w3.org/2000/svg">
<rect y="6" width="70" height="65" rx="15" fill="white"/>
<rect width="70" height="65" rx="15" fill="#FF0404"/>
<path d="M36.2043 8.3396C44.8293 8.3396 51.8246 15.3325 51.8246 23.9616C51.8246 32.5906 44.8293 39.5836 36.2043 39.5836V36.2372C39.4835 36.2372 42.5637 34.9599 44.8836 32.642C47.1999 30.3223 48.4763 27.2429 48.4763 23.9613C48.4763 20.6846 47.2007 17.6028 44.8836 15.2809C42.5637 12.961 39.4835 11.6857 36.2043 11.6857C32.921 11.6857 29.8438 12.9608 27.5215 15.2809C25.7396 17.0647 24.574 19.3017 24.1284 21.7292H30.6217L22.8109 30.656L15 21.7292H20.7423C21.8223 14.1606 28.3331 8.3396 36.2043 8.3396ZM42.8973 21.7295V26.194H33.9681V15.0348H38.4348V21.7295H42.8973Z" fill="white"/>
<path d="M24.405 49.9506H23.4626V46.6644H19.8787V49.9506H18.9412V42.8412H19.8787V45.8978H23.4626V42.8412H24.405V49.9506ZM26.9099 49.9506H26.0066V44.6674H26.9099V49.9506ZM25.9333 43.266C25.9333 43.1195 25.9773 42.9958 26.0652 42.8949C26.1563 42.794 26.2898 42.7435 26.4656 42.7435C26.6414 42.7435 26.7748 42.794 26.866 42.8949C26.9571 42.9958 27.0027 43.1195 27.0027 43.266C27.0027 43.4125 26.9571 43.5345 26.866 43.6322C26.7748 43.7299 26.6414 43.7787 26.4656 43.7787C26.2898 43.7787 26.1563 43.7299 26.0652 43.6322C25.9773 43.5345 25.9333 43.4125 25.9333 43.266ZM31.4363 48.5492C31.4363 48.3051 31.3435 48.1163 31.158 47.9828C30.9757 47.8461 30.655 47.7289 30.196 47.6312C29.7403 47.5336 29.3774 47.4164 29.1072 47.2797C28.8403 47.1429 28.6417 46.9802 28.5115 46.7914C28.3845 46.6026 28.321 46.378 28.321 46.1176C28.321 45.6846 28.5033 45.3184 28.8679 45.0189C29.2358 44.7194 29.7045 44.5697 30.2742 44.5697C30.8731 44.5697 31.3582 44.7243 31.7292 45.0336C32.1036 45.3428 32.2908 45.7383 32.2908 46.2201H31.3826C31.3826 45.9727 31.2768 45.7595 31.0652 45.5804C30.8569 45.4014 30.5932 45.3119 30.2742 45.3119C29.9454 45.3119 29.6882 45.3835 29.5027 45.5267C29.3171 45.67 29.2244 45.8571 29.2244 46.0883C29.2244 46.3064 29.3106 46.4707 29.4832 46.5814C29.6557 46.6921 29.9666 46.7979 30.4158 46.8988C30.8682 46.9997 31.2345 47.1202 31.5144 47.2601C31.7944 47.4001 32.0011 47.5694 32.1345 47.7679C32.2712 47.9633 32.3396 48.2025 32.3396 48.4857C32.3396 48.9577 32.1508 49.337 31.7732 49.6234C31.3956 49.9066 30.9057 50.0482 30.3035 50.0482C29.8803 50.0482 29.5059 49.9733 29.1804 49.8236C28.8549 49.6739 28.5994 49.4655 28.4138 49.1986C28.2315 48.9284 28.1404 48.6371 28.1404 48.3246H29.0437C29.06 48.6273 29.1804 48.8682 29.405 49.0472C29.6329 49.223 29.9324 49.3109 30.3035 49.3109C30.6453 49.3109 30.9187 49.2426 31.1238 49.1058C31.3321 48.9659 31.4363 48.7803 31.4363 48.5492ZM34.7419 43.3881V44.6674H35.7283V45.3656H34.7419V48.642C34.7419 48.8536 34.7859 49.0131 34.8738 49.1205C34.9617 49.2247 35.1114 49.2767 35.323 49.2767C35.4272 49.2767 35.5704 49.2572 35.7527 49.2181V49.9506C35.5151 50.0157 35.2839 50.0482 35.0593 50.0482C34.6557 50.0482 34.3513 49.9261 34.1462 49.682C33.9412 49.4379 33.8386 49.0912 33.8386 48.642V45.3656H32.8767V44.6674H33.8386V43.3881H34.7419ZM36.4509 47.2601C36.4509 46.7426 36.5518 46.2771 36.7537 45.8636C36.9587 45.4502 37.2419 45.1312 37.6033 44.9066C37.9679 44.682 38.3829 44.5697 38.8484 44.5697C39.5678 44.5697 40.1488 44.8187 40.5916 45.3168C41.0375 45.8148 41.2605 46.4773 41.2605 47.3041V47.3676C41.2605 47.8819 41.1612 48.3441 40.9626 48.7543C40.7673 49.1612 40.4858 49.4786 40.1179 49.7064C39.7533 49.9343 39.3334 50.0482 38.8582 50.0482C38.142 50.0482 37.561 49.7992 37.115 49.3011C36.6723 48.8031 36.4509 48.1439 36.4509 47.3236V47.2601ZM37.3591 47.3676C37.3591 47.9535 37.4942 48.4239 37.7644 48.7787C38.0378 49.1335 38.4024 49.3109 38.8582 49.3109C39.3171 49.3109 39.6817 49.1319 39.9519 48.7738C40.2221 48.4125 40.3572 47.9079 40.3572 47.2601C40.3572 46.6807 40.2188 46.212 39.9421 45.8539C39.6687 45.4926 39.3041 45.3119 38.8484 45.3119C38.4024 45.3119 38.0427 45.4893 37.7693 45.8441C37.4958 46.1989 37.3591 46.7067 37.3591 47.3676ZM44.947 45.4779C44.8103 45.4551 44.6622 45.4437 44.5027 45.4437C43.9102 45.4437 43.5082 45.696 43.2966 46.2006V49.9506H42.3933V44.6674H43.2722L43.2869 45.2777C43.5831 44.8057 44.003 44.5697 44.5466 44.5697C44.7224 44.5697 44.8559 44.5925 44.947 44.6381V45.4779ZM47.5984 48.6273L48.8289 44.6674H49.7957L47.6716 50.766C47.3429 51.6449 46.8204 52.0844 46.1042 52.0844L45.9333 52.0697L45.5964 52.0062V51.2738L45.8406 51.2933C46.1466 51.2933 46.3842 51.2315 46.5535 51.1078C46.726 50.9841 46.8676 50.7579 46.9783 50.4291L47.1785 49.892L45.2937 44.6674H46.28L47.5984 48.6273Z" fill="white"/>
</svg>
