<svg width="70" height="65" viewBox="0 0 70 65" fill="none" xmlns="http://www.w3.org/2000/svg">
<rect width="70" height="65" rx="10" fill="#FF0404"/>
<path d="M36.4885 11.3397C45.1134 11.3397 52.1088 18.3326 52.1088 26.9616C52.1088 35.5907 45.1134 42.5836 36.4885 42.5836V39.2373C39.7676 39.2373 42.8479 37.96 45.1678 35.642C47.4841 33.3224 48.7605 30.243 48.7605 26.9614C48.7605 23.6847 47.4849 20.6028 45.1678 18.281C42.8479 15.9611 39.7676 14.6858 36.4885 14.6858C33.2052 14.6858 30.128 15.9608 27.8056 18.281C26.0238 20.0648 24.8582 22.3018 24.4126 24.7293H30.9059L23.095 33.656L15.2842 24.7293H21.0265C22.1064 17.1607 28.6173 11.3397 36.4885 11.3397ZM43.1815 24.7295V29.194H34.2523V18.0349H38.7189V24.7295H43.1815Z" fill="white"/>
<path d="M24.6893 52.9506H23.7469V49.6645H20.163V52.9506H19.2255V45.8412H20.163V48.8979H23.7469V45.8412H24.6893V52.9506ZM27.1942 52.9506H26.2909V47.6674H27.1942V52.9506ZM26.2177 46.2661C26.2177 46.1196 26.2616 45.9959 26.3495 45.895C26.4406 45.794 26.5741 45.7436 26.7499 45.7436C26.9257 45.7436 27.0591 45.794 27.1503 45.895C27.2414 45.9959 27.287 46.1196 27.287 46.2661C27.287 46.4125 27.2414 46.5346 27.1503 46.6323C27.0591 46.7299 26.9257 46.7787 26.7499 46.7787C26.5741 46.7787 26.4406 46.7299 26.3495 46.6323C26.2616 46.5346 26.2177 46.4125 26.2177 46.2661ZM31.7206 51.5493C31.7206 51.3051 31.6278 51.1163 31.4423 50.9828C31.26 50.8461 30.9393 50.7289 30.4803 50.6313C30.0246 50.5336 29.6617 50.4164 29.3915 50.2797C29.1246 50.143 28.926 49.9802 28.7958 49.7914C28.6688 49.6026 28.6053 49.378 28.6053 49.1176C28.6053 48.6847 28.7876 48.3185 29.1522 48.019C29.5201 47.7195 29.9888 47.5698 30.5585 47.5698C31.1574 47.5698 31.6425 47.7244 32.0135 48.0336C32.3879 48.3429 32.5751 48.7384 32.5751 49.2202H31.6669C31.6669 48.9728 31.5611 48.7595 31.3495 48.5805C31.1412 48.4015 30.8775 48.312 30.5585 48.312C30.2297 48.312 29.9725 48.3836 29.787 48.5268C29.6014 48.67 29.5087 48.8572 29.5087 49.0883C29.5087 49.3064 29.5949 49.4708 29.7675 49.5815C29.94 49.6922 30.2509 49.798 30.7001 49.8989C31.1525 49.9998 31.5188 50.1202 31.7987 50.2602C32.0787 50.4002 32.2854 50.5694 32.4188 50.768C32.5555 50.9633 32.6239 51.2026 32.6239 51.4858C32.6239 51.9578 32.4351 52.337 32.0575 52.6235C31.6799 52.9067 31.19 53.0483 30.5878 53.0483C30.1646 53.0483 29.7902 52.9734 29.4647 52.8237C29.1392 52.6739 28.8837 52.4656 28.6981 52.1987C28.5158 51.9285 28.4247 51.6371 28.4247 51.3246H29.328C29.3443 51.6274 29.4647 51.8683 29.6893 52.0473C29.9172 52.2231 30.2167 52.311 30.5878 52.311C30.9296 52.311 31.203 52.2426 31.4081 52.1059C31.6164 51.9659 31.7206 51.7804 31.7206 51.5493ZM35.0262 46.3881V47.6674H36.0126V48.3657H35.0262V51.642C35.0262 51.8536 35.0702 52.0131 35.1581 52.1205C35.246 52.2247 35.3957 52.2768 35.6073 52.2768C35.7115 52.2768 35.8547 52.2573 36.037 52.2182V52.9506C35.7994 53.0157 35.5682 53.0483 35.3436 53.0483C34.94 53.0483 34.6356 52.9262 34.4305 52.6821C34.2255 52.4379 34.1229 52.0912 34.1229 51.642V48.3657H33.161V47.6674H34.1229V46.3881H35.0262ZM36.7352 50.2602C36.7352 49.7426 36.8361 49.2771 37.038 48.8637C37.243 48.4503 37.5262 48.1313 37.8876 47.9067C38.2522 47.6821 38.6672 47.5698 39.1327 47.5698C39.8521 47.5698 40.4331 47.8188 40.8759 48.3168C41.3218 48.8149 41.5448 49.4773 41.5448 50.3041V50.3676C41.5448 50.8819 41.4455 51.3442 41.2469 51.7543C41.0516 52.1612 40.7701 52.4786 40.4022 52.7065C40.0376 52.9343 39.6177 53.0483 39.1425 53.0483C38.4263 53.0483 37.8453 52.7993 37.3993 52.3012C36.9566 51.8032 36.7352 51.144 36.7352 50.3237V50.2602ZM37.6434 50.3676C37.6434 50.9536 37.7785 51.4239 38.0487 51.7787C38.3221 52.1336 38.6867 52.311 39.1425 52.311C39.6014 52.311 39.966 52.1319 40.2362 51.7739C40.5064 51.4125 40.6415 50.908 40.6415 50.2602C40.6415 49.6808 40.5031 49.212 40.2264 48.8539C39.953 48.4926 39.5884 48.312 39.1327 48.312C38.6867 48.312 38.327 48.4894 38.0536 48.8442C37.7802 49.199 37.6434 49.7068 37.6434 50.3676ZM45.2313 48.478C45.0946 48.4552 44.9465 48.4438 44.787 48.4438C44.1945 48.4438 43.7925 48.6961 43.5809 49.2006V52.9506H42.6776V47.6674H43.5565L43.5712 48.2778C43.8674 47.8058 44.2873 47.5698 44.8309 47.5698C45.0067 47.5698 45.1402 47.5925 45.2313 47.6381V48.478ZM47.8827 51.6274L49.1132 47.6674H50.08L47.9559 53.7661C47.6272 54.645 47.1047 55.0844 46.3885 55.0844L46.2177 55.0698L45.8807 55.0063V54.2739L46.1249 54.2934C46.4309 54.2934 46.6685 54.2315 46.8378 54.1078C47.0103 53.9842 47.1519 53.7579 47.2626 53.4291L47.4628 52.892L45.578 47.6674H46.5643L47.8827 51.6274Z" fill="white"/>
</svg>
