<svg width="70" height="71" viewBox="0 0 70 71" fill="none" xmlns="http://www.w3.org/2000/svg">
<rect y="6" width="70" height="65" rx="15" fill="white"/>
<rect width="70" height="65" rx="15" fill="#98492A"/>
<path d="M48.9998 26.8361L34.9969 15.4556L21 26.8361V22.1939L34.9969 10.8171L48.9998 22.1939V26.8361ZM45.4977 26.4217V37.4169H38.5011V30.0834H31.5008V37.4169H24.4982V26.4217L34.9969 18.1753L45.4977 26.4217Z" fill="white"/>
<path d="M28.1368 52.0169H27.1944V48.7308H23.6104V52.0169H22.6729V44.9075H23.6104V47.9642H27.1944V44.9075H28.1368V52.0169ZM29.4209 49.3265C29.4209 48.8089 29.5218 48.3434 29.7237 47.93C29.9287 47.5166 30.212 47.1976 30.5733 46.973C30.9379 46.7484 31.3529 46.636 31.8184 46.636C32.5378 46.636 33.1189 46.8851 33.5616 47.3831C34.0075 47.8812 34.2305 48.5436 34.2305 49.3704V49.4339C34.2305 49.9482 34.1312 50.4105 33.9327 50.8206C33.7373 51.2275 33.4558 51.5449 33.0879 51.7728C32.7233 52.0006 32.3034 52.1146 31.8282 52.1146C31.112 52.1146 30.531 51.8655 30.085 51.3675C29.6423 50.8694 29.4209 50.2103 29.4209 49.39V49.3265ZM30.3291 49.4339C30.3291 50.0198 30.4642 50.4902 30.7344 50.845C31.0078 51.1998 31.3724 51.3773 31.8282 51.3773C32.2871 51.3773 32.6517 51.1982 32.9219 50.8401C33.1921 50.4788 33.3272 49.9743 33.3272 49.3265C33.3272 48.747 33.1888 48.2783 32.9121 47.9202C32.6387 47.5589 32.2741 47.3782 31.8184 47.3782C31.3724 47.3782 31.0127 47.5556 30.7393 47.9105C30.4659 48.2653 30.3291 48.7731 30.3291 49.4339ZM36.2129 46.7337L36.2373 47.3196C36.6247 46.8639 37.1472 46.636 37.8047 46.636C38.5437 46.636 39.0466 46.9193 39.3135 47.4857C39.4893 47.2318 39.7172 47.0267 39.9971 46.8704C40.2803 46.7142 40.614 46.636 40.9981 46.636C42.1569 46.636 42.7461 47.2497 42.7657 48.4769V52.0169H41.8623V48.5306C41.8623 48.153 41.7761 47.8714 41.6036 47.6859C41.431 47.497 41.1413 47.4026 40.7344 47.4026C40.3991 47.4026 40.1208 47.5036 39.8995 47.7054C39.6781 47.904 39.5495 48.1725 39.5137 48.511V52.0169H38.6055V48.555C38.6055 47.7868 38.2295 47.4026 37.4776 47.4026C36.8851 47.4026 36.4799 47.6549 36.2618 48.1595V52.0169H35.3584V46.7337H36.2129ZM46.3252 52.1146C45.6091 52.1146 45.0264 51.8802 44.5772 51.4114C44.128 50.9394 43.9034 50.3095 43.9034 49.5218V49.3558C43.9034 48.8317 44.0026 48.3646 44.2012 47.9544C44.403 47.541 44.683 47.2187 45.0411 46.9876C45.4024 46.7532 45.793 46.636 46.2129 46.636C46.8998 46.636 47.4336 46.8623 47.8145 47.3148C48.1953 47.7672 48.3858 48.415 48.3858 49.2581V49.6341H44.8067C44.8197 50.1549 44.9711 50.5765 45.2608 50.8987C45.5537 51.2178 45.9248 51.3773 46.3741 51.3773C46.6931 51.3773 46.9633 51.3122 47.1846 51.1819C47.406 51.0517 47.5996 50.8792 47.7657 50.6644L48.3174 51.0941C47.8747 51.7744 47.2106 52.1146 46.3252 52.1146ZM46.2129 47.3782C45.8483 47.3782 45.5424 47.5117 45.295 47.7786C45.0476 48.0423 44.8946 48.4134 44.836 48.8919H47.4825V48.8235C47.4564 48.3646 47.3327 48.0097 47.1114 47.7591C46.89 47.5052 46.5905 47.3782 46.2129 47.3782Z" fill="white"/>
</svg>
