<?xml version="1.0" encoding="utf-8"?>
<!-- Generator: Adobe Illustrator 16.0.0, SVG Export Plug-In . SVG Version: 6.00 Build 0)  -->
<svg version="1.2" baseProfile="tiny" id="Layer_1" xmlns="http://www.w3.org/2000/svg" xmlns:xlink="http://www.w3.org/1999/xlink"
	 x="0px" y="0px" width="283.46px" height="283.46px" viewBox="0 0 283.46 283.46" xml:space="preserve">
<g>
	<path fill-rule="evenodd" fill="#E42829" d="M27.547,235.61c0-63.576,0-127.159,0-190.735c0.298-1.765,0.314-3.563,0.978-5.279
		c2.751-7.392,10.293-13.574,18.495-14.129c1.161-0.083,2.32-0.1,3.465-0.1c62.201-0.007,124.382-0.007,186.55,0
		c6,0,11.088,2.138,15.381,6.332c4.491,4.417,6.629,9.745,6.629,16.026c0,62.184,0,124.375,0,186.559
		c0,8.021-3.563,14.154-10.027,18.646c-3.496,2.401-7.424,3.547-11.668,3.547c-62.878,0-125.775,0.015-188.688-0.017
		c-5.454,0-10.21-2.022-14.271-5.718c-2.884-2.637-4.988-5.769-6.199-9.497c-0.464-1.392-0.348-2.884-0.646-4.294
		c0-0.048,0-0.115,0-0.198C27.712,236.373,27.712,235.976,27.547,235.61z"/>
	<path fill-rule="evenodd" fill="#8B191B" d="M27.547,235.61c0.199,0.365,0.365,0.763,0,1.144
		C27.547,236.373,27.547,235.976,27.547,235.61z"/>
	<path fill-rule="evenodd" fill="#FFFFFF" d="M108.625,177.587c-1.609,0-3.215,0.018-4.824,0c-1.506-0.016-2.12-0.529-2.287-2.004
		c-0.248-2.354-0.513-4.741-0.712-7.111c-0.049-0.795-0.33-1.128-1.16-1.11c-4.061,0.033-8.12,0.033-12.181,0
		c-0.663-0.018-1.029,0.232-1.276,0.862c-1.029,2.485-2.156,4.938-3.148,7.458c-0.482,1.16-1.227,1.674-2.504,1.657
		c-3.148-0.018-6.314,0.033-9.463,0.067c-1.89,0-2.205-0.481-1.459-2.188c6.498-14.36,12.996-28.73,19.475-43.116
		c0.348-0.762,0.679-1.517,1.027-2.279c1.111-2.445,3.05-3.68,5.701-3.738c2.52-0.049,5.039-0.041,7.524,0
		c2.354,0.033,3.979,1.426,4.36,3.722c1.906,11.286,3.777,22.572,5.667,33.875c0.663,3.944,1.325,7.921,1.99,11.883
		c0.214,1.325-0.333,2.006-1.691,2.021C111.971,177.604,110.316,177.587,108.625,177.587z"/>
	<path fill-rule="evenodd" fill="#FFFFFF" d="M158.594,178.565c-2.206-0.101-4.674-0.216-7.11-0.713
		c-6.299-1.31-9.679-4.757-10.424-11.12c-0.714-5.826,0-11.561,2.253-17.021c2.685-6.529,7.74-10.085,14.618-11.096
		c6.909-1.011,13.655-0.141,20.336,1.798c1.16,0.34,1.49,0.845,1.325,2.08c-1.061,8.361-2.138,16.714-3.182,25.101
		c-0.25,1.74-0.464,3.497-0.663,5.254c-0.134,1.376-0.813,2.319-2.089,2.834C168.901,177.604,163.979,178.532,158.594,178.565z"/>
	<path fill-rule="evenodd" fill="#FFFFFF" d="M141.722,119.828c-4.11-3.207-8.253-3.298-12.663-0.431
		c0.333-2.411,0.647-4.624,0.961-6.836c1.078-7.217,2.138-14.443,3.231-21.661c0.231-1.625,0.53-3.241,0.995-4.823
		c0.596-2.055,1.973-3.323,4.01-3.92c1.957-0.571,3.979-0.786,6-0.878c3.862-0.165,7.725-0.464,11.585-0.1
		c8.155,0.771,13.044,6.415,12.613,14.61c-0.2,3.854-0.946,7.657-1.476,11.477c-0.515,3.762-1.11,7.517-1.656,11.278
		c-0.184,1.269-0.465,1.525-1.726,1.525c-3.115,0.008-6.198,0.008-9.28,0c-1.591,0-1.956-0.39-1.725-2.006
		c0.796-5.436,1.575-10.871,2.388-16.315c0.348-2.197,0.662-4.393,0.513-6.63c-0.099-1.681-0.943-2.742-2.485-3.315
		c-2.221-0.828-4.491-0.612-6.761-0.339c-0.581,0.065-0.498,0.513-0.565,0.861c-0.415,2.9-0.812,5.801-1.227,8.701
		c-0.844,6.05-1.723,12.107-2.568,18.149C141.871,119.364,141.789,119.556,141.722,119.828z"/>
	<path fill-rule="evenodd" fill="#FFFFFF" d="M60.263,212.89c5.899-1.543,11.667-2.785,17.42-3.945
		c6.993-1.409,14.037-2.652,21.079-3.778c6.929-1.111,13.857-2.105,20.818-3.018c6.81-0.877,13.607-1.706,20.417-2.402
		c5.868-0.596,11.719-1.144,17.604-1.592c11.103-0.861,22.223-1.358,33.394-1.49c10.59-0.101,21.182,0.098,31.756,0.828
		c2.999,0.198,6.031,0.431,9.049,0.795c0.132,0,0.28,0.05,0.43,0.167c-0.214,0.033-0.43,0.048-0.629,0.065
		c-10.442,0.149-20.867,0.664-31.289,1.393c-9.151,0.631-18.35,1.424-27.479,2.403c-11.536,1.242-23.005,2.718-34.474,4.458
		c-19.873,2.982-39.61,6.729-59.101,11.734c-0.813,0.198-1.607,0.396-2.419,0.597c-2.006,0.48-3.961,0.397-5.884-0.398
		c-0.415-0.166-0.813-0.381-1.209-0.597C66.66,216.42,63.579,214.695,60.263,212.89z"/>
	<path fill-rule="evenodd" fill="#FFFFFF" d="M92.945,120.434c-3.545,0-7.076,0.066-10.605-0.016
		c-3.664-0.092-6.729-1.574-9.148-4.325c-2.155-2.445-2.586-5.297-2.14-8.486c1.41-10.094,2.72-20.204,4.061-30.305
		c0.299-2.229,0.598-4.467,0.912-6.696c0.165-1.094,0.529-1.449,1.64-1.458c3.481-0.017,6.978-0.024,10.442,0.009
		c1.243,0,1.739,0.646,1.558,1.855c-1.692,11.561-3.349,23.112-5.005,34.664c-0.216,1.475,0.663,2.594,2.138,2.734
		c0.314,0.042,0.645,0.017,0.962,0.017c5.915,0,11.866,0,17.781,0c1.294,0,1.526,0.291,1.328,1.566
		c-0.433,2.858-0.864,5.718-1.276,8.593c-0.232,1.707-0.366,1.856-2.107,1.856c-3.512,0-7.026,0-10.541,0V120.434z"/>
	<path fill-rule="evenodd" fill="#FFFFFF" d="M132.109,138.956c1.542,0,3.081-0.017,4.623,0c1.126,0.015,1.591,0.538,1.426,1.648
		c-1.31,9.877-2.586,19.772-3.961,29.642c-0.497,3.611-1.343,7.126-2.668,10.54c-1.624,4.21-4.391,7.358-8.385,9.447
		c-2.735,1.425-5.603,2.452-8.586,3.132c-0.763,0.184-1.325-0.017-1.558-0.729c-0.928-2.769-1.841-5.553-2.735-8.336
		c-0.214-0.631,0.082-1.045,0.68-1.293c0.944-0.383,1.906-0.796,2.85-1.161c4.394-1.823,6.614-5.137,7.31-9.762
		c1.542-10.441,2.916-20.898,4.409-31.349c0.181-1.292,0.711-1.772,2.037-1.78C129.077,138.938,130.585,138.956,132.109,138.956z"/>
	<path fill-rule="evenodd" fill="#FFFFFF" d="M185.375,67.109c1.759,0,3.549-0.017,5.304,0c1.029,0,1.228,0.215,1.078,1.201
		c-0.647,4.773-1.325,9.555-1.972,14.336c-1.012,7.226-2.007,14.451-3,21.686c-0.68,4.839-1.326,9.679-2.006,14.518
		c-0.198,1.285-0.299,1.352-1.624,1.352c-3.298,0-6.63,0-9.944,0c-1.292,0-1.491-0.191-1.342-1.442
		c1.078-7.798,2.153-15.595,3.249-23.411c1.127-8.112,2.235-16.241,3.362-24.354c0.115-0.986,0.283-1.981,0.399-2.968
		c0.082-0.653,0.397-0.944,1.094-0.936C181.764,67.118,183.57,67.109,185.375,67.109z"/>
	<path fill-rule="evenodd" fill="#FFFFFF" d="M208.711,82.315c1.725,0,3.432-0.009,5.121,0.016c0.579,0,1.275-0.189,1.574,0.58
		c0.266,0.696-0.247,1.07-0.612,1.484c-4.062,4.509-8.12,8.999-12.197,13.466c-0.498,0.539-0.531,0.928-0.216,1.582
		c3.811,8.105,7.591,16.226,11.386,24.355c0.082,0.224,0.214,0.464,0.314,0.705c0.447,1.168-0.149,2.104-1.407,2.113
		c-3.35,0.024-6.696,0-10.046,0.016c-0.896,0-1.258-0.563-1.59-1.292c-3.018-6.538-6.032-13.069-9.033-19.606
		c-1.044-2.27-2.104-4.557-3.164-6.82c-0.25-0.506-0.25-0.82,0.132-1.26c4.125-4.756,8.205-9.521,12.281-14.294
		c0.612-0.721,1.292-1.069,2.254-1.053C205.248,82.34,206.971,82.315,208.711,82.315z"/>
	<path fill-rule="evenodd" fill="#FFFFFF" d="M115.138,120.069c-1.658,0-3.347,0.017-5.005,0c-1.011-0.009-1.325-0.39-1.194-1.4
		c1.127-7.989,2.238-15.985,3.365-23.982c0.547-3.721,1.027-7.45,1.573-11.17c0.167-1.202,0.58-1.525,1.792-1.525
		c3.148-0.009,6.315-0.009,9.463,0c1.375,0,1.905,0.571,1.722,1.922c-0.992,7.003-1.972,14.013-2.965,21.024
		c-0.631,4.358-1.243,8.717-1.84,13.084c-0.232,1.699-0.58,2.047-2.254,2.047C118.253,120.077,116.68,120.069,115.138,120.069z"/>
	<path fill-rule="evenodd" fill="#FFFFFF" d="M195.254,132.308c1.541,0,3.099-0.007,4.623,0c1.31,0.009,1.707,0.49,1.443,1.757
		c-1.376,6.994-2.802,13.988-4.21,20.982c-0.547,2.734-1.111,5.479-1.658,8.22c-0.266,1.359-0.563,1.607-1.921,1.607
		c-2.14,0-4.26,0-6.382,0c-1.31,0-1.74-0.496-1.624-1.79c0.812-8.452,1.624-16.904,2.437-25.374
		c0.115-1.177,0.247-2.362,0.363-3.546c0.116-1.244,0.613-1.774,1.923-1.823c1.658-0.059,3.332-0.025,5.006-0.025V132.308z"/>
	<path fill-rule="evenodd" fill="#FFFFFF" d="M190.1,168.688c4.341-0.132,7.31,3.646,6.131,7.805
		c-1.325,4.692-6.745,7.442-10.92,5.521c-2.752-1.243-4.027-3.91-3.3-6.828C182.989,171.306,186.105,168.804,190.1,168.688z"/>
	<path fill-rule="evenodd" fill="#FFFFFF" d="M135.275,121.917c3.512-0.049,6.114,2.917,5.684,6.505
		c-0.498,3.779-3.597,6.97-7.359,7.534c-4.26,0.637-7.491-2.826-6.547-7.036C127.981,124.809,131.313,121.967,135.275,121.917z"/>
	<path fill-rule="evenodd" fill="#FFFFFF" d="M123.557,64.971c3.465-0.033,6.016,2.743,5.719,6.183
		c-0.381,4.267-4.094,7.889-8.171,7.938c-3.747,0.042-6.299-2.818-5.817-6.514C115.785,68.36,119.464,65.003,123.557,64.971z"/>
	<path fill-rule="evenodd" fill="#E6282B" d="M95.134,156.68c-1.029,0-2.04-0.024-3.084,0c-0.76,0.018-0.876-0.257-0.613-0.944
		c1.923-4.814,3.829-9.654,5.734-14.477c0.067-0.216,0.116-0.571,0.464-0.522c0.366,0.051,0.266,0.391,0.283,0.63
		c0.431,4.698,0.876,9.405,1.325,14.095c0.083,0.88-0.216,1.27-1.126,1.227C97.122,156.647,96.126,156.68,95.134,156.68z"/>
	<path fill-rule="evenodd" fill="#E6282B" d="M159.918,167.196c-3.479,0-5.368-1.724-5.618-4.84
		c-0.248-3.016,0.316-5.916,1.443-8.685c1.509-3.695,4.425-5.146,8.486-4.399c1.805,0.34,1.79,0.34,1.539,2.153
		c-0.611,4.749-1.226,9.496-1.79,14.245c-0.082,0.547-0.231,0.861-0.812,0.995C161.974,166.931,160.764,167.179,159.918,167.196z"/>
</g>
</svg>
