<svg width="80" height="80" viewBox="0 0 80 80" fill="none" xmlns="http://www.w3.org/2000/svg">
<path d="M58.3035 80H21.695C9.71343 80 0 70.8652 0 59.5983V25.1698C0 13.9019 9.71343 4.76831 21.695 4.76831H58.3035C70.2888 4.76831 80.0003 13.9019 80.0003 25.1698V59.5983C80.0006 70.8652 70.2888 80 58.3035 80Z" fill="white"/>
<path d="M58.3035 75.2295H21.695C9.71343 75.2295 0 66.0953 0 54.8277V20.4011C0 9.13236 9.71343 0 21.695 0H58.3035C70.2888 0 80.0003 9.13236 80.0003 20.4011V54.8277C80.0006 66.0953 70.2888 75.2295 58.3035 75.2295Z" fill="#32429B"/>
<path d="M20 58H40.5V17H20V58ZM32.8125 22.125H37.9375V27.25H32.8125V22.125ZM32.8125 32.375H37.9375V37.5H32.8125V32.375ZM32.8125 42.625H37.9375V47.75H32.8125V42.625ZM22.5625 22.125H27.6875V27.25H22.5625V22.125ZM22.5625 32.375H27.6875V37.5H22.5625V32.375ZM22.5625 42.625H27.6875V47.75H22.5625V42.625ZM43.0625 29.8125H61V32.375H43.0625V29.8125ZM43.0625 58H48.1875V47.75H55.875V58H61V34.9375H43.0625V58Z" fill="white"/>
</svg>
