<svg width="250" height="250" viewBox="0 0 250 250" fill="none" xmlns="http://www.w3.org/2000/svg">
<path d="M182.198 249.999H67.7965C30.3543 249.999 0 221.453 0 186.244V78.6552C0 43.4433 30.3543 14.9009 67.7965 14.9009H182.198C219.652 14.9009 250 43.4433 250 78.6552V186.244C250 221.453 219.651 249.999 182.198 249.999Z" fill="#1FB7C1"/>
<path d="M182.198 235.091H67.7965C30.3543 235.091 0 206.547 0 171.336V63.7533C0 28.5385 30.3543 0 67.7965 0H182.198C219.652 0 250 28.5385 250 63.7533V171.336C250 206.547 219.651 235.091 182.198 235.091Z" fill="#0F1B26"/>
<path d="M76.5078 194.208H80.7869V213.629H92.8344V217.25H76.5078V194.208Z" fill="#FFDDDD"/>
<path d="M95.8177 199.672H99.9323V217.25H95.8177V199.672ZM97.8915 196.776C97.1454 196.776 96.52 196.545 96.0153 196.085C95.5105 195.602 95.2582 195.009 95.2582 194.307C95.2582 193.605 95.5105 193.023 96.0153 192.562C96.52 192.08 97.1454 191.838 97.8915 191.838C98.6376 191.838 99.263 192.069 99.7678 192.53C100.272 192.968 100.525 193.528 100.525 194.208C100.525 194.932 100.272 195.547 99.7678 196.052C99.285 196.534 98.6596 196.776 97.8915 196.776Z" fill="#FFDDDD"/>
<path d="M110.764 217.48C109.338 217.48 107.944 217.294 106.584 216.921C105.223 216.548 104.137 216.076 103.325 215.505L104.905 212.378C105.695 212.905 106.638 213.333 107.736 213.662C108.855 213.969 109.952 214.123 111.027 214.123C113.485 214.123 114.714 213.476 114.714 212.181C114.714 211.566 114.396 211.138 113.759 210.897C113.145 210.656 112.146 210.425 110.764 210.206C109.316 209.986 108.131 209.734 107.209 209.449C106.309 209.163 105.519 208.67 104.839 207.967C104.181 207.243 103.851 206.245 103.851 204.972C103.851 203.304 104.543 201.977 105.925 200.989C107.33 199.98 109.217 199.475 111.587 199.475C112.794 199.475 114.001 199.618 115.208 199.903C116.415 200.166 117.402 200.528 118.17 200.989L116.59 204.116C115.098 203.238 113.419 202.8 111.554 202.8C110.347 202.8 109.425 202.986 108.789 203.359C108.175 203.71 107.867 204.182 107.867 204.775C107.867 205.433 108.196 205.905 108.855 206.19C109.535 206.453 110.577 206.706 111.982 206.947C113.386 207.167 114.538 207.419 115.438 207.704C116.338 207.989 117.106 208.472 117.742 209.152C118.401 209.833 118.73 210.798 118.73 212.049C118.73 213.695 118.017 215.012 116.59 215.999C115.164 216.987 113.222 217.48 110.764 217.48Z" fill="#FFDDDD"/>
<path d="M132.839 216.295C132.357 216.69 131.764 216.987 131.062 217.184C130.382 217.382 129.658 217.48 128.889 217.48C126.958 217.48 125.466 216.976 124.413 215.966C123.359 214.957 122.833 213.487 122.833 211.555V203.096H119.936V199.804H122.833V195.788H126.947V199.804H131.654V203.096H126.947V211.457C126.947 212.312 127.156 212.971 127.573 213.432C127.99 213.871 128.593 214.09 129.383 214.09C130.305 214.09 131.073 213.849 131.687 213.366L132.839 216.295Z" fill="#FFDDDD"/>
<path d="M140.141 202.24C141.326 200.397 143.411 199.475 146.395 199.475V203.392C146.044 203.326 145.726 203.293 145.441 203.293C143.839 203.293 142.588 203.765 141.688 204.709C140.789 205.63 140.339 206.969 140.339 208.725V217.25H136.224V199.672H140.141V202.24Z" fill="#FFDDDD"/>
<path d="M149.886 199.672H154.001V217.25H149.886V199.672ZM151.96 196.776C151.214 196.776 150.588 196.545 150.083 196.085C149.579 195.602 149.326 195.009 149.326 194.307C149.326 193.605 149.579 193.023 150.083 192.562C150.588 192.08 151.214 191.838 151.96 191.838C152.706 191.838 153.331 192.069 153.836 192.53C154.341 192.968 154.593 193.528 154.593 194.208C154.593 194.932 154.341 195.547 153.836 196.052C153.353 196.534 152.728 196.776 151.96 196.776Z" fill="#FFDDDD"/>
<path d="M166.577 209.712L163.516 212.609V217.25H159.401V192.826H163.516V207.572L172.041 199.672H176.978L169.638 207.046L177.67 217.25H172.666L166.577 209.712Z" fill="#FFDDDD"/>
<path fill-rule="evenodd" clip-rule="evenodd" d="M135.653 50.1905C135.098 54.8113 135.063 54.8229 111.353 58.1762C86.7046 61.6609 81.2785 63.7734 85.8444 68.1097C88.0407 70.1956 93.1778 69.8479 125.578 65.4201C147.516 62.4211 163.795 59.4204 165.238 58.1063C170.233 53.5588 161.692 48.8681 144.307 46.6126C136.431 45.5913 136.195 45.6895 135.653 50.1905ZM123.467 76.2701C87.2134 81.5496 81.0223 83.4924 85.8444 88.0699C88.0407 90.1557 93.1778 89.8081 125.578 85.3802C163.653 80.1773 169.814 78.3044 165.46 73.2594C164.234 71.8423 162.355 70.7644 161.281 70.8642C160.207 70.9657 143.191 73.3975 123.467 76.2701ZM123.467 96.2303C87.2134 101.51 81.0223 103.453 85.8444 108.03C88.0407 110.116 93.1778 109.768 125.578 105.34C163.653 100.137 169.814 98.2645 165.46 93.2196C164.234 91.8024 162.355 90.7246 161.281 90.8244C160.207 90.9259 143.191 93.3577 123.467 96.2303ZM123.467 116.19C103.743 119.063 86.6803 122.317 85.5501 123.423C83.9612 124.973 83.9803 125.994 85.628 127.904C87.2255 129.752 89.9135 130.131 96.2863 129.406L104.809 128.434V136.984C104.809 143.473 104.184 145.532 102.213 145.532C99.1958 145.532 98.6921 152.96 101.269 159.472C102.465 162.498 104.676 163.967 109.281 164.797C113.503 165.557 115.936 167.029 116.519 169.171C118.437 176.221 132.72 176.221 134.637 169.171C135.221 167.029 137.654 165.557 141.876 164.797C146.481 163.967 148.692 162.498 149.888 159.472C152.465 152.96 151.961 145.532 148.944 145.532C147.13 145.532 146.348 143.775 146.348 139.71C146.348 134.351 145.936 133.888 141.156 133.888C136.375 133.888 135.963 134.351 135.963 139.71V145.532H125.492H115.021L115.54 136.001L116.059 126.468L139.804 123.11C164.527 119.612 169.387 117.727 165.448 113.166C164.229 111.756 162.355 110.685 161.281 110.785C160.207 110.886 143.191 113.318 123.467 116.19Z" fill="white"/>
</svg>
