<svg width="250" height="250" viewBox="0 0 250 250" fill="none" xmlns="http://www.w3.org/2000/svg">
<path d="M182.198 249.999H67.7965C30.3543 249.999 0 221.453 0 186.244V78.6552C0 43.4433 30.3543 14.9009 67.7965 14.9009H182.198C219.652 14.9009 250 43.4433 250 78.6552V186.244C250 221.453 219.651 249.999 182.198 249.999Z" fill="#1FB7C1"/>
<path d="M182.198 235.091H67.7965C30.3543 235.091 0 206.547 0 171.336V63.7533C0 28.5385 30.3543 0 67.7965 0H182.198C219.652 0 250 28.5385 250 63.7533V171.336C250 206.547 219.651 235.091 182.198 235.091Z" fill="#0F1B26"/>
<path d="M120.604 211.917H109.084L106.812 217.25H102.401L112.77 194.208H116.984L127.385 217.25H122.909L120.604 211.917ZM119.189 208.56L114.844 198.487L110.532 208.56H119.189Z" fill="#FFDDDD"/>
<path d="M129.921 199.672H134.035V217.25H129.921V199.672ZM131.994 196.776C131.248 196.776 130.623 196.545 130.118 196.085C129.613 195.602 129.361 195.009 129.361 194.307C129.361 193.605 129.613 193.023 130.118 192.562C130.623 192.08 131.248 191.838 131.994 191.838C132.74 191.838 133.366 192.069 133.871 192.53C134.375 192.968 134.628 193.528 134.628 194.208C134.628 194.932 134.375 195.547 133.871 196.052C133.388 196.534 132.762 196.776 131.994 196.776Z" fill="#FFDDDD"/>
<path d="M143.353 202.24C144.538 200.397 146.622 199.475 149.607 199.475V203.392C149.256 203.326 148.938 203.293 148.652 203.293C147.05 203.293 145.799 203.765 144.9 204.709C144 205.63 143.55 206.969 143.55 208.725V217.25H139.436V199.672H143.353V202.24Z" fill="#FFDDDD"/>
<path fill-rule="evenodd" clip-rule="evenodd" d="M83.2655 47.0597C81.6295 47.4877 79.6118 49.6409 78.7806 51.8439C75.3902 60.8298 83.7741 68.3577 91.493 63.26C93.519 61.923 98.9042 60.8282 103.463 60.8282H111.75V68.8553C111.75 75.849 111.21 77.133 107.558 78.8084C105.252 79.8684 96.3647 80.7343 87.808 80.7343H72.2499V95.6639V110.594H87.4196C97.4921 110.594 104.956 111.506 109.638 113.307C116.164 115.819 117.211 115.819 123.737 113.307C127.614 111.814 134.166 110.594 138.294 110.594C148.488 110.594 151.25 113.893 151.25 126.069V135.476H166.062H180.875V126.655C180.875 98.8738 163.559 80.7343 137.04 80.7343C133.172 80.7343 128.123 79.8684 125.817 78.8084C122.165 77.133 121.625 75.849 121.625 68.8553V60.8282H129.912C134.471 60.8282 139.856 61.923 141.882 63.26C149.556 68.3295 157.986 60.8365 154.627 51.9318C152.743 46.937 146.676 45.2765 141.882 48.4432C136.818 51.7875 123.501 51.5983 119.698 48.1297C116.896 45.5751 116.478 45.5751 113.677 48.1297C109.867 51.605 95.7327 51.7344 91.2741 48.3337C89.5164 46.995 87.6648 45.9848 87.1595 46.091C86.6526 46.1971 84.9015 46.6334 83.2655 47.0597ZM160.361 155.941C156.956 162.955 156.393 165.664 157.646 168.985C160.518 176.597 172.804 176.156 174.861 168.366C175.918 164.363 168.775 147.088 166.062 147.088C165.291 147.088 162.725 151.071 160.361 155.941Z" fill="white"/>
</svg>
