<svg width="70" height="71" viewBox="0 0 70 71" fill="none" xmlns="http://www.w3.org/2000/svg">
<rect y="6" width="70" height="65" rx="15" fill="white"/>
<rect width="70" height="65" rx="15" fill="#EB7100"/>
<path d="M22.3352 47.4554V50.2386H21.3977V43.1292H24.0198C24.7978 43.1292 25.4065 43.3278 25.8459 43.7249C26.2887 44.122 26.51 44.6478 26.51 45.3021C26.51 45.9922 26.2935 46.5244 25.8606 46.8987C25.4309 47.2698 24.814 47.4554 24.01 47.4554H22.3352ZM22.3352 46.6888H24.0198C24.5211 46.6888 24.9052 46.5716 25.1721 46.3372C25.439 46.0996 25.5725 45.7578 25.5725 45.3118C25.5725 44.8887 25.439 44.5501 25.1721 44.2962C24.9052 44.0423 24.539 43.9105 24.0735 43.9007H22.3352V46.6888Z" fill="white"/>
<path d="M29.4236 45.7659C29.2869 45.7431 29.1388 45.7318 28.9792 45.7318C28.3868 45.7318 27.9848 45.984 27.7732 46.4886V50.2386H26.8699V44.9554H27.7488L27.7634 45.5657C28.0597 45.0937 28.4796 44.8577 29.0232 44.8577C29.199 44.8577 29.3324 44.8805 29.4236 44.9261V45.7659Z" fill="white"/>
<path d="M29.9905 47.5482C29.9905 47.0306 30.0914 46.5651 30.2932 46.1517C30.4983 45.7383 30.7815 45.4193 31.1428 45.1946C31.5074 44.97 31.9224 44.8577 32.3879 44.8577C33.1073 44.8577 33.6884 45.1068 34.1311 45.6048C34.5771 46.1028 34.8 46.7653 34.8 47.5921V47.6556C34.8 48.1699 34.7008 48.6321 34.5022 49.0423C34.3069 49.4492 34.0253 49.7666 33.6575 49.9944C33.2929 50.2223 32.873 50.3362 32.3977 50.3362C31.6816 50.3362 31.1005 50.0872 30.6545 49.5892C30.2118 49.0911 29.9905 48.4319 29.9905 47.6116V47.5482ZM30.8987 47.6556C30.8987 48.2415 31.0338 48.7119 31.304 49.0667C31.5774 49.4215 31.942 49.5989 32.3977 49.5989C32.8567 49.5989 33.2213 49.4199 33.4915 49.0618C33.7616 48.7005 33.8967 48.1959 33.8967 47.5482C33.8967 46.9687 33.7584 46.5 33.4817 46.1419C33.2083 45.7806 32.8437 45.5999 32.3879 45.5999C31.942 45.5999 31.5823 45.7773 31.3088 46.1321C31.0354 46.487 30.8987 46.9948 30.8987 47.6556Z" fill="white"/>
<path d="M36.0669 50.2386V45.6536H35.2319V44.9554H36.0669V44.4134C36.0669 43.847 36.2183 43.4092 36.521 43.0999C36.8237 42.7907 37.2518 42.636 37.8052 42.636C38.0135 42.636 38.2202 42.6637 38.4253 42.7191L38.3765 43.4515C38.2235 43.4222 38.0607 43.4075 37.8882 43.4075C37.5952 43.4075 37.369 43.4938 37.2095 43.6663C37.05 43.8356 36.9702 44.0797 36.9702 44.3987V44.9554H38.0981V45.6536H36.9702V50.2386H36.0669Z" fill="white"/>
<path d="M39.8274 50.2386H38.9241V44.9554H39.8274V50.2386ZM38.8508 43.554C38.8508 43.4075 38.8948 43.2838 38.9827 43.1829C39.0738 43.082 39.2073 43.0316 39.3831 43.0316C39.5588 43.0316 39.6923 43.082 39.7834 43.1829C39.8746 43.2838 39.9202 43.4075 39.9202 43.554C39.9202 43.7005 39.8746 43.8226 39.7834 43.9202C39.6923 44.0179 39.5588 44.0667 39.3831 44.0667C39.2073 44.0667 39.0738 44.0179 38.9827 43.9202C38.8948 43.8226 38.8508 43.7005 38.8508 43.554Z" fill="white"/>
<path d="M42.1409 50.2386H41.2375V42.7386H42.1409V50.2386Z" fill="white"/>
<path d="M45.6738 50.3362C44.9577 50.3362 44.375 50.1019 43.9258 49.6331C43.4766 49.1611 43.252 48.5312 43.252 47.7435V47.5775C43.252 47.0534 43.3512 46.5862 43.5498 46.1761C43.7516 45.7627 44.0316 45.4404 44.3896 45.2093C44.751 44.9749 45.1416 44.8577 45.5615 44.8577C46.2484 44.8577 46.7822 45.084 47.1631 45.5364C47.5439 45.9889 47.7344 46.6367 47.7344 47.4798V47.8558H44.1553C44.1683 48.3766 44.3197 48.7982 44.6094 49.1204C44.9023 49.4394 45.2734 49.5989 45.7227 49.5989C46.0417 49.5989 46.3118 49.5338 46.5332 49.4036C46.7546 49.2734 46.9482 49.1009 47.1143 48.886L47.666 49.3157C47.2233 49.9961 46.5592 50.3362 45.6738 50.3362ZM45.5615 45.5999C45.1969 45.5999 44.891 45.7334 44.6436 46.0003C44.3962 46.264 44.2432 46.6351 44.1846 47.1136H46.8311V47.0452C46.805 46.5862 46.6813 46.2314 46.46 45.9808C46.2386 45.7269 45.9391 45.5999 45.5615 45.5999Z" fill="white"/>
<path d="M40.2981 26.6742C38.3467 26.6742 37.4103 27.7599 34.2101 27.7599C31.0106 27.7599 30.0848 26.6742 28.1246 26.6742C23.0897 26.6742 19 30.7639 19 35.8035V37.5409C19 39.3389 20.4597 40.7986 22.2575 40.7986H46.1631C47.9628 40.7986 49.4225 39.3389 49.4225 37.5409V35.8035C49.4227 30.7639 45.3311 26.6742 40.2981 26.6742ZM46.1634 37.5409H22.2577V35.8035C22.2577 32.5704 24.894 29.9317 28.1249 29.9317C29.1151 29.9317 30.7257 31.0196 34.2104 31.0196C37.7242 31.0196 39.2969 29.9317 40.2984 29.9317C43.529 29.9317 46.1636 32.5704 46.1636 35.8035V37.5409H46.1634ZM34.2104 25.5863C39.6127 25.5863 43.9894 21.2096 43.9894 15.8097C43.9894 10.414 39.613 6.03101 34.2104 6.03101C28.8103 6.03101 24.4339 10.4143 24.4339 15.8097C24.4339 21.2096 28.8103 25.5863 34.2104 25.5863ZM34.2104 9.2904C37.8043 9.2904 40.73 12.2161 40.73 15.8097C40.73 19.4006 37.8043 22.3266 34.2104 22.3266C30.619 22.3266 27.6908 19.4006 27.6908 15.8097C27.6908 12.2161 30.619 9.2904 34.2104 9.2904Z" fill="white"/>
</svg>
