<svg width="250" height="250" viewBox="0 0 250 250" fill="none" xmlns="http://www.w3.org/2000/svg">
<path d="M182.198 249.999H67.7965C30.3543 249.999 0 221.453 0 186.244V78.6552C0 43.4433 30.3543 14.9009 67.7965 14.9009H182.198C219.652 14.9009 250 43.4433 250 78.6552V186.244C250 221.453 219.651 249.999 182.198 249.999Z" fill="#1FB7C1"/>
<path d="M182.198 235.091H67.7965C30.3543 235.091 0 206.547 0 171.336V63.7533C0 28.5385 30.3543 0 67.7965 0H182.198C219.652 0 250 28.5385 250 63.7533V171.336C250 206.547 219.651 235.091 182.198 235.091Z" fill="#0F1B26"/>
<path d="M46.2238 194.208C48.2207 194.208 49.9543 194.537 51.4246 195.196C52.9168 195.854 54.0579 196.798 54.8479 198.027C55.6379 199.256 56.0329 200.715 56.0329 202.405C56.0329 204.072 55.6379 205.532 54.8479 206.782C54.0579 208.011 52.9168 208.955 51.4246 209.613C49.9543 210.272 48.2207 210.601 46.2238 210.601H41.0229V217.25H36.7438V194.208H46.2238ZM46.0263 206.98C47.8916 206.98 49.307 206.585 50.2725 205.795C51.2381 205.005 51.7209 203.875 51.7209 202.405C51.7209 200.934 51.2381 199.804 50.2725 199.014C49.307 198.224 47.8916 197.829 46.0263 197.829H41.0229V206.98H46.0263Z" fill="#FFDDDD"/>
<path d="M66.4655 199.475C69.0549 199.475 71.0299 200.1 72.3905 201.351C73.773 202.58 74.4642 204.445 74.4642 206.947V217.25H70.5801V215.11C70.0753 215.878 69.3512 216.471 68.4076 216.888C67.4859 217.283 66.3667 217.48 65.0501 217.48C63.7334 217.48 62.5813 217.261 61.5938 216.822C60.6063 216.361 59.8382 215.736 59.2896 214.946C58.763 214.134 58.4996 213.223 58.4996 212.214C58.4996 210.634 59.0812 209.372 60.2442 208.428C61.4292 207.463 63.2835 206.98 65.8071 206.98H70.3496V206.717C70.3496 205.488 69.9766 204.544 69.2305 203.886C68.5063 203.227 67.4201 202.898 65.9717 202.898C64.9842 202.898 64.0077 203.052 63.0421 203.359C62.0985 203.666 61.2976 204.094 60.6392 204.643L59.0263 201.647C59.948 200.945 61.0562 200.408 62.3509 200.035C63.6456 199.662 65.0171 199.475 66.4655 199.475ZM65.9059 214.485C66.9373 214.485 67.848 214.255 68.638 213.794C69.4499 213.311 70.0205 212.631 70.3496 211.753V209.712H66.1034C63.7334 209.712 62.5484 210.491 62.5484 212.049C62.5484 212.795 62.8446 213.388 63.4371 213.827C64.0296 214.266 64.8526 214.485 65.9059 214.485Z" fill="#FFDDDD"/>
<path d="M86.9206 209.712L83.8594 212.609V217.25H79.7448V192.826H83.8594V207.572L92.3848 199.672H97.3223L89.9819 207.046L98.0135 217.25H93.0102L86.9206 209.712Z" fill="#FFDDDD"/>
<path d="M116.456 208.56C116.456 208.845 116.434 209.251 116.39 209.778H102.598C102.84 211.073 103.465 212.104 104.474 212.872C105.506 213.618 106.779 213.991 108.293 213.991C110.224 213.991 111.815 213.355 113.066 212.082L115.271 214.617C114.481 215.56 113.483 216.273 112.276 216.756C111.069 217.239 109.708 217.48 108.194 217.48C106.263 217.48 104.562 217.096 103.092 216.328C101.622 215.56 100.481 214.496 99.6686 213.135C98.8786 211.753 98.4836 210.195 98.4836 208.461C98.4836 206.75 98.8676 205.213 99.6357 203.853C100.426 202.47 101.512 201.395 102.894 200.627C104.277 199.859 105.835 199.475 107.569 199.475C109.28 199.475 110.805 199.859 112.144 200.627C113.505 201.373 114.558 202.437 115.304 203.82C116.072 205.181 116.456 206.761 116.456 208.56ZM107.569 202.767C106.252 202.767 105.133 203.162 104.211 203.952C103.311 204.72 102.763 205.751 102.565 207.046H112.539C112.363 205.773 111.826 204.742 110.926 203.952C110.026 203.162 108.907 202.767 107.569 202.767Z" fill="#FFDDDD"/>
<path d="M130.975 216.295C130.492 216.69 129.899 216.987 129.197 217.184C128.517 217.382 127.793 217.48 127.025 217.48C125.094 217.48 123.601 216.976 122.548 215.966C121.495 214.957 120.968 213.487 120.968 211.555V203.096H118.071V199.804H120.968V195.788H125.083V199.804H129.79V203.096H125.083V211.457C125.083 212.312 125.291 212.971 125.708 213.432C126.125 213.871 126.728 214.09 127.518 214.09C128.44 214.09 129.208 213.849 129.823 213.366L130.975 216.295Z" fill="#FFDDDD"/>
<path d="M143.852 194.208H153.924C156.382 194.208 158.565 194.691 160.474 195.657C162.384 196.6 163.865 197.95 164.918 199.705C165.972 201.439 166.498 203.447 166.498 205.729C166.498 208.011 165.972 210.03 164.918 211.786C163.865 213.519 162.384 214.869 160.474 215.835C158.565 216.778 156.382 217.25 153.924 217.25H143.852V194.208ZM153.727 213.629C155.416 213.629 156.898 213.311 158.17 212.675C159.465 212.016 160.452 211.095 161.133 209.91C161.835 208.703 162.186 207.309 162.186 205.729C162.186 204.149 161.835 202.767 161.133 201.582C160.452 200.375 159.465 199.453 158.17 198.817C156.898 198.158 155.416 197.829 153.727 197.829H148.131V213.629H153.727Z" fill="#FFDDDD"/>
<path d="M177.366 199.475C179.956 199.475 181.931 200.1 183.291 201.351C184.674 202.58 185.365 204.445 185.365 206.947V217.25H181.481V215.11C180.976 215.878 180.252 216.471 179.308 216.888C178.387 217.283 177.268 217.48 175.951 217.48C174.634 217.48 173.482 217.261 172.495 216.822C171.507 216.361 170.739 215.736 170.191 214.946C169.664 214.134 169.401 213.223 169.401 212.214C169.401 210.634 169.982 209.372 171.145 208.428C172.33 207.463 174.184 206.98 176.708 206.98H181.251V206.717C181.251 205.488 180.877 204.544 180.131 203.886C179.407 203.227 178.321 202.898 176.873 202.898C175.885 202.898 174.909 203.052 173.943 203.359C172.999 203.666 172.198 204.094 171.54 204.643L169.927 201.647C170.849 200.945 171.957 200.408 173.252 200.035C174.546 199.662 175.918 199.475 177.366 199.475ZM176.807 214.485C177.838 214.485 178.749 214.255 179.539 213.794C180.351 213.311 180.921 212.631 181.251 211.753V209.712H177.004C174.634 209.712 173.449 210.491 173.449 212.049C173.449 212.795 173.746 213.388 174.338 213.827C174.931 214.266 175.753 214.485 176.807 214.485Z" fill="#FFDDDD"/>
<path d="M201.212 216.295C200.729 216.69 200.137 216.987 199.434 217.184C198.754 217.382 198.03 217.48 197.262 217.48C195.331 217.48 193.839 216.976 192.785 215.966C191.732 214.957 191.205 213.487 191.205 211.555V203.096H188.309V199.804H191.205V195.788H195.32V199.804H200.027V203.096H195.32V211.457C195.32 212.312 195.528 212.971 195.945 213.432C196.362 213.871 196.966 214.09 197.756 214.09C198.677 214.09 199.445 213.849 200.06 213.366L201.212 216.295Z" fill="#FFDDDD"/>
<path d="M211.312 199.475C213.901 199.475 215.876 200.1 217.237 201.351C218.619 202.58 219.31 204.445 219.31 206.947V217.25H215.426V215.11C214.922 215.878 214.197 216.471 213.254 216.888C212.332 217.283 211.213 217.48 209.896 217.48C208.58 217.48 207.428 217.261 206.44 216.822C205.453 216.361 204.684 215.736 204.136 214.946C203.609 214.134 203.346 213.223 203.346 212.214C203.346 210.634 203.927 209.372 205.09 208.428C206.275 207.463 208.13 206.98 210.653 206.98H215.196V206.717C215.196 205.488 214.823 204.544 214.077 203.886C213.353 203.227 212.266 202.898 210.818 202.898C209.83 202.898 208.854 203.052 207.888 203.359C206.945 203.666 206.144 204.094 205.485 204.643L203.872 201.647C204.794 200.945 205.902 200.408 207.197 200.035C208.492 199.662 209.863 199.475 211.312 199.475ZM210.752 214.485C211.783 214.485 212.694 214.255 213.484 213.794C214.296 213.311 214.867 212.631 215.196 211.753V209.712H210.95C208.58 209.712 207.395 210.491 207.395 212.049C207.395 212.795 207.691 213.388 208.283 213.827C208.876 214.266 209.699 214.485 210.752 214.485Z" fill="#FFDDDD"/>
<path fill-rule="evenodd" clip-rule="evenodd" d="M78.4202 47.2106C76.2418 48.1012 74.6448 50.4708 74.0447 53.7017C73.5244 56.5012 73.3087 83.8892 73.5681 114.567C73.9307 157.782 74.4948 170.794 76.0684 172.344C78.6499 174.886 151.856 175.271 154.406 172.757C155.292 171.883 156.47 168.936 157.024 166.209C157.985 161.469 157.813 161.249 153.147 161.249C149.848 161.249 148.263 161.999 148.263 163.56C148.263 165.542 143.575 165.871 115.447 165.871H82.6316V110.405V54.9389L90.0542 54.9882C94.1374 55.0144 98.8426 56.0544 100.51 57.2993C104.689 60.4146 126.206 60.4146 130.385 57.2993C134.573 54.1762 148.263 54.1393 148.263 57.25C148.263 58.8107 149.848 59.5611 153.147 59.5611C157.813 59.5611 157.985 59.3408 157.024 54.6015C156.47 51.8744 155.294 48.927 154.409 48.0534C152.362 46.0304 83.1801 45.2631 78.4202 47.2106ZM120.135 52.6278C120.135 54.3396 118.312 54.9389 113.103 54.9389C107.895 54.9389 106.071 54.3396 106.071 52.6278C106.071 50.9161 107.895 50.3167 113.103 50.3167C118.312 50.3167 120.135 50.9161 120.135 52.6278ZM129.511 52.6278C129.511 53.8989 128.457 54.9389 127.167 54.9389C125.878 54.9389 124.823 53.8989 124.823 52.6278C124.823 51.3567 125.878 50.3167 127.167 50.3167C128.457 50.3167 129.511 51.3567 129.511 52.6278ZM151.956 74.1934C151.437 75.5276 153.094 78.7863 155.881 81.9186C164.599 91.7083 166.207 96.1426 166.207 110.405C166.207 124.668 164.599 129.102 155.881 138.892C150.75 144.654 150.756 148.923 155.897 148.923C159.632 148.923 167.487 139.402 172.005 129.402C176.665 119.084 176.665 101.726 172.005 91.4079C165.25 76.4536 154.627 67.3325 151.956 74.1934ZM139.033 86.3512C137.628 88.0198 138.05 89.4604 140.953 92.8993C146.677 99.6832 148.263 103.483 148.263 110.405C148.263 117.622 146.519 121.637 140.727 127.76C137.051 131.646 136.915 132.233 139.173 134.459C145.279 140.477 156.806 124.752 156.806 110.405C156.806 103.883 155.794 100.185 152.486 94.6188C148.832 88.4713 144.346 84.2127 141.525 84.2127C141.144 84.2127 140.022 85.1757 139.033 86.3512ZM125.366 100.447C124.859 101.751 125.584 104.059 126.978 105.576C130.143 109.025 130.213 112.534 127.167 115.027C124.472 117.234 124.103 120.569 126.4 121.97C131.544 125.104 140.005 115.003 138.194 107.889C136.254 100.273 127.427 95.1519 125.366 100.447Z" fill="white"/>
</svg>
