<svg width="250" height="250" viewBox="0 0 250 250" fill="none" xmlns="http://www.w3.org/2000/svg">
<path d="M182.198 249.999H67.7965C30.3543 249.999 0 221.453 0 186.244V78.6552C0 43.4433 30.3543 14.9009 67.7965 14.9009H182.198C219.652 14.9009 250 43.4433 250 78.6552V186.244C250 221.453 219.651 249.999 182.198 249.999Z" fill="#1FB7C1"/>
<path d="M182.198 235.091H67.7965C30.3543 235.091 0 206.547 0 171.336V63.7533C0 28.5385 30.3543 0 67.7965 0H182.198C219.652 0 250 28.5385 250 63.7533V171.336C250 206.547 219.651 235.091 182.198 235.091Z" fill="#0F1B26"/>
<path d="M92.9337 197.5C94.9307 197.5 96.6643 197.829 98.1346 198.487C99.6268 199.146 100.768 200.089 101.558 201.318C102.348 202.547 102.743 204.007 102.743 205.696C102.743 207.364 102.348 208.823 101.558 210.074C100.768 211.303 99.6268 212.247 98.1346 212.905C96.6643 213.563 94.9307 213.892 92.9337 213.892H87.7329V220.542H83.4537V197.5H92.9337ZM92.7362 210.272C94.6015 210.272 96.0169 209.877 96.9825 209.087C97.948 208.297 98.4308 207.167 98.4308 205.696C98.4308 204.226 97.948 203.096 96.9825 202.306C96.0169 201.516 94.6015 201.121 92.7362 201.121H87.7329V210.272H92.7362Z" fill="#FFDDDD"/>
<path d="M123.961 202.964V220.542H120.043V218.303C119.385 219.093 118.562 219.708 117.575 220.147C116.587 220.564 115.523 220.772 114.382 220.772C112.034 220.772 110.179 220.125 108.819 218.83C107.48 217.513 106.811 215.571 106.811 213.004V202.964H110.926V212.444C110.926 214.024 111.277 215.209 111.979 215.999C112.703 216.767 113.723 217.151 115.04 217.151C116.51 217.151 117.673 216.701 118.529 215.802C119.407 214.88 119.846 213.563 119.846 211.852V202.964H123.961Z" fill="#FFDDDD"/>
<path d="M129.348 196.117H133.462V220.542H129.348V196.117Z" fill="#FFDDDD"/>
<path d="M144.294 220.772C142.868 220.772 141.474 220.586 140.114 220.212C138.753 219.839 137.667 219.368 136.855 218.797L138.435 215.67C139.225 216.197 140.168 216.625 141.266 216.954C142.385 217.261 143.482 217.415 144.557 217.415C147.015 217.415 148.244 216.767 148.244 215.472C148.244 214.858 147.926 214.43 147.289 214.189C146.675 213.947 145.677 213.717 144.294 213.497C142.846 213.278 141.661 213.026 140.739 212.74C139.839 212.455 139.049 211.961 138.369 211.259C137.711 210.535 137.382 209.537 137.382 208.264C137.382 206.596 138.073 205.268 139.455 204.281C140.86 203.271 142.747 202.767 145.117 202.767C146.324 202.767 147.531 202.909 148.738 203.195C149.945 203.458 150.932 203.82 151.7 204.281L150.12 207.408C148.628 206.53 146.949 206.091 145.084 206.091C143.877 206.091 142.955 206.278 142.319 206.651C141.705 207.002 141.397 207.474 141.397 208.066C141.397 208.725 141.727 209.196 142.385 209.482C143.065 209.745 144.107 209.997 145.512 210.239C146.916 210.458 148.068 210.711 148.968 210.996C149.868 211.281 150.636 211.764 151.272 212.444C151.931 213.124 152.26 214.09 152.26 215.341C152.26 216.987 151.547 218.303 150.12 219.291C148.694 220.278 146.752 220.772 144.294 220.772Z" fill="#FFDDDD"/>
<path d="M162.518 202.767C165.108 202.767 167.083 203.392 168.443 204.643C169.826 205.872 170.517 207.737 170.517 210.239V220.542H166.633V218.402C166.128 219.17 165.404 219.763 164.46 220.18C163.539 220.575 162.42 220.772 161.103 220.772C159.786 220.772 158.634 220.553 157.647 220.114C156.659 219.653 155.891 219.027 155.342 218.237C154.816 217.426 154.552 216.515 154.552 215.505C154.552 213.925 155.134 212.664 156.297 211.72C157.482 210.754 159.336 210.272 161.86 210.272H166.402V210.008C166.402 208.779 166.029 207.836 165.283 207.177C164.559 206.519 163.473 206.19 162.025 206.19C161.037 206.19 160.061 206.344 159.095 206.651C158.151 206.958 157.35 207.386 156.692 207.935L155.079 204.939C156.001 204.237 157.109 203.699 158.404 203.326C159.698 202.953 161.07 202.767 162.518 202.767ZM161.959 217.777C162.99 217.777 163.901 217.546 164.691 217.085C165.503 216.603 166.073 215.922 166.402 215.045V213.004H162.156C159.786 213.004 158.601 213.783 158.601 215.341C158.601 216.087 158.897 216.679 159.49 217.118C160.082 217.557 160.905 217.777 161.959 217.777Z" fill="#FFDDDD"/>
<path fill-rule="evenodd" clip-rule="evenodd" d="M90.468 47.3201C88.3237 48.2095 86.7515 50.5761 86.1608 53.8027C85.6486 56.5986 85.4363 83.9507 85.6916 114.588C86.0485 157.747 86.6038 170.742 88.1529 172.289C91.048 175.182 162.791 175.181 165.683 172.288C168.604 169.366 168.607 51.5024 165.686 48.5757C163.284 46.1692 95.9474 45.0459 90.468 47.3201ZM131.533 52.7302C131.533 54.4398 129.737 55.0383 124.61 55.0383C119.483 55.0383 117.688 54.4398 117.688 52.7302C117.688 51.0207 119.483 50.4222 124.61 50.4222C129.737 50.4222 131.533 51.0207 131.533 52.7302ZM140.762 52.7302C140.762 53.9997 139.724 55.0383 138.455 55.0383C137.186 55.0383 136.147 53.9997 136.147 52.7302C136.147 51.4608 137.186 50.4222 138.455 50.4222C139.724 50.4222 140.762 51.4608 140.762 52.7302ZM112.213 57.3956C116.327 60.5069 137.509 60.5069 141.622 57.3956C143.264 56.1523 147.897 55.1137 151.915 55.0875L159.222 55.0383V110.432V165.825H126.918H94.6137V110.432V55.0383L101.921 55.0875C105.94 55.1137 110.572 56.1523 112.213 57.3956Z" fill="white"/>
</svg>
