<svg width="70" height="65" viewBox="0 0 70 65" fill="none" xmlns="http://www.w3.org/2000/svg">
<rect width="70" height="65" rx="10" fill="#EB7100"/>
<path d="M22.1242 50.4554V53.2386H21.1867V46.1292H23.8088C24.5868 46.1292 25.1955 46.3278 25.6349 46.7249C26.0777 47.1221 26.299 47.6478 26.299 48.3021C26.299 48.9922 26.0825 49.5244 25.6496 49.8988C25.2199 50.2699 24.603 50.4554 23.799 50.4554H22.1242ZM22.1242 49.6888H23.8088C24.3101 49.6888 24.6942 49.5716 24.9611 49.3372C25.228 49.0996 25.3615 48.7578 25.3615 48.3119C25.3615 47.8887 25.228 47.5501 24.9611 47.2962C24.6942 47.0423 24.328 46.9105 23.8625 46.9007H22.1242V49.6888Z" fill="white"/>
<path d="M29.2127 48.766C29.076 48.7432 28.9279 48.7318 28.7684 48.7318C28.1759 48.7318 27.7739 48.9841 27.5623 49.4886V53.2386H26.659V47.9554H27.5379L27.5526 48.5658C27.8488 48.0938 28.2687 47.8578 28.8123 47.8578C28.9881 47.8578 29.1216 47.8805 29.2127 47.9261V48.766Z" fill="white"/>
<path d="M29.7796 50.5482C29.7796 50.0306 29.8805 49.5651 30.0823 49.1517C30.2874 48.7383 30.5706 48.4193 30.9319 48.1947C31.2965 47.9701 31.7116 47.8578 32.1771 47.8578C32.8965 47.8578 33.4775 48.1068 33.9202 48.6048C34.3662 49.1029 34.5892 49.7653 34.5892 50.5921V50.6556C34.5892 51.1699 34.4899 51.6322 34.2913 52.0423C34.096 52.4492 33.8144 52.7666 33.4466 52.9945C33.082 53.2223 32.6621 53.3363 32.1868 53.3363C31.4707 53.3363 30.8896 53.0872 30.4437 52.5892C30.001 52.0912 29.7796 51.432 29.7796 50.6117V50.5482ZM30.6878 50.6556C30.6878 51.2415 30.8229 51.7119 31.0931 52.0667C31.3665 52.4216 31.7311 52.599 32.1868 52.599C32.6458 52.599 33.0104 52.4199 33.2806 52.0619C33.5508 51.7005 33.6859 51.196 33.6859 50.5482C33.6859 49.9688 33.5475 49.5 33.2708 49.1419C32.9974 48.7806 32.6328 48.5999 32.1771 48.5999C31.7311 48.5999 31.3714 48.7774 31.098 49.1322C30.8245 49.487 30.6878 49.9948 30.6878 50.6556Z" fill="white"/>
<path d="M35.8558 53.2386V48.6537H35.0209V47.9554H35.8558V47.4134C35.8558 46.847 36.0072 46.4092 36.3099 46.0999C36.6127 45.7907 37.0407 45.6361 37.5941 45.6361C37.8024 45.6361 38.0092 45.6637 38.2142 45.7191L38.1654 46.4515C38.0124 46.4222 37.8497 46.4076 37.6771 46.4076C37.3842 46.4076 37.1579 46.4938 36.9984 46.6664C36.8389 46.8356 36.7592 47.0798 36.7592 47.3988V47.9554H37.8871V48.6537H36.7592V53.2386H35.8558Z" fill="white"/>
<path d="M39.6164 53.2386H38.7131V47.9554H39.6164V53.2386ZM38.6398 46.554C38.6398 46.4076 38.6838 46.2839 38.7717 46.183C38.8628 46.082 38.9963 46.0316 39.1721 46.0316C39.3478 46.0316 39.4813 46.082 39.5724 46.183C39.6636 46.2839 39.7092 46.4076 39.7092 46.554C39.7092 46.7005 39.6636 46.8226 39.5724 46.9203C39.4813 47.0179 39.3478 47.0667 39.1721 47.0667C38.9963 47.0667 38.8628 47.0179 38.7717 46.9203C38.6838 46.8226 38.6398 46.7005 38.6398 46.554Z" fill="white"/>
<path d="M41.9299 53.2386H41.0266V45.7386H41.9299V53.2386Z" fill="white"/>
<path d="M45.463 53.3363C44.7468 53.3363 44.1641 53.1019 43.7149 52.6331C43.2657 52.1611 43.0411 51.5313 43.0411 50.7435V50.5775C43.0411 50.0534 43.1404 49.5863 43.3389 49.1761C43.5408 48.7627 43.8207 48.4404 44.1788 48.2093C44.5401 47.9749 44.9307 47.8578 45.3506 47.8578C46.0375 47.8578 46.5714 48.084 46.9522 48.5365C47.3331 48.9889 47.5235 49.6367 47.5235 50.4798V50.8558H43.9444C43.9574 51.3766 44.1088 51.7982 44.3985 52.1205C44.6915 52.4395 45.0626 52.599 45.5118 52.599C45.8308 52.599 46.101 52.5339 46.3223 52.4037C46.5437 52.2734 46.7374 52.1009 46.9034 51.8861L47.4551 52.3158C47.0124 52.9961 46.3484 53.3363 45.463 53.3363ZM45.3506 48.5999C44.9861 48.5999 44.6801 48.7334 44.4327 49.0003C44.1853 49.264 44.0323 49.6351 43.9737 50.1136H46.6202V50.0453C46.5941 49.5863 46.4704 49.2315 46.2491 48.9808C46.0277 48.7269 45.7283 48.5999 45.3506 48.5999Z" fill="white"/>
<path d="M40.0872 29.6742C38.1358 29.6742 37.1993 30.7599 33.9992 30.7599C30.7996 30.7599 29.8739 29.6742 27.9137 29.6742C22.8787 29.6742 18.7891 33.7639 18.7891 38.8035V40.5409C18.7891 42.3389 20.2488 43.7986 22.0465 43.7986H45.9521C47.7518 43.7986 49.2115 42.3389 49.2115 40.5409V38.8035C49.2118 33.7639 45.1202 29.6742 40.0872 29.6742ZM45.9524 40.5409H22.0468V38.8035C22.0468 35.5704 24.6831 32.9317 27.9139 32.9317C28.9042 32.9317 30.5148 34.0196 33.9995 34.0196C37.5132 34.0196 39.086 32.9317 40.0875 32.9317C43.3181 32.9317 45.9527 35.5704 45.9527 38.8035V40.5409H45.9524ZM33.9995 28.5863C39.4018 28.5863 43.7785 24.2096 43.7785 18.8097C43.7785 13.414 39.4021 9.03101 33.9995 9.03101C28.5993 9.03101 24.2229 13.4143 24.2229 18.8097C24.2229 24.2096 28.5993 28.5863 33.9995 28.5863ZM33.9995 12.2904C37.5933 12.2904 40.5191 15.2161 40.5191 18.8097C40.5191 22.4006 37.5933 25.3266 33.9995 25.3266C30.4081 25.3266 27.4799 22.4006 27.4799 18.8097C27.4799 15.2161 30.4081 12.2904 33.9995 12.2904Z" fill="white"/>
</svg>
