<?xml version="1.0" encoding="utf-8"?>
<!-- Generator: Adobe Illustrator 16.0.0, SVG Export Plug-In . SVG Version: 6.00 Build 0)  -->
<svg version="1.2" baseProfile="tiny" id="Layer_1" xmlns="http://www.w3.org/2000/svg" xmlns:xlink="http://www.w3.org/1999/xlink"
	 x="0px" y="0px" width="283.46px" height="283.46px" viewBox="0 0 283.46 283.46" xml:space="preserve">
<path fill="#FFFFFF" d="M201.568,269.35H84.824c-38.209,0-69.185-29.131-69.185-65.061V94.497c0-35.933,30.976-65.06,69.185-65.06
	h116.744c38.221,0,69.191,29.127,69.191,65.06v109.792C270.76,240.219,239.789,269.35,201.568,269.35z"/>
<path fill="#FCB116" d="M201.568,254.137H84.824c-38.209,0-69.185-29.129-69.185-65.061V79.29c0-35.936,30.976-65.059,69.185-65.059
	h116.744c38.221,0,69.191,29.123,69.191,65.059v109.786C270.76,225.008,239.789,254.137,201.568,254.137z"/>
<g>
	<title>Asset 167</title>
	<g id="Layer_2">
		<g id="Icons">
			<path fill="#FFFFFF" d="M207.226,159.701l-6.807-59.645c-0.66-4.78-4.75-8.399-9.693-8.521H172.22v-8.529h18.506V57.436h-52.369
				v25.571h18.506v8.529h-53.417c-4.919,0.123-9.025,3.742-9.677,8.521l-6.823,59.645h-9.659v34.1h139.624v-34.1H207.226z
				 M173.278,108.577h8.719v8.521h-8.719V108.577z M173.278,125.618h8.719v8.516h-8.719V125.618z M173.278,142.66h8.719v8.526
				h-8.719V142.66z M147.095,74.49v-8.52h34.902v8.52H147.095z M155.813,108.577h8.746v8.521h-8.746V108.577z M155.813,125.618
				h8.746v8.516h-8.746V125.618z M155.813,142.66h8.746v8.526h-8.746V142.66z M103.445,108.577h34.912v17.041h-34.912V108.577z
				 M208.173,176.75H85.997v-8.516h122.176V176.75z"/>
		</g>
	</g>
</g>
</svg>
