<?xml version="1.0" encoding="utf-8"?>
<!-- Generator: Adobe Illustrator 16.0.0, SVG Export Plug-In . SVG Version: 6.00 Build 0)  -->
<svg version="1.2" baseProfile="tiny" id="Layer_1" xmlns="http://www.w3.org/2000/svg" xmlns:xlink="http://www.w3.org/1999/xlink"
	 x="0px" y="0px" width="283.46px" height="283.46px" viewBox="0 0 283.46 283.46" xml:space="preserve">
<path fill="#FFFFFF" d="M201.568,269.35H84.824c-38.209,0-69.185-29.131-69.185-65.061V94.497c0-35.933,30.976-65.06,69.185-65.06
	h116.744c38.221,0,69.191,29.127,69.191,65.06v109.792C270.76,240.219,239.789,269.35,201.568,269.35z"/>
<path fill="#32429B" d="M201.568,254.137H84.824c-38.209,0-69.185-29.129-69.185-65.061V79.29c0-35.936,30.976-65.059,69.185-65.059
	h116.744c38.221,0,69.191,29.123,69.191,65.059v109.786C270.76,225.008,239.789,254.137,201.568,254.137z"/>
<g>
	<rect x="130.646" y="81.22" fill="#FFFFFF" width="23.02" height="8.64"/>
	<path fill="#FFFFFF" d="M154.922,153.684c-2.654,0-4.607,1.947-4.902,4.756v1.496c0.295,2.844,2.248,4.789,4.902,4.789
		c3.036,0,5.171-2.281,5.171-5.541C160.093,155.967,157.958,153.684,154.922,153.684z"/>
	<path fill="#FFFFFF" d="M130.281,148.213h-5.478v7.262h5.478c2.733,0,4.602-1.418,4.602-3.623
		C134.883,149.631,133.015,148.213,130.281,148.213z"/>
	<path fill="#FFFFFF" d="M153.321,78.34L153.321,78.34l11.695-28.792c0,0-7.375,6.122-11.695,6.122
		c-4.319,0-11.161-5.939-11.161-5.939s-7.382,5.939-11.696,5.939c-4.319,0-11.344-5.757-11.344-5.757l11.878,28.427H153.321z"/>
	<path fill="#FFFFFF" d="M153.497,92.733h-22.851c0,0-37.613,37.069-37.613,73.412c0,38.514,39.406,41.563,39.406,41.563
		s11.757,1.951,19.062,0c0,0,39.961-4.678,39.961-41.371C191.469,129.62,153.497,92.733,153.497,92.733z M134.771,168.877
		l-5.879-8.344h-4.089v8.344h-5.5v-25.715h11.569c5.584,0,9.7,3.59,9.7,8.689c0,3.807-2.325,6.813-5.843,8.049l6.328,8.977H134.771z
		 M156.503,169.328c-2.704,0-4.945-1.16-6.483-3.178v9.168h-5.471v-25.793h5.471v2.697c1.538-1.986,3.779-3.152,6.483-3.152
		c5.163,0,8.906,4.199,8.906,10.113C165.409,165.141,161.666,169.328,156.503,169.328z"/>
</g>
</svg>
