<?xml version="1.0" encoding="utf-8"?>
<!-- Generator: Adobe Illustrator 16.0.0, SVG Export Plug-In . SVG Version: 6.00 Build 0)  -->
<svg version="1.2" baseProfile="tiny" id="Layer_1" xmlns="http://www.w3.org/2000/svg" xmlns:xlink="http://www.w3.org/1999/xlink"
	 x="0px" y="0px" width="283.46px" height="283.46px" viewBox="0 0 283.46 283.46" xml:space="preserve">
<path fill="#FFFFFF" d="M197.476,269.35H80.732c-38.209,0-69.185-29.131-69.185-65.061V94.497c0-35.933,30.976-65.06,69.185-65.06
	h116.744c38.221,0,69.191,29.127,69.191,65.06v109.792C266.667,240.219,235.696,269.35,197.476,269.35z"/>
<path fill="#3D82C4" d="M197.476,254.137H80.732c-38.209,0-69.185-29.129-69.185-65.061V79.29c0-35.936,30.976-65.059,69.185-65.059
	h116.744c38.221,0,69.191,29.123,69.191,65.059v109.786C266.667,225.008,235.696,254.137,197.476,254.137z"/>
<g>
	<title>presentation</title>
	<path fill="#FFFFFF" d="M198.603,80.811H82.866c-2.761,0-5.016-2.196-5.016-4.92c0-2.702,2.255-4.899,5.016-4.899h53.009v-4.914
		c0-2.716,2.249-4.906,5.024-4.906c2.761,0,5.017,2.19,5.017,4.906v4.914h52.687c2.791,0,5.031,2.205,5.031,4.899
		C203.634,78.615,201.394,80.811,198.603,80.811z M198.603,159.4H82.866V85.725h115.737V159.4z M97.973,120.252
		c0,10.874,9.02,19.684,20.123,19.684c11.116,0,20.139-8.81,20.139-19.684h-20.139v-19.698
		C106.993,100.554,97.973,109.377,97.973,120.252z M153.451,100.451h-5.039v4.921h5.039V100.451z M153.451,110.278h-5.039v4.914
		h5.039V110.278z M153.451,120.105h-5.039v4.906h5.039V120.105z M153.451,129.925h-5.039v4.914h5.039V129.925z M153.451,139.76
		h-5.039v4.906h5.039V139.76z M183.562,100.451h-25.095v4.921h25.095V100.451z M183.562,110.278h-25.095v4.914h25.095V110.278z
		 M183.562,120.105h-25.095v4.906h25.095V120.105z M183.562,129.925h-25.095v4.914h25.095V129.925z M183.562,139.76h-25.095v4.906
		h25.095V139.76z M127.052,183.961h11.328V159.4h5.031v24.561h11.152L143.411,159.4h10.04l20.07,44.201h-10.038l-6.709-14.75
		h-13.363v24.578h-5.031v-24.578h-13.591l-6.803,14.75h-10.048l20.41-44.201h10.031L127.052,183.961z M143.411,159.4L143.411,159.4
		L143.411,159.4L143.411,159.4z M138.38,159.4L138.38,159.4L138.38,159.4L138.38,159.4z"/>
</g>
</svg>
