<?xml version="1.0" encoding="utf-8"?>
<!-- Generator: Adobe Illustrator 24.0.2, SVG Export Plug-In . SVG Version: 6.00 Build 0)  -->
<svg version="1.2" baseProfile="tiny" id="Layer_1" xmlns="http://www.w3.org/2000/svg" xmlns:xlink="http://www.w3.org/1999/xlink"
	 x="0px" y="0px" viewBox="0 0 283.5 283.5" xml:space="preserve">
<path fill="#FFFFFF" d="M201.6,269.3H84.8c-38.2,0-69.2-29.1-69.2-65.1V94.5c0-35.9,31-65.1,69.2-65.1h116.7
	c38.2,0,69.2,29.1,69.2,65.1v109.8C270.8,240.2,239.8,269.3,201.6,269.3z"/>
<path fill="#F37C21" d="M201.6,254.1H84.8c-38.2,0-69.2-29.1-69.2-65.1V79.3c0-35.9,31-65.1,69.2-65.1h116.7
	c38.2,0,69.2,29.1,69.2,65.1v109.8C270.8,225,239.8,254.1,201.6,254.1z"/>
<path fill-rule="evenodd" fill="#FFFFFF" d="M136.6,139.5c-5.7,1.6-8.2,3.1-12.5,7.5c-5.1,5.2-7.2,10.5-7.2,18
	c0,7.8,2.1,13,7.7,18.5c5.5,5.5,10.7,7.6,18.5,7.6c7.9,0,13-2.1,18.5-7.6s7.7-10.6,7.7-18.5c0-7.8-2.1-13-7.7-18.5
	C154.9,139.8,145.2,137,136.6,139.5z M149.5,153.4c7.6,2.3,14.4,8.7,13.4,12.5c-0.6,2.3-5.1,6.8-8.5,8.6c-3.9,2-11.6,3.9-14.8,3.6
	c-2.5-0.2-2.7-0.4-2.6-2.6c0.1-1.3-0.1-2.4-0.4-2.4c-0.3,0-1.9-1.2-3.7-2.7l-3.1-2.7l-1.5,1.9c-2.7,3.4-6.6,1.6-4.4-2.1
	c0.5-0.9,1.3-2.1,1.7-2.7c0.5-0.9,0.3-1.8-0.9-3.4c-3.3-4.4,0.1-7.5,3.6-3.2l1.9,2.3l3.3-2.2c2.1-1.4,3.2-2.7,3.1-3.4
	c-0.6-2.8,0.4-3.5,4.9-3C143.8,152.1,147.4,152.8,149.5,153.4z M152.7,163.9c-0.8,0.9-0.7,1.4,0.3,2.4c1.2,1.1,1.3,1.1,2.5,0
	c1-1,1.1-1.4,0.3-2.4c-0.5-0.6-1.2-1.1-1.5-1.1C153.9,162.7,153.3,163.2,152.7,163.9z"/>
<path fill="#FFFFFF" d="M83.7,132.5c0-0.6,0.4-1,1-1h17.1c0.6,0,1,0.4,1,1v84.8H84.7c-0.6,0-1-0.4-1-1V132.5z"/>
<rect x="88.4" y="198.2" fill="#FFFFFF" width="109.6" height="19.1"/>
<path fill="#FFFFFF" d="M183.7,132.5c0-0.6,0.4-1,1-1h17.1c0.6,0,1,0.4,1,1v83.8c0,0.6-0.4,1-1,1h-18.1V132.5z"/>
<path fill="#FFFFFF" d="M79.1,112.5h128.2c2.8,0,5,2.2,5,5v4.3c0,2.8-2.2,5-5,5H79.1c-2.8,0-5-2.2-5-5v-4.3
	C74.1,114.7,76.4,112.5,79.1,112.5z"/>
<path fill-rule="evenodd" fill="#FFFEFE" d="M158.6,32.6c-2.6,0.5-6.6,2.3-9,3.9c-6.1,4.2-8.4,9.6-8.4,19.5c0,4.5-0.4,8.5-0.8,8.9
	c-1,1-4.9-3.7-5.7-6.9c-0.4-1.5-1.1-4.5-1.7-6.9c-2.2-8.7-10.7-13.3-24.6-13.3h-5.8v5c0,7.3,1.8,14,4.9,18.5
	c3.9,5.7,14.7,10.4,16.6,7.3c0.3-0.5-2-3.6-5.2-6.9c-6.1-6.2-6.8-8-4.3-10.2c1.2-1,2.1-0.9,4.6,0.9c5,3.6,14.6,14.5,16.7,19.1
	c1.5,3.4,2.6,4.3,4.7,4.3c2.4,0,2.9-0.6,4.1-5.4c1.3-5.1,8-16.4,13.1-21.9c2.5-2.7,6.3-2.7,6.8,0c0.2,1-1.5,4.3-3.8,7.4
	c-3.8,5.2-7.6,11.6-7.6,13c0,0.9,3.3,0.7,7.7-0.6c9.9-2.8,16.4-13.4,17.3-28.2l0.5-8.8l-7.8,0.1C166.9,31.6,161.2,32.1,158.6,32.6z
	 M119.5,84c-1.2,1.5-1.1,2,0.8,3.5c1.6,1.3,2.5,3.9,3.4,9.1c1.6,10.3,2.7,11,17,11c14.4,0,15.4-0.7,17-11c0.8-5.3,1.8-7.8,3.4-9.1
	c1.9-1.5,2-2.1,0.8-3.5C159.8,81.4,121.6,81.4,119.5,84z"/>
</svg>
