<?xml version="1.0" encoding="utf-8"?>
<!-- Generator: Adobe Illustrator 16.0.0, SVG Export Plug-In . SVG Version: 6.00 Build 0)  -->
<svg version="1.2" baseProfile="tiny" id="Layer_1" xmlns="http://www.w3.org/2000/svg" xmlns:xlink="http://www.w3.org/1999/xlink"
	 x="0px" y="0px" width="283.46px" height="283.46px" viewBox="0 0 283.46 283.46" xml:space="preserve">
<path fill="#FFFFFF" d="M201.568,269.35H84.824c-38.209,0-69.185-29.131-69.185-65.061V94.497c0-35.933,30.976-65.06,69.185-65.06
	h116.744c38.221,0,69.191,29.127,69.191,65.06v109.792C270.76,240.219,239.789,269.35,201.568,269.35z"/>
<path fill="#757576" d="M201.568,254.137H84.824c-38.209,0-69.185-29.129-69.185-65.061V79.29c0-35.936,30.976-65.059,69.185-65.059
	h116.744c38.221,0,69.191,29.123,69.191,65.059v109.786C270.76,225.008,239.789,254.137,201.568,254.137z"/>
<g>
	<path fill="none" stroke="#FFFFFF" stroke-width="4" stroke-linecap="round" stroke-linejoin="round" d="M232.636,148.863
		c0,4.782-11.634,8.664-25.981,8.664c-14.356,0-25.99-3.882-25.99-8.664c0-4.778,11.634-8.659,25.99-8.659
		C221.002,140.204,232.636,144.085,232.636,148.863z"/>
	<path fill="none" stroke="#FFFFFF" stroke-width="4" stroke-linecap="round" stroke-linejoin="round" d="M232.636,169.079
		c0,4.791-11.546,8.657-25.981,8.657c-14.443,0-25.99-3.866-25.99-8.657"/>
	<path fill="none" stroke="#FFFFFF" stroke-width="4" stroke-linecap="round" stroke-linejoin="round" d="M180.664,148.863v40.426
		c0,4.789,11.547,8.663,25.99,8.663c14.436,0,25.981-3.874,25.981-8.663v-40.426"/>
</g>
<g>
	<path fill="#FFFFFF" d="M68.47,172.314c0,6.624-0.125,11.312,2.333,11.312h33.142c2.457,0,1.95-5.149,1.95-9.36
		C87.22,174.266,68.47,172.314,68.47,172.314z"/>
	<path fill="#FFFFFF" d="M174.355,139.503c0-2.329,1.894-4.225,4.233-4.225h10.071c2.148-3.73,6.184-6.239,10.813-6.239
		c4.621,0,8.648,2.509,10.805,6.239h14.15v-1.171c0-15.206-8.699-24.602-18.721-33.061c-5.384-12.011-19.107-35.951-38.987-35.951
		h-46.785c-19.885,0-33.06,23.158-38.995,35.951c-9.353,8.964-18.712,17.814-18.712,33.061v29.632c0,1.437,1.012,2.728,2.42,3.036
		c5.81,1.335,24.251,3.976,78.672,3.976c12.022,0,22.277-0.124,31.035-0.337V139.503z M117.595,74.454h51.465
		c15.785,0,24.171,23.396,24.171,27.295H93.418C93.418,97.85,103.944,74.454,117.595,74.454z M87.182,153.874
		c-6.902,0-12.478-5.575-12.478-12.475c0-6.903,5.575-12.477,12.478-12.477s12.478,5.574,12.478,12.477
		C99.66,148.262,94.084,153.874,87.182,153.874z M165.157,147.749h-43.668c-3.432,0-6.234-2.803-6.234-6.236
		c0-3.429,2.802-6.234,6.234-6.234h43.668c3.433,0,6.234,2.805,6.234,6.234C171.392,144.946,168.59,147.749,165.157,147.749z"/>
</g>
</svg>
