<?xml version="1.0" encoding="utf-8"?>
<!-- Generator: Adobe Illustrator 16.0.0, SVG Export Plug-In . SVG Version: 6.00 Build 0)  -->
<svg version="1.2" baseProfile="tiny" id="Layer_1" xmlns="http://www.w3.org/2000/svg" xmlns:xlink="http://www.w3.org/1999/xlink"
	 x="0px" y="0px" width="283.46px" height="283.46px" viewBox="0 0 283.46 283.46" xml:space="preserve">
<path fill="#FFFFFF" d="M201.568,269.35H84.824c-38.209,0-69.185-29.131-69.185-65.061V94.497c0-35.933,30.976-65.06,69.185-65.06
	h116.744c38.221,0,69.191,29.127,69.191,65.06v109.792C270.76,240.219,239.789,269.35,201.568,269.35z"/>
<path fill="#D71B61" d="M201.568,254.137H84.824c-38.209,0-69.185-29.129-69.185-65.061V79.29c0-35.936,30.976-65.059,69.185-65.059
	h116.744c38.221,0,69.191,29.123,69.191,65.059v109.786C270.76,225.008,239.789,254.137,201.568,254.137z"/>
<path fill="#FFFFFF" d="M184.097,135.473h-38.413v38.418h38.413V135.473z M203.305,68.248h-9.601v-9.605h-19.21v9.605h-57.619
	v-9.605h-19.21v9.605h-9.607c-5.281,0-9.602,4.325-9.602,9.604v115.248c0,5.279,4.321,9.601,9.602,9.601h115.247
	c5.28,0,9.608-4.321,9.608-9.601V77.853C212.913,72.573,208.585,68.248,203.305,68.248z M193.704,183.492H97.665v-76.829h96.039
	V183.492z"/>
</svg>
