<?xml version="1.0" encoding="utf-8"?>
<!-- Generator: Adobe Illustrator 24.3.0, SVG Export Plug-In . SVG Version: 6.00 Build 0)  -->
<svg version="1.2" baseProfile="tiny" id="Layer_1" xmlns="http://www.w3.org/2000/svg" xmlns:xlink="http://www.w3.org/1999/xlink"
	 x="0px" y="0px" width="283.46px" height="283.46px" viewBox="0 0 283.46 283.46" xml:space="preserve">
<path fill="#FFFFFF" d="M199.7,283.4H74.3c-41,0-74.3-32.5-74.3-72.6V88.3c0-40.1,33.3-72.6,74.3-72.6h125.4
	c41.1,0,74.3,32.5,74.3,72.6v122.5C274.1,250.9,240.8,283.4,199.7,283.4z"/>
<path fill="#33459A" d="M199.7,267.6H74.3C33.3,267.6,0,235.1,0,195V72.5C0,32.4,33.3-0.1,74.3-0.1h125.4
	c41.1,0,74.3,32.5,74.3,72.6V195C274.1,235.1,240.8,267.6,199.7,267.6z"/>
<path fill="#FFFFFF" d="M62,202.5H139V48.7H62V202.5z M110.1,67.9h19.2v19.2h-19.2V67.9z M110.1,106.4h19.2v19.2h-19.2V106.4z
	 M110.1,144.9h19.2v19.2h-19.2V144.9z M71.7,67.9h19.2v19.2H71.7V67.9z M71.7,106.4h19.2v19.2H71.7V106.4z M71.7,144.9h19.2v19.2
	H71.7V144.9z M148.6,96.8h67.3v9.6h-67.3V96.8z M148.6,202.5h19.2v-38.5h28.8v38.5h19.2V116h-67.3V202.5z"/>
</svg>
