<?xml version="1.0" encoding="utf-8"?>
<!-- Generator: Adobe Illustrator 16.0.0, SVG Export Plug-In . SVG Version: 6.00 Build 0)  -->
<svg version="1.2" baseProfile="tiny" id="Layer_1" xmlns="http://www.w3.org/2000/svg" xmlns:xlink="http://www.w3.org/1999/xlink"
	 x="0px" y="0px" width="283.46px" height="283.46px" viewBox="0 0 283.46 283.46" xml:space="preserve">
<path fill="#FFFFFF" d="M202.039,271.376H85.297c-38.209,0-69.185-29.131-69.185-65.061V96.523c0-35.933,30.976-65.06,69.185-65.06
	h116.742c38.222,0,69.191,29.127,69.191,65.06v109.792C271.23,242.245,240.261,271.376,202.039,271.376z"/>
<path fill="#439F47" d="M202.039,256.163H85.297c-38.209,0-69.185-29.129-69.185-65.061V81.317
	c0-35.936,30.976-65.059,69.185-65.059h116.742c38.222,0,69.191,29.123,69.191,65.059v109.786
	C271.23,227.034,240.261,256.163,202.039,256.163z"/>
<g>
	<path fill="#FFFFFF" d="M181.949,156.109c-4.607-1.611-12.115-1.695-15.471-2.932c-2.275-0.881-5.938-1.852-7.15-3.256
		c-1.188-1.41-1.188-11.451-1.188-11.451s2.883-2.648,4.063-5.622c1.211-2.923,2-11.036,2-11.036s2.709,1.121,3.77-4.178
		c0.898-4.567,2.635-6.975,2.168-10.355c-0.473-3.363-2.367-2.566-2.367-2.566s2.367-3.413,2.367-15.014
		c0-11.966-9.242-23.725-26.549-23.725c-17.271,0-26.606,11.792-26.606,23.725c0,11.601,2.351,15.014,2.351,15.014
		s-1.935-0.797-2.393,2.566c-0.473,3.38,1.238,5.788,2.193,10.355c1.07,5.349,3.787,4.178,3.787,4.178s0.788,8.08,1.959,11.036
		c1.188,2.974,4.077,5.622,4.077,5.622s0,10.041-1.211,11.451c-1.171,1.404-4.825,2.375-7.149,3.207
		c-3.272,1.244-10.805,1.41-15.439,3.004c-4.616,1.611-18.842,8.92-18.842,26.99h114.407
		C200.766,165.02,186.559,157.711,181.949,156.109z"/>
	<path fill="#FFFFFF" d="M95.984,136.553c0,0,9.841-0.324,13.727-3.737c-6.361-9.442-2.899-20.429-4.226-30.709
		c-1.337-10.248-7.276-16.384-19.201-16.384h-0.158c-11.508,0-17.72,6.104-19.041,16.384c-1.303,10.23,2.342,22.488-4.194,30.709
		c3.903,3.446,13.761,3.338,13.761,3.338s0.432,5.78-0.408,6.743c-0.805,0.964-3.245,1.876-4.924,2.208
		c-3.612,0.756-7.457,1.803-10.662,2.891c-3.189,1.08-9.284,6.893-9.284,14.93h33.017c0.914-3.213,7.108-8.951,13.154-11.957
		c3.704-1.844,7.365-1.736,10.156-2.092c0,0,1.544-2.408-3.579-3.33c0,0-7.075-1.736-7.89-2.7
		C95.454,141.967,95.984,136.553,95.984,136.553z M191.357,136.553c0,0-9.824-0.324-13.709-3.737
		c6.354-9.442,2.906-20.429,4.217-30.709c1.33-10.248,7.285-16.384,19.209-16.384h0.15c11.516,0,17.711,6.104,19.049,16.384
		c1.305,10.23-2.352,22.488,4.176,30.709c-3.91,3.446-13.775,3.338-13.775,3.338s-0.398,5.78,0.422,6.743
		c0.816,0.964,3.248,1.876,4.941,2.208c3.613,0.756,7.441,1.803,10.639,2.891c3.213,1.08,9.293,6.893,9.293,14.93h-33
		c-0.924-3.213-7.127-8.951-13.164-11.957c-3.703-1.844-7.365-1.736-10.156-2.092c0,0-1.568-2.408,3.572-3.33
		c0,0,7.074-1.736,7.896-2.7C191.889,141.967,191.357,136.553,191.357,136.553z"/>
</g>
</svg>
