<?xml version="1.0" encoding="utf-8"?>
<!-- Generator: Adobe Illustrator 16.0.0, SVG Export Plug-In . SVG Version: 6.00 Build 0)  -->
<svg version="1.2" baseProfile="tiny" id="Layer_1" xmlns="http://www.w3.org/2000/svg" xmlns:xlink="http://www.w3.org/1999/xlink"
	 x="0px" y="0px" width="283.46px" height="283.46px" viewBox="0 0 283.46 283.46" xml:space="preserve">
<path fill="#FFFFFF" d="M200.96,271.376H84.217c-38.209,0-69.185-29.131-69.185-65.061V96.523c0-35.933,30.976-65.06,69.185-65.06
	H200.96c38.222,0,69.191,29.127,69.191,65.06v109.792C270.151,242.245,239.182,271.376,200.96,271.376z"/>
<path fill="#E43B35" d="M200.96,256.163H84.217c-38.209,0-69.185-29.129-69.185-65.061V81.317c0-35.936,30.976-65.059,69.185-65.059
	H200.96c38.222,0,69.191,29.123,69.191,65.059v109.786C270.151,227.034,239.182,256.163,200.96,256.163z"/>
<g>
	<title>cake</title>
	<path fill="#FFFFFF" d="M184.183,108.219c-1.338,0-2.618,0.152-3.884,0.41c-0.534-7.721-7.314-13.844-15.669-13.844
		c-1.888,0-3.652,0.362-5.317,0.917c-5.186-7.754-14.308-12.936-24.761-12.936c-15.885,0-28.742,11.916-29.248,26.738
		c-2.112-0.816-4.413-1.285-6.843-1.285c-9.975,0-18.048,7.595-18.048,16.975c0,9.128,7.691,16.519,17.303,16.896l7.227-6.807
		l7.306,6.875h3.421l7.33-6.875l7.29,6.875h3.437l7.323-6.875l7.312,6.875h3.385l7.337-6.875l7.305,6.875h3.423l7.299-6.875
		l7.299,6.857c9.853-0.127,17.81-7.654,17.81-16.946C202.217,115.814,194.151,108.219,184.183,108.219L184.183,108.219z
		 M177.405,140.32l-6.476,6.077h-5.67l-6.178-5.812l-6.193,5.812h-5.687l-6.167-5.812l-6.188,5.812h-5.671l-6.199-5.812
		l-6.184,5.812h-5.674l-6.206-5.812l-6.176,5.812h-0.291l11.951,46.685h61.496l12.29-46.685h-0.325L177.405,140.32L177.405,140.32z
		 M121.017,188.833l-9.396-38.186h4.506l9.411,38.186H121.017z M130.038,188.833l-4.804-38.186h4.528l4.79,38.186H130.038z
		 M143.57,188.833h-4.505v-38.186h4.505V188.833z M148.072,188.833l4.802-38.186h4.517l-4.797,38.186H148.072z M161.605,188.833
		h-4.5l9.297-38.186h4.521L161.605,188.833z"/>
</g>
</svg>
