<?xml version="1.0" encoding="utf-8"?>
<!-- Generator: Adobe Illustrator 16.0.0, SVG Export Plug-In . SVG Version: 6.00 Build 0)  -->
<svg version="1.2" baseProfile="tiny" id="Layer_1" xmlns="http://www.w3.org/2000/svg" xmlns:xlink="http://www.w3.org/1999/xlink"
	 x="0px" y="0px" width="283.46px" height="283.46px" viewBox="0 0 283.46 283.46" xml:space="preserve">
<path fill="#FFFFFF" d="M201.568,269.35H84.824c-38.209,0-69.185-29.131-69.185-65.061V94.497c0-35.933,30.976-65.06,69.185-65.06
	h116.744c38.221,0,69.191,29.127,69.191,65.06v109.792C270.76,240.219,239.789,269.35,201.568,269.35z"/>
<path fill="#853A96" d="M201.568,254.137H84.824c-38.209,0-69.185-29.129-69.185-65.061V79.29c0-35.936,30.976-65.059,69.185-65.059
	h116.744c38.221,0,69.191,29.123,69.191,65.059v109.786C270.76,225.008,239.789,254.137,201.568,254.137z"/>
<g>
	<title>ticket</title>
	<path fill="#FFFFFF" d="M102.974,143.03l53.866-52.568l29.384,28.708l-53.837,52.573L102.974,143.03z M220.229,103.686
		c1.563,1.506,2.332,3.435,2.332,5.798c0,2.359-0.77,4.303-2.332,5.813l-90.825,88.713c-1.759,1.707-3.737,2.574-5.926,2.574
		c-2.22,0-4.198-0.867-5.957-2.574l-12.563-12.262c1.313-2.158,2-4.725,2-7.744c0-4.517-1.607-8.397-4.794-11.619
		c-3.2-3.217-7.119-4.833-11.739-4.833c-2.424,0-5.164,0.747-8.26,2.25L69.958,157.55c-1.767-1.707-2.658-3.653-2.658-5.813
		c0-2.146,0.891-4.077,2.658-5.799l90.824-88.711c1.557-1.498,3.548-2.265,5.942-2.265c2.43,0,4.401,0.767,5.956,2.265l12.2,12.258
		c-1.312,2.363-1.978,4.945-1.978,7.75c0,4.511,1.669,8.328,4.968,11.449c3.299,3.114,7.278,4.682,11.898,4.682
		c2.869,0,5.504-0.661,7.928-1.948L220.229,103.686z M132.386,184.639l67.05-65.468L156.84,77.552L89.421,143.03L132.386,184.639z"
		/>
</g>
</svg>
