<?xml version="1.0" encoding="utf-8"?>
<!-- Generator: Adobe Illustrator 16.0.0, SVG Export Plug-In . SVG Version: 6.00 Build 0)  -->
<svg version="1.2" baseProfile="tiny" id="Layer_1" xmlns="http://www.w3.org/2000/svg" xmlns:xlink="http://www.w3.org/1999/xlink"
	 x="0px" y="0px" width="283.46px" height="283.46px" viewBox="0 0 283.46 283.46" xml:space="preserve">
<path fill="#FFFFFF" d="M201.568,269.35H84.824c-38.209,0-69.185-29.131-69.185-65.061V94.497c0-35.933,30.976-65.06,69.185-65.06
	h116.744c38.221,0,69.191,29.127,69.191,65.06v109.792C270.76,240.219,239.789,269.35,201.568,269.35z"/>
<path fill="#AEB336" d="M201.568,254.137H84.824c-38.209,0-69.185-29.129-69.185-65.061V79.29c0-35.936,30.976-65.059,69.185-65.059
	h116.744c38.221,0,69.191,29.123,69.191,65.059v109.786C270.76,225.008,239.789,254.137,201.568,254.137z"/>
<g>
	<title>fi-paperclip</title>
	<path fill="#FFFFFF" d="M114.06,204.761c-5.45,0-12.444-1.803-19.447-8.63c-9.24-9.023-10.4-17.721-9.75-23.438
		c0.759-6.712,4.257-13.163,10.442-19.189l58.736-57.376c16.411-16.023,27.338-10.167,32.396-5.238
		c6.094,5.959,10.107,16.264-5.492,31.493l-54.104,52.831l-10.534-10.283l54.095-52.835c8.348-8.143,6.419-10.012,5.51-10.927
		c-0.751-0.717-2.988-2.896-11.326,5.233l-58.763,57.386c-2.555,2.495-5.684,6.335-6.168,10.509
		c-0.41,3.756,1.369,7.528,5.475,11.543c5.118,4.983,8.965,4.466,10.242,4.282c3.481-0.484,7.454-2.821,11.469-6.744
		c4.975-4.857,65.122-63.586,69.738-68.094c5.684-5.555,9.29-10.963,10.743-16.072c2.095-7.383-0.386-14.416-7.663-21.481
		c-7.629-7.465-19.949-15.274-38.563,2.91l-64.354,62.848c-2.905,2.846-7.638,2.846-10.526,0c-2.913-2.847-2.913-7.438,0-10.283
		l64.364-62.844c19.873-19.428,41.616-20.504,59.604-2.909c13.981,13.622,13.974,26.89,11.494,35.637
		c-2.162,7.667-6.928,15.017-14.565,22.475c-4.623,4.507-64.754,63.24-69.721,68.089c-6.411,6.27-13.122,9.925-19.916,10.869
		c-1.043,0.141-2.203,0.225-3.415,0.225V204.761z"/>
</g>
</svg>
