<svg width="300" height="136" viewBox="0 0 300 136" fill="none" xmlns="http://www.w3.org/2000/svg">
<path d="M102.816 31.7142C104.158 31.4273 106.284 31.2163 108.445 31.2163C111.525 31.2163 113.508 31.7479 115.001 32.9547C116.242 33.8745 116.984 35.2921 116.984 37.1739C116.984 39.4777 115.457 41.4945 112.942 42.4143V42.4818C115.212 43.0472 117.862 44.929 117.862 48.4647C117.862 50.5153 117.043 52.0764 115.845 53.2494C114.183 54.7683 111.491 55.4772 107.592 55.4772C105.466 55.4772 103.837 55.3337 102.808 55.1903V31.7142H102.816ZM105.896 41.4945H108.698C111.955 41.4945 113.871 39.7983 113.871 37.4946C113.871 34.693 111.744 33.596 108.63 33.596C107.213 33.596 106.402 33.7057 105.905 33.807V41.4945H105.896ZM105.896 52.9287C106.495 53.0384 107.381 53.0722 108.478 53.0722C111.668 53.0722 114.605 51.8992 114.605 48.431C114.605 45.1737 111.803 43.8235 108.445 43.8235H105.896V52.9287Z" fill="#EA6400"/>
<path d="M125.093 31.3936V55.2663H122.013V31.3936H125.093Z" fill="#EA6400"/>
<path d="M130.056 51.511C131.44 52.3633 133.456 53.0722 135.583 53.0722C138.739 53.0722 140.579 51.4098 140.579 48.9963C140.579 46.7686 139.304 45.4859 136.081 44.2454C132.182 42.8615 129.777 40.8447 129.777 37.4777C129.777 33.7563 132.857 30.9969 137.498 30.9969C139.946 30.9969 141.718 31.5623 142.773 32.1698L141.92 34.6845C141.144 34.2626 139.549 33.5538 137.389 33.5538C134.131 33.5538 132.891 35.5031 132.891 37.1317C132.891 39.3595 134.342 40.465 137.642 41.7392C141.684 43.3003 143.735 45.2496 143.735 48.7516C143.735 52.4393 141.009 55.6206 135.372 55.6206C133.068 55.6206 130.554 54.9455 129.279 54.0932L130.056 51.511Z" fill="#EA6400"/>
<path d="M147.946 55.2662V31.3935H151.313L158.967 43.4691C160.739 46.2707 162.123 48.7854 163.253 51.2241L163.321 51.1904C163.034 48.0006 162.966 45.0977 162.966 41.3763V31.3851H165.869V55.2578H162.755L155.178 43.14C153.515 40.4819 151.92 37.7562 150.714 35.174L150.604 35.2077C150.781 38.2203 150.849 41.0894 150.849 45.0556V55.2578H147.946V55.2662Z" fill="#EA6400"/>
<path d="M174.341 31.3936V55.2663H171.261V31.3936H174.341Z" fill="#EA6400"/>
<path d="M179.303 51.511C180.687 52.3633 182.703 53.0722 184.83 53.0722C187.986 53.0722 189.826 51.4098 189.826 48.9963C189.826 46.7686 188.551 45.4859 185.328 44.2454C181.429 42.8615 179.024 40.8447 179.024 37.4777C179.024 33.7563 182.104 30.9969 186.746 30.9969C189.193 30.9969 190.965 31.5623 192.02 32.1698L191.167 34.6845C190.391 34.2626 188.796 33.5538 186.636 33.5538C183.379 33.5538 182.138 35.5031 182.138 37.1317C182.138 39.3595 183.59 40.465 186.889 41.7392C190.931 43.3003 192.982 45.2496 192.982 48.7516C192.982 52.4393 190.256 55.6206 184.619 55.6206C182.315 55.6206 179.801 54.9455 178.526 54.0932L179.303 51.511Z" fill="#EA6400"/>
<path d="M197.193 31.6804C198.678 31.4357 200.627 31.2163 203.108 31.2163C206.155 31.2163 208.382 31.9252 209.8 33.1994C211.108 34.3301 211.893 36.0685 211.893 38.195C211.893 40.3553 211.26 42.0599 210.053 43.2919C208.425 45.0302 205.766 45.9163 202.754 45.9163C201.834 45.9163 200.982 45.8825 200.273 45.7053V55.2662H197.193V31.6804ZM200.273 43.1906C200.948 43.3678 201.8 43.4353 202.821 43.4353C206.543 43.4353 208.804 41.6295 208.804 38.3385C208.804 35.1824 206.577 33.6635 203.176 33.6635C201.834 33.6635 200.805 33.7732 200.273 33.9082V43.1906Z" fill="#EABE06"/>
<path d="M219.117 31.3936V55.2663H216.037V31.3936H219.117Z" fill="#EABE06"/>
<path d="M224.509 55.2662V31.3935H227.876L235.53 43.4691C237.302 46.2707 238.686 48.7854 239.816 51.2241L239.884 51.1904C239.597 48.0006 239.529 45.0977 239.529 41.3763V31.3851H242.432V55.2578H239.318L231.741 43.14C230.078 40.4819 228.483 37.7562 227.277 35.174L227.167 35.2077C227.344 38.2203 227.412 41.0894 227.412 45.0556V55.2578H224.509V55.2662Z" fill="#EABE06"/>
<path d="M252.348 34.0179H245.082V31.3936H262.761V34.0179H255.461V55.2747H252.348V34.0179Z" fill="#EABE06"/>
<path d="M266.626 47.7643L264.145 55.2746H260.955L269.065 31.4019H272.786L280.938 55.2746H277.647L275.098 47.7643H266.626ZM274.457 45.3509L272.119 38.4819C271.588 36.9207 271.233 35.5031 270.879 34.1276H270.811C270.457 35.5452 270.069 36.9967 269.605 38.4481L267.267 45.3593H274.457V45.3509Z" fill="#EABE06"/>
<path d="M284.448 31.7142C286.009 31.3935 288.237 31.2163 290.363 31.2163C293.654 31.2163 295.781 31.8154 297.274 33.1656C298.481 34.2289 299.148 35.8575 299.148 37.6971C299.148 40.8532 297.165 42.9375 294.65 43.7898V43.8995C296.49 44.5408 297.587 46.237 298.16 48.7179C298.937 52.0511 299.502 54.3464 300 55.2747H296.81C296.422 54.5996 295.89 52.549 295.215 49.5702C294.507 46.2791 293.232 45.0387 290.431 44.929H287.528V55.2747H284.448V31.7142ZM287.528 42.5915H290.684C293.975 42.5915 296.068 40.7856 296.068 38.06C296.068 34.9799 293.84 33.6297 290.574 33.596C289.089 33.596 288.026 33.7394 287.528 33.8829V42.5915Z" fill="#EABE06"/>
<path d="M44.9948 111.619C45.0117 111.678 45.2311 111.442 45.5518 111.079C45.1552 111.315 44.9526 111.45 44.9526 111.45L44.9948 111.619Z" fill="#80BEE5"/>
<path d="M48.2015 108.767C48.0074 108.218 46.4125 110.108 45.5518 111.079C45.8302 110.918 46.1931 110.708 46.6572 110.471C47.4757 109.771 48.2943 109.037 48.2015 108.767Z" fill="#80BEE5"/>
<path d="M77.3054 113.273C78.5543 111.813 79.7526 110.303 80.9593 108.8C81.491 108.134 81.0859 107.138 80.2336 107.037C74.9764 106.429 67.5505 105.923 61.4156 106.396C54.3441 106.936 49.1628 109.163 46.6566 110.471C45.8465 111.155 45.0195 111.805 45.0532 111.948C45.5849 114.429 46.876 113.07 47.0026 113.079C47.3064 113.087 46.8085 114.572 47.146 114.572C53.9559 114.674 66.7572 114.716 74.4448 114.716C75.4911 114.716 76.4785 114.26 77.162 113.467C77.2042 113.391 77.2548 113.332 77.3054 113.273Z" fill="url(#paint0_linear)"/>
<path d="M77.3054 113.273C78.5543 111.813 79.7526 110.303 80.9593 108.8C81.491 108.134 81.0859 107.138 80.2336 107.037C74.9764 106.429 67.5505 105.923 61.4156 106.396C54.3441 106.936 49.1628 109.163 46.6566 110.471C45.8465 111.155 45.0195 111.805 45.0532 111.948C45.5849 114.429 46.876 113.07 47.0026 113.079C47.3064 113.087 46.8085 114.572 47.146 114.572C53.9559 114.674 66.7572 114.716 74.4448 114.716C75.4911 114.716 76.4785 114.26 77.162 113.467C77.2042 113.391 77.2548 113.332 77.3054 113.273Z" fill="url(#paint1_linear)"/>
<path d="M79.668 94.1089C79.668 94.1089 82.2502 90.8769 80.8663 90.1006C80.1912 89.6702 65.6768 89.7124 55.3565 92.0583C45.3821 94.3198 39.8042 99.4673 39.8042 99.4673L39.8717 99.6193C39.9561 99.8218 40.1164 99.5686 40.4877 100.269C40.7578 100.775 41.1797 101.746 41.3653 101.974C41.4919 102.125 41.7704 102.345 41.897 102.328C51.5254 101.071 75.9213 97.4083 75.9213 97.4083L79.668 94.1089Z" fill="url(#paint2_linear)"/>
<path d="M79.668 94.1089C79.668 94.1089 82.2502 90.8769 80.8663 90.1006C80.1912 89.6702 65.6768 89.7124 55.3565 92.0583C45.3821 94.3198 39.8042 99.4673 39.8042 99.4673L39.8717 99.6193C39.9561 99.8218 40.1164 99.5686 40.4877 100.269C40.7578 100.775 41.1797 101.746 41.3653 101.974C41.4919 102.125 41.7704 102.345 41.897 102.328C51.5254 101.071 75.9213 97.4083 75.9213 97.4083L79.668 94.1089Z" fill="url(#paint3_linear)"/>
<path d="M79.6267 57.6205C79.8799 61.7722 76.4791 75.6368 71.146 83.3665C70.4202 83.9488 69.6861 84.5142 68.935 85.0542C68.935 85.0627 68.9351 85.0627 68.9266 85.0627C68.4962 85.3833 68.0574 85.6956 67.6102 86.0078C67.6102 86.0078 67.6018 86.0078 67.6018 86.0162C66.9098 86.4972 66.2178 86.9614 65.5174 87.4255C65.3149 87.5605 65.1208 87.6871 64.9183 87.8137C64.9014 87.8221 64.8845 87.839 64.8677 87.8474C64.758 87.9149 64.6567 87.9824 64.5554 88.0499C62.3023 89.4845 60.0324 90.7756 57.8215 91.9401C56.7666 92.4886 55.7287 93.0118 54.7245 93.5013C54.7245 93.5013 54.7245 93.5013 54.7161 93.5013C54.3785 93.6616 54.0325 93.8303 53.7034 93.9907L53.6866 93.9991C53.6866 94.0076 53.6781 94.0075 53.6781 94.0075C53.4756 94.1004 53.2731 94.1932 53.079 94.286C53.0621 94.2945 53.0452 94.3029 53.0199 94.3113H53.0115C52.8174 94.4042 52.6149 94.4886 52.4292 94.5814C52.4123 94.5898 52.4039 94.5983 52.387 94.6067C52.1761 94.6995 51.9735 94.7923 51.771 94.8852C51.771 94.8852 51.771 94.8852 51.7626 94.8852C51.4503 95.0286 51.1381 95.1636 50.8259 95.2986C50.8175 95.2986 50.8174 95.3071 50.809 95.3071C49.8892 95.7121 49.0032 96.0835 48.1677 96.4294L48.1424 96.4379C46.4463 97.1383 44.9273 97.7121 43.6784 98.1678L43.67 98.1762C39.4254 99.8977 41.4591 102.244 41.9232 102.328C40.9865 102.37 39.8811 99.653 39.6195 98.9694C39.6195 98.9694 39.6195 98.9694 39.6195 98.961C39.5773 98.8682 39.5266 98.75 39.476 98.6234C39.476 98.615 39.4676 98.6066 39.4676 98.6066L39.4591 98.5728C39.4423 98.5475 39.4338 98.5138 39.4169 98.48C39.4085 98.4631 39.4001 98.4462 39.4001 98.4294C39.3916 98.4125 39.3916 98.404 39.3832 98.3956C39.3832 98.3956 39.3832 98.3956 39.3832 98.3872C39.3241 98.2521 39.2651 98.1003 39.1891 97.9315C39.1807 97.9146 39.1722 97.8977 39.1638 97.8809C39.1554 97.864 39.1554 97.8471 39.1469 97.8387C39.1132 97.7543 39.0794 97.6699 39.0372 97.5855V97.5771C39.0288 97.5518 39.0203 97.5349 39.0119 97.5096C39.0035 97.4927 38.995 97.4674 38.9866 97.4505C38.9444 97.3492 38.9022 97.248 38.86 97.1383C38.86 97.1298 38.8516 97.1298 38.8516 97.1214C38.8431 97.1045 38.8431 97.0876 38.8263 97.0707C38.7841 96.961 38.7334 96.8514 38.6912 96.7417C38.6828 96.7248 38.6744 96.7079 38.6659 96.691L38.6575 96.6657C38.6237 96.5898 38.59 96.5138 38.5647 96.4379C38.5478 96.4041 38.5393 96.3788 38.5309 96.3535C38.5225 96.3281 38.514 96.3028 38.4971 96.2775C38.4971 96.2691 38.4887 96.2606 38.4803 96.2522C38.3621 95.9569 38.2355 95.6446 38.0921 95.2986C38.0752 95.248 38.0499 95.2058 38.033 95.1552C38.0246 95.1383 38.0161 95.1214 38.0077 95.0961C37.9402 94.9442 37.8811 94.7755 37.8052 94.6067C37.8052 94.5983 37.7967 94.5898 37.7883 94.5814C37.7883 94.5814 37.7883 94.5814 37.7883 94.5729C37.7039 94.3704 37.6195 94.151 37.5267 93.9232C37.5183 93.9063 37.5098 93.8894 37.5098 93.881C37.5014 93.8641 37.493 93.8303 37.4845 93.8135C37.3326 93.4422 37.1807 93.054 37.012 92.6405C37.0035 92.6152 36.9951 92.5899 36.9782 92.5646C36.9698 92.5308 36.9529 92.4971 36.936 92.4717C36.8432 92.2439 36.7504 92.0161 36.6575 91.7798C36.6322 91.7207 36.6069 91.6701 36.59 91.611C36.5647 91.5519 36.5478 91.4929 36.5394 91.4338C36.5394 91.4169 36.5394 91.4 36.5394 91.3832C36.5394 91.341 36.531 91.2988 36.5394 91.2481C36.5394 91.2313 36.5478 91.2144 36.5478 91.1975C36.5563 91.1553 36.5732 91.1047 36.59 91.0625C36.59 91.0541 36.5985 91.0456 36.5985 91.0287C36.6322 90.9528 36.6829 90.8769 36.7419 90.8093C36.7588 90.8009 36.7672 90.784 36.7841 90.7671C36.801 90.7503 36.8179 90.7334 36.8432 90.7165C36.8685 90.6996 36.8854 90.6912 36.9107 90.6743C36.9276 90.6659 36.9444 90.649 36.9613 90.6406C37.0035 90.6152 37.0457 90.5984 37.0963 90.5815H37.1048C37.628 90.4296 38.1512 90.2693 38.6744 90.1089C38.8178 90.0583 38.9697 90.0161 39.1216 89.9655C39.5267 89.8389 39.9317 89.7039 40.3452 89.5689C40.4802 89.5182 40.6068 89.476 40.7418 89.4339C41.265 89.2566 41.7882 89.0794 42.3114 88.8854C42.4042 88.8516 42.5055 88.8178 42.5983 88.7841C43.0287 88.6237 43.4675 88.4634 43.9063 88.2946C44.0582 88.2356 44.2101 88.1765 44.3619 88.1174C44.8008 87.9487 45.2311 87.7799 45.6699 87.6027C45.7628 87.5689 45.8556 87.5267 45.9484 87.4845C46.4632 87.2736 46.9863 87.0542 47.5011 86.8263C47.6277 86.7673 47.7627 86.7082 47.8893 86.6576C48.2943 86.4804 48.6909 86.3031 49.096 86.1175C49.2394 86.05 49.3913 85.9825 49.5348 85.915C50.0495 85.6787 50.5643 85.434 51.0791 85.1808C51.771 84.8433 52.4545 84.4973 53.1381 84.1344C53.6866 83.8475 54.2266 83.5606 54.7751 83.2568C54.9355 83.164 55.0958 83.0712 55.2561 82.9868C55.7203 82.7252 56.1844 82.4552 56.6401 82.1851C58.0155 81.375 59.3657 80.5143 60.6821 79.6198C60.8762 79.4932 61.0619 79.3582 61.2475 79.2232C61.4332 79.0882 61.6357 78.9616 61.8213 78.8266C62.2517 78.5228 62.6736 78.2106 63.0871 77.8983C63.2137 77.7971 63.3487 77.6958 63.4753 77.5945C63.7706 77.3751 64.066 77.1473 64.3529 76.9195C64.4964 76.8098 64.6398 76.6916 64.7833 76.5819C65.0702 76.3541 65.3487 76.1178 65.6356 75.89C65.7622 75.7803 65.8887 75.679 66.0153 75.5777C66.4119 75.2402 66.8085 74.9026 67.1883 74.5567C67.2473 74.506 67.298 74.4554 67.357 74.4048C67.6439 74.1432 67.9309 73.89 68.2093 73.62C68.6566 73.2065 69.0869 72.7846 69.5173 72.3626C69.627 72.2529 69.7283 72.1517 69.838 72.042C70.6903 71.1812 71.5088 70.2952 72.2936 69.3838C72.3949 69.2657 72.4877 69.156 72.5805 69.0378C72.6987 68.9028 72.8083 68.7762 72.918 68.6328C73.1881 68.3037 73.4581 67.983 73.7197 67.6455C73.7281 67.637 73.7366 67.6202 73.745 67.6117C73.7703 67.578 73.7872 67.5527 73.8125 67.5189C73.8125 67.5105 73.8125 67.5105 73.821 67.5105C74.0657 67.1898 74.3104 66.8607 74.5467 66.5316C74.6648 66.3797 74.7661 66.2194 74.8842 66.0675C75.129 65.7215 75.3652 65.3755 75.5931 65.0211C75.669 64.9114 75.7365 64.8017 75.804 64.6835C75.9981 64.3629 76.2007 64.0506 76.3863 63.73C76.4454 63.6203 76.5129 63.5106 76.5804 63.4009C76.6395 63.2996 77.1964 62.2448 77.3989 61.8651C77.4327 61.7976 77.458 61.7554 77.4664 61.73C77.458 62.1182 79.6014 57.1479 79.6267 57.6205Z" fill="#A30084"/>
<path d="M81.525 90.9613C81.179 89.7883 80.0398 89.9824 80.0398 89.9824C82.7233 90.3537 78.7487 92.3283 78.7487 92.3283L78.715 92.3621C73.0696 95.1552 59.5847 101.501 45.5514 105.72C44.1169 106.151 43.1886 107.29 43.5515 108.193C44.5219 110.648 45.1464 112.319 45.5345 113.399C45.6189 113.644 45.7624 113.847 45.9227 114.024C46.4965 114.733 47.2054 114.615 49.6104 114.598C48.5471 114.623 49.1462 114.049 49.6526 113.796C56.8253 111.197 73.0611 105.163 81.2887 100.902C82.6389 100.202 83.3899 99.0623 83.1705 98.0834L81.525 90.9613Z" fill="#A30084"/>
<path d="M90.1235 36.7689C90.5792 39.0979 90.8492 41.4269 90.9336 43.7391C90.9336 43.7813 90.9421 43.8235 90.9336 43.8657C91.094 48.3381 90.5876 52.7515 89.4738 56.9877C88.7565 59.7302 87.7776 62.3968 86.5709 64.9537C86.5203 65.0634 86.4696 65.1731 86.4105 65.2912C86.1996 65.73 85.9802 66.1604 85.7608 66.5992C84.3853 69.2236 82.7566 71.713 80.8917 74.0336C78.858 76.5651 76.5543 78.8857 73.989 80.9448C73.989 80.9448 73.989 80.9447 73.989 80.9532C73.7274 81.1895 73.4489 81.4342 73.1789 81.662C73.0439 81.7802 72.9173 81.8899 72.7823 81.9996C72.3772 82.3456 71.9722 82.6915 71.5671 83.0206C71.4237 83.1388 71.2802 83.2569 71.1367 83.3666C71.2211 83.24 71.3139 83.1135 71.3983 82.9784C76.6134 75.0546 77.2463 62.7934 77.3222 61.9327C77.3306 61.8989 77.3306 61.882 77.3306 61.882L77.4066 61.7301C77.6007 61.342 77.7948 60.9453 77.9804 60.5487C77.9889 60.5318 77.9973 60.515 78.0057 60.4981C78.2251 60.0171 78.4361 59.5361 78.6302 59.0551C78.6471 59.0129 78.6639 58.9623 78.6808 58.9201C78.8665 58.456 79.0437 57.9918 79.2125 57.5109C79.2378 57.4265 79.2715 57.3421 79.2968 57.2493C79.4065 56.937 79.5078 56.6164 79.6091 56.3041C79.6428 56.186 79.6935 56.0679 79.7272 55.9497C79.7694 55.8147 79.8031 55.6797 79.8369 55.5447C79.8622 55.4603 79.8875 55.3675 79.9129 55.2831C80.0057 54.9793 80.0901 54.6755 80.166 54.3633C80.2082 54.2029 80.242 54.0342 80.2841 53.8738C80.3685 53.5025 80.4614 53.1312 80.5373 52.7599C80.5711 52.5827 80.6048 52.4055 80.6386 52.2283C80.6639 52.0849 80.6892 51.9498 80.7145 51.8148C80.7567 51.587 80.7989 51.3676 80.8327 51.1482C80.858 50.9794 80.8833 50.8106 80.9002 50.6419C80.9592 50.2706 81.0099 49.8993 81.0521 49.528C81.0774 49.3423 81.0858 49.1567 81.1027 48.9626C81.1364 48.6082 81.1786 48.2537 81.204 47.8909C81.2124 47.7137 81.2208 47.528 81.2293 47.3508C81.2377 47.2495 81.2377 47.1567 81.2462 47.0639C81.263 46.7939 81.2799 46.5238 81.2799 46.2538C81.2883 46.085 81.2799 45.9163 81.2799 45.7559C81.2883 45.4353 81.2883 45.1146 81.2799 44.7939C81.2799 44.7264 81.2799 44.6673 81.2799 44.6083C81.2799 44.4564 81.263 44.3129 81.263 44.161C81.2546 43.8404 81.2377 43.5282 81.2208 43.2075C81.2124 43.1231 81.2124 43.0387 81.2124 42.9543V42.9459C81.0183 40.0515 80.4698 37.157 79.55 34.3639C78.858 32.2458 77.9889 30.2374 76.9678 28.3472C76.1493 26.8367 75.2379 25.4105 74.2337 24.0604C72.3856 21.571 70.2338 19.3601 67.8457 17.4614C67.7951 17.4192 67.7444 17.3855 67.6938 17.3433C67.2972 17.0226 66.8837 16.7188 66.4702 16.415C67.1031 16.7695 67.8541 17.1998 68.7064 17.7061C74.4109 21.0984 84.3093 27.748 89.4062 35.579C89.6594 35.9925 89.9041 36.3807 90.1235 36.7689Z" fill="url(#paint4_linear)"/>
<path d="M88.7234 31.3935C89.3057 33.1824 89.7698 34.9714 90.1243 36.7688C84.6139 27.2586 71.5678 19.2926 66.471 16.4403C64.9942 15.3686 63.4331 14.4151 61.8129 13.5881C61.7707 13.5628 61.72 13.5459 61.6779 13.5206C61.3319 13.3434 60.9859 13.1746 60.6399 13.0143C60.353 12.8792 60.0661 12.7527 59.7792 12.6261C59.7117 12.5923 59.6357 12.567 59.5682 12.5333C58.8172 12.2126 58.0493 11.9088 57.2729 11.6388C55.0029 10.8455 52.6486 10.2717 50.2352 9.95106C50.2267 9.95106 50.2267 9.95106 50.2267 9.95106C50.0748 9.92574 49.9314 9.90886 49.771 9.89198C49.7626 9.89198 49.7626 9.89198 49.7542 9.89198C45.7627 9.41098 41.6447 9.59664 37.5436 10.5333C36.9613 10.6768 36.6406 10.7527 36.6406 10.7527C42.6236 8.65995 51.3828 6.28028 64.125 3.98499C65.4161 4.56725 66.6819 5.20858 67.9055 5.90054C68.0068 5.95961 68.108 6.01868 68.2093 6.06931C69.146 6.60938 70.0658 7.18321 70.9687 7.79079C74.2766 10.027 77.2976 12.702 79.9305 15.7652C79.9305 15.7652 79.9305 15.7652 79.9389 15.7652C79.9895 15.8243 80.0402 15.8834 80.0908 15.9424C80.2427 16.1197 80.3946 16.2969 80.538 16.4741C80.5718 16.5163 80.5971 16.55 80.6309 16.5922C80.6562 16.626 80.6899 16.6597 80.7153 16.6935L80.9009 16.9213C80.9937 17.031 81.0781 17.1492 81.1709 17.2589C81.3144 17.4361 81.4494 17.6133 81.5929 17.7989C81.6435 17.8749 81.7026 17.9508 81.7616 18.0183C81.7785 18.0436 81.8038 18.069 81.8207 18.0943C81.8629 18.1449 81.8967 18.204 81.9388 18.2546C82.1414 18.5246 82.3439 18.8031 82.538 19.0816C82.5802 19.1322 82.6139 19.1828 82.6477 19.2335C82.6814 19.2841 82.7236 19.3347 82.7574 19.3854C82.7911 19.436 82.8249 19.4866 82.8586 19.5373C82.9093 19.6048 82.9599 19.6723 83.0021 19.7482C83.0612 19.8326 83.1202 19.9254 83.1878 20.0183C83.2046 20.0436 83.2215 20.0773 83.2468 20.1027C83.4409 20.398 83.6266 20.7018 83.8206 20.9971C83.9472 21.1912 84.0738 21.3853 84.1919 21.5794C84.2426 21.6638 84.2932 21.7482 84.3438 21.841C84.4282 21.976 84.5126 22.1195 84.5886 22.2629C84.6898 22.4317 84.7995 22.6089 84.9008 22.7861C85.0695 23.073 85.2299 23.3684 85.3902 23.6637C85.4746 23.8156 85.5506 23.9675 85.6349 24.1194C85.694 24.2207 85.7446 24.3219 85.7953 24.4232C85.8206 24.4738 85.8543 24.5245 85.8712 24.5751C85.9219 24.6595 85.964 24.7523 86.0062 24.8367C86.04 24.8958 86.0653 24.9548 86.0991 25.0139C86.0991 25.0139 86.0991 25.0139 86.0991 25.0223C86.1075 25.0308 86.1075 25.0308 86.1075 25.0477C86.1834 25.1995 86.2594 25.3514 86.3269 25.5033C86.3944 25.6468 86.4619 25.7902 86.5379 25.9337C86.5379 25.9421 86.5463 25.9506 86.5547 25.959C86.5547 25.9675 86.5632 25.9843 86.5716 25.9928C86.6138 26.0772 86.656 26.17 86.6982 26.2544C86.7235 26.3134 86.7573 26.3725 86.7826 26.4316C86.7995 26.4738 86.8248 26.5244 86.8417 26.5666C86.8923 26.6763 86.9429 26.786 86.9936 26.9041C87.0273 26.9885 87.0611 27.0729 87.1032 27.1489C87.137 27.2248 87.1708 27.3008 87.2045 27.3851C87.2636 27.5286 87.3311 27.672 87.3902 27.8239C87.6011 28.3218 87.8037 28.8281 87.9977 29.3429C88.0568 29.5032 88.1243 29.6635 88.1749 29.8154C88.369 30.3386 88.5462 30.8618 88.7234 31.3935Z" fill="url(#paint5_linear)"/>
<path d="M64.1329 3.99343C51.3907 6.28872 42.6314 8.66839 36.6485 10.7612C35.889 10.9552 35.138 11.1747 34.3785 11.4194C33.8047 11.605 33.2477 11.8075 32.6908 12.0185C23.6025 15.4868 16.6744 22.3473 12.8939 30.6593C11.5859 33.5284 10.6493 36.5579 10.1345 39.6886C10.0332 40.2961 9.94886 40.9037 9.88135 41.5197C8.58181 27.4442 11.9657 17.5458 15.4339 11.3603C16.0415 10.8202 16.6744 10.297 17.3157 9.79072C17.3157 9.78228 17.3157 9.78229 17.3157 9.78229C18.6912 8.69372 20.1342 7.68108 21.6532 6.7444C24.1594 5.20858 26.8429 3.89217 29.7035 2.84579C30.328 2.60951 30.9693 2.39011 31.6191 2.18758C42.758 -1.38193 54.2513 -0.445253 64.1329 3.99343Z" fill="url(#paint6_linear)"/>
<path d="M11.8477 57.4854L11.8562 57.5023C11.9743 57.8652 12.1009 58.2196 12.219 58.5656C12.2444 58.6331 12.2697 58.709 12.3034 58.785C12.3709 58.9791 12.4469 59.1816 12.5228 59.3672C12.5566 59.4685 12.5988 59.5613 12.6325 59.6542C12.7 59.8314 12.776 60.0086 12.8435 60.1774C12.8857 60.2786 12.9279 60.3799 12.9701 60.4811C13.0376 60.6499 13.122 60.8187 13.1895 60.9874C13.2317 61.0803 13.2823 61.1815 13.3161 61.2744C13.4342 61.5275 13.5523 61.7807 13.6789 62.0254C13.7464 62.1604 13.8224 62.3039 13.8983 62.4389C13.9743 62.5823 14.0418 62.7174 14.1177 62.8524C14.219 63.038 14.3287 63.2237 14.4299 63.4009C14.4806 63.4853 14.5312 63.5697 14.5818 63.654C15.9573 66 17.5775 68.1518 19.4003 70.0758C20.5563 71.4091 21.8728 72.7424 23.3495 74.0419C23.9487 74.5735 24.5815 75.0967 25.2397 75.6031C17.3075 70.6581 6.91963 62.8186 0.818542 54.0509C0.818542 54.0256 0.8101 54.0088 0.801661 53.9834C0.75103 53.7303 0.70884 53.4687 0.666647 53.2155C0.632893 53.013 0.590698 52.8105 0.565382 52.608C0.514751 52.3295 0.480995 52.0426 0.438803 51.7641C0.413487 51.5953 0.388176 51.4266 0.371299 51.2578C0.329106 50.9456 0.295348 50.6333 0.261593 50.3211C0.244716 50.1861 0.236282 50.0595 0.219405 49.9329C0.18565 49.5785 0.151895 49.2241 0.12658 48.8697C0.12658 48.8443 0.126578 48.8106 0.118139 48.7853C0.118139 48.7431 0.118138 48.7009 0.109699 48.6671C0.0759448 48.2368 0.0506322 47.798 0.033755 47.3676C0.033755 47.2579 0.0253147 47.1398 0.0253147 47.0301C0.0168761 46.6503 0.00843857 46.2622 0 45.8824C0 45.739 0 45.5871 0 45.4436C0 45.0976 -2.83239e-06 44.7516 0.0168743 44.3972C0.0168743 44.2285 0.0253165 44.0597 0.033755 43.8825C0.0421936 43.5618 0.0590669 43.2411 0.075944 42.912C0.0843826 42.7264 0.10126 42.5407 0.109699 42.3551C0.135015 42.0429 0.160334 41.7391 0.185649 41.4353C0.202527 41.2412 0.219402 41.0471 0.236279 40.853C0.270033 40.5492 0.30379 40.2454 0.337544 39.9417C0.36286 39.7476 0.38817 39.5535 0.405048 39.3594C0.44724 39.0387 0.506315 38.7181 0.548508 38.389C0.573824 38.2202 0.599138 38.0514 0.632892 37.8827C0.717278 37.3932 0.801664 36.9122 0.902926 36.4228C1.0295 35.7983 1.17296 35.1907 1.32485 34.5747C1.35861 34.4228 1.40924 34.2709 1.44299 34.1191C1.56113 33.6718 1.67927 33.2246 1.80585 32.7773C1.8818 32.5157 1.96619 32.2541 2.05057 31.9841C2.15183 31.6634 2.2531 31.3343 2.35436 31.0221C2.4725 30.6761 2.59908 30.3386 2.71722 30.001C2.79317 29.7985 2.85224 29.596 2.92818 29.3935C2.93662 29.3597 2.9535 29.3259 2.97037 29.3006C3.08007 29.0137 3.18978 28.7352 3.30792 28.4483C3.36699 28.3049 3.42606 28.153 3.49357 28.0095C3.56951 27.8239 3.64546 27.6298 3.7214 27.4526C3.88174 27.0729 4.05895 26.7016 4.23616 26.3303C4.34586 26.1024 4.44713 25.8746 4.55683 25.6467C4.69184 25.3767 4.8353 25.1067 4.97031 24.8366C5.426 23.9421 5.89856 23.0645 6.41331 22.1954C6.41331 22.1869 6.41331 22.1869 6.42175 22.1869C6.91119 21.3684 7.42594 20.5583 7.96601 19.7651C8.05039 19.6469 8.13478 19.5203 8.21916 19.4022C8.75079 18.6427 9.30774 17.9001 9.88156 17.1744C10.0335 16.9803 10.1854 16.7862 10.3457 16.6006C10.4301 16.4993 10.506 16.4065 10.5904 16.3137C10.9533 15.8749 11.3246 15.4445 11.7043 15.0226C12.565 14.069 13.468 13.1408 14.4131 12.2632C14.7422 11.9509 15.0797 11.6472 15.4173 11.3518C11.949 17.5373 8.56515 27.4357 9.86469 41.5112C9.64528 43.4352 9.57777 45.393 9.68747 47.3676C9.68747 47.4014 9.68747 47.4351 9.68747 47.4689C9.68747 47.5701 9.69591 47.6798 9.71279 47.7811C9.72967 48.1355 9.76342 48.4815 9.79718 48.8359C9.85625 49.2072 9.92375 49.5785 9.99126 49.9498C10.0166 50.0848 10.0419 50.2198 10.0672 50.3549C10.1178 50.608 10.16 50.8612 10.2191 51.1059C10.2444 51.2409 10.2697 51.3759 10.295 51.5109C10.3626 51.8485 10.4301 52.1776 10.506 52.5067C10.5398 52.6586 10.5735 52.8105 10.6073 52.9708C10.6579 53.1902 10.7085 53.4012 10.7592 53.6206C10.7929 53.7725 10.8351 53.9244 10.8689 54.0763C10.9533 54.4054 11.0376 54.726 11.122 55.0551C11.1473 55.1648 11.1811 55.2745 11.2064 55.3842C11.2739 55.6374 11.3499 55.8906 11.4174 56.1353C11.4511 56.2534 11.4849 56.3716 11.5186 56.4897C11.6368 56.8272 11.738 57.1648 11.8477 57.4854Z" fill="url(#paint7_linear)"/>
<path d="M48.2601 84.1936C46.6483 84.9446 45.121 85.6028 43.7202 86.1597C41.8384 86.9108 40.0831 87.5352 38.5051 88.0415C37.2731 88.4466 36.1508 88.7757 35.1803 89.0542C34.674 89.1976 34.2015 89.3242 33.7711 89.4339C33.712 89.417 33.6445 89.4002 33.577 89.3833C33.5433 89.3748 33.5179 89.3664 33.4842 89.358C33.3998 89.3411 33.3154 89.3158 33.231 89.2904C32.6403 89.1301 32.0496 88.9529 31.4674 88.7588C28.7923 87.8897 26.2017 86.7758 23.7376 85.434C16.7674 81.6451 10.7676 76.025 6.53985 68.9873C4.79306 66.0844 3.34163 62.9453 2.24461 59.5951C2.09272 59.131 1.94927 58.6585 1.81425 58.1943C1.76362 58.034 1.72142 57.8652 1.67079 57.6965C1.5864 57.3927 1.50202 57.0973 1.42608 56.7935C1.37545 56.591 1.32481 56.3801 1.27418 56.1691C1.21511 55.9075 1.1476 55.6543 1.08853 55.3927C1.0379 55.1649 0.98727 54.9286 0.936638 54.6923C0.894446 54.4814 0.852251 54.2704 0.810059 54.0594C6.91114 62.8271 17.299 70.6665 25.2313 75.6115C25.3747 75.7212 25.5182 75.8309 25.6616 75.9322C28.6742 78.2022 32.269 80.2443 36.5389 81.7464C37.4166 82.0586 38.3279 82.3455 39.2646 82.6071C40.311 82.894 41.3827 83.1556 42.4966 83.375C44.3362 83.7632 46.2517 84.0332 48.2601 84.1936Z" fill="url(#paint8_linear)"/>
<path d="M25.2568 75.6199C17.3246 70.6749 6.93669 62.8355 0.83561 54.0679C0.83561 54.0425 0.827174 54.0257 0.818736 54.0003C0.768104 53.7472 0.725908 53.4856 0.683715 53.2324C0.649961 53.0299 0.607773 52.8274 0.582457 52.6249C0.531825 52.3464 0.49807 52.0595 0.455877 51.781C0.430561 51.6122 0.405244 51.4435 0.388367 51.2747C0.346174 50.9625 0.0930195 50.0764 0.278668 50.338C9.71298 63.8228 12.2699 65.9156 23.375 74.0588C23.9657 74.5904 24.5986 75.1136 25.2568 75.6199Z" fill="url(#paint9_linear)"/>
<path opacity="0.5" d="M21.6453 6.75293C19.2994 8.53347 10.2955 16.972 9.87354 41.5198C8.574 27.4443 11.9579 17.5459 15.4261 11.3604C16.0337 10.8203 16.6666 10.2971 17.3079 9.79082C17.3079 9.78238 17.3079 9.78238 17.3079 9.78238C18.6834 8.69381 20.1264 7.68117 21.6453 6.75293Z" fill="url(#paint10_linear)"/>
<path opacity="0.5" d="M67.914 5.91739C59.5429 5.44483 41.7375 9.54596 37.5436 10.5502C36.9613 10.6936 36.6406 10.7696 36.6406 10.7696C42.6236 8.6768 51.3828 6.29712 64.125 4.00183C65.4246 4.57565 66.6819 5.21699 67.914 5.91739Z" fill="url(#paint11_linear)"/>
<path opacity="0.5" d="M90.1235 36.7688C90.5792 39.0979 90.8492 41.4269 90.9336 43.7391C90.9336 43.7813 90.9421 43.8235 90.9336 43.8657C86.0814 30.9293 73.0354 21.0056 67.6938 17.3601C67.2972 17.0395 66.8837 16.7357 66.4702 16.4319C67.1031 16.7863 67.8541 17.2167 68.7064 17.723C74.4109 21.1153 84.3093 27.7649 89.4062 35.5959C89.6594 35.9925 89.9041 36.3807 90.1235 36.7688Z" fill="url(#paint12_linear)"/>
<path d="M77.3306 61.941C77.2546 62.8018 76.6218 75.063 71.4067 82.9868C71.3223 83.1134 71.2295 83.2484 71.1451 83.375C70.4194 83.9573 69.6853 84.5226 68.9342 85.0627C68.9342 85.0711 68.9342 85.0711 68.9258 85.0711C68.4954 85.3918 68.0566 85.704 67.6094 86.0163C67.6094 86.0163 67.6009 86.0163 67.6009 86.0247C66.909 86.5057 66.217 86.9698 65.5166 87.4339C74.4109 77.8055 77.1618 62.8946 77.3306 61.941Z" fill="url(#paint13_linear)"/>
<path opacity="0.26" d="M114.731 124.969C114.731 130.58 93.7691 135.129 67.9134 135.129C42.0576 135.129 21.0962 130.58 21.0962 124.969C21.0962 119.357 42.0576 114.809 67.9134 114.809C93.7691 114.809 114.731 119.357 114.731 124.969Z" fill="url(#paint14_radial)"/>
<path d="M104.318 61.6711V64.5233H107.567V61.6711H108.444V68.4894H107.567V65.2912H104.318V68.4894H103.449V61.6711H104.318Z" fill="#BABCBE"/>
<path d="M119.12 65.2996H116.512V67.7552H119.424V68.4978H115.643V61.6794H119.272V62.422H116.512V64.5739H119.12V65.2996Z" fill="#BABCBE"/>
<path d="M126.242 61.6711H127.111V67.7553H129.98V68.4979H126.242V61.6711Z" fill="#BABCBE"/>
<path d="M136.637 61.7555C137.059 61.688 137.608 61.6205 138.3 61.6205C139.16 61.6205 139.785 61.823 140.181 62.1859C140.553 62.5065 140.772 63.0044 140.772 63.612C140.772 64.228 140.595 64.7174 140.257 65.0719C139.802 65.5697 139.051 65.8229 138.207 65.8229C137.945 65.8229 137.709 65.8145 137.506 65.7638V68.4979H136.637V61.7555ZM137.506 65.0465C137.692 65.0972 137.937 65.114 138.224 65.114C139.27 65.114 139.911 64.5993 139.911 63.6542C139.911 62.7513 139.287 62.3209 138.325 62.3209C137.945 62.3209 137.658 62.3546 137.506 62.3884V65.0465Z" fill="#BABCBE"/>
<path d="M156.485 68.4978V65.6034L154.358 61.6794H155.346L156.291 63.5612C156.552 64.076 156.747 64.4895 156.957 64.9705H156.974C157.16 64.5232 157.396 64.076 157.649 63.5612L158.62 61.6794H159.607L157.354 65.5949V68.4978H156.485Z" fill="#BABCBE"/>
<path d="M171.455 65.0127C171.455 67.3586 170.054 68.6075 168.333 68.6075C166.56 68.6075 165.312 67.2067 165.312 65.1477C165.312 62.979 166.636 61.5613 168.434 61.5613C170.265 61.5613 171.455 62.9875 171.455 65.0127ZM166.24 65.1224C166.24 66.5823 167.016 67.8818 168.383 67.8818C169.759 67.8818 170.535 66.5992 170.535 65.0465C170.535 63.6879 169.835 62.2702 168.392 62.2702C166.957 62.2786 166.24 63.6288 166.24 65.1224Z" fill="#BABCBE"/>
<path d="M179.143 61.6711V65.7132C179.143 67.2405 179.81 67.8903 180.704 67.8903C181.7 67.8903 182.341 67.2237 182.341 65.7132V61.6711H183.219V65.6457C183.219 67.7384 182.13 68.5991 180.679 68.5991C179.304 68.5991 178.266 67.7975 178.266 65.6878V61.6711H179.143Z" fill="#BABCBE"/>
<path d="M190.425 61.7639C190.864 61.6711 191.489 61.6205 192.088 61.6205C193.016 61.6205 193.615 61.7893 194.029 62.1774C194.366 62.4812 194.56 62.9453 194.56 63.477C194.56 64.3799 194.003 64.9706 193.294 65.2153V65.2491C193.809 65.4347 194.121 65.9157 194.282 66.6246C194.501 67.5781 194.661 68.2363 194.796 68.4979H193.902C193.792 68.3038 193.64 67.7216 193.455 66.8693C193.252 65.9242 192.898 65.5697 192.113 65.5444H191.294V68.4979H190.425V61.7639ZM191.286 64.8693H192.172C193.1 64.8693 193.691 64.3546 193.691 63.5698C193.691 62.6922 193.067 62.304 192.147 62.2956C191.725 62.2956 191.429 62.3378 191.286 62.38V64.8693Z" fill="#BABCBE"/>
<path d="M209.285 61.7639C209.665 61.6796 210.264 61.6205 210.872 61.6205C211.741 61.6205 212.298 61.7724 212.711 62.1184C213.057 62.38 213.268 62.785 213.268 63.3251C213.268 63.9833 212.838 64.5571 212.129 64.8271V64.844C212.77 65.0044 213.513 65.5444 213.513 66.557C213.513 67.1477 213.285 67.5866 212.948 67.9241C212.483 68.3629 211.724 68.5654 210.627 68.5654C210.028 68.5654 209.572 68.5232 209.285 68.481V61.7639ZM210.154 64.5571H210.939C211.859 64.5571 212.391 64.0677 212.391 63.4095C212.391 62.6078 211.791 62.2956 210.914 62.2956C210.517 62.2956 210.289 62.3293 210.146 62.3546V64.5571H210.154ZM210.154 67.8228C210.323 67.8566 210.576 67.865 210.88 67.865C211.775 67.865 212.602 67.5275 212.602 66.5402C212.602 65.6119 211.817 65.2238 210.872 65.2238H210.154V67.8228Z" fill="#BABCBE"/>
<path d="M221.252 61.6711V65.7132C221.252 67.2405 221.918 67.8903 222.813 67.8903C223.809 67.8903 224.45 67.2237 224.45 65.7132V61.6711H225.327V65.6457C225.327 67.7384 224.239 68.5991 222.787 68.5991C221.412 68.5991 220.374 67.7975 220.374 65.6878V61.6711H221.252Z" fill="#BABCBE"/>
<path d="M232.407 67.4261C232.795 67.6708 233.36 67.8734 233.96 67.8734C234.846 67.8734 235.369 67.4008 235.369 66.7088C235.369 66.076 235.006 65.7047 234.103 65.3502C233.006 64.9536 232.331 64.3798 232.331 63.4178C232.331 62.3546 233.2 61.5698 234.5 61.5698C235.183 61.5698 235.69 61.7301 235.985 61.9073L235.749 62.6246C235.529 62.5064 235.082 62.3039 234.474 62.3039C233.555 62.3039 233.209 62.8609 233.209 63.325C233.209 63.9663 233.614 64.2785 234.542 64.6414C235.681 65.0886 236.255 65.6456 236.255 66.6413C236.255 67.6962 235.487 68.6075 233.901 68.6075C233.251 68.6075 232.542 68.4134 232.188 68.1687L232.407 67.4261Z" fill="#BABCBE"/>
<path d="M243.014 67.4261C243.402 67.6708 243.968 67.8734 244.567 67.8734C245.453 67.8734 245.976 67.4008 245.976 66.7088C245.976 66.076 245.613 65.7047 244.71 65.3502C243.613 64.9536 242.938 64.3798 242.938 63.4178C242.938 62.3546 243.808 61.5698 245.107 61.5698C245.791 61.5698 246.297 61.7301 246.592 61.9073L246.356 62.6246C246.137 62.5064 245.689 62.3039 245.082 62.3039C244.162 62.3039 243.816 62.8609 243.816 63.325C243.816 63.9663 244.221 64.2785 245.149 64.6414C246.288 65.0886 246.862 65.6456 246.862 66.6413C246.862 67.6962 246.094 68.6075 244.508 68.6075C243.858 68.6075 243.149 68.4134 242.795 68.1687L243.014 67.4261Z" fill="#BABCBE"/>
<path d="M254.609 61.6711V68.4894H253.74V61.6711H254.609Z" fill="#BABCBE"/>
<path d="M261.815 68.4978V61.6794H262.76L264.912 65.1308C265.41 65.9325 265.798 66.6498 266.119 67.3502L266.136 67.3417C266.06 66.4303 266.034 65.6034 266.034 64.5401V61.6879H266.853V68.5062H265.975L263.84 65.0464C263.376 64.287 262.92 63.5106 262.583 62.768L262.549 62.7765C262.6 63.6372 262.617 64.4557 262.617 65.5865V68.4978H261.815Z" fill="#BABCBE"/>
<path d="M277.554 65.2996H274.946V67.7552H277.858V68.4978H274.077V61.6794H277.706V62.422H274.946V64.5739H277.554V65.2996Z" fill="#BABCBE"/>
<path d="M284.549 67.4261C284.937 67.6708 285.503 67.8734 286.102 67.8734C286.988 67.8734 287.511 67.4008 287.511 66.7088C287.511 66.076 287.148 65.7047 286.245 65.3502C285.148 64.9536 284.473 64.3798 284.473 63.4178C284.473 62.3546 285.342 61.5698 286.642 61.5698C287.325 61.5698 287.832 61.7301 288.127 61.9073L287.891 62.6246C287.671 62.5064 287.224 62.3039 286.616 62.3039C285.697 62.3039 285.351 62.8609 285.351 63.325C285.351 63.9663 285.756 64.2785 286.684 64.6414C287.823 65.0886 288.397 65.6456 288.397 66.6413C288.397 67.6962 287.629 68.6075 286.043 68.6075C285.393 68.6075 284.684 68.4134 284.33 68.1687L284.549 67.4261Z" fill="#BABCBE"/>
<path d="M295.156 67.4261C295.545 67.6708 296.11 67.8734 296.709 67.8734C297.595 67.8734 298.118 67.4008 298.118 66.7088C298.118 66.076 297.756 65.7047 296.853 65.3502C295.756 64.9536 295.08 64.3798 295.08 63.4178C295.08 62.3546 295.95 61.5698 297.249 61.5698C297.933 61.5698 298.439 61.7301 298.734 61.9073L298.498 62.6246C298.279 62.5064 297.831 62.3039 297.224 62.3039C296.304 62.3039 295.958 62.8609 295.958 63.325C295.958 63.9663 296.363 64.2785 297.291 64.6414C298.431 65.0886 299.004 65.6456 299.004 66.6413C299.004 67.6962 298.236 68.6075 296.65 68.6075C296 68.6075 295.291 68.4134 294.937 68.1687L295.156 67.4261Z" fill="#BABCBE"/>
<defs>
<linearGradient id="paint0_linear" x1="46.6556" y1="116.969" x2="80.5372" y2="105.918" gradientUnits="userSpaceOnUse">
<stop stop-color="#6A007C"/>
<stop offset="1" stop-color="#A9004A"/>
</linearGradient>
<linearGradient id="paint1_linear" x1="46.6556" y1="116.969" x2="80.5372" y2="105.918" gradientUnits="userSpaceOnUse">
<stop stop-color="#6A007C"/>
<stop offset="1" stop-color="#A9004A"/>
</linearGradient>
<linearGradient id="paint2_linear" x1="40.8615" y1="102.719" x2="80.9323" y2="89.6482" gradientUnits="userSpaceOnUse">
<stop stop-color="#6A007C"/>
<stop offset="1" stop-color="#A9004A"/>
</linearGradient>
<linearGradient id="paint3_linear" x1="40.8615" y1="102.719" x2="80.9323" y2="89.6482" gradientUnits="userSpaceOnUse">
<stop stop-color="#6A007C"/>
<stop offset="1" stop-color="#A9004A"/>
</linearGradient>
<linearGradient id="paint4_linear" x1="71.8888" y1="77.5044" x2="77.5874" y2="40.143" gradientUnits="userSpaceOnUse">
<stop stop-color="#9600AA"/>
<stop offset="1" stop-color="#9600AA"/>
</linearGradient>
<linearGradient id="paint5_linear" x1="83.8162" y1="42.317" x2="47.6146" y2="1.12047" gradientUnits="userSpaceOnUse">
<stop stop-color="#0792CF"/>
<stop offset="1" stop-color="#0792CF"/>
</linearGradient>
<linearGradient id="paint6_linear" x1="54.4434" y1="4.54791" x2="21.1445" y2="21.3353" gradientUnits="userSpaceOnUse">
<stop offset="0.3086" stop-color="#9CD538"/>
<stop offset="1" stop-color="#9CD538"/>
</linearGradient>
<linearGradient id="paint7_linear" x1="36.7541" y1="65.519" x2="0.605813" y2="24.383" gradientUnits="userSpaceOnUse">
<stop stop-color="#FBD538"/>
<stop offset="1" stop-color="#FBD538"/>
</linearGradient>
<linearGradient id="paint8_linear" x1="39.9914" y1="91.4653" x2="4.38648" y2="50.9477" gradientUnits="userSpaceOnUse">
<stop stop-color="#FE1F27"/>
<stop offset="0.7169" stop-color="#FE1F27"/>
</linearGradient>
<linearGradient id="paint9_linear" x1="4.59543" y1="65.6151" x2="20.318" y2="60.4867" gradientUnits="userSpaceOnUse">
<stop stop-color="#FBD538"/>
<stop offset="1" stop-color="#FBD538"/>
</linearGradient>
<linearGradient id="paint10_linear" x1="5.31625" y1="27.5442" x2="26.2059" y2="20.7304" gradientUnits="userSpaceOnUse">
<stop stop-color="#33A668"/>
<stop offset="0.1641" stop-color="#3CAA64"/>
<stop offset="0.4352" stop-color="#55B558"/>
<stop offset="0.7777" stop-color="#7EC846"/>
<stop offset="1" stop-color="#9CD538"/>
</linearGradient>
<linearGradient id="paint11_linear" x1="37.4282" y1="13.1705" x2="67.1215" y2="3.48509" gradientUnits="userSpaceOnUse">
<stop stop-color="#0792CF"/>
<stop offset="1" stop-color="#0792CF"/>
</linearGradient>
<linearGradient id="paint12_linear" x1="71.6965" y1="32.4439" x2="87.0789" y2="27.4265" gradientUnits="userSpaceOnUse">
<stop stop-color="#9600AA"/>
<stop offset="1" stop-color="#2995CF"/>
</linearGradient>
<linearGradient id="paint13_linear" x1="62.3343" y1="77.6443" x2="80.5196" y2="71.7126" gradientUnits="userSpaceOnUse">
<stop stop-color="#A9004A"/>
<stop offset="1" stop-color="#6A007C"/>
</linearGradient>
<radialGradient id="paint14_radial" cx="0" cy="0" r="1" gradientUnits="userSpaceOnUse" gradientTransform="translate(67.9132 124.966) scale(46.8134 10.1595)">
<stop offset="0.0049505" stop-color="white"/>
<stop offset="1" stop-color="white" stop-opacity="0"/>
</radialGradient>
</defs>
</svg>
