<svg width="67" height="67" viewBox="0 0 67 67" fill="none" xmlns="http://www.w3.org/2000/svg">
<g clip-path="url(#clip0)">
<path d="M33.5 0C26.8743 0 20.3975 1.96474 14.8884 5.64577C9.37936 9.3268 5.08559 14.5588 2.55005 20.6801C0.0145149 26.8014 -0.648897 33.5372 0.643708 40.0355C1.93631 46.5339 5.12688 52.503 9.81194 57.1881C14.497 61.8731 20.4661 65.0637 26.9645 66.3563C33.4629 67.6489 40.1986 66.9855 46.3199 64.45C52.4412 61.9144 57.6732 57.6207 61.3542 52.1116C65.0353 46.6026 67 40.1257 67 33.5C67 24.6152 63.4706 16.0944 57.1881 9.81192C50.9056 3.52945 42.3848 0 33.5 0V0ZM33.5 62.8125C27.7026 62.8125 22.0353 61.0934 17.2149 57.8725C12.3944 54.6516 8.63739 50.0736 6.4188 44.7174C4.2002 39.3613 3.61972 33.4675 4.75075 27.7814C5.88178 22.0953 8.67352 16.8724 12.7729 12.7729C16.8724 8.67351 22.0954 5.88176 27.7814 4.75073C33.4675 3.6197 39.3613 4.20019 44.7174 6.41878C50.0736 8.63737 54.6516 12.3944 57.8725 17.2148C61.0934 22.0353 62.8125 27.7025 62.8125 33.5C62.8125 41.2742 59.7242 48.7299 54.2271 54.2271C48.7299 59.7242 41.2742 62.8125 33.5 62.8125Z" fill="#C60B2C"/>
<path d="M33.5 37.6875C22.9056 37.6875 18.7181 42.5869 12.5625 50.25H13.0231C18.4987 44.9043 25.8476 41.9118 33.5 41.9118C41.1524 41.9118 48.5013 44.9043 53.9769 50.25H54.4375C48.2819 42.5869 44.0944 37.6875 33.5 37.6875Z" fill="#C60B2C"/>
<path d="M25.125 29.3125C27.4377 29.3125 29.3125 26.5003 29.3125 23.0312C29.3125 19.5622 27.4377 16.75 25.125 16.75C22.8123 16.75 20.9375 19.5622 20.9375 23.0312C20.9375 26.5003 22.8123 29.3125 25.125 29.3125Z" fill="#C60B2C"/>
<path d="M41.875 29.3125C44.1877 29.3125 46.0625 26.5003 46.0625 23.0312C46.0625 19.5622 44.1877 16.75 41.875 16.75C39.5623 16.75 37.6875 19.5622 37.6875 23.0312C37.6875 26.5003 39.5623 29.3125 41.875 29.3125Z" fill="#C60B2C"/>
</g>
<defs>
<clipPath id="clip0">
<rect width="67" height="67" fill="white"/>
</clipPath>
</defs>
</svg>
