<?xml version="1.0" encoding="utf-8"?>
<!-- Generator: Adobe Illustrator 24.3.0, SVG Export Plug-In . SVG Version: 6.00 Build 0)  -->
<svg version="1.2" baseProfile="tiny" id="Layer_1" xmlns="http://www.w3.org/2000/svg" xmlns:xlink="http://www.w3.org/1999/xlink"
	 x="0px" y="0px" width="283.46px" height="283.46px" viewBox="0 0 283.46 283.46" xml:space="preserve">
<path fill="#FFFFFF" d="M199.7,283.4H74.3c-41,0-74.3-32.5-74.3-72.6V88.3c0-40.1,33.3-72.6,74.3-72.6h125.4
	c41.1,0,74.3,32.5,74.3,72.6v122.5C274.1,250.9,240.8,283.4,199.7,283.4z"/>
<path fill="#007A6C" d="M199.7,267.6H74.3C33.3,267.6,0,235.1,0,195V72.5C0,32.4,33.3-0.1,74.3-0.1h125.4
	c41.1,0,74.3,32.5,74.3,72.6V195C274.1,235.1,240.8,267.6,199.7,267.6z"/>
<path fill="#FFFFFF" d="M67.5,77.3H50.2v121.6c0,9.6,7.8,17.4,17.4,17.4h121.6v-17.4H67.5V77.3z M206.5,42.5H102.3
	c-9.6,0-17.4,7.8-17.4,17.4v104.2c0,9.6,7.8,17.4,17.4,17.4h104.2c9.6,0,17.4-7.8,17.4-17.4V59.9C223.9,50.3,216.1,42.5,206.5,42.5z
	 M197.8,120.7H111v-17.4h86.9V120.7z M163.1,155.5H111v-17.4h52.1V155.5z M197.8,86H111V68.6h86.9V86z"/>
</svg>
