<?xml version="1.0" encoding="utf-8"?>
<!-- Generator: Adobe Illustrator 16.0.0, SVG Export Plug-In . SVG Version: 6.00 Build 0)  -->
<svg version="1.2" baseProfile="tiny" id="Layer_1" xmlns="http://www.w3.org/2000/svg" xmlns:xlink="http://www.w3.org/1999/xlink"
	 x="0px" y="0px" width="283.46px" height="283.46px" viewBox="0 0 283.46 283.46" xml:space="preserve">
<path fill="#FFFFFF" d="M201.568,269.35H84.824c-38.209,0-69.185-29.131-69.185-65.061V94.497c0-35.933,30.976-65.06,69.185-65.06
	h116.744c38.221,0,69.191,29.127,69.191,65.06v109.792C270.76,240.219,239.789,269.35,201.568,269.35z"/>
<path fill="#5D4137" d="M201.568,254.137H84.824c-38.209,0-69.185-29.129-69.185-65.061V79.29c0-35.936,30.976-65.059,69.185-65.059
	h116.744c38.221,0,69.191,29.123,69.191,65.059v109.786C270.76,225.008,239.789,254.137,201.568,254.137z"/>
<path fill="#FFFFFF" d="M171.354,150.898h-48.626l13.103,11.563l13.236,0.056l-9.914,0.056h19.733l0.111-0.104h-0.588
	L171.354,150.898z M177.89,145.061l18.932-16.925V80.904c0-3.252-2.664-5.885-5.846-5.885h-87.553c-3.213,0-5.829,2.589-5.829,5.845
	v47.854l18.511,16.342H177.89z M127.296,69.182l19.908-17.512l19.897,17.512H191c6.447,0,11.65,5.227,11.65,11.667v19.618
	l17.513,15.411v81.752c0,6.424-5.234,11.643-11.69,11.643H85.926c-6.487,0-11.691-5.219-11.691-11.643v-81.752l17.513-15.411V80.849
	c0-6.492,5.218-11.667,11.65-11.667H127.296L127.296,69.182z M158.449,69.182l-11.245-9.93l-11.255,9.93H158.449L158.449,69.182z
	 M202.658,108.152v15.505l8.757-7.78L202.658,108.152z M91.756,123.658v-15.505L83,115.878L91.756,123.658z M129.691,168.41
	l-40.854,35.025h116.742l-40.863-35.025H129.691z M212.501,201.824L212.501,201.824L212.501,201.824
	c1.119-1.07,1.833-2.577,1.833-4.234v-75.879l-46.7,40.957L212.501,201.824z M81.905,201.824l44.868-39.156l-46.685-40.957v75.879
	C80.088,199.247,80.786,200.754,81.905,201.824L81.905,201.824L81.905,201.824z M109.259,92.528v5.841h75.887v-5.841H109.259z
	 M109.259,110.04v5.838h75.887v-5.838H109.259z M109.259,127.548v5.842h75.887v-5.842H109.259z"/>
</svg>
