<?xml version="1.0" encoding="utf-8"?>
<!-- Generator: Adobe Illustrator 24.3.0, SVG Export Plug-In . SVG Version: 6.00 Build 0)  -->
<svg version="1.1" id="Layer_1" xmlns="http://www.w3.org/2000/svg" xmlns:xlink="http://www.w3.org/1999/xlink" x="0px" y="0px"
	 viewBox="0 0 294 19" style="enable-background:new 0 0 294 19;" xml:space="preserve">
<style type="text/css">
	.st0{fill:#FFFFFF;stroke:#000000;stroke-miterlimit:10;}
</style>
<path class="st0" d="M16.1,0.5V18h-4.1v-7.2h-8V18h-4V0.5h4v6.9h8V0.5H16.1z"/>
<path class="st0" d="M33.2,14.7V18H19.6V0.5h13.2v3.2h-9.2v3.8h8.1v3.1h-8.1v4.1H33.2z"/>
<path class="st0" d="M35.8,0.5h4v14.2h8.8V18H35.8V0.5z"/>
<path class="st0" d="M57.8,0.5c1.6,0,2.9,0.3,4,0.8c1.2,0.5,2,1.3,2.7,2.2c0.6,1,0.9,2.1,0.9,3.4c0,1.3-0.3,2.4-0.9,3.4
	c-0.6,0.9-1.5,1.7-2.7,2.2c-1.1,0.5-2.5,0.8-4,0.8h-3.5V18h-4V0.5H57.8z M57.6,9.9c1.2,0,2.1-0.3,2.8-0.8c0.6-0.5,0.9-1.3,0.9-2.3
	c0-1-0.3-1.7-0.9-2.3c-0.6-0.5-1.6-0.8-2.8-0.8h-3.3v6.1H57.6z"/>
<path class="st0" d="M82.8,11.8V18h-4v-6.3L72,0.5h4.3l4.7,7.8l4.7-7.8h4L82.8,11.8z"/>
<path class="st0" d="M98.4,18.3c-1.8,0-3.5-0.4-4.9-1.2c-1.5-0.8-2.6-1.9-3.4-3.2c-0.8-1.4-1.2-2.9-1.2-4.6c0-1.7,0.4-3.3,1.2-4.6
	c0.8-1.4,2-2.5,3.4-3.2c1.5-0.8,3.1-1.2,4.9-1.2c1.8,0,3.4,0.4,4.9,1.2c1.4,0.8,2.6,1.9,3.4,3.2c0.8,1.4,1.3,2.9,1.3,4.6
	c0,1.7-0.4,3.3-1.3,4.6c-0.8,1.4-2,2.4-3.4,3.2S100.2,18.3,98.4,18.3z M98.4,14.8c1,0,2-0.2,2.8-0.7c0.8-0.5,1.5-1.1,1.9-2
	c0.5-0.8,0.7-1.8,0.7-2.9c0-1.1-0.2-2.1-0.7-2.9c-0.5-0.8-1.1-1.5-1.9-2c-0.8-0.5-1.8-0.7-2.8-0.7c-1,0-2,0.2-2.8,0.7
	c-0.8,0.5-1.5,1.1-2,2c-0.5,0.8-0.7,1.8-0.7,2.9c0,1.1,0.2,2,0.7,2.9c0.5,0.9,1.1,1.5,2,2C96.4,14.6,97.3,14.8,98.4,14.8z"/>
<path class="st0" d="M118.1,18.3c-2.5,0-4.5-0.7-5.9-2.1c-1.4-1.4-2.1-3.4-2.1-5.9V0.5h4.1v9.6c0,3.1,1.3,4.7,3.9,4.7
	c1.3,0,2.2-0.4,2.9-1.1c0.7-0.8,1-2,1-3.6V0.5h4v9.8c0,2.6-0.7,4.5-2.1,5.9C122.6,17.6,120.6,18.3,118.1,18.3z"/>
<path class="st0" d="M140.6,18l-3.4-4.9H137h-3.5V18h-4.1V0.5h7.6c1.6,0,2.9,0.3,4,0.8c1.1,0.5,2,1.3,2.6,2.2s0.9,2.1,0.9,3.4
	s-0.3,2.4-0.9,3.4c-0.6,0.9-1.5,1.6-2.7,2.1l3.9,5.6H140.6z M140.5,6.9c0-1-0.3-1.7-0.9-2.3c-0.6-0.5-1.6-0.8-2.8-0.8h-3.3v6.1h3.3
	c1.2,0,2.1-0.3,2.8-0.8C140.2,8.6,140.5,7.8,140.5,6.9z"/>
<path class="st0" d="M166.5,8.9c1,0.3,1.8,0.8,2.3,1.6c0.6,0.7,0.9,1.6,0.9,2.7c0,1.5-0.6,2.7-1.8,3.5c-1.2,0.8-2.9,1.2-5.2,1.2
	h-9.1V0.5h8.6c2.1,0,3.8,0.4,4.9,1.2c1.2,0.8,1.7,1.9,1.7,3.3c0,0.8-0.2,1.6-0.6,2.3C167.8,8,167.2,8.5,166.5,8.9z M157.7,3.6v4.1h4
	c1,0,1.8-0.2,2.3-0.5c0.5-0.3,0.8-0.9,0.8-1.6c0-0.7-0.3-1.2-0.8-1.5c-0.5-0.3-1.3-0.5-2.3-0.5H157.7z M162.4,14.9
	c1.1,0,1.9-0.2,2.4-0.5c0.6-0.4,0.8-0.9,0.8-1.6c0-1.4-1.1-2.2-3.2-2.2h-4.7v4.3H162.4z"/>
<path class="st0" d="M179.9,18.3c-2.5,0-4.4-0.7-5.8-2.1c-1.4-1.4-2.1-3.4-2.1-5.9V0.5h4v9.6c0,3.1,1.3,4.7,3.9,4.7
	c1.3,0,2.2-0.4,2.9-1.1c0.7-0.8,1-2,1-3.6V0.5h4v9.8c0,2.6-0.7,4.5-2.1,5.9C184.4,17.6,182.4,18.3,179.9,18.3z"/>
<path class="st0" d="M197,18.3c-1.4,0-2.7-0.2-4-0.5c-1.3-0.4-2.3-0.9-3.1-1.5l1.4-3c0.8,0.5,1.6,1,2.7,1.3c1,0.3,2.1,0.5,3.1,0.5
	c1.1,0,2-0.2,2.6-0.5c0.5-0.4,0.8-0.8,0.8-1.4c0-0.4-0.2-0.8-0.5-1c-0.3-0.3-0.7-0.5-1.3-0.7c-0.5-0.2-1.2-0.4-2.1-0.6
	c-1.3-0.3-2.4-0.6-3.3-0.9c-0.9-0.3-1.6-0.8-2.2-1.5c-0.6-0.7-0.9-1.6-0.9-2.8c0-1,0.3-1.9,0.8-2.7c0.6-0.8,1.4-1.5,2.5-2
	c1.1-0.5,2.5-0.7,4.1-0.7c1.1,0,2.2,0.1,3.3,0.4c1.1,0.3,2,0.6,2.8,1.1l-1.3,3.1c-1.6-0.9-3.2-1.4-4.8-1.4c-1.1,0-2,0.2-2.5,0.5
	c-0.5,0.4-0.8,0.8-0.8,1.4s0.3,1.1,0.9,1.4c0.6,0.3,1.6,0.6,2.9,0.8c1.3,0.3,2.4,0.6,3.3,1c0.8,0.3,1.6,0.8,2.2,1.5
	c0.6,0.7,0.9,1.6,0.9,2.8c0,1-0.3,1.9-0.8,2.8c-0.6,0.8-1.4,1.5-2.5,2C199.9,18.1,198.6,18.3,197,18.3z"/>
<path class="st0" d="M212.3,18.3c-1.4,0-2.7-0.2-4-0.5c-1.3-0.4-2.3-0.9-3.1-1.5l1.4-3c0.8,0.5,1.6,1,2.7,1.3c1,0.3,2.1,0.5,3.1,0.5
	c1.2,0,2-0.2,2.6-0.5c0.6-0.4,0.8-0.8,0.8-1.4c0-0.4-0.2-0.8-0.5-1c-0.3-0.3-0.7-0.5-1.3-0.7c-0.5-0.2-1.2-0.4-2.1-0.6
	c-1.3-0.3-2.4-0.6-3.3-0.9c-0.9-0.3-1.6-0.8-2.2-1.5c-0.6-0.7-0.9-1.6-0.9-2.8c0-1,0.3-1.9,0.8-2.7c0.5-0.8,1.4-1.5,2.5-2
	c1.1-0.5,2.5-0.7,4.1-0.7c1.1,0,2.2,0.1,3.3,0.4c1.1,0.3,2,0.6,2.8,1.1l-1.3,3.1c-1.6-0.9-3.2-1.4-4.9-1.4c-1.1,0-2,0.2-2.5,0.5
	c-0.5,0.4-0.8,0.8-0.8,1.4s0.3,1.1,0.9,1.4c0.6,0.3,1.6,0.6,2.9,0.8c1.3,0.3,2.4,0.6,3.3,1c0.9,0.3,1.6,0.8,2.2,1.5
	c0.6,0.7,0.9,1.6,0.9,2.8c0,1-0.3,1.9-0.9,2.8c-0.6,0.8-1.4,1.5-2.5,2C215.3,18.1,213.9,18.3,212.3,18.3z"/>
<path class="st0" d="M221.9,0.5h4.1V18h-4.1V0.5z"/>
<path class="st0" d="M245.5,0.5V18h-3.3l-8.7-10.6V18h-4V0.5h3.3l8.7,10.6V0.5H245.5z"/>
<path class="st0" d="M262.6,14.7V18H249V0.5h13.2v3.2H253v3.8h8.1v3.1H253v4.1H262.6z"/>
<path class="st0" d="M270.9,18.3c-1.4,0-2.7-0.2-4-0.5c-1.3-0.4-2.3-0.9-3.1-1.5l1.4-3c0.8,0.5,1.6,1,2.7,1.3c1,0.3,2.1,0.5,3.1,0.5
	c1.1,0,2-0.2,2.5-0.5c0.5-0.4,0.8-0.8,0.8-1.4c0-0.4-0.2-0.8-0.5-1c-0.3-0.3-0.7-0.5-1.3-0.7c-0.5-0.2-1.2-0.4-2.1-0.6
	c-1.3-0.3-2.4-0.6-3.3-0.9c-0.9-0.3-1.6-0.8-2.2-1.5c-0.6-0.7-0.9-1.6-0.9-2.8c0-1,0.3-1.9,0.8-2.7c0.5-0.8,1.4-1.5,2.5-2
	c1.1-0.5,2.5-0.7,4.1-0.7c1.1,0,2.2,0.1,3.3,0.4c1.1,0.3,2,0.6,2.8,1.1l-1.3,3.1c-1.6-0.9-3.2-1.4-4.9-1.4c-1.1,0-2,0.2-2.5,0.5
	c-0.5,0.4-0.8,0.8-0.8,1.4s0.3,1.1,0.9,1.4c0.6,0.3,1.6,0.6,2.9,0.8c1.3,0.3,2.4,0.6,3.3,1c0.9,0.3,1.6,0.8,2.2,1.5
	c0.6,0.7,0.9,1.6,0.9,2.8c0,1-0.3,1.9-0.9,2.8c-0.5,0.8-1.4,1.5-2.5,2C273.9,18.1,272.5,18.3,270.9,18.3z"/>
<path class="st0" d="M286.2,18.3c-1.4,0-2.7-0.2-4-0.5c-1.3-0.4-2.3-0.9-3.1-1.5l1.4-3c0.8,0.5,1.6,1,2.7,1.3c1,0.3,2.1,0.5,3.1,0.5
	c1.1,0,2-0.2,2.5-0.5c0.6-0.4,0.8-0.8,0.8-1.4c0-0.4-0.2-0.8-0.5-1c-0.3-0.3-0.7-0.5-1.3-0.7c-0.5-0.2-1.2-0.4-2-0.6
	c-1.3-0.3-2.4-0.6-3.3-0.9c-0.8-0.3-1.6-0.8-2.2-1.5c-0.6-0.7-0.9-1.6-0.9-2.8c0-1,0.3-1.9,0.8-2.7c0.6-0.8,1.4-1.5,2.5-2
	c1.1-0.5,2.5-0.7,4.1-0.7c1.1,0,2.2,0.1,3.3,0.4c1.1,0.3,2,0.6,2.8,1.1l-1.3,3.1c-1.6-0.9-3.2-1.4-4.9-1.4c-1.1,0-2,0.2-2.5,0.5
	c-0.5,0.4-0.8,0.8-0.8,1.4s0.3,1.1,0.9,1.4c0.6,0.3,1.6,0.6,2.9,0.8c1.3,0.3,2.4,0.6,3.3,1c0.9,0.3,1.6,0.8,2.2,1.5
	c0.6,0.7,0.9,1.6,0.9,2.8c0,1-0.3,1.9-0.9,2.8c-0.5,0.8-1.4,1.5-2.5,2C289.2,18.1,287.8,18.3,286.2,18.3z"/>
</svg>
