<svg width="294" height="19" viewBox="0 0 294 19" fill="none" xmlns="http://www.w3.org/2000/svg">
<path d="M16.125 0.500011V18H12.075V10.825H4.12495V18H0.0749512V0.500011H4.12495V7.40001H12.075V0.500011H16.125Z" fill="white"/>
<path d="M33.1904 14.75V18H19.6404V0.500011H32.8654V3.75001H23.6654V7.55001H31.7904V10.7H23.6654V14.75H33.1904Z" fill="white"/>
<path d="M35.7878 0.500011H39.8378V14.7H48.6128V18H35.7878V0.500011Z" fill="white"/>
<path d="M57.8257 0.500011C59.3757 0.500011 60.7174 0.758345 61.8507 1.27501C63.0007 1.79168 63.8841 2.52501 64.5007 3.47501C65.1174 4.42501 65.4257 5.55001 65.4257 6.85001C65.4257 8.13335 65.1174 9.25835 64.5007 10.225C63.8841 11.175 63.0007 11.9083 61.8507 12.425C60.7174 12.925 59.3757 13.175 57.8257 13.175H54.3007V18H50.2507V0.500011H57.8257ZM57.6007 9.87501C58.8174 9.87501 59.7424 9.61668 60.3757 9.10001C61.0091 8.56668 61.3257 7.81668 61.3257 6.85001C61.3257 5.86668 61.0091 5.11668 60.3757 4.60001C59.7424 4.06668 58.8174 3.80001 57.6007 3.80001H54.3007V9.87501H57.6007Z" fill="white"/>
<path d="M82.7914 11.8V18H78.7414V11.75L71.9664 0.500011H76.2664L80.9414 8.27501L85.6164 0.500011H89.5914L82.7914 11.8Z" fill="white"/>
<path d="M98.3791 18.3C96.5624 18.3 94.9207 17.9083 93.4541 17.125C92.0041 16.3417 90.8624 15.2667 90.0291 13.9C89.2124 12.5167 88.8041 10.9667 88.8041 9.25001C88.8041 7.53334 89.2124 5.99168 90.0291 4.62501C90.8624 3.24168 92.0041 2.15835 93.4541 1.37501C94.9207 0.591679 96.5624 0.200012 98.3791 0.200012C100.196 0.200012 101.829 0.591679 103.279 1.37501C104.729 2.15835 105.871 3.24168 106.704 4.62501C107.537 5.99168 107.954 7.53334 107.954 9.25001C107.954 10.9667 107.537 12.5167 106.704 13.9C105.871 15.2667 104.729 16.3417 103.279 17.125C101.829 17.9083 100.196 18.3 98.3791 18.3ZM98.3791 14.85C99.4124 14.85 100.346 14.6167 101.179 14.15C102.012 13.6667 102.662 13 103.129 12.15C103.612 11.3 103.854 10.3333 103.854 9.25001C103.854 8.16668 103.612 7.20001 103.129 6.35001C102.662 5.50001 102.012 4.84168 101.179 4.37501C100.346 3.89168 99.4124 3.65001 98.3791 3.65001C97.3457 3.65001 96.4124 3.89168 95.5791 4.37501C94.7457 4.84168 94.0874 5.50001 93.6041 6.35001C93.1374 7.20001 92.9041 8.16668 92.9041 9.25001C92.9041 10.3333 93.1374 11.3 93.6041 12.15C94.0874 13 94.7457 13.6667 95.5791 14.15C96.4124 14.6167 97.3457 14.85 98.3791 14.85Z" fill="white"/>
<path d="M118.148 18.3C115.648 18.3 113.698 17.6083 112.298 16.225C110.914 14.8417 110.223 12.8667 110.223 10.3V0.500011H114.273V10.15C114.273 13.2833 115.573 14.85 118.173 14.85C119.439 14.85 120.406 14.475 121.073 13.725C121.739 12.9583 122.073 11.7667 122.073 10.15V0.500011H126.073V10.3C126.073 12.8667 125.373 14.8417 123.973 16.225C122.589 17.6083 120.648 18.3 118.148 18.3Z" fill="white"/>
<path d="M140.6 18L137.225 13.125H137.025H133.5V18H129.45V0.500011H137.025C138.575 0.500011 139.917 0.758345 141.05 1.27501C142.2 1.79168 143.083 2.52501 143.7 3.47501C144.317 4.42501 144.625 5.55001 144.625 6.85001C144.625 8.15001 144.308 9.27501 143.675 10.225C143.058 11.1583 142.175 11.875 141.025 12.375L144.95 18H140.6ZM140.525 6.85001C140.525 5.86668 140.208 5.11668 139.575 4.60001C138.942 4.06668 138.017 3.80001 136.8 3.80001H133.5V9.90001H136.8C138.017 9.90001 138.942 9.63335 139.575 9.10001C140.208 8.56668 140.525 7.81668 140.525 6.85001Z" fill="white"/>
<path d="M166.514 8.90001C167.514 9.21668 168.297 9.75001 168.864 10.5C169.43 11.2333 169.714 12.1417 169.714 13.225C169.714 14.7583 169.114 15.9417 167.914 16.775C166.73 17.5917 164.997 18 162.714 18H153.664V0.500011H162.214C164.347 0.500011 165.98 0.908345 167.114 1.72501C168.264 2.54168 168.839 3.65001 168.839 5.05001C168.839 5.90001 168.63 6.65835 168.214 7.32501C167.814 7.99168 167.247 8.51668 166.514 8.90001ZM157.689 3.55001V7.67501H161.714C162.714 7.67501 163.472 7.50001 163.989 7.15001C164.505 6.80001 164.764 6.28335 164.764 5.60001C164.764 4.91668 164.505 4.40835 163.989 4.07501C163.472 3.72501 162.714 3.55001 161.714 3.55001H157.689ZM162.414 14.95C163.48 14.95 164.28 14.775 164.814 14.425C165.364 14.075 165.639 13.5333 165.639 12.8C165.639 11.35 164.564 10.625 162.414 10.625H157.689V14.95H162.414Z" fill="white"/>
<path d="M179.93 18.3C177.43 18.3 175.48 17.6083 174.08 16.225C172.697 14.8417 172.005 12.8667 172.005 10.3V0.500011H176.055V10.15C176.055 13.2833 177.355 14.85 179.955 14.85C181.222 14.85 182.188 14.475 182.855 13.725C183.522 12.9583 183.855 11.7667 183.855 10.15V0.500011H187.855V10.3C187.855 12.8667 187.155 14.8417 185.755 16.225C184.372 17.6083 182.43 18.3 179.93 18.3Z" fill="white"/>
<path d="M196.982 18.3C195.599 18.3 194.257 18.1167 192.957 17.75C191.674 17.3667 190.641 16.875 189.857 16.275L191.232 13.225C191.982 13.775 192.874 14.2167 193.907 14.55C194.941 14.8833 195.974 15.05 197.007 15.05C198.157 15.05 199.007 14.8833 199.557 14.55C200.107 14.2 200.382 13.7417 200.382 13.175C200.382 12.7583 200.216 12.4167 199.882 12.15C199.566 11.8667 199.149 11.6417 198.632 11.475C198.132 11.3083 197.449 11.125 196.582 10.925C195.249 10.6083 194.157 10.2917 193.307 9.97501C192.457 9.65835 191.724 9.15001 191.107 8.45001C190.507 7.75001 190.207 6.81668 190.207 5.65001C190.207 4.63335 190.482 3.71668 191.032 2.90001C191.582 2.06668 192.407 1.40834 193.507 0.925012C194.624 0.441679 195.982 0.200012 197.582 0.200012C198.699 0.200012 199.791 0.333345 200.857 0.600011C201.924 0.866679 202.857 1.25001 203.657 1.75001L202.407 4.82501C200.791 3.90835 199.174 3.45001 197.557 3.45001C196.424 3.45001 195.582 3.63335 195.032 4.00001C194.499 4.36668 194.232 4.85001 194.232 5.45001C194.232 6.05001 194.541 6.50001 195.157 6.80001C195.791 7.08334 196.749 7.36668 198.032 7.65001C199.366 7.96668 200.457 8.28335 201.307 8.60001C202.157 8.91668 202.882 9.41668 203.482 10.1C204.099 10.7833 204.407 11.7083 204.407 12.875C204.407 13.875 204.124 14.7917 203.557 15.625C203.007 16.4417 202.174 17.0917 201.057 17.575C199.941 18.0583 198.582 18.3 196.982 18.3Z" fill="white"/>
<path d="M212.3 18.3C210.916 18.3 209.575 18.1167 208.275 17.75C206.991 17.3667 205.958 16.875 205.175 16.275L206.55 13.225C207.3 13.775 208.191 14.2167 209.225 14.55C210.258 14.8833 211.291 15.05 212.325 15.05C213.475 15.05 214.325 14.8833 214.875 14.55C215.425 14.2 215.7 13.7417 215.7 13.175C215.7 12.7583 215.533 12.4167 215.2 12.15C214.883 11.8667 214.466 11.6417 213.95 11.475C213.45 11.3083 212.766 11.125 211.9 10.925C210.566 10.6083 209.475 10.2917 208.625 9.97501C207.775 9.65835 207.041 9.15001 206.425 8.45001C205.825 7.75001 205.525 6.81668 205.525 5.65001C205.525 4.63335 205.8 3.71668 206.35 2.90001C206.9 2.06668 207.725 1.40834 208.825 0.925012C209.941 0.441679 211.3 0.200012 212.9 0.200012C214.016 0.200012 215.108 0.333345 216.175 0.600011C217.241 0.866679 218.175 1.25001 218.975 1.75001L217.725 4.82501C216.108 3.90835 214.491 3.45001 212.875 3.45001C211.741 3.45001 210.9 3.63335 210.35 4.00001C209.816 4.36668 209.55 4.85001 209.55 5.45001C209.55 6.05001 209.858 6.50001 210.475 6.80001C211.108 7.08334 212.066 7.36668 213.35 7.65001C214.683 7.96668 215.775 8.28335 216.625 8.60001C217.475 8.91668 218.2 9.41668 218.8 10.1C219.416 10.7833 219.725 11.7083 219.725 12.875C219.725 13.875 219.441 14.7917 218.875 15.625C218.325 16.4417 217.491 17.0917 216.375 17.575C215.258 18.0583 213.9 18.3 212.3 18.3Z" fill="white"/>
<path d="M221.867 0.500011H225.917V18H221.867V0.500011Z" fill="white"/>
<path d="M245.495 0.500011V18H242.17L233.445 7.37501V18H229.445V0.500011H232.795L241.495 11.125V0.500011H245.495Z" fill="white"/>
<path d="M262.56 14.75V18H249.01V0.500011H262.235V3.75001H253.036V7.55001H261.16V10.7H253.036V14.75H262.56Z" fill="white"/>
<path d="M270.908 18.3C269.525 18.3 268.183 18.1167 266.883 17.75C265.6 17.3667 264.566 16.875 263.783 16.275L265.158 13.225C265.908 13.775 266.8 14.2167 267.833 14.55C268.866 14.8833 269.9 15.05 270.933 15.05C272.083 15.05 272.933 14.8833 273.483 14.55C274.033 14.2 274.308 13.7417 274.308 13.175C274.308 12.7583 274.141 12.4167 273.808 12.15C273.491 11.8667 273.075 11.6417 272.558 11.475C272.058 11.3083 271.375 11.125 270.508 10.925C269.175 10.6083 268.083 10.2917 267.233 9.97501C266.383 9.65835 265.65 9.15001 265.033 8.45001C264.433 7.75001 264.133 6.81668 264.133 5.65001C264.133 4.63335 264.408 3.71668 264.958 2.90001C265.508 2.06668 266.333 1.40834 267.433 0.925012C268.55 0.441679 269.908 0.200012 271.508 0.200012C272.625 0.200012 273.716 0.333345 274.783 0.600011C275.85 0.866679 276.783 1.25001 277.583 1.75001L276.333 4.82501C274.716 3.90835 273.1 3.45001 271.483 3.45001C270.35 3.45001 269.508 3.63335 268.958 4.00001C268.425 4.36668 268.158 4.85001 268.158 5.45001C268.158 6.05001 268.466 6.50001 269.083 6.80001C269.716 7.08334 270.675 7.36668 271.958 7.65001C273.291 7.96668 274.383 8.28335 275.233 8.60001C276.083 8.91668 276.808 9.41668 277.408 10.1C278.025 10.7833 278.333 11.7083 278.333 12.875C278.333 13.875 278.05 14.7917 277.483 15.625C276.933 16.4417 276.1 17.0917 274.983 17.575C273.866 18.0583 272.508 18.3 270.908 18.3Z" fill="white"/>
<path d="M286.225 18.3C284.842 18.3 283.5 18.1167 282.2 17.75C280.917 17.3667 279.884 16.875 279.1 16.275L280.475 13.225C281.225 13.775 282.117 14.2167 283.15 14.55C284.184 14.8833 285.217 15.05 286.25 15.05C287.4 15.05 288.25 14.8833 288.8 14.55C289.35 14.2 289.625 13.7417 289.625 13.175C289.625 12.7583 289.459 12.4167 289.125 12.15C288.809 11.8667 288.392 11.6417 287.875 11.475C287.375 11.3083 286.692 11.125 285.825 10.925C284.492 10.6083 283.4 10.2917 282.55 9.97501C281.7 9.65835 280.967 9.15001 280.35 8.45001C279.75 7.75001 279.45 6.81668 279.45 5.65001C279.45 4.63335 279.725 3.71668 280.275 2.90001C280.825 2.06668 281.65 1.40834 282.75 0.925012C283.867 0.441679 285.225 0.200012 286.825 0.200012C287.942 0.200012 289.034 0.333345 290.1 0.600011C291.167 0.866679 292.1 1.25001 292.9 1.75001L291.65 4.82501C290.034 3.90835 288.417 3.45001 286.8 3.45001C285.667 3.45001 284.825 3.63335 284.275 4.00001C283.742 4.36668 283.475 4.85001 283.475 5.45001C283.475 6.05001 283.784 6.50001 284.4 6.80001C285.034 7.08334 285.992 7.36668 287.275 7.65001C288.609 7.96668 289.7 8.28335 290.55 8.60001C291.4 8.91668 292.125 9.41668 292.725 10.1C293.342 10.7833 293.65 11.7083 293.65 12.875C293.65 13.875 293.367 14.7917 292.8 15.625C292.25 16.4417 291.417 17.0917 290.3 17.575C289.184 18.0583 287.825 18.3 286.225 18.3Z" fill="white"/>
</svg>
